<?xml version="1.0" encoding="utf-8"?>
<!-- Generator: Adobe Illustrator 27.3.1, SVG Export Plug-In . SVG Version: 6.00 Build 0)  -->
<svg version="1.1" id="Camada_1" xmlns="http://www.w3.org/2000/svg" xmlns:xlink="http://www.w3.org/1999/xlink" x="0px" y="0px"
	 viewBox="0 0 250 60" style="enable-background:new 0 0 250 60;" xml:space="preserve">
<style type="text/css">
	.st0{fill:#006AFF;}
</style>
<g>
	<path class="st0" d="M67.8,3v11.6h10.4V3H67.8z"/>
	<rect x="67.8" y="21.2" class="st0" width="10.4" height="37.4"/>
	<path class="st0" d="M193.7,3.9v53.3h-10.5V35.4l-18.5,20.8c-0.5,0.5-1.1,0.9-1.9,1.2c-0.8,0.3-1.7,0.4-2.6,0.4
		c-0.9,0-1.8-0.1-2.6-0.4c-0.8-0.3-1.4-0.7-1.9-1.2l-18.6-20.8V22.4l23,25.6l23-25.6V16l-18.5,20.8c-0.5,0.5-1.1,0.9-1.9,1.2
		c-0.8,0.3-1.7,0.4-2.6,0.4c-0.9,0-1.8-0.1-2.6-0.4c-0.8-0.3-1.4-0.7-1.9-1.2L137.1,16V3l23,25.6l23.7-26.4c0.6-0.6,1.5-1.1,2.6-1.4
		c1.1-0.3,2.2-0.3,3.4-0.1c1.1,0.2,2,0.6,2.8,1.2C193.3,2.5,193.7,3.2,193.7,3.9z"/>
	<path class="st0" d="M202.1,2.5c-0.7,0-1.4,0.1-2.1,0.4c-0.6,0.3-1.2,0.6-1.7,1.1c-0.5,0.5-0.8,1-1.1,1.6c-0.3,0.6-0.4,1.3-0.4,2v5
		h52.2V2.5H202.1z"/>
	<path class="st0" d="M249.1,48.1v10.1h-37.6c-1.4,0-3-0.2-4.7-0.7c-1.7-0.5-3.3-1.3-4.8-2.4c-1.5-1.1-2.7-2.6-3.6-4.4
		c-1-1.8-1.5-4-1.5-6.6V25.2h34.8v10.2h-24.4V44c0,1.3,0.4,2.3,1.1,3c0.7,0.7,1.8,1,3.2,1H249.1z"/>
	<path class="st0" d="M32.8,43.1l-7.3-14.4L12.6,3H0.9l27.2,53.7c0.5,0.8,1.1,1.5,1.9,2c0.8,0.5,1.8,0.8,2.8,0.8
		c1,0,1.9-0.2,2.8-0.8c0.8-0.5,1.5-1.2,1.9-2l1.1-2.2L32.8,43.1z"/>
	<path class="st0" d="M25.6,28.7L25.6,28.7l7.3,14.4L25.6,28.7z"/>
	<path class="st0" d="M131.1,0.6v51.3c0,0.7-0.1,1.4-0.4,2c-0.3,0.6-0.7,1.2-1.1,1.6c-0.5,0.4-1,0.8-1.7,1.1c-0.6,0.3-1.3,0.4-2,0.4
		c-0.6,0-1.3-0.1-1.9-0.3c-0.6-0.2-1.1-0.5-1.6-1c0,0-0.1-0.1-0.1-0.1l-38-38.4V2.9l2.4,2.4l34.1,34.4V0.6H131.1z"/>
	<polygon class="st0" points="83.8,24.5 83.8,36.2 95.3,36.2 	"/>
	<polygon class="st0" points="62.6,7.2 62.6,7.2 42.3,47.3 36.5,35.8 38.7,31.6 38.7,31.6 53.1,3 64.8,3 	"/>
</g>
</svg>
