<?xml version="1.0" encoding="utf-8"?>
<!-- Generator: Adobe Illustrator 27.3.1, SVG Export Plug-In . SVG Version: 6.00 Build 0)  -->
<svg version="1.1" id="Camada_1" xmlns="http://www.w3.org/2000/svg" xmlns:xlink="http://www.w3.org/1999/xlink" x="0px" y="0px"
	 viewBox="0 0 780 512" style="enable-background:new 0 0 780 512;" xml:space="preserve">
<style type="text/css">
	.st0{fill:#B55B9E;}
	.st1{fill:#914381;}
	.st2{fill:#52EFFF;}
	.st3{fill:#0074FF;}
	.st4{fill:#66420E;stroke:#000000;stroke-width:8;stroke-miterlimit:10;}
	.st5{fill:#492D09;stroke:#000000;stroke-width:8;stroke-miterlimit:10;}
	.st6{fill:#0057AD;stroke:#000000;stroke-width:8;stroke-miterlimit:10;}
	.st7{fill:#E6F0FF;stroke:#000000;stroke-width:8;stroke-miterlimit:10;}
	.st8{fill:#006AFF;stroke:#000000;stroke-width:8;stroke-miterlimit:10;}
	.st9{fill:#121F32;stroke:#000000;stroke-width:8;stroke-miterlimit:10;}
	.st10{fill:#D5DEEB;stroke:#000000;stroke-width:8;stroke-miterlimit:10;}
	.st11{fill:#0098FF;stroke:#000000;stroke-width:8;stroke-miterlimit:10;}
	.st12{fill:#1B2941;stroke:#000000;stroke-width:8;stroke-miterlimit:10;}
	.st13{fill:#060D16;stroke:#000000;stroke-width:8;stroke-miterlimit:10;}
	.st14{fill:#B1BCC4;stroke:#000000;stroke-width:8;stroke-miterlimit:10;}
	.st15{fill:#9CA7AF;stroke:#000000;stroke-width:8;stroke-miterlimit:10;}
	.st16{fill:#BEC9D3;stroke:#000000;stroke-width:8;stroke-miterlimit:10;}
	.st17{fill:#52EFFF;stroke:#000000;stroke-width:8;stroke-miterlimit:10;}
	.st18{fill:#0C1829;stroke:#000000;stroke-width:8;stroke-miterlimit:10;}
	.st19{fill:#ECF3FF;stroke:#000000;stroke-width:8;stroke-miterlimit:10;}
	.st20{fill:#66420E;}
	.st21{fill:#492D09;}
	.st22{fill:#0057AD;}
	.st23{fill:#E6F0FF;}
	.st24{fill:#006AFF;}
	.st25{fill:#121F32;}
	.st26{fill:#D5DEEB;}
	.st27{fill:#0098FF;}
	.st28{fill:#1B2941;}
	.st29{fill:#060D16;}
	.st30{fill:#B1BCC4;}
	.st31{fill:#9CA7AF;}
	.st32{fill:#BEC9D3;}
	.st33{fill:#0C1829;}
	.st34{fill:#ECF3FF;}
</style>
<polygon class="st0" points="780,211.7 780,511.6 0,511.6 0,314.5 172.7,291.8 210.6,286.8 210.7,286.7 269.1,279.1 269.1,279.1 
	288.2,276.5 535.6,243.9 535.6,243.9 543.2,242.9 543.2,242.9 571.7,239.2 571.7,239.2 591.7,236.5 615.9,233.3 "/>
<polygon class="st1" points="780,-0.4 780,211.7 0,314.5 0,-0.4 "/>
<path class="st2" d="M633,328H158.4c-13.8,0-25-11.2-25-25V99c0-13.8,11.2-25,25-25H633c13.8,0,25,11.2,25,25v204
	C658.1,316.8,646.9,328,633,328z"/>
<path class="st3" d="M276.8,223.7c-2.8-0.1-4.3-1.4-5.1-2.7c-0.8-1.3-1.3-2.8-1.1-4.2c0.3-3.1,1.6-6.1,1.7-9.1
	c0.1-3.7-0.4-7.4-3.8-10.7c-0.1-0.1-0.3-0.2-0.5-0.3c-2.1,0.2-3.8,0.7-4.6,2c-2.3,3.5-4.7,7-6.9,10.6c-0.9,1.4-2.1,2.6-4.4,3.3
	c-0.7,0.2-1.8,0.2-2.6,0.1c-0.4-0.1-0.8-0.7-0.7-1c0.3-1,0.8-2,1.5-2.9c0.9-1.3,2.2-2.6,3.1-3.9c1.3-1.8,2.4-3.7,3.5-5.6
	c0.4-0.7,0.5-1.4,0.8-2.1c0.3-0.8-0.2-1.5-1.5-1.5c-1.2-0.1-2.6,0.1-3.1,1c-0.6,1.1-1.1,2.2-1.8,3.3c-0.3,0.6-0.7,1.1-1.3,1.6
	c-1.2,0.9-3.2,0.7-4.2-0.3c-1.5-1.5-1.7-3.1-1.1-4.8c0.8-2.5,1.6-5,0.7-7.6c-0.2-0.6,0.6-1.3,1-2.3c-0.9-0.3-2.1-0.8-3.4-1.3
	c-1.5-0.5-1.6-1.1-0.4-1.8c0.7-0.4,1.3-0.8,2.1-1c2-0.7,2.2-2,1.7-3c-0.6-1.1-1.2-2.4-3.8-2.8c-4.1-0.6-8-0.7-11.6,0.9
	c-1.9,0.8-4,1.4-5.9,2.2c-2.8,1.2-6,1.8-9.3,2.1c-2.5,0.2-5.1,0.1-6.6-1.4c-0.5-0.5-0.7-1.3-0.6-1.9c0.2-1.5,2.7-3.2,5.2-3.6
	c5.5-0.9,10.9-1.8,16.3-2.8c1-0.2,2.1-0.9,2.6-1.5c0.9-1.1,1.6-2.2,2.1-3.4c0.5-1.1-0.6-1.5-2.3-1.6c-3.4-0.2-3.3-0.2-3.2-2.3
	c0.1-1.9-0.6-3.5-3.7-4.6c-5.1-1.8-10.1-3.6-15.9-4.6c-1.6-0.3-3.1-0.9-4.5-1.5c-0.6-0.3-0.9-1-0.8-1.5c0.1-0.6,0.8-1.2,2.1-1
	c2.9,0.3,6,0.6,8.8,1.1c3.3,0.6,6.4,1.6,9.6,2.4c2.1,0.5,6.3-0.3,7.6-1.4c1.5-1.3,2.8-2.6,4.4-4c1.4,0.3,3.1,0.6,4.8,0.9
	c0.7,0.1,1.8,0.2,2,0c0.4-0.3,0.5-0.9,0.4-1.3c-0.6-2.9-2.9-5.2-6.2-7.5c-3.7-2.5-7-5.3-10.1-8.1c-2.6-2.4-6-4.4-9.9-5.9
	c-4.5-1.8-8.2-4-11.7-6.4c-0.8-0.6-1.9-1-3-1.3c-1.5-0.5-3.2-0.8-4.7-1.3c-2.5-0.8-3.3-2.4-4.1-3.8c-1.1-2-3.1-3.5-5.9-4.8
	c-2.1-1-3.9-2.1-5.7-3.3c-1.7-1-2.2-3.9,0.8-4.7c1.4-0.4,4.1-0.3,5.3,0.5c3.7,2.3,7.2,4.6,10.9,6.8c1.3,0.8,2.9,1.7,4.6,1.9
	c4.1,0.6,6.1,2.5,7.8,4.4c1.3,1.5,2.7,2.7,4.7,3.8c2.1,1.2,4.2,2.4,4.9,4.2c1.1,2.7,3.5,4.9,7,6.7c1.5,0.8,3,1.7,4.3,2.7
	c4.7,3.6,10.8,6.1,17.1,8.6c3.3,1.3,8,1,10.5-0.8c1.2-0.9,1.3-1.8,0.6-2.8c-2.5-3.7-5-7.5-7.4-11.2c-0.4-0.6-1.4-1.4,0.2-1.8
	c1.5-0.3,2,0.6,2.5,1.2c0.8,1,1.3,2.1,2.2,3c0.8,0.8,1.8,1.6,3,2.2c2.2,1.3,4.5,2.4,6.8,3.6c0.7,0.4,1.5,0.6,2.6,1.1
	c0.2-0.6,0.4-1,0.4-1.4c0-0.8-0.2-1.6-0.2-2.4c0.1-1.7,0.2-3.4,0.5-5.1c0.3-1.8-0.2-3.6-1.1-5.3c-0.9-1.6-1.8-3.3-2.4-5
	c-0.2-0.5,0-1.2,0.4-1.7c1.1-1.4,3-1.5,4.6-0.3c2,1.6,2.9,3.6,2.6,5.5c-0.4,2.5,0.3,4.9,1.4,7.3c1,2.2,2.6,4.4,4.1,6.6
	c0.8,1.1,2.3,1.4,4,0.7c2.1-0.9,4.1-1.9,5.9-3c1.5-0.9,2.8-2.1,4.1-3.2c0.8-0.6,1.7-1,3.1-0.7c2.8,0.6,3.8,0.3,4.9-1.3
	c2.5-3.4,4.1-7,4.5-10.8c0.1-0.4,0.3-1,0.7-1.2c0.6-0.3,1.6-0.6,2.4-0.6c0.4,0,1.1,0.8,1.1,1.2c-0.4,2.5-0.8,4.9-1.6,7.4
	c-0.9,2.9-3.4,5.3-6,7.8c-0.9,0.8-1.3,1.8-1.6,2.8c-0.3,1,1.1,1.6,2.4,1.8c1.8,0.3,3.8,0.7,5.5-0.2c2.3-1.3,3.7-2.8,4.2-4.7
	c0.4-1.3,1.6-1.7,3.6-1.8c1.3,0,2.6-0.1,3.8,0.1c1.5,0.2,1.7,0.8,0.5,1.5c-0.8,0.5-1.8,0.9-2.6,1.4c-2.6,1.6-2.9,3.6-3.3,5.6
	c-0.6,2.5-0.7,5-1.1,7.6c-0.4,2.4,1.2,3,4.6,2.8c1.7-0.1,3.3-0.4,4.9-0.7c2.4-0.5,2.9-1.4,2.1-2.9c-0.3-0.5-0.5-1-0.6-1.4
	c0-0.2,0.2-0.6,0.5-0.6c0.3-0.1,0.9,0.1,1.1,0.3c2.3,2.2,3.9,2.1,7,0c4.3-2.9,9.9-4.5,15.7-5.9c7.5-1.9,14.2-4.6,20.2-7.9
	c2.7-1.5,6-2.8,9.5-3.7c8.1-2,15.5-4.7,22.1-8.1c7.2-3.7,15.2-6.7,23.6-9.4c5.9-1.9,11-4.3,15.5-7.1c0.9-0.6,2.1-1,3.3-1.4
	c2.1-0.6,3.2-0.4,4.1,0.6c0.9,1,0.3,2.1-1.4,2.8c-1.6,0.6-3.4,1.1-5,1.8c-5.7,2.4-11.4,4.9-17,7.4c-7.3,3.3-14.4,6.8-21.8,10
	c-2.7,1.2-6,1.9-9.2,2.7c-5.7,1.3-11.1,2.9-16.2,4.9c-1.3,0.5-2.3,1-0.6,1.8c0.2,0.1,0.5,0.5,0.3,0.6c-0.2,0.2-0.7,0.3-1.1,0.3
	c-0.4,0-0.9,0-1.1-0.1c-3-2-5.5-0.2-7.6,0.6c-13,4.8-24.6,10.7-36.2,16.7c-2.3,1.2-4.8,2-7.7,2.5c-1.8,0.3-3.5,1-5,1.7
	c-0.7,0.3-1.4,1.3-1.1,1.6c0.9,0.7,2.2,1.3,3.5,1.6c2.6,0.6,5.2,1.1,7.9,1.3c2.2,0.2,4.6-0.1,6.8-0.3c1.7-0.1,3.3-0.5,5.1-0.7
	c0.5,0,1.1,0.3,1.7,0.5c-0.5,0.2-0.9,0.6-1.4,0.7c-1.2,0.4-2.5,0.6-3.8,0.9c0,0.2,0,0.3,0,0.5c1.4,0.2,2.7,0.5,4.1,0.5
	c1.9,0.1,3.7,0,5.6,0c1.7,0,3.1,0.2,4.5,0.7c1.5,0.6,2.7,1.3,2,2.2c-0.6,0.6-2.5,1.2-3.8,1.2c-2.5-0.1-5-0.6-7.5-1
	c-0.9-0.1-1.7-0.3-2.6-0.5c-1.6-0.2-3.3,0.4-3.9,1.3c-0.3,0.6-0.8,1.1-1,1.7c-0.4,1.1-0.6,2.2,1.4,2.9c0.5,0.2,0.9,0.9,0.8,1.3
	c-0.3,1.4,0.5,2.4,2.6,3.1c0.8,0.3,1.5,0.6,2.1,1c4.5,2.8,10.9,3.3,16.5,4.9c5.4,1.5,10.8,1.6,16.4,1c3.2-0.3,6.2,0.1,9.1,1.2
	c3.6,1.3,7.2,2.5,10.9,3.7c1.9,0.6,2.3,1.6,2.1,2.6c-0.1,1-0.9,1.8-3,2.2c-3.7,0.6-6.9-0.2-10.3-0.6c-5.2-0.6-10.3-1.5-14.6-3.5
	c-4.1-1.9-9-2.6-13.9-3.3c-5.6-0.8-11.2-1.6-17-1.4c-1.1,0-2.2,0.3-3.2,0.6c-1.9,0.5-3.5,1.5-5.9,1.3c-0.3,0-0.7,0.1-1,0.3
	c-3.4,1.9-5.3,4.3-5.6,7.1c-0.1,0.9,0.5,1.6,1.4,2.3c4.3,3.2,8.5,6.4,12.6,9.6c0.8,0.6,1,1.5,1.1,2.3c0.1,0.4-0.8,1.2-1.1,1.2
	c-1.3,0-3-0.1-3.9-0.6c-1.6-0.8-3.1-1.9-3.9-3c-2.1-3.1-5.9-5.5-10.2-7.5c-3.9-1.8-7.9-3.6-11.9-5.3c-2.7-1.1-5.6-1.6-9.2-1.4
	c-6.5,0.5-11.1,2.7-15.5,5.2c-1.2,0.7-2.2,1.4-3.4,2.1c-4.7,2.6-4.5,5.8-3.2,9.1c0.7,1.9,2.6,3.5,4.7,4.9c0.9,0.6,1.7,1.3,2.6,2
	c2.4,1.8,3.7,3.9,3.8,6.1c0.1,1.2-0.7,2.5-1.3,3.8c-0.4,0.8-1.1,1.5-1.8,2.2c-1.5,1.5-4,2.1-6.8,2.4
	C277.6,223.7,277.2,223.7,276.8,223.7z"/>
<path class="st3" d="M473,153c-0.9,0.7-1.7,1.6-2.9,2c-0.9,0.3-2.7,0.4-3.5,0c-0.8-0.3-1.4-1.3-1.2-2c0.2-0.7,1-1.5,2-2
	c2-1.1,3.8-0.9,5.7,0.5C473,152.1,473,152.6,473,153z"/>
<path class="st3" d="M162.8,172.1c1-0.5,1.9-1.2,3.1-1.6c1.4-0.4,2.2,0.2,2,1c-0.4,1.4-3,2.2-5.1,1.5
	C162.8,172.7,162.8,172.4,162.8,172.1z"/>
<path class="st3" d="M215.3,198.8c0,3.1-3.7,5.5-8.4,5.5c-4.4,0-8-2.3-8.1-5.1c0-3,3.7-5.5,8.3-5.6
	C211.6,193.6,215.2,195.9,215.3,198.8z"/>
<path class="st3" d="M246.3,120.4c2.2,0.4,3.4,1.4,4.1,2.5c1.2,1.8,1.9,3.8,3,5.7c0.4,0.8,1.2,1.5,1.6,2.3c0.2,0.4,0,0.8,0,1.2
	c-0.7-0.1-1.8-0.2-2.1-0.5c-1.1-1-2.1-2.1-2.9-3.2c-1.6-2.2-3.1-4.4-4.7-6.7C244.8,121.1,244.9,120.6,246.3,120.4z"/>
<path class="st3" d="M186.9,89.7c3.3,0.5,9,5.2,8.7,7.1C192.4,96.4,186.3,91.5,186.9,89.7z"/>
<path class="st3" d="M225.1,115.3c0.4-0.1,1.1-0.5,1.7-0.4c2.1,0.1,5.4,2.3,5.6,3.6c0.1,0.7-0.5,1.1-1.7,1
	C228.4,119.3,225,117,225.1,115.3z"/>
<path class="st3" d="M176.4,142.1c0.1-1,1.7-1.8,3.4-1.7c1.6,0.1,2.8,1,2.7,2c-0.1,1-1.5,1.8-3.2,1.7
	C177.7,144.1,176.3,143.2,176.4,142.1z"/>
<path class="st3" d="M184.8,205.6c-0.5-0.1-1.4,0-2-0.2c-0.8-0.3-1.4-0.8-2-1.2c0.7-0.3,1.4-0.8,2.2-0.9c1.2-0.1,2.6,0,3.7,0.2
	c0.7,0.2,1.1,0.8,1.7,1.2c-0.7,0.3-1.3,0.6-2.1,0.9C186,205.6,185.5,205.6,184.8,205.6z"/>
<path class="st3" d="M233.7,179.4c0.6-0.5,0.8-1,1.3-1.1c1.9-0.6,3.9-1.1,6-1.5c0.4-0.1,1.1,0.2,1.7,0.3c-0.3,0.3-0.4,0.6-0.8,0.8
	C239.7,179,237.2,179.7,233.7,179.4z"/>
<path class="st3" d="M331.3,121.3c0,0.9-1.6,2.3-3.1,2.6c-1.2,0.3-2,0-1.8-0.8c0.2-1.1,1.4-2,3.1-2.5
	C330.5,120.3,331.2,120.6,331.3,121.3z"/>
<path class="st3" d="M213.9,108.6c-0.4,0.1-1.2,0.4-1.6,0.3c-1.7-0.4-2.6-1.2-2.9-2.2c-0.2-0.6,0.5-0.9,1.6-0.8
	C212.2,106.1,214,107.5,213.9,108.6z"/>
<path class="st3" d="M333.5,193c1.8,0,3.6,1.2,3.3,1.9c-0.1,0.3-0.7,0.6-1.2,0.7c-1.2,0.1-3.1-1.1-2.9-1.8
	C332.8,193.4,333.4,193.1,333.5,193z"/>
<path class="st3" d="M524,137.2c2.8-0.4,4.6,0.4,5.7,1.6c1.1,1.1,2,2.5,2.2,3.9c0.5,3,0.1,6.2,0.8,9.2c0.9,3.6,2.4,7.1,6.5,9.7
	c0.2,0.1,0.4,0.2,0.6,0.2c2-0.6,3.5-1.5,3.9-2.9c1.3-3.9,2.7-7.8,3.9-11.7c0.5-1.6,1.4-3,3.3-4.1c0.6-0.4,1.7-0.6,2.5-0.6
	c0.4,0,1,0.5,1,0.8c-0.1,1-0.3,2.1-0.7,3.1c-0.6,1.5-1.4,3-2,4.4c-0.7,2-1.4,4.1-1.9,6.2c-0.2,0.7-0.1,1.5-0.2,2.2
	c-0.1,0.8,0.6,1.4,1.9,1.2c1.2-0.2,2.5-0.7,2.7-1.6c0.3-1.2,0.5-2.4,0.9-3.5c0.2-0.6,0.4-1.3,0.9-1.8c0.9-1.1,2.9-1.4,4.1-0.6
	c1.8,1.2,2.5,2.7,2.4,4.4c-0.1,2.6-0.2,5.2,1.3,7.6c0.4,0.6-0.2,1.4-0.4,2.4c1,0.1,2.3,0.4,3.6,0.5c1.6,0.2,1.9,0.7,0.8,1.6
	c-0.5,0.5-1.1,1-1.7,1.4c-1.8,1.1-1.6,2.4-0.8,3.3c0.8,1,1.8,2.1,4.4,1.9c4.2-0.3,7.9-1,11-3.2c1.6-1.2,3.5-2.2,5.1-3.4
	c2.4-1.8,5.3-3,8.5-3.9c2.4-0.7,5-1.1,6.8,0c0.7,0.4,1,1.1,1.1,1.8c0.2,1.5-1.8,3.6-4.1,4.5c-5.1,2-10.2,4-15.1,6.1
	c-1,0.4-1.8,1.3-2.1,2c-0.6,1.2-0.9,2.5-1.2,3.7c-0.2,1.2,1,1.3,2.6,1c3.3-0.5,3.3-0.5,3.7,1.5c0.4,1.8,1.5,3.3,4.8,3.7
	c5.4,0.7,10.8,1.5,16.7,1.2c1.6-0.1,3.3,0.2,4.7,0.6c0.6,0.2,1.1,0.8,1.2,1.3c0,0.6-0.5,1.3-1.8,1.4c-3,0.3-5.9,0.7-8.8,0.7
	c-3.4,0-6.7-0.3-10-0.3c-2.2,0-6,1.6-7,2.9c-1.1,1.5-2,3.1-3.2,4.8c-1.5,0-3.2,0-4.9,0.1c-0.7,0-1.8,0.1-2,0.4
	c-0.3,0.4-0.3,1-0.1,1.4c1.4,2.7,4.2,4.5,8,6c4.3,1.7,8.3,3.7,12,5.8c3.2,1.8,7,3,11.2,3.7c4.9,0.8,9.1,2.2,13.1,3.9
	c0.9,0.4,2.1,0.6,3.3,0.7c1.6,0.2,3.4,0.1,5,0.3c2.6,0.3,3.8,1.6,5,2.8c1.6,1.8,4,2.8,7,3.5c2.3,0.5,4.4,1.3,6.4,2
	c1.9,0.7,3.2,3.3,0.5,4.7c-1.3,0.6-3.9,1.1-5.3,0.6c-4.2-1.4-8.2-3-12.4-4.4c-1.5-0.5-3.3-1-5-0.9c-4.2,0.2-6.6-1.2-8.8-2.7
	c-1.6-1.2-3.3-2.1-5.6-2.8c-2.4-0.7-4.7-1.5-5.9-3.1c-1.8-2.4-4.7-4-8.6-5.1c-1.7-0.5-3.4-1-4.9-1.7c-5.5-2.5-12.2-3.7-18.9-4.8
	c-3.5-0.6-8,0.7-10,2.9c-1,1.1-0.8,2,0.1,2.8c3.4,3.1,6.8,6.2,10.2,9.4c0.5,0.5,1.7,1.1,0.3,1.8c-1.4,0.6-2.1-0.2-2.8-0.7
	c-1.1-0.8-1.8-1.8-2.9-2.5c-1-0.6-2.2-1.1-3.5-1.6c-2.4-0.8-5-1.4-7.5-2.1c-0.8-0.2-1.7-0.3-2.8-0.5c0,0.7-0.1,1.1,0,1.5
	c0.2,0.8,0.6,1.5,0.8,2.3c0.4,1.7,0.7,3.4,0.9,5.1c0.2,1.9,1.2,3.4,2.5,4.9c1.3,1.4,2.6,2.8,3.7,4.3c0.4,0.5,0.3,1.2,0.1,1.8
	c-0.7,1.6-2.5,2.1-4.4,1.2c-2.4-1.2-3.8-2.9-4-4.8c-0.3-2.5-1.6-4.7-3.3-6.8c-1.6-2-3.7-3.7-5.8-5.5c-1-0.9-2.6-0.9-4.1,0.1
	c-1.8,1.3-3.5,2.7-4.9,4.1c-1.3,1.2-2.1,2.6-3.1,3.9c-0.6,0.8-1.4,1.3-2.9,1.3c-2.9,0-3.8,0.5-4.4,2.3c-1.5,3.9-2.1,7.7-1.5,11.4
	c0.1,0.4,0,1-0.4,1.4c-0.5,0.5-1.4,0.9-2.2,1.1c-0.4,0.1-1.3-0.5-1.3-0.9c-0.3-2.5-0.5-5-0.4-7.5c0.1-3,1.8-5.9,3.8-8.8
	c0.6-1,0.8-2.1,0.8-3.1c0-1-1.5-1.3-2.8-1.3c-1.8,0.1-3.8,0.1-5.3,1.4c-1.9,1.7-2.9,3.5-2.9,5.4c0,1.3-1.1,2-3,2.4
	c-1.2,0.3-2.5,0.7-3.7,0.7c-1.5,0.1-1.8-0.5-0.9-1.4c0.7-0.6,1.5-1.2,2.1-1.9c2.1-2,1.8-4.1,1.7-6.1c-0.1-2.5-0.7-5-1-7.6
	c-0.3-2.4-2-2.7-5.2-1.8c-1.6,0.4-3.1,1-4.5,1.7c-2.2,1-2.4,2-1.2,3.2c0.4,0.4,0.7,0.8,0.9,1.3c0.1,0.2-0.1,0.6-0.3,0.7
	c-0.3,0.1-0.9,0.1-1.1,0c-2.8-1.7-4.3-1.2-6.8,1.4c-3.4,3.7-8.5,6.4-13.6,9c-6.8,3.4-12.6,7.4-17.5,11.9c-2.2,2-5.1,4-8.2,5.5
	c-7.4,3.6-13.8,7.7-19.3,12.5c-6,5.1-13,9.6-20.4,14c-5.2,3-9.5,6.4-13.2,10.1c-0.7,0.7-1.7,1.4-2.8,2c-1.9,1-3,1-4.1,0.3
	c-1.1-0.8-0.9-2,0.6-3c1.4-0.9,3-1.8,4.3-2.8c4.9-3.5,9.8-7.1,14.5-10.7c6.2-4.7,12.1-9.5,18.5-14.2c2.3-1.7,5.3-3.1,8.2-4.5
	c5.2-2.4,10-5.1,14.4-8.1c1.2-0.8,1.9-1.4,0.1-1.9c-0.3-0.1-0.6-0.4-0.5-0.5c0.2-0.2,0.6-0.4,1-0.5c0.3-0.1,0.9-0.2,1.1-0.1
	c3.4,1.3,5.4-0.9,7.2-2.1c11.4-7.4,21.1-15.5,30.7-23.6c1.9-1.6,4.1-2.9,6.8-4c1.7-0.7,3.1-1.7,4.4-2.7c0.6-0.5,1-1.6,0.6-1.7
	c-1.1-0.5-2.5-0.8-3.9-0.9c-2.6,0-5.4,0-8.1,0.4c-2.2,0.3-4.4,1-6.6,1.7c-1.6,0.5-3.1,1.2-4.7,1.7c-0.5,0.2-1.2-0.1-1.8-0.1
	c0.4-0.3,0.7-0.7,1.2-1c1.1-0.6,2.3-1.1,3.5-1.7c-0.1-0.2-0.1-0.3-0.2-0.5c-1.4,0.1-2.8,0.1-4.1,0.3c-1.8,0.3-3.6,0.8-5.4,1.2
	c-1.6,0.4-3,0.4-4.6,0.2c-1.6-0.2-3-0.8-2.5-1.7c0.4-0.7,2.1-1.7,3.4-1.9c2.5-0.4,5-0.4,7.6-0.6c0.9-0.1,1.8,0,2.6-0.1
	c1.6-0.1,3.2-1,3.4-2.1c0.2-0.6,0.4-1.3,0.5-1.9c0.1-1.2,0-2.2-2.2-2.6c-0.6-0.1-1.1-0.7-1.1-1.1c-0.1-1.5-1.2-2.2-3.3-2.5
	c-0.8-0.1-1.6-0.3-2.3-0.6c-5.1-1.8-11.5-1-17.3-1.3c-5.6-0.3-10.9,0.7-16.2,2.4c-3,1-6.1,1.1-9.1,0.7c-3.8-0.5-7.7-1-11.6-1.3
	c-2-0.2-2.6-1.1-2.8-2.1c-0.1-1,0.4-1.9,2.3-2.7c3.4-1.4,6.8-1.2,10.1-1.5c5.2-0.5,10.4-0.7,15.1,0.4c4.5,1,9.5,0.7,14.4,0.3
	c5.6-0.4,11.3-0.8,16.9-2.2c1.1-0.3,2.1-0.7,3-1.2c1.7-0.9,3-2.1,5.4-2.5c0.3,0,0.7-0.3,0.9-0.5c2.8-2.6,4-5.2,3.5-8
	c-0.2-0.9-0.9-1.4-2-1.9c-5-2.2-10-4.4-14.8-6.8c-0.9-0.4-1.4-1.3-1.7-2.1c-0.2-0.4,0.4-1.3,0.8-1.4c1.3-0.3,3-0.5,4-0.3
	c1.8,0.5,3.5,1.2,4.6,2.2c2.9,2.6,7.2,4.1,12,5.2c4.3,1,8.6,1.9,13,2.7c2.9,0.5,5.9,0.4,9.3-0.6c6.2-1.8,10.1-4.9,13.6-8.2
	c0.9-0.9,1.7-1.8,2.7-2.7c3.8-3.5,2.8-6.6,0.7-9.5c-1.2-1.7-3.5-2.8-5.9-3.8c-1.1-0.4-2-1-3-1.4c-2.8-1.3-4.6-3-5.3-5.2
	c-0.4-1.2,0-2.6,0.2-3.9c0.2-0.8,0.6-1.7,1.1-2.5c1.1-1.8,3.4-2.9,6-3.7C523.2,137.4,523.6,137.3,524,137.2z"/>
<path class="st3" d="M352.2,246.2c0.7-0.9,1.2-1.9,2.3-2.6c0.8-0.5,2.5-0.9,3.4-0.8c0.9,0.2,1.7,1,1.7,1.7c0,0.7-0.6,1.7-1.4,2.4
	c-1.6,1.5-3.5,1.6-5.6,0.7C352.5,247.1,352.3,246.7,352.2,246.2z"/>
<path class="st3" d="M648.6,163.9c-0.8,0.7-1.5,1.6-2.6,2.2c-1.2,0.7-2.2,0.3-2.2-0.6c0-1.4,2.4-2.7,4.5-2.5
	C648.5,163.3,648.5,163.6,648.6,163.9z"/>
<path class="st3" d="M590.5,148.7c-0.9-3,2.1-6.1,6.7-7.1c4.3-0.9,8.4,0.6,9.2,3.3c0.9,2.9-2.1,6.1-6.6,7.1
	C595.4,153.1,591.3,151.5,590.5,148.7z"/>
<path class="st3" d="M581.4,231.3c-2.3,0.1-3.7-0.6-4.6-1.6c-1.6-1.6-2.9-3.3-4.4-4.9c-0.6-0.7-1.6-1.2-2.2-1.9
	c-0.3-0.3-0.2-0.8-0.4-1.2c0.7,0,1.8-0.2,2.2,0c1.4,0.8,2.6,1.6,3.7,2.5c2.2,1.8,4.2,3.7,6.3,5.5
	C582.6,230.4,582.7,230.9,581.4,231.3z"/>
<path class="st3" d="M647.3,249c-3.3,0.2-10.1-3.2-10.4-5.1C640.2,243.5,647.4,247.1,647.3,249z"/>
<path class="st3" d="M603.3,231.9c-0.4,0.2-0.9,0.7-1.6,0.8c-2.1,0.3-5.9-1.1-6.4-2.4c-0.3-0.7,0.2-1.1,1.4-1.3
	C599,228.8,602.9,230.3,603.3,231.9z"/>
<path class="st3" d="M643.4,195.8c0.2,1-1.2,2.1-2.9,2.4c-1.6,0.2-3-0.4-3.2-1.4c-0.2-1,1-2.1,2.6-2.3
	C641.7,194.2,643.3,194.8,643.4,195.8z"/>
<path class="st3" d="M618.3,135.9c0.5-0.1,1.3-0.3,2-0.2c0.8,0.1,1.5,0.5,2.3,0.7c-0.6,0.5-1.1,1.1-1.9,1.3
	c-1.1,0.4-2.5,0.6-3.7,0.6c-0.7,0-1.3-0.5-2-0.8c0.6-0.4,1.1-0.9,1.8-1.3C617.1,136.1,617.6,136.1,618.3,135.9z"/>
<path class="st3" d="M577.7,171.4c-0.4,0.6-0.6,1.1-1,1.4c-1.7,0.9-3.5,1.8-5.4,2.7c-0.4,0.2-1.1,0.1-1.7,0.1c0.2-0.3,0.2-0.7,0.6-1
	C572.1,173,574.2,171.8,577.7,171.4z"/>
<path class="st3" d="M498.5,247.9c-0.3-0.9,0.9-2.5,2.3-3.2c1.1-0.5,1.9-0.4,2,0.4c0.1,1.2-0.8,2.2-2.3,3
	C499.5,248.7,498.7,248.6,498.5,247.9z"/>
<path class="st3" d="M616,236.2c0.4-0.2,1-0.7,1.5-0.6c1.7,0,2.9,0.6,3.4,1.6c0.3,0.6-0.3,1-1.3,1.1
	C618.3,238.3,616.2,237.2,616,236.2z"/>
<path class="st3" d="M477,178.7c-1.7,0.3-3.8-0.4-3.7-1.2c0-0.3,0.5-0.8,1-0.9c1.1-0.3,3.3,0.4,3.3,1.2
	C477.7,178.1,477.2,178.5,477,178.7z"/>
<g>
	<g>
		<g>
			<path class="st4" d="M609.5,305.8c-2.2,6-70.3-85.5-67.2-93.2c0,0,3-3.9,9.6-6.6c3.6-1.5,8.3-2.7,14.2-2.7
				c15.3,0,41.7,83.6,43.5,100C609.7,304.5,609.7,305.4,609.5,305.8z"/>
			<path class="st5" d="M609.6,303.3c-15-28.7-45.5-77.8-57.6-97.3c3.6-1.5,8.3-2.7,14.2-2.7C581.3,203.3,607.7,286.9,609.6,303.3z"
				/>
		</g>
		<path class="st6" d="M598.7,384.3c0,0-4.6-5.1-8.7-10.6c1.1,0,2.1,0.1,3,0.1C596.1,380.3,598.7,384.3,598.7,384.3z"/>
		<rect x="235.2" y="506.1" class="st7" width="0" height="0"/>
		<path class="st8" d="M216.4,343c0,0,0.5,6.4,5.4,8.5c3.4,1.5,11.8,1.7,16.6,1.8c5.3-6.9,11.7-17.7,11.9-31.5c0-1.5,0-3.6-0.5-7.8
			c-0.9-8-3-19.1-7.9-32.9l0-0.1c0,0-0.4,0-1.2,0c-3.7,0-14.7,0-18.8,1.8c-4.9,2.1-5.4,8.5-5.4,8.5s0.4,0,1,0
			c3.7,0.1,16.2,1.1,15.8,11.8v28.2c0.1,4.1-1.6,6.8-4.1,8.5c-3.9,2.8-9.6,3.2-11.8,3.3c0,0-0.1,0-0.1,0
			C216.7,343,216.4,343,216.4,343z"/>
		<path class="st9" d="M217.3,343c2.2,0,7.9-0.4,11.8-3.3c2.4-1.7,4.2-4.4,4.1-8.5V303c0.3-10.7-12.1-11.7-15.8-11.8
			C217.2,291.8,208,317.2,217.3,343z"/>
		<g>
			<g>
				<path class="st7" d="M490.9,320.3c0,0.1-0.6,1.5-2,3.8C489.5,322.8,490.2,321.6,490.9,320.3z"/>
			</g>
			<path class="st7" d="M279.5,323.6C279.5,323.7,279.5,323.7,279.5,323.6C279.5,323.7,279.5,323.7,279.5,323.6
				C279.5,323.7,279.5,323.7,279.5,323.6z M279.5,323.5c-0.5-1-1-1.9-1.6-2.9c0,0,0,0,0,0c0,0,0-0.1,0-0.1c0,0,0-0.1,0-0.1
				c0,0,0,0,0,0v0c0,0,0,0,0,0l0,0c0,0,0,0,0,0c0,0,0,0,0,0c0,0,0,0,0,0c0,0,0,0.1,0.1,0.1v0c0,0,0,0.1,0.1,0.1c0,0,0,0,0,0
				c0,0,0,0.1,0.1,0.1c0,0,0,0,0,0v0c0,0.1,0.1,0.1,0.1,0.2l0,0c0,0,0,0.1,0.1,0.1c0,0,0,0.1,0,0.1l0,0c0,0.1,0.1,0.2,0.1,0.2
				c0,0.1,0.1,0.2,0.1,0.2c0,0,0,0,0,0c0.1,0.1,0.1,0.2,0.1,0.3c0,0.1,0.1,0.2,0.1,0.2c0,0,0,0,0,0c0,0,0,0,0,0
				c0,0.1,0.1,0.1,0.1,0.2c0.1,0.2,0.2,0.3,0.3,0.5c0.1,0.1,0.1,0.2,0.2,0.3C279.4,323.4,279.4,323.5,279.5,323.5
				C279.4,323.5,279.4,323.5,279.5,323.5c0,0.1,0,0.1,0.1,0.1c0,0,0,0,0,0C279.5,323.6,279.5,323.6,279.5,323.5z"/>
			<path class="st7" d="M531,354.2c-47.6,69.2-138.4,77.1-146.3,77.6c-0.1,0-0.6,0-0.6,0c-5.1-0.4-47.9-4-89.9-27.4l0,0
				c-11.6-6.5-23.2-14.5-33.9-24.4c-8.1-7.5-15.7-16.1-22.5-25.9c0.2-0.3,0.5-0.6,0.7-0.9c5.3-6.9,11.7-17.7,11.9-31.5
				c0-1.6,0-3.6-0.5-7.8c-0.9-8-3-19.2-8-33c-0.6-1.7-1.2-3.4-1.9-5.2c1.4,1.1,2.8,2.3,4.3,3.6c10.7,9.3,23.5,22.7,33.5,40.8
				c0,0,0,0,0,0c0,0,0,0,0,0.1v0c0,0,0,0,0-0.1c0,0,0,0,0,0c0,0,0,0,0,0.1c0,0.1,0.1,0.1,0.1,0.2c0,0.1,0.1,0.2,0.1,0.3
				c0.1,0.1,0.1,0.2,0.2,0.4c0.3,0.6,0.7,1.4,1.4,2.4c0-0.1-0.1-0.1-0.1-0.2c0,0.1,0.1,0.1,0.1,0.2c0,0,0,0,0,0
				c2.5,4,8,11,18.9,17.9c15.5,9.8,41.9,19.2,86.1,19.2c74.3,0,98-26.6,104.3-36.7c1.4-2.3,2-3.7,2-3.8c0,0,0,0,0,0
				c0.5-1,1.1-2,1.7-2.9c0.2-0.3,0.4-0.6,0.5-0.9c0.4-0.7,0.8-1.3,1.2-1.9c0.2-0.3,0.4-0.6,0.6-0.9c0.5-0.8,1-1.6,1.5-2.3
				c0.2-0.3,0.4-0.6,0.6-0.9c0.1-0.1,0.2-0.2,0.2-0.4c0.2-0.3,0.4-0.6,0.6-0.8c1.1-1.6,2.3-3.2,3.4-4.8c0.3-0.4,0.6-0.7,0.8-1.1
				c0.7-0.9,1.4-1.8,2.1-2.8c0.3-0.4,0.7-0.8,1-1.2c0.3-0.4,0.7-0.8,1-1.3c1.4-1.6,2.7-3.2,4.1-4.7c4.3-4.8,8.6-8.9,12.7-12.5
				c2-1.8,3.9-3.4,5.8-4.9c-0.7,1.8-1.4,3.5-2,5.3c-4.9,13.8-7,25-7.9,32.9c-0.5,4.1-0.5,6.2-0.5,7.8c0.2,13.8,6.6,24.6,11.9,31.5
				C530.5,353.6,530.7,353.9,531,354.2z"/>
		</g>
		<path class="st7" d="M279.5,323.7c-1.3-2.1-1.8-3.3-1.8-3.4c0,0,0,0.1,0.1,0.1c0,0,0,0,0,0c0.2,0.4,0.6,1.5,1.7,3.1
			C279.5,323.6,279.5,323.7,279.5,323.7z"/>
		<path class="st10" d="M524.7,269.7c0,0-0.9,0.8-2.4,2.2c-2.6,2.4-7,6.8-12,12.6c-2.3,2.7-4.8,5.6-7.2,8.8
			c-0.6,0.8-1.2,1.6-1.8,2.4c0,0-0.1,0.1-0.1,0.1c-0.3,0.4-0.5,0.7-0.8,1.1c-0.3,0.4-0.5,0.7-0.8,1.1c0,0-0.1,0.1-0.1,0.1
			c-0.3,0.4-0.6,0.8-0.9,1.3c-0.3,0.4-0.6,0.8-0.9,1.3c-0.3,0.4-0.5,0.8-0.8,1.2c0,0-0.1,0.1-0.1,0.1c-0.3,0.4-0.6,0.9-0.9,1.3
			c-0.3,0.4-0.6,0.9-0.8,1.3c-0.3,0.4-0.5,0.8-0.8,1.3c-0.7,1.1-1.4,2.3-2,3.4c-0.1,0.2-0.3,0.5-0.4,0.7c-0.2,0.3-0.4,0.7-0.6,1.1
			c-0.2,0.3-0.3,0.6-0.5,0.9c-0.4,0.8-0.8,1.5-1.2,2.3l0,0.1c0,0,0,0-0.1,0.1c-1.3,1.7-27.2,36.5-104.3,36.5
			c-79.1,0-106.2-36.6-106.2-36.6l0,0l-0.1-0.2c-0.2-0.5-0.5-1-0.8-1.5c0,0,0,0,0,0c-0.2-0.5-0.5-1-0.8-1.5c0-0.1-0.1-0.1-0.1-0.2
			c-0.2-0.4-0.4-0.8-0.6-1.2c-0.3-0.6-0.7-1.2-1-1.8c-0.3-0.4-0.5-0.9-0.8-1.3c-0.3-0.6-0.7-1.1-1-1.7c-0.3-0.4-0.5-0.8-0.8-1.2
			c0,0,0,0,0,0c-0.3-0.5-0.6-0.9-0.9-1.4c-0.6-1-1.3-1.9-1.9-2.8c-0.2-0.4-0.5-0.7-0.7-1.1c-0.1-0.1-0.1-0.2-0.2-0.3
			c-0.3-0.5-0.6-0.9-1-1.4c-0.3-0.4-0.6-0.9-1-1.3c-0.3-0.4-0.7-0.9-1-1.3c-0.4-0.5-0.7-1-1.1-1.5c-0.3-0.4-0.6-0.7-0.9-1.1
			c-0.3-0.4-0.6-0.8-1-1.2c0,0,0,0,0,0c-0.3-0.4-0.7-0.8-1-1.2c-0.3-0.4-0.6-0.8-1-1.2c-0.3-0.4-0.6-0.8-1-1.2c-0.8-1-1.7-2-2.5-2.9
			c-0.3-0.3-0.5-0.6-0.8-0.9c-1.1-1.2-2.1-2.3-3.1-3.4c-0.3-0.3-0.6-0.6-0.8-0.9c-1.2-1.3-2.4-2.5-3.5-3.6c-0.1-0.1-0.3-0.3-0.4-0.4
			c-0.3-0.3-0.6-0.6-0.9-0.9c-0.2-0.2-0.4-0.4-0.6-0.6c-0.1-0.1-0.2-0.2-0.3-0.3c-0.2-0.2-0.3-0.3-0.5-0.5c-0.5-0.5-1-1-1.4-1.3
			c-0.1-0.1-0.3-0.3-0.4-0.4c-0.8-0.8-1.3-1.2-1.3-1.2c6.7-29.6,30.2-38.9,33.8-40.2c0.3-0.1,0.5-0.2,0.5-0.2
			c-0.8-4.7,2.6-6.3,2.6-6.3c1.9,2.4,3.9,4.6,6,6.7c0.4,0.4,0.8,0.8,1.2,1.1l0,0.1c0.2,0.2,0.4,0.4,0.7,0.6c2.5,2.4,5.2,4.6,8,6.6
			c4.2,3.1,8.5,5.8,13,8.1c15.1,8,31.4,12.3,44.9,14.6c0,0,0,0,0,0c10.4,1.8,19.2,2.3,24.4,2.5c0.1,0,0.3,0,0.4,0c0.1,0,0.2,0,0.3,0
			c0.2,0,0.5,0,0.7,0h0.2c0.1,0,0.3,0,0.4,0c1.6,0,2.6,0,3.1,0h0.1c0.1,0,0.1,0,0.2,0c0,0,0,0,0,0v0.2h0.7c0.5,0,1.3,0,2.1,0
			c0.1,0,0.2,0,0.4,0h0.2c0.7,0,1.5,0,2.4-0.1c1.3-0.1,2.7-0.1,4.3-0.2c0.3,0,0.5,0,0.8-0.1c12.8-0.9,34.6-3.8,55.5-13
			c0.1-0.1,0.3-0.1,0.4-0.2c3-1.3,6-2.8,8.9-4.4c0.1-0.1,0.3-0.2,0.4-0.3c0,0,0,0,0.1,0c5-2.8,9.9-6,14.5-9.8c1-0.8,2-1.7,3.1-2.6
			c0.2-0.2,0.3-0.3,0.5-0.4c0.5-0.4,1-0.9,1.4-1.3c0.5-0.4,0.9-0.9,1.3-1.3c0.1-0.1,0.2-0.2,0.3-0.3c0.1-0.1,0.1-0.1,0.2-0.2
			c0.1,0,0.1-0.1,0.1-0.1l0.6,0.1c-0.1-0.1-0.2-0.2-0.4-0.3c0,0,0,0,0,0c1.9-1.9,3.7-3.9,5.4-6c0,0,3.4,1.6,2.6,6.3
			C490.5,229.3,517.5,237.6,524.7,269.7z"/>
		<path class="st7" d="M384.6,263.3c0,0-0.1,0-0.2,0C384.5,263.3,384.5,263.3,384.6,263.3L384.6,263.3z"/>
		<path class="st7" d="M279.3,314.3c0,0,0-0.1-0.1-0.2L279.3,314.3z"/>
		<path class="st7" d="M379.8,263.2c-0.1,0-0.3,0-0.4,0c-5.2-0.2-14-0.7-24.4-2.5c0,0,0,0,0,0c-17.5-3-39.7-9.3-58-22.7
			c-3-2.2-5.9-4.6-8.6-7.2l0-0.1c0,0,0.1,0.1,0.1,0.1c2.7,2.6,5.6,5,8.6,7.2c18.2,13.5,40.4,19.8,58,22.7c0,0,0,0,0,0
			c10.4,1.8,19.2,2.3,24.4,2.5C379.6,263.2,379.7,263.2,379.8,263.2z"/>
		<path class="st7" d="M384.7,263.3v0.2h-0.1L384.7,263.3C384.7,263.3,384.7,263.3,384.7,263.3z"/>
		<path class="st7" d="M482.9,229.4l-0.6-0.1c0,0,0,0,0,0c0.1-0.1,0.1-0.1,0.2-0.2C482.6,229.3,482.8,229.4,482.9,229.4z"/>
		<path class="st7" d="M384.7,263.3C384.7,263.3,384.7,263.3,384.7,263.3c-0.1,0-0.1,0-0.1,0c0,0-0.1,0-0.2,0h-0.1
			c-0.5,0-1.5,0-3.1,0c-0.1,0-0.2,0-0.4,0c-0.1,0-0.1,0-0.2,0c-0.2,0-0.4,0-0.7,0c-0.2,0-0.4,0-0.6,0l0,0L384.7,263.3L384.7,263.3z"
			/>
		<path class="st7" d="M385.4,263.5L385.4,263.5c-0.3,0-0.5,0-0.7,0v-0.2L385.4,263.5z"/>
		<path class="st11" d="M279.3,314.3"/>
		<g>
			<path class="st8" d="M288.1,229.9L288.1,229.9c-0.1-0.1-0.1-0.1-0.2-0.2c0.1-0.1,0.1-0.1,0.1-0.1L288.1,229.9z"/>
			<path class="st8" d="M385.8,207.7h0.3C385.9,207.7,385.8,207.7,385.8,207.7L385.8,207.7z"/>
			<path class="st8" d="M482.9,229.4l-0.6-0.1c0,0-0.1,0.1-0.1,0.1c-2.2,2.2-4.5,4.3-6.9,6.2c-4.5,3.7-9.4,6.9-14.3,9.6
				c0,0,0,0-0.1,0c0,0,0,0,0,0c5-2.8,9.8-6,14.4-9.6c2.4-1.9,4.7-4,6.9-6.2c0-0.1,0.1-0.1,0.1-0.2c0.1-0.1,0.1-0.1,0.2-0.2
				c0,0,0,0,0.1,0C482.6,229.3,482.8,229.4,482.9,229.4z"/>
			<path class="st8" d="M482.4,229.1c-0.1,0.1-0.1,0.2-0.2,0.2c0,0.1-0.1,0.1-0.1,0.2c-2.2,2.2-4.5,4.3-6.9,6.2
				c-4.5,3.7-9.4,6.9-14.4,9.6c-0.2,0.1-0.3,0.2-0.5,0.3c-23.3,12.8-49.9,16.5-64.7,17.5c-0.3,0-0.6,0-0.8,0.1
				c-1.6,0.1-3,0.2-4.3,0.2c-0.9,0-1.7,0.1-2.4,0.1h-0.2c-0.1,0-0.3,0-0.4,0c-0.9,0-1.6,0-2.1,0h-0.7v-0.2c0,0,0,0-0.1,0
				c0,0-0.1,0-0.2,0c-0.5,0-1.5,0-3.1,0c-0.1,0-0.2,0-0.4,0h-0.2c-0.2,0-0.4,0-0.7,0c-0.1,0-0.2,0-0.3,0c-0.1,0-0.3,0-0.4,0
				c-5.2-0.2-14-0.7-24.4-2.5c0,0,0,0,0,0c-13.9-2.3-30.8-6.8-46.3-15.3c-4-2.2-7.9-4.7-11.7-7.4c-3-2.2-5.9-4.6-8.6-7.2l0-0.1
				l-0.2-0.8v0l-0.1-0.3v0c0.1-0.1,1.1-0.9,3.2-2.2c2.1-1.3,5.4-3.1,9.8-5.1c3.7-1.6,8.2-3.4,13.6-5.1c6.4-2,14-3.9,23-5.5
				c2-0.4,4.2-0.7,6.3-1c7.2-1.1,15.1-1.9,23.9-2.4c5.6-0.3,11.6-0.5,17.9-0.5h0.4c0.9,0,1.8,0,2.6,0c3.6,0,7.2,0.1,10.6,0.3
				c4.6,0.2,9,0.5,13.2,0.9c11.9,1.1,22.1,2.8,30.8,4.7c5.1,1.2,9.6,2.4,13.6,3.7h0c12.1,3.9,19.5,7.9,23.2,10.3
				C481.2,228.2,481.9,228.7,482.4,229.1z"/>
			<path class="st8" d="M482.2,229.3c0,0-0.1,0.1-0.1,0.1c-2.2,2.2-4.5,4.3-6.9,6.2c-4.5,3.7-9.4,6.9-14.3,9.6c0,0,0,0-0.1,0
				c0,0,0,0,0,0c5-2.8,9.8-6,14.4-9.6c2.4-1.9,4.7-4,6.9-6.2C482.1,229.4,482.1,229.3,482.2,229.3L482.2,229.3z"/>
		</g>
		<path class="st8" d="M522.9,280.7c-4.1,3.6-8.4,7.8-12.7,12.5c-1.4,1.5-2.7,3.1-4.1,4.7c-0.3,0.4-0.7,0.8-1,1.3
			c-0.3,0.4-0.7,0.8-1,1.2c-0.7,0.9-1.4,1.8-2.1,2.8c-0.3,0.4-0.6,0.7-0.8,1.1c-1.1,1.5-2.3,3.1-3.4,4.8c-0.2,0.3-0.4,0.6-0.6,0.8
			c-0.1,0.1-0.2,0.2-0.2,0.4c-0.2,0.3-0.4,0.6-0.6,0.9c-0.5,0.8-1,1.6-1.5,2.3c-0.2,0.3-0.4,0.6-0.6,0.9c-0.4,0.6-0.8,1.3-1.2,1.9
			c-0.2,0.3-0.4,0.6-0.5,0.9c-0.6,1-1.1,1.9-1.7,2.9c0,0,0,0,0,0c0,0.1-0.6,1.5-2,3.8c-6.3,10.1-30,36.7-104.3,36.7
			c-21.1,0-38.2-2.2-52-5.5c-10.3-2.5-18.7-5.6-25.6-9c-16.6-8.1-24.3-17.6-27.4-22.6c0,0,0,0,0,0c-1.3-2.1-1.8-3.3-1.8-3.4
			c0,0,0,0,0,0c-9.9-18.1-22.7-31.5-33.5-40.8v0c0-4.1,0.7-7,1.4-8.8c0.1,0.1,0.3,0.2,0.4,0.4c0.4,0.4,0.9,0.8,1.4,1.4
			c0.2,0.2,0.3,0.3,0.5,0.5c0.1,0.1,0.2,0.2,0.4,0.3c0.2,0.2,0.4,0.4,0.6,0.6c0.3,0.3,0.6,0.6,0.9,0.9c0.1,0.1,0.3,0.3,0.4,0.4
			c1.1,1.1,2.2,2.3,3.5,3.6c0.3,0.3,0.6,0.6,0.8,0.9c1,1.1,2,2.2,3.1,3.4c0.3,0.3,0.5,0.6,0.8,0.9c0.8,0.9,1.6,1.9,2.5,2.9
			c0.3,0.4,0.6,0.8,1,1.2s0.6,0.8,1,1.2c0.3,0.4,0.7,0.8,1,1.2c0,0,0,0,0,0c0.3,0.4,0.6,0.8,1,1.2c0.3,0.4,0.6,0.7,0.8,1.1
			c0.4,0.5,0.7,1,1.1,1.5c0.3,0.4,0.7,0.9,1,1.3c0.3,0.4,0.6,0.9,1,1.3c0.3,0.5,0.6,0.9,1,1.4c0.1,0.1,0.1,0.2,0.2,0.3
			c0.2,0.4,0.5,0.7,0.7,1.1c0.6,0.9,1.3,1.9,1.9,2.8c0.3,0.5,0.6,0.9,0.9,1.4c0,0,0,0,0,0c0.3,0.4,0.5,0.8,0.8,1.2
			c0.3,0.5,0.7,1.1,1,1.7c0.3,0.4,0.5,0.9,0.8,1.3c0.4,0.6,0.7,1.2,1,1.9c0.2,0.4,0.4,0.8,0.6,1.2c0,0.1,0.1,0.1,0.1,0.2
			c0.3,0.5,0.5,1,0.8,1.4c0,0,0,0,0,0c0.3,0.5,0.5,1,0.8,1.5l0.1,0.2l0,0c0,0,27.1,36.6,106.2,36.6s104.4-36.6,104.4-36.6l0-0.1
			c0.4-0.8,0.8-1.5,1.2-2.3c0.2-0.3,0.3-0.6,0.5-0.9c0.2-0.4,0.4-0.7,0.6-1.1c0.1-0.2,0.3-0.5,0.4-0.7c0.7-1.2,1.3-2.3,2-3.4
			c0.3-0.4,0.5-0.8,0.8-1.3c0.3-0.4,0.6-0.9,0.8-1.3c0.3-0.4,0.6-0.9,0.8-1.3c0,0,0-0.1,0.1-0.1c0.3-0.4,0.5-0.8,0.8-1.2
			c0.3-0.4,0.6-0.8,0.9-1.3c0.3-0.4,0.6-0.8,0.9-1.3c0-0.1,0.1-0.1,0.1-0.2c0.3-0.4,0.5-0.7,0.8-1.1c0.3-0.4,0.5-0.7,0.8-1.1
			c0,0,0-0.1,0.1-0.1c0.6-0.8,1.2-1.6,1.8-2.4c2.4-3.2,4.9-6.2,7.2-8.8c5-5.8,9.4-10.1,12-12.6C522.8,273.8,523.3,276.7,522.9,280.7
			z"/>
		<path class="st8" d="M552.2,343c0,0-0.5,6.4-5.4,8.5c-0.6,0.2-1.2,0.4-2,0.6c-4,0.9-10.6,1.1-14.6,1.2
			c-5.3-6.9-11.7-17.7-11.9-31.5c0-1.6,0-3.6,0.5-7.8c0.9-7.3,2.6-17.2,6.7-29.4c0.4-1.2,0.8-2.3,1.2-3.5l0-0.1c0,0,0.5,0,1.2,0
			c3.7,0,14.7,0,18.8,1.8c4.9,2.1,5.4,8.5,5.4,8.5s-0.4,0-1,0c-3.7,0.1-16.2,1.1-15.8,11.8v28.2c-0.1,4.1,1.6,6.8,4.1,8.5
			c3.9,2.8,9.6,3.2,11.8,3.3c0,0,0.1,0,0.1,0C551.9,343,552.2,343,552.2,343z"/>
		<path class="st9" d="M551.2,343c-2.2,0-7.9-0.4-11.8-3.3c-2.4-1.7-4.2-4.4-4.1-8.5V303c-0.3-10.7,12.1-11.7,15.8-11.8
			C551.4,291.8,560.6,317.2,551.2,343z"/>
		<path class="st7" d="M235.2,506.5"/>
		<path class="st7" d="M235.3,506.2"/>
		<g>
			<path class="st8" d="M535.5,463.8c-0.2,2.5-0.5,4.5-0.7,5.8c-0.1,0.8-0.2,1.2-0.2,1.2c-0.8,13.4-2.2,27.3-4.5,41.5H242
				c-1.8-11.5-3.1-22.8-4-33.8c-0.2-2.6-0.4-5.2-0.5-7.7c0,0-1.2-6.7-1.3-13.9c0-1.2,0-2.5,0.1-3.7c0.1-1.4,0.2-2.8,0.4-4.2
				c0.7-4.4,2.2-8,5.2-9.3c0,0,4.8-1.4,14.3-3.4c4.9-1,11.1-2.2,18.5-3.3c12.3-1.9,28.2-3.9,47.5-5.4c4.6-0.4,9.5-0.7,14.5-1
				c4.3-0.2,8.8-0.5,13.3-0.6c10.4-0.4,21.5-0.7,33.4-0.7c1.8,0,3.6,0,5.4,0c10.8,0,20.9,0.3,30.5,0.6c4.7,0.2,9.2,0.4,13.6,0.6
				c27.3,1.5,48.9,4,64.7,6.5c4.1,0.6,7.9,1.3,11.3,1.9c5.3,1,9.7,1.9,13,2.7c0.2,0,0.4,0.1,0.7,0.1c5.2,1.2,7.9,2,7.9,2
				C536.6,442.4,536.4,455.5,535.5,463.8z"/>
		</g>
		<polygon class="st7" points="386.3,468.8 386.3,469.1 386,468.9 		"/>
		<polygon class="st7" points="386,468.9 385.7,469.1 385.7,468.8 		"/>
		<g>
			<path class="st10" d="M542.3,475.3L542.3,475.3c-0.1,5.3-0.4,10.7-0.8,16c-0.5,7.4-1.3,14.6-2.1,21H232.6
				c-0.8-6.6-1.6-14-2.2-21.6c-0.1-2.1-0.3-4.1-0.4-6.2c-0.2-4-0.3-8-0.4-11.9c0-1,0-2.1,0-3.1c0-4.5,0.2-8.9,0.6-13
				c0.1-1.3,0.3-2.5,0.4-3.7c0.2-1.5,0.5-2.9,0.7-4.3c0.5-2.4,1.1-4.6,1.8-6.6c2.9-7.9,7.3-13,12.1-16.2c10.9-7.2,23.6-4.9,24.3-4.8
				c0,0,0,0,0,0s1.9,5.1,4.8,12c6,14.3,16.1,36.4,21.2,36.6c7.5,0.3,24.4-12.6,90.3-12.6h0.1c65.9,0,82.7,12.9,90.3,12.6
				c5.1-0.2,15.2-22.3,21.2-36.6c2.9-6.9,4.8-12,4.8-12s11.9-2.4,22.6,3.8c1.1,0.6,2.1,1.3,3.2,2.1c4.2,3.2,8,8,10.6,15.1
				c2.4,6.7,3.4,15.9,3.6,26.1C542.4,470.5,542.4,472.9,542.3,475.3z"/>
		</g>
		<path class="st12" d="M430.6,438.3c-37.8,10.8-92.1,0-92.1,0c-0.8-3.1-1.3-6.3-1.7-9.5c-0.6-5.1-0.7-10-0.6-14.6
			c0.3-11.5,2.3-20.1,2.3-20.1c18.2-4.9,38.1-5.5,54.7-4.7h0c21.4,1.1,37.4,4.7,37.4,4.7c1.5,6.4,2.2,12.4,2.5,17.7c0,0,0,0,0,0
			C434,428.1,430.6,438.3,430.6,438.3z"/>
		<path class="st12" d="M581.1,391.3"/>
		<path class="st13" d="M163,468.9c0,0,4.2-0.1,9.9-1.5s-5.2-7.5-5.2-7.5L163,468.9z"/>
		<path class="st12" d="M598.7,374.8c-0.1-0.1-0.3-0.2-0.4-0.3c-0.1-0.1-0.3-0.2-0.4-0.3c-1.3-1-2.8-1.9-4.4-2.6
			c-0.4-0.2-0.9-0.4-1.3-0.6c0,0,0,0-0.1,0c-0.4-0.2-0.8-0.3-1.2-0.5c-0.1,0-0.2-0.1-0.3-0.1c-0.2-0.1-0.4-0.2-0.6-0.2
			c-0.3-0.1-0.6-0.2-0.9-0.3c-0.3-0.1-0.5-0.2-0.8-0.3c-0.6-0.2-1.1-0.4-1.7-0.5c0,0,0,0,0,0c-0.3-0.1-0.5-0.2-0.8-0.2
			c-0.4-0.1-0.7-0.2-1.1-0.3c-0.5-0.2-1.1-0.3-1.6-0.4c-0.3-0.1-0.6-0.1-0.9-0.2c-4.7-1.1-9.6-1.8-13.7-2.2c-0.2,0-0.5,0-0.7-0.1
			c-0.9-0.1-1.7-0.1-2.5-0.2c-0.3,0-0.7,0-1-0.1c-0.5,0-1-0.1-1.4-0.1c-0.8,0-1.5-0.1-2.1-0.1c-0.4,0-0.8,0-1.2,0c0,0,0,0,0,0
			c-0.4,0-0.7,0-1,0c-1.1,0-1.7,0-1.7,0c-0.3-3.5-0.5-8.7-0.4-14.7c0.1-23.8,2.4-60.9,2.4-60.9c1.3-0.4,2.6-0.8,3.9-1.1
			c13.7-3.2,29.4,0,37,1.9h0c2.8,0.7,4.5,1.3,4.5,1.3C610.4,307.4,598.7,374.8,598.7,374.8z"/>
		<path class="st12" d="M598,374.4c-1.6-0.6-4.3-0.6-7.9-0.8c-7.8-0.3-19.6-1-33-8.7c0,0,0.6,0,1.7,0c0.3,0,0.6,0,1,0c0,0,0,0,0,0
			c0.4,0,0.8,0,1.2,0c0.6,0,1.3,0.1,2.1,0.1c0.5,0,0.9,0.1,1.4,0.1c0.3,0,0.7,0,1,0.1c0.8,0.1,1.7,0.1,2.5,0.2c0.2,0,0.5,0,0.7,0.1
			c4.2,0.4,9,1.1,13.7,2.2c0.3,0.1,0.6,0.1,0.9,0.2c0.5,0.1,1.1,0.3,1.6,0.4c0.4,0.1,0.7,0.2,1.1,0.3c0.3,0.1,0.5,0.2,0.8,0.2
			c0,0,0,0,0,0c0.6,0.2,1.1,0.4,1.7,0.5c0.3,0.1,0.5,0.2,0.8,0.3c0.3,0.1,0.6,0.2,0.9,0.3c0.2,0.1,0.4,0.2,0.6,0.2
			c0.1,0,0.2,0.1,0.3,0.1c0.4,0.2,0.8,0.3,1.2,0.5c0,0,0,0,0.1,0c0.4,0.2,0.9,0.4,1.3,0.6c1.6,0.8,3.1,1.6,4.4,2.6v0L598,374.4z"/>
		<path class="st13" d="M598.7,374.8c-0.2-0.1-0.5-0.3-0.7-0.4l0-0.2c0.1,0.1,0.3,0.2,0.4,0.3C598.5,374.6,598.6,374.7,598.7,374.8z
			"/>
		<path class="st14" d="M580.2,404.6c-1,6.5-1.8,11.3-1.8,11.5c-6,0.9-12.7,2.6-19.4,4.6c0.7-5.3,1.5-11.1,2.3-17.5
			C564.4,402.6,580.2,404.6,580.2,404.6z"/>
		<path class="st14" d="M563.5,386.6c7.9,0.4,19,1.9,19,1.9c-0.2,1.8-0.5,3.7-0.7,5.5c-0.1,0.5-0.1,1.1-0.2,1.6
			c-0.2,1.4-0.4,2.9-0.6,4.3c-0.1,0.5-0.1,0.9-0.2,1.3c-0.1,0.6-0.2,1.2-0.3,1.7c-4.3-1-19-0.9-19-0.9
			C562.1,397.1,562.8,392,563.5,386.6z"/>
		<path class="st14" d="M583.8,375.7c0,0.7-0.1,1.5-0.2,2.4c0,0.3-0.1,0.7-0.1,1c-0.1,0.8-0.2,1.7-0.3,2.6c0,0.2,0,0.4-0.1,0.5
			c0,0.4-0.1,0.7-0.1,1.1c0,0.1,0,0.3-0.1,0.4c0,0.2,0,0.4-0.1,0.6c-0.1,0.5-0.1,1-0.2,1.4c0,0.3-0.1,0.7-0.1,1c0,0,0,0,0,0.1
			c0,0.3-0.1,0.7-0.1,1.1c0,0,0,0,0,0.1c-2.9-1-12.9-2-18.9-2.6c0.8-5.8,1.6-11.9,2.4-18.2c6.1,0.2,16.1,0.9,17.6,2.5
			c0.1,0.1,0.2,0.3,0.2,0.6c0,0.2,0.1,0.4,0.1,0.7C584,372.2,584,373.8,583.8,375.7z"/>
		<path class="st14" d="M599.9,290.2L599.9,290.2c-2.1-0.6-4.9-1.2-8.1-1.8c-8.2-1.5-19-2.4-28.9-0.2c0,0-9.9-19.2,3.1-27.1
			c3.4-2.1,8.3-3.3,15.3-3.3C615.4,257.8,599.9,290.2,599.9,290.2z"/>
		<path class="st15" d="M587.7,369.2c-0.4,6.5-1.7,27.3-3.6,46.3c-1.8,0.1-3.7,0.4-5.7,0.7c0-0.2,0.8-5.1,1.8-11.5
			c0,0-15.8-2-18.9-1.4c0-0.4,0.1-0.8,0.1-1.2c0,0,14.7-0.1,19,0.9c0.1-0.6,0.2-1.1,0.3-1.7c0.1-0.4,0.1-0.9,0.2-1.3
			c0.2-1.4,0.4-2.8,0.6-4.3c0.1-0.5,0.1-1.1,0.2-1.6c0.3-1.8,0.5-3.7,0.7-5.5c0,0-11.1-1.5-19-1.9c0.1-0.4,0.1-0.7,0.1-1.1
			c6,0.5,16,1.5,18.9,2.6c0,0,0-0.1,0-0.1c0-0.4,0.1-0.7,0.1-1.1c0,0,0,0,0-0.1c0-0.3,0.1-0.7,0.1-1c0.1-0.5,0.1-1,0.2-1.4
			c0-0.2,0.1-0.4,0.1-0.6c0-0.1,0-0.3,0.1-0.4c0-0.4,0.1-0.8,0.1-1.1c0-0.2,0-0.4,0.1-0.5c0.1-0.9,0.2-1.8,0.3-2.6
			c0-0.3,0.1-0.7,0.1-1c0.1-0.8,0.1-1.6,0.2-2.4c0.1-2,0.2-3.6,0.1-4.6c0-0.3-0.1-0.5-0.1-0.7c-0.1-0.3-0.1-0.5-0.2-0.6
			c-1.4-1.6-11.5-2.2-17.6-2.5c0-0.1,0-0.2,0-0.3c0.1-0.6,0.2-1.2,0.3-1.8C572.4,365.8,580.5,366.9,587.7,369.2z"/>
		<path class="st15" d="M583.3,381.7c0.1-0.9,0.2-1.8,0.3-2.6C583.5,379.9,583.4,380.8,583.3,381.7z"/>
		<path class="st15" d="M583.6,378.1c0.1-0.8,0.1-1.6,0.2-2.4C583.8,376.5,583.7,377.3,583.6,378.1z"/>
		<path class="st15" d="M583.9,371.1c0-0.3-0.1-0.5-0.1-0.7C583.8,370.6,583.9,370.9,583.9,371.1z"/>
		<path class="st15" d="M599.9,290.2L599.9,290.2c-2.1-0.6-4.9-1.2-8.1-1.8c0,0,16.7-27-25.7-27.3c3.4-2.1,8.3-3.3,15.3-3.3
			C615.4,257.8,599.9,290.2,599.9,290.2z"/>
		<path class="st8" d="M598.7,384.3c0,0-1.3-2.1-3.2-5.7c-0.7-1.4-1.6-3-2.4-4.9c-7.7-16.3-18.5-48.2,1.4-70.6
			c1.3-1.5,2.7-2.9,4.3-4.3C598.7,298.9,633.9,335.7,598.7,384.3z"/>
		<path class="st16" d="M489.8,314.4c0-0.1,0-0.1,0-0.2L489.8,314.4C489.9,314.3,489.8,314.3,489.8,314.4z"/>
		<path class="st16" d="M524.7,269.7c0,0-0.9,0.8-2.4,2.2c-2.6,2.4-7,6.8-12,12.6c-2.3,2.7-4.8,5.6-7.2,8.8
			c-0.6,0.8-1.2,1.6-1.8,2.4c0,0-0.1,0.1-0.1,0.1c-0.3,0.4-0.5,0.7-0.8,1.1c-0.3,0.4-0.5,0.7-0.8,1.1c0,0-0.1,0.1-0.1,0.1
			c-0.3,0.4-0.6,0.8-0.9,1.3c-0.3,0.4-0.6,0.8-0.9,1.3c-0.3,0.4-0.5,0.8-0.8,1.2c0,0-0.1,0.1-0.1,0.1c-0.3,0.4-0.6,0.9-0.9,1.3
			c-0.3,0.4-0.6,0.9-0.8,1.3c-0.3,0.4-0.5,0.8-0.8,1.3c-0.7,1.1-1.4,2.3-2,3.4c-0.1,0.2-0.3,0.5-0.4,0.7c-0.2,0.3-0.4,0.7-0.6,1.1
			c-0.2,0.3-0.3,0.6-0.5,0.9c-0.4,0.8-0.8,1.5-1.2,2.3c4-26.7,29.4-45.8,28.5-48.6c-0.9-2.9-25.8-35.5-31.9-31.3
			c-4.5,3.1-24.7,11.5-34.9,15.7c3-1.3,6-2.8,8.9-4.4c0.1-0.1,0.3-0.2,0.4-0.3c0,0,0,0,0.1,0c5-2.8,9.9-6,14.5-9.8
			c2.3-1.8,4.5-3.8,6.6-5.9c0.1-0.1,0.1-0.1,0.2-0.2c0.1,0,0.1-0.1,0.1-0.1l0.6,0.1c-0.1-0.1-0.2-0.2-0.4-0.3c0,0,0,0,0,0
			c1.9-1.9,3.7-3.9,5.4-6c0,0,3.4,1.6,2.6,6.3C490.5,229.3,517.5,237.6,524.7,269.7z"/>
		<path class="st16" d="M309.9,246.3c-0.1,0.2-0.2,0.3-0.3,0.4c-0.6-0.3-1.2-0.5-1.8-0.8c-10.1-4.2-21.9-9.4-25.2-11.7
			c-6.1-4.1-31,28.5-31.9,31.3c-0.9,2.8,24.4,22,28.5,48.6c-0.4-0.8-0.8-1.5-1.2-2.3c-0.2-0.3-0.3-0.6-0.5-0.9
			c-0.2-0.4-0.4-0.7-0.6-1.1c-0.1-0.2-0.3-0.5-0.4-0.7c-0.7-1.2-1.3-2.3-2-3.4c-0.3-0.4-0.5-0.8-0.8-1.3c-0.3-0.4-0.5-0.9-0.8-1.3
			c-0.3-0.4-0.6-0.9-0.9-1.3c0,0-0.1-0.1-0.1-0.1c-0.3-0.4-0.5-0.8-0.8-1.2c-0.3-0.4-0.6-0.8-0.9-1.3c-0.3-0.4-0.6-0.8-0.9-1.3
			c0,0-0.1-0.1-0.1-0.1c-0.3-0.4-0.5-0.7-0.8-1.1c-0.3-0.4-0.5-0.7-0.8-1.1c0,0-0.1-0.1-0.1-0.1c-0.6-0.8-1.2-1.6-1.8-2.4
			c-2.4-3.2-4.9-6.1-7.2-8.8c-5-5.7-9.4-10.1-12-12.6c-1.5-1.4-2.4-2.2-2.4-2.2c7.2-32,34.2-40.3,34.2-40.3
			c-0.8-4.7,2.6-6.3,2.6-6.3c1.7,2.1,3.5,4.1,5.4,6c0,0,0,0,0,0c-0.2,0.2-0.3,0.3-0.4,0.3l0.6-0.1c0,0,0.1,0.1,0.1,0.1
			c0.7,0.7,1.4,1.4,2.2,2.1c5.8,5.5,12.3,10,19,13.7c0,0,0,0,0.1,0c0.1,0.1,0.3,0.2,0.4,0.3C309,245.8,309.5,246,309.9,246.3z"/>
		<path class="st16" d="M317.5,249.9c-2.2-0.9-4.9-2-7.8-3.3c0.1-0.1,0.2-0.3,0.3-0.4C312.4,247.6,314.9,248.8,317.5,249.9z"/>
		<path class="st16" d="M250.3,291.2c0,0,17.8,34.9,9.2,62.6c0,0,7.6,20,34.7,50.6c-11.6-6.5-23.2-14.5-33.9-24.4
			c-8.1-7.5-15.7-16.1-22.5-25.9c0.2-0.3,0.5-0.6,0.7-0.9c5.3-6.9,11.7-17.7,11.9-31.5c0-1.6,0-3.6-0.5-7.8c-0.9-8-3-19.2-8-33
			c-0.6-1.7-1.2-3.4-1.9-5.2c1.4,1.1,2.8,2.3,4.3,3.6c10.7,9.3,23.5,22.7,33.5,40.8c0,0,0,0,0,0c0,0,0,0,0,0.1v0c0,0,0,0,0,0
			c0,0,0,0,0,0.1c0.6,1,1.1,2.1,1.6,3c0,0.1,0.1,0.1,0.1,0.2c0,0,0,0,0,0c2.5,4,8,11,18.9,17.9c0,0,0,0,0,0s-19.8-5-27.8-17.5
			C262.7,311.6,252.9,293,250.3,291.2z"/>
		<path class="st16" d="M518.4,291.2c0,0-17.8,34.9-9.2,62.6c0,0-7.6,20-34.7,50.6c11.6-6.5,23.2-14.5,33.9-24.4
			c8.1-7.5,15.7-16.1,22.5-25.9c-0.2-0.3-0.5-0.6-0.7-0.9c-5.3-6.9-11.7-17.7-11.9-31.5c0-1.6,0-3.6,0.5-7.8c0.9-8,3-19.2,8-33
			c0.6-1.7,1.2-3.4,1.9-5.2c-1.4,1.1-2.8,2.3-4.3,3.6c-10.7,9.3-23.5,22.7-33.5,40.8c0,0,0,0,0,0c0,0,0,0,0,0.1v0c0,0,0,0,0,0
			c0,0,0,0,0,0.1c-0.6,1-1.1,2.1-1.6,3c0,0.1-0.1,0.1-0.1,0.2c0,0,0,0,0,0c-2.5,4-8,11-18.9,17.9c0,0,0,0,0,0s19.8-5,27.8-17.5
			C506,311.6,515.8,293,518.4,291.2z"/>
		<path class="st16" d="M433.1,411.9c-0.3-5.3-1-11.3-2.5-17.7c0,0-50.6-11.3-92.1,0c0,0-1.9,8.6-2.3,20.1c-2.1-4.8-5-14.9,1.4-23
			c8.9-11.2,92-5.7,95.4-2.1C436.5,392.7,433.2,411.4,433.1,411.9z"/>
		<path class="st11" d="M482,229.6c-0.1,0.1-0.2,0.2-0.3,0.3c-0.4,0.4-0.9,0.9-1.3,1.3c-0.5,0.4-0.9,0.9-1.4,1.3
			c-0.2,0.1-0.3,0.3-0.5,0.4c-1,0.9-2,1.8-3.1,2.6c-11.3-22.3-85.6-11.2-85.6-11.2s84.9,9.2,53.2,21.6
			c-31.7,12.4-119.7,3.9-112.9-4.3c6.9-8.2,20.6-12.6,20.6-12.6c-27.2,0.2-38.3,13.7-40.8,17.2c-4.5-2.4-8.9-5.1-13-8.1
			c-2.8-2-5.4-4.2-8-6.6l0-0.1v0c-0.1-0.1-0.1-0.1-0.2-0.2c0.1-0.1,0.1-0.1,0.1-0.1v0c0.1-0.1,1.1-0.9,3.2-2.2
			c2.1-1.3,5.4-3.1,9.8-5.1c3.7-1.6,8.2-3.4,13.6-5.1c6.4-2,14-3.9,23-5.5c2-0.4,4.2-0.7,6.3-1c7.2-1.1,15.1-1.9,23.9-2.4
			c5.6-0.3,11.6-0.5,17.9-0.5h0.4c0.9,0,1.8,0,2.6,0c3.6,0,7.2,0.1,10.6,0.3c4.6,0.2,9,0.5,13.2,0.9c11.9,1.1,22.1,2.8,30.8,4.7
			c5.1,1.2,9.6,2.4,13.6,3.7h0c12.1,3.9,19.5,7.9,23.2,10.3C481.4,229.2,481.7,229.4,482,229.6z"/>
		
			<ellipse transform="matrix(5.426544e-02 -0.9985 0.9985 5.426544e-02 121.1802 609.0189)" class="st8" cx="382.1" cy="240.5" rx="12.2" ry="26.3"/>
		<path class="st17" d="M302.6,238.8c0,0-7.3-3.9-9.8-8.1s82.9-43.4,186.3-1.6c0,0-1.5,1.9-2.5,1.9
			C475.6,231.1,372,186.1,302.6,238.8z"/>
		<path class="st11" d="M598.7,384.3c0,0-1.3-2.1-3.2-5.7c7.9-7.5,6.7-18.9,6.7-18.9c-1,2.3-4.2,7.7-4.2,7.7
			c-14.3-31.4-4.9-57.7-3.6-57.2c1.3,0.5,7.8,6.9,7.8,6.9c-1.1-7.9-7.8-13.9-7.8-13.9c1.3-1.5,2.7-2.9,4.3-4.3
			C598.7,298.9,633.9,335.7,598.7,384.3z"/>
		<path class="st8" d="M595.6,348.6c-4.4,0-7.9-5.9-7.9-13.1c0-7.2,3.5-13.1,7.9-13.1c4.4,0,7.9,5.9,7.9,13.1
			C603.4,342.7,599.9,348.6,595.6,348.6z"/>
		<path class="st17" d="M597.1,379c0,0,31.8-38.9,0-75.5l1.6-1.1c0,0,32.7,31,0.4,79.1L597.1,379z"/>
		<path class="st11" d="M552.2,343c0,0-0.5,6.4-5.4,8.5c-0.6,0.2-1.2,0.4-2,0.6c-5.6-2.9-13.9-8.8-16.1-14.7c-3.1-8.2,0-40.1,0-40.1
			c-4.9,2.2-5.6,33.6-5.6,33.6c-3.8-8.5,2.5-46.1,2.5-46.1l0-0.2c0.4-1.2,0.8-2.3,1.2-3.5l0-0.1c0,0,0.5,0,1.2,0
			c3.7,0,14.7,0,18.8,1.8c4.9,2.1,5.4,8.5,5.4,8.5s-0.4,0-1,0c-3.7,0.1-16.2,1.1-15.8,11.8v28.2c-0.1,4.1,1.6,6.8,4.1,8.5
			c3.9,2.8,9.6,3.2,11.8,3.3c0,0,0.1,0,0.1,0C551.9,343,552.2,343,552.2,343z"/>
		<path class="st17" d="M548.8,287.9c0,0-0.2-5.6-19-5.7c0,0-0.4,1.3-0.7,2.9C529.2,285.1,540.8,285,548.8,287.9z"/>
		<path class="st11" d="M216.4,343c0,0,0.5,6.4,5.4,8.5c0.6,0.2,1.2,0.4,2,0.6c5.6-2.9,13.9-8.8,16.1-14.7c3.1-8.2,0-40.1,0-40.1
			c4.9,2.2,5.6,33.6,5.6,33.6c3.8-8.5-2.5-46.1-2.5-46.1l0-0.2c-0.4-1.2-0.8-2.3-1.2-3.5l0-0.1c0,0-0.5,0-1.2,0
			c-3.7,0-14.7,0-18.8,1.8c-4.9,2.1-5.4,8.5-5.4,8.5s0.4,0,1,0c3.7,0.1,16.2,1.1,15.8,11.8v28.2c0.1,4.1-1.6,6.8-4.1,8.5
			c-3.9,2.8-9.6,3.2-11.8,3.3c0,0-0.1,0-0.1,0C216.7,343,216.4,343,216.4,343z"/>
		<path class="st17" d="M219.8,287.9c0,0,0.2-5.6,19-5.7c0,0,0.4,1.3,0.7,2.9C239.4,285.1,227.8,285,219.8,287.9z"/>
		<path class="st18" d="M430.6,438.3c-37.8,10.8-92.1,0-92.1,0c-0.8-3.1-1.3-6.3-1.7-9.5c0,0,49.4,3.3,59.4-8.3
			c10-11.6-3-31.1-3-31.1h0c21.4,1.1,37.4,4.7,37.4,4.7c1.5,6.4,2.2,12.4,2.5,17.7c0,0,0,0,0,0C434,428.1,430.6,438.3,430.6,438.3z"
			/>
		<path class="st16" d="M256.4,425.3c-5.7,5.4,6.7,13.6,6.7,13.6s-3.7,17.8-8.2,19.6c-4.4,1.9-4.7-0.9-4.7-0.9s-10.4,30.7-19.7,33.1
			c-0.1-2.1-0.3-4.1-0.4-6.2c-0.2-4-0.3-8-0.4-11.9c0-1,0-2.1,0-3.1c0-4.5,0.2-8.9,0.6-13c0.1-1.3,0.3-2.5,0.4-3.7
			c0.2-1.5,0.5-2.9,0.7-4.3c0.5-2.4,1.1-4.6,1.8-6.6c2.9-7.9,7.3-13,12.1-16.2c10.9-7.2,23.6-4.9,24.3-4.8
			C269.2,421,261.8,420.1,256.4,425.3z"/>
		<path class="st14" d="M224.3,485C224.3,485,224.3,485.1,224.3,485c0,0.1,0,0.1,0,0.1c0,0,0,0,0,0.1c0,0,0,0,0,0.1c0,0,0,0.1,0,0.1
			c0,0.2-0.1,0.4-0.1,0.6c0,0.2-0.1,0.5-0.1,0.8c0,0.1-0.1,0.3-0.1,0.4c0,0.2-0.1,0.4-0.1,0.7c0,0.2-0.1,0.4-0.1,0.6
			c0,0,0,0.1,0,0.1c-0.1,0.3-0.1,0.6-0.2,0.9c0,0.1,0,0.2-0.1,0.3c0,0.1,0,0.2-0.1,0.3c-0.2,1.3-0.5,2.9-0.8,4.6
			c-0.1,0.5-0.2,1.1-0.3,1.7c-0.3,1.6-0.6,3.3-0.9,5.1c-0.1,0.6-0.2,1.2-0.3,1.8c-0.1,0.7-0.2,1.4-0.4,2.1c-0.1,0.9-0.3,1.8-0.5,2.7
			c-0.2,1.3-0.4,2.6-0.7,4h-3.4c-0.1,0-0.2,0-0.2,0v0h-28.2c0.7-8.2,1.4-15.6,2.2-21.2c0.1-0.8,0.2-1.5,0.3-2.2
			c0-0.3,0.1-0.5,0.1-0.8c0-0.1,0.1-0.2,0.1-0.3c0-0.2,0.1-0.3,0.1-0.5c0.1-0.2,0.1-0.4,0.2-0.6c0,0,0,0,0,0c0-0.1,0-0.1,0.1-0.2
			c0.4-1.3,1-2.4,1.7-3.4c0.1-0.2,0.2-0.3,0.4-0.4c0.1-0.1,0.2-0.2,0.3-0.3c0.1-0.1,0.2-0.3,0.4-0.4c0.1-0.1,0.3-0.3,0.4-0.4
			c0.4-0.3,0.7-0.6,1.1-0.8c0.2-0.1,0.4-0.2,0.6-0.3c0.2-0.1,0.3-0.2,0.5-0.2c0.1,0,0.2-0.1,0.3-0.1c0.1,0,0.2-0.1,0.2-0.1
			c0.1,0,0.2-0.1,0.2-0.1c6.6-2.6,16.3,0.5,22.2,2.8c0.4,0.2,0.7,0.3,1.1,0.4c0.3,0.1,0.6,0.2,0.8,0.4c0.8,0.3,1.4,0.6,1.9,0.9
			C223.9,484.8,224.3,485,224.3,485z"/>
		<path class="st15" d="M224.3,485.3c0,0,0,0.1,0,0.1c0,0.2-0.1,0.4-0.1,0.6c0,0.2-0.1,0.5-0.1,0.8c0,0.1-0.1,0.3-0.1,0.4
			c0,0.2-0.1,0.4-0.1,0.7c0,0.2-0.1,0.4-0.1,0.6c0,0,0,0.1,0,0.1c-0.1,0.3-0.1,0.6-0.2,0.9c0,0.1,0,0.2-0.1,0.3c0,0.1,0,0.2-0.1,0.3
			c-0.2,1.3-0.5,2.9-0.8,4.6c-0.1,0.5-0.2,1.1-0.3,1.7c-0.3,1.6-0.6,3.3-0.9,5.1c-0.1,0.6-0.2,1.2-0.3,1.8c-0.1,0.7-0.2,1.4-0.4,2.1
			c-0.1,0.9-0.3,1.8-0.5,2.7c-0.2,1.3-0.4,2.6-0.7,4h-3.4c0.8-6.4,3.4-24,3.4-24c-6.5-2.4-29.5,3.5-29.5,3.5
			c0.1-0.8,0.2-1.6,0.3-2.3c0-0.3,0.1-0.5,0.1-0.8c0-0.1,0.1-0.3,0.1-0.4c0-0.2,0.1-0.3,0.1-0.5c0.1-0.2,0.1-0.4,0.2-0.6
			c0,0,0,0,0-0.1c0-0.1,0-0.1,0.1-0.2c0.4-1.4,1-2.6,1.7-3.6c0.1-0.2,0.2-0.3,0.4-0.5c0.1-0.1,0.2-0.2,0.3-0.3
			c0.1-0.1,0.2-0.3,0.4-0.4c0.1-0.2,0.3-0.3,0.4-0.4c0.4-0.3,0.7-0.6,1.1-0.9c0.2-0.1,0.4-0.2,0.6-0.3c0.2-0.1,0.3-0.2,0.5-0.2
			c0.1-0.1,0.2-0.1,0.3-0.1c0.1,0,0.2-0.1,0.2-0.1c0.1,0,0.2-0.1,0.2-0.1l22.2,3c0.4,0.2,0.7,0.3,1.1,0.5c0.3,0.1,0.6,0.3,0.8,0.4
			c0.8,0.4,1.4,0.7,1.9,0.9C223.8,485,224.2,485.2,224.3,485.3z"/>
		<path class="st9" d="M247.1,457.5c-1.9,12.4-11.4,30.2-22.7,27.2c-12.3-3.2-34.6,3.4-37,4.6c-2.5,1.1-11.4,6-15.5,2
			c-6.2-5.7-4.7-16.4-3-22.8c0.8-3.1,1.7-5.2,1.7-5.2l2.7-10.4c0,0,74.9-10.9,74.3,1.4C247.3,455.4,247.2,456.4,247.1,457.5z"/>
		<path class="st18" d="M247.1,457.5L247.1,457.5c0,0-48.7-3.1-61.8-0.4c-6.8,1.5-12.6,6.7-16.5,11.4c0.8-3.1,1.7-5.2,1.7-5.2
			l2.7-10.4c0,0,74.9-10.9,74.3,1.4C247.3,455.4,247.2,456.4,247.1,457.5z"/>
		<path class="st9" d="M259.4,440.8c0,0-18.8-28.6-59.6-36.7c-40.8-8.2-36.8,64.9-36.8,64.9s17.8-14.4,25.6-15.2
			c15.1-1.7,53.5-1.7,63.3,1.7C251.8,455.4,258.9,448.7,259.4,440.8z"/>
		<path class="st8" d="M169.3,442.3c-0.9,0.9-1.9,1.7-2.8,2.4c0,0,0,0,0,0c-0.9,0.6-1.7,1.2-2.6,1.7c0,0-1.4-6.1-1-13.6
			c0.3-5,1.5-10.5,4.5-15.2c2.4-3.7,5.9-6.8,11.1-8.6c0.1,0.2,0.1,0.4,0.2,0.6c0.1,0.3,0.2,0.6,0.3,0.9
			C183,422.8,176.9,435.1,169.3,442.3z"/>
		<path class="st11" d="M179,415.2c-0.3,7.4-8.3,24-10.3,24.6c-2,0.6-1.5-9.1-1.5-9.1c-2.6,5.8-0.9,14-0.9,14s0,0,0,0
			c-0.9,0.6-1.7,1.2-2.6,1.7c0,0-1.4-6.1-1-13.6c0.3-5,1.5-10.5,4.5-15.2c2.4-3.7,5.9-6.8,11.1-8.6c0.1,0.2,0.1,0.4,0.2,0.6
			c-5.2,2.5-8.2,13.9-8.2,13.9S179.3,407.8,179,415.2z"/>
		<path class="st17" d="M177,410.6c0,0-11,9.1-12.8,22.9C164.2,433.5,162.8,418,177,410.6z"/>
		<path class="st16" d="M542.3,475.3L542.3,475.3c-0.1,5.3-0.4,10.7-0.8,16c-4.6,0-31.4-29.1-31.4-29.1s2.9-26.8,5.9-28.5
			c3-1.7,12-6.8,12-6.8c4.2,3.2,8,8,10.6,15.1c2.4,6.7,3.4,15.9,3.6,26.1C542.4,470.5,542.4,472.9,542.3,475.3z"/>
		<g>
			<path class="st12" d="M615,456c-4.5,16-14.1,50-47.8,40.9c-33.7-9.1-51.1-38.3-51.1-38.3l3.5-23.2c1.1-0.8,20.2-9,39.4-14.7
				c8.9-2.6,17.9-4.7,25.1-5.3c0.8-0.1,1.6-0.1,2.4-0.1C608.4,414.8,619.6,440,615,456z"/>
			<path class="st8" d="M594.4,493.4c-1.2-1.3-2.2-2.5-3.2-3.7c-25.5-30.7-2-43,13.2-47.5c5.9-1.8,10.6-2.3,10.6-2.3
				C625.7,476.6,594.4,493.4,594.4,493.4z"/>
			<path class="st11" d="M594.4,493.4c-1.2-1.3-2.2-2.5-3.2-3.7c11.8-0.5,12.8-16.4,12.8-16.4c-6.5,9.7-12.1,9.3-12.1,9.3
				c-14.8-22.1,5.6-35.3,9.5-35.3c3.8,0,8.1,10.1,8.1,10.1c1.5-10.1-5.1-15.2-5.1-15.2c5.9-1.8,10.6-2.3,10.6-2.3
				C625.7,476.6,594.4,493.4,594.4,493.4z"/>
			<path class="st17" d="M609.1,443.1c0,0,5.5,23.2-1.6,32.2c0,0,13.2-11.4,6.8-33C614.3,442.3,611.6,441.4,609.1,443.1z"/>
		</g>
		<g>
			<path class="st19" d="M561.9,203.5c-5.5,5.8-16.8,6.4-16.8,6.4c-9.8-4.9-11.7-14.5-11.4-20.2c0.1-2.1,0.6-3.7,1.1-4.2
				c1.8-1.9-0.1-11.1-0.1-11.1c4.4,2.3,6.2,9.8,6.2,9.8c1.3-3.1-7.5-14.2-7.5-14.2c11.3,1.8,19,6.8,23.9,12.4
				C564.3,190.5,565.2,200.1,561.9,203.5z"/>
			<path class="st8" d="M557.3,182.4c0,0-3.2-1.5-6.3-0.3c-3.1,1.2-1.2,2.6-4.2,4.5c-3,1.9-1.8-0.6-6.4,0c-4.6,0.6-2.9,3.4-4.7,3.9
				c-0.8,0.2-1.3-0.2-1.8-0.7c0.1-2.1,0.6-3.7,1.1-4.2c1.8-1.9-0.1-11.1-0.1-11.1c4.4,2.3,6.2,9.8,6.2,9.8
				c1.3-3.1-7.5-14.2-7.5-14.2C544.7,171.8,552.4,176.8,557.3,182.4z"/>
		</g>
	</g>
	<g>
		<g>
			<path class="st20" d="M609.5,305.8c-2.2,6-70.3-85.5-67.2-93.2c0,0,3-3.9,9.6-6.6c3.6-1.5,8.3-2.7,14.2-2.7
				c15.3,0,41.7,83.6,43.5,100C609.7,304.5,609.7,305.4,609.5,305.8z"/>
			<path class="st21" d="M609.6,303.3c-15-28.7-45.5-77.8-57.6-97.3c3.6-1.5,8.3-2.7,14.2-2.7C581.3,203.3,607.7,286.9,609.6,303.3z
				"/>
		</g>
		<path class="st22" d="M598.7,384.3c0,0-4.6-5.1-8.7-10.6c1.1,0,2.1,0.1,3,0.1C596.1,380.3,598.7,384.3,598.7,384.3z"/>
		<rect x="235.2" y="506.1" class="st23" width="0" height="0"/>
		<path class="st24" d="M216.4,343c0,0,0.5,6.4,5.4,8.5c3.4,1.5,11.8,1.7,16.6,1.8c5.3-6.9,11.7-17.7,11.9-31.5c0-1.5,0-3.6-0.5-7.8
			c-0.9-8-3-19.1-7.9-32.9l0-0.1c0,0-0.4,0-1.2,0c-3.7,0-14.7,0-18.8,1.8c-4.9,2.1-5.4,8.5-5.4,8.5s0.4,0,1,0
			c3.7,0.1,16.2,1.1,15.8,11.8v28.2c0.1,4.1-1.6,6.8-4.1,8.5c-3.9,2.8-9.6,3.2-11.8,3.3c0,0-0.1,0-0.1,0
			C216.7,343,216.4,343,216.4,343z"/>
		<path class="st25" d="M217.3,343c2.2,0,7.9-0.4,11.8-3.3c2.4-1.7,4.2-4.4,4.1-8.5V303c0.3-10.7-12.1-11.7-15.8-11.8
			C217.2,291.8,208,317.2,217.3,343z"/>
		<g>
			<g>
				<path class="st23" d="M490.9,320.3c0,0.1-0.6,1.5-2,3.8C489.5,322.9,490.2,321.6,490.9,320.3z"/>
			</g>
			<path class="st23" d="M279.5,323.6C279.5,323.7,279.5,323.7,279.5,323.6C279.5,323.7,279.5,323.7,279.5,323.6
				C279.5,323.7,279.5,323.7,279.5,323.6z M279.5,323.5c-0.5-1-1-1.9-1.6-2.9c0,0,0,0,0,0c0,0,0-0.1,0-0.1c0,0,0-0.1,0-0.1
				c0,0,0,0,0,0v0c0,0,0,0,0,0l0,0c0,0,0,0,0,0c0,0,0,0,0,0c0,0,0,0,0,0c0,0,0,0.1,0.1,0.1v0c0,0,0,0.1,0.1,0.1c0,0,0,0,0,0
				c0,0,0,0.1,0.1,0.1c0,0,0,0,0,0v0c0,0.1,0.1,0.1,0.1,0.2l0,0c0,0,0,0.1,0.1,0.1c0,0,0,0.1,0,0.1l0,0c0,0.1,0.1,0.2,0.1,0.2
				c0,0.1,0.1,0.2,0.1,0.2c0,0,0,0,0,0c0.1,0.1,0.1,0.2,0.1,0.3c0,0.1,0.1,0.2,0.1,0.2c0,0,0,0,0,0c0,0,0,0,0,0
				c0,0.1,0.1,0.1,0.1,0.2c0.1,0.2,0.2,0.3,0.3,0.5c0.1,0.1,0.1,0.2,0.2,0.3C279.4,323.4,279.4,323.5,279.5,323.5
				C279.4,323.5,279.4,323.5,279.5,323.5c0,0.1,0,0.1,0.1,0.1c0,0,0,0,0,0C279.5,323.6,279.5,323.6,279.5,323.5z"/>
			<path class="st23" d="M531,354.2c-47.6,69.2-138.4,77.1-146.3,77.6c-0.1,0-0.6,0-0.6,0c-5.1-0.4-47.9-4-89.9-27.4l0,0
				c-11.6-6.5-23.2-14.5-33.9-24.4c-8.1-7.5-15.7-16.1-22.5-25.9c0.2-0.3,0.5-0.6,0.7-0.9c5.3-6.9,11.7-17.7,11.9-31.5
				c0-1.6,0-3.6-0.5-7.8c-0.9-8-3-19.2-8-33c-0.6-1.7-1.2-3.4-1.9-5.2c1.4,1.1,2.8,2.3,4.3,3.6c10.7,9.3,23.5,22.7,33.5,40.8
				c0,0,0,0,0,0c0,0,0,0,0,0.1v0c0,0,0,0,0-0.1c0,0,0,0,0,0c0,0,0,0,0,0.1c0,0.1,0.1,0.1,0.1,0.2c0,0.1,0.1,0.2,0.1,0.3
				c0.1,0.1,0.1,0.2,0.2,0.4c0.3,0.6,0.7,1.4,1.4,2.4c0-0.1-0.1-0.1-0.1-0.2c0,0.1,0.1,0.1,0.1,0.2c0,0,0,0,0,0
				c2.5,4,8,11,18.9,17.9c15.5,9.8,41.9,19.2,86.1,19.2c74.3,0,98-26.6,104.3-36.7c1.4-2.3,2-3.7,2-3.8c0,0,0,0,0,0
				c0.5-1,1.1-2,1.7-2.9c0.2-0.3,0.4-0.6,0.5-0.9c0.4-0.7,0.8-1.3,1.2-1.9c0.2-0.3,0.4-0.6,0.6-0.9c0.5-0.8,1-1.6,1.5-2.3
				c0.2-0.3,0.4-0.6,0.6-0.9c0.1-0.1,0.2-0.2,0.2-0.4c0.2-0.3,0.4-0.6,0.6-0.8c1.1-1.6,2.3-3.2,3.4-4.8c0.3-0.4,0.6-0.7,0.8-1.1
				c0.7-0.9,1.4-1.8,2.1-2.8c0.3-0.4,0.7-0.8,1-1.2c0.3-0.4,0.7-0.8,1-1.3c1.4-1.6,2.7-3.2,4.1-4.7c4.3-4.8,8.6-8.9,12.7-12.5
				c2-1.8,3.9-3.4,5.8-4.9c-0.7,1.8-1.4,3.5-2,5.3c-4.9,13.8-7,25-7.9,32.9c-0.5,4.1-0.5,6.2-0.5,7.8c0.2,13.8,6.6,24.6,11.9,31.5
				C530.5,353.6,530.7,353.9,531,354.2z"/>
		</g>
		<path class="st23" d="M279.5,323.7c-1.3-2.1-1.8-3.3-1.8-3.4c0,0,0,0.1,0.1,0.1c0,0,0,0,0,0c0.2,0.4,0.6,1.5,1.7,3.1
			C279.5,323.6,279.5,323.7,279.5,323.7z"/>
		<path class="st26" d="M524.7,269.7c0,0-0.9,0.8-2.4,2.2c-2.6,2.4-7,6.8-12,12.6c-2.3,2.7-4.8,5.6-7.2,8.8
			c-0.6,0.8-1.2,1.6-1.8,2.4c0,0-0.1,0.1-0.1,0.1c-0.3,0.4-0.5,0.7-0.8,1.1c-0.3,0.4-0.5,0.7-0.8,1.1c0,0-0.1,0.1-0.1,0.1
			c-0.3,0.4-0.6,0.8-0.9,1.3c-0.3,0.4-0.6,0.8-0.9,1.3c-0.3,0.4-0.5,0.8-0.8,1.2c0,0-0.1,0.1-0.1,0.1c-0.3,0.4-0.6,0.9-0.9,1.3
			c-0.3,0.4-0.6,0.9-0.8,1.3c-0.3,0.4-0.5,0.8-0.8,1.3c-0.7,1.1-1.4,2.3-2,3.4c-0.1,0.2-0.3,0.5-0.4,0.7c-0.2,0.3-0.4,0.7-0.6,1.1
			c-0.2,0.3-0.3,0.6-0.5,0.9c-0.4,0.8-0.8,1.5-1.2,2.3l0,0.1c0,0,0,0-0.1,0.1c-1.3,1.7-27.2,36.5-104.3,36.5
			c-79.1,0-106.2-36.6-106.2-36.6l0,0l-0.1-0.2c-0.2-0.5-0.5-1-0.8-1.5c0,0,0,0,0,0c-0.2-0.5-0.5-1-0.8-1.5c0-0.1-0.1-0.1-0.1-0.2
			c-0.2-0.4-0.4-0.8-0.6-1.2c-0.3-0.6-0.7-1.2-1-1.8c-0.3-0.4-0.5-0.9-0.8-1.3c-0.3-0.6-0.7-1.1-1-1.7c-0.3-0.4-0.5-0.8-0.8-1.2
			c0,0,0,0,0,0c-0.3-0.5-0.6-0.9-0.9-1.4c-0.6-1-1.3-1.9-1.9-2.8c-0.2-0.4-0.5-0.7-0.7-1.1c-0.1-0.1-0.1-0.2-0.2-0.3
			c-0.3-0.5-0.6-0.9-1-1.4c-0.3-0.4-0.6-0.9-1-1.3c-0.3-0.4-0.7-0.9-1-1.3c-0.4-0.5-0.7-1-1.1-1.5c-0.3-0.4-0.6-0.7-0.9-1.1
			c-0.3-0.4-0.6-0.8-1-1.2c0,0,0,0,0,0c-0.3-0.4-0.7-0.8-1-1.2c-0.3-0.4-0.6-0.8-1-1.2c-0.3-0.4-0.6-0.8-1-1.2c-0.8-1-1.7-2-2.5-2.9
			c-0.3-0.3-0.5-0.6-0.8-0.9c-1.1-1.2-2.1-2.3-3.1-3.4c-0.3-0.3-0.6-0.6-0.8-0.9c-1.2-1.3-2.4-2.5-3.5-3.6c-0.1-0.1-0.3-0.3-0.4-0.4
			c-0.3-0.3-0.6-0.6-0.9-0.9c-0.2-0.2-0.4-0.4-0.6-0.6c-0.1-0.1-0.2-0.2-0.3-0.3c-0.2-0.2-0.3-0.3-0.5-0.5c-0.5-0.5-1-1-1.4-1.3
			c-0.1-0.1-0.3-0.3-0.4-0.4c-0.8-0.8-1.3-1.2-1.3-1.2c6.7-29.6,30.2-38.9,33.8-40.2c0.3-0.1,0.5-0.2,0.5-0.2
			c-0.8-4.7,2.6-6.3,2.6-6.3c1.9,2.4,3.9,4.6,6,6.7c0.4,0.4,0.8,0.8,1.2,1.1l0,0.1c0.2,0.2,0.4,0.4,0.7,0.6c2.5,2.4,5.2,4.6,8,6.6
			c4.2,3.1,8.5,5.8,13,8.1c15.1,8,31.4,12.3,44.9,14.6c0,0,0,0,0,0c10.4,1.8,19.2,2.3,24.4,2.5c0.1,0,0.3,0,0.4,0c0.1,0,0.2,0,0.3,0
			c0.2,0,0.5,0,0.7,0h0.2c0.1,0,0.3,0,0.4,0c1.6,0,2.6,0,3.1,0h0.1c0.1,0,0.1,0,0.2,0c0,0,0,0,0,0v0.2h0.7c0.5,0,1.3,0,2.1,0
			c0.1,0,0.2,0,0.4,0h0.2c0.7,0,1.5,0,2.4-0.1c1.3-0.1,2.7-0.1,4.3-0.2c0.3,0,0.5,0,0.8-0.1c12.8-0.9,34.6-3.8,55.5-13
			c0.1-0.1,0.3-0.1,0.4-0.2c3-1.3,6-2.8,8.9-4.4c0.1-0.1,0.3-0.2,0.4-0.3c0,0,0,0,0.1,0c5-2.8,9.9-6,14.5-9.8c1-0.8,2-1.7,3.1-2.6
			c0.2-0.2,0.3-0.3,0.5-0.4c0.5-0.4,1-0.9,1.4-1.3c0.5-0.4,0.9-0.9,1.3-1.3c0.1-0.1,0.2-0.2,0.3-0.3c0.1-0.1,0.1-0.1,0.2-0.2
			c0.1,0,0.1-0.1,0.1-0.1l0.6,0.1c-0.1-0.1-0.2-0.2-0.4-0.3c0,0,0,0,0,0c1.9-1.9,3.7-3.9,5.4-6c0,0,3.4,1.6,2.6,6.3
			C490.5,229.3,517.5,237.6,524.7,269.7z"/>
		<path class="st23" d="M384.6,263.3c0,0-0.1,0-0.2,0C384.5,263.3,384.5,263.3,384.6,263.3L384.6,263.3z"/>
		<path class="st23" d="M279.3,314.3c0,0,0-0.1-0.1-0.2L279.3,314.3z"/>
		<path class="st23" d="M379.8,263.2c-0.1,0-0.3,0-0.4,0c-5.2-0.2-14-0.7-24.4-2.5c0,0,0,0,0,0c-17.5-3-39.7-9.3-58-22.7
			c-3-2.2-5.9-4.6-8.6-7.2l0-0.1c0,0,0.1,0.1,0.1,0.1c2.7,2.6,5.6,5,8.6,7.2c18.2,13.5,40.4,19.8,58,22.7c0,0,0,0,0,0
			c10.4,1.8,19.2,2.3,24.4,2.5C379.6,263.2,379.7,263.2,379.8,263.2z"/>
		<path class="st23" d="M384.7,263.3v0.2h-0.1L384.7,263.3C384.7,263.3,384.7,263.3,384.7,263.3z"/>
		<path class="st23" d="M482.9,229.4l-0.6-0.1c0,0,0,0,0,0c0.1-0.1,0.1-0.1,0.2-0.2C482.6,229.3,482.8,229.4,482.9,229.4z"/>
		<path class="st23" d="M384.7,263.3C384.7,263.3,384.7,263.3,384.7,263.3c-0.1,0-0.1,0-0.1,0c0,0-0.1,0-0.2,0h-0.1
			c-0.5,0-1.5,0-3.1,0c-0.1,0-0.2,0-0.4,0c-0.1,0-0.1,0-0.2,0c-0.2,0-0.4,0-0.7,0c-0.2,0-0.4,0-0.6,0l0,0L384.7,263.3L384.7,263.3z"
			/>
		<path class="st23" d="M385.4,263.5L385.4,263.5c-0.3,0-0.5,0-0.7,0v-0.2L385.4,263.5z"/>
		<path class="st27" d="M279.3,314.3"/>
		<g>
			<path class="st24" d="M288.1,229.9L288.1,229.9c-0.1-0.1-0.1-0.1-0.2-0.2c0.1-0.1,0.1-0.1,0.1-0.1L288.1,229.9z"/>
			<path class="st24" d="M385.8,207.8h0.3C385.9,207.8,385.8,207.8,385.8,207.8L385.8,207.8z"/>
			<path class="st24" d="M482.9,229.4l-0.6-0.1c0,0-0.1,0.1-0.1,0.1c-2.2,2.2-4.5,4.3-6.9,6.2c-4.5,3.7-9.4,6.9-14.3,9.6
				c0,0,0,0-0.1,0c0,0,0,0,0,0c5-2.8,9.8-6,14.4-9.6c2.4-1.9,4.7-4,6.9-6.2c0-0.1,0.1-0.1,0.1-0.2c0.1-0.1,0.1-0.1,0.2-0.2
				c0,0,0,0,0.1,0C482.6,229.3,482.8,229.4,482.9,229.4z"/>
			<path class="st24" d="M482.4,229.1c-0.1,0.1-0.1,0.2-0.2,0.2c0,0.1-0.1,0.1-0.1,0.2c-2.2,2.2-4.5,4.3-6.9,6.2
				c-4.5,3.7-9.4,6.9-14.4,9.6c-0.2,0.1-0.3,0.2-0.5,0.3c-23.3,12.8-49.9,16.5-64.7,17.5c-0.3,0-0.6,0-0.8,0.1
				c-1.6,0.1-3,0.2-4.3,0.2c-0.9,0-1.7,0.1-2.4,0.1h-0.2c-0.1,0-0.3,0-0.4,0c-0.9,0-1.6,0-2.1,0h-0.7v-0.2c0,0,0,0-0.1,0
				c0,0-0.1,0-0.2,0c-0.5,0-1.5,0-3.1,0c-0.1,0-0.2,0-0.4,0h-0.2c-0.2,0-0.4,0-0.7,0c-0.1,0-0.2,0-0.3,0c-0.1,0-0.3,0-0.4,0
				c-5.2-0.2-14-0.7-24.4-2.5c0,0,0,0,0,0c-13.9-2.3-30.8-6.8-46.3-15.3c-4-2.2-7.9-4.7-11.7-7.4c-3-2.2-5.9-4.6-8.6-7.2l0-0.1
				l-0.2-0.8v0l-0.1-0.3v0c0.1-0.1,1.1-0.9,3.2-2.2c2.1-1.3,5.4-3.1,9.8-5.1c3.7-1.6,8.2-3.4,13.6-5.1c6.4-2,14-3.9,23-5.5
				c2-0.4,4.2-0.7,6.3-1c7.2-1.1,15.1-1.9,23.9-2.4c5.6-0.3,11.6-0.5,17.9-0.5h0.4c0.9,0,1.8,0,2.6,0c3.6,0,7.2,0.1,10.6,0.3
				c4.6,0.2,9,0.5,13.2,0.9c11.9,1.1,22.1,2.8,30.8,4.7c5.1,1.2,9.6,2.4,13.6,3.7h0c12.1,3.9,19.5,7.9,23.2,10.3
				C481.2,228.2,481.9,228.7,482.4,229.1z"/>
			<path class="st24" d="M482.2,229.3c0,0-0.1,0.1-0.1,0.1c-2.2,2.2-4.5,4.3-6.9,6.2c-4.5,3.7-9.4,6.9-14.3,9.6c0,0,0,0-0.1,0
				c0,0,0,0,0,0c5-2.8,9.8-6,14.4-9.6c2.4-1.9,4.7-4,6.9-6.2C482.1,229.4,482.1,229.3,482.2,229.3L482.2,229.3z"/>
		</g>
		<path class="st24" d="M522.9,280.7c-4.1,3.6-8.4,7.8-12.7,12.5c-1.4,1.5-2.7,3.1-4.1,4.7c-0.3,0.4-0.7,0.8-1,1.3
			c-0.3,0.4-0.7,0.8-1,1.2c-0.7,0.9-1.4,1.8-2.1,2.8c-0.3,0.4-0.6,0.7-0.8,1.1c-1.1,1.5-2.3,3.1-3.4,4.8c-0.2,0.3-0.4,0.6-0.6,0.8
			c-0.1,0.1-0.2,0.2-0.2,0.4c-0.2,0.3-0.4,0.6-0.6,0.9c-0.5,0.8-1,1.6-1.5,2.3c-0.2,0.3-0.4,0.6-0.6,0.9c-0.4,0.6-0.8,1.3-1.2,1.9
			c-0.2,0.3-0.4,0.6-0.5,0.9c-0.6,1-1.1,1.9-1.7,2.9c0,0,0,0,0,0c0,0.1-0.6,1.5-2,3.8c-6.3,10.1-30,36.7-104.3,36.7
			c-21.1,0-38.2-2.2-52-5.5c-10.3-2.5-18.7-5.6-25.6-9c-16.6-8.1-24.3-17.6-27.4-22.6c0,0,0,0,0,0c-1.3-2.1-1.8-3.3-1.8-3.4
			c0,0,0,0,0,0c-9.9-18.1-22.7-31.5-33.5-40.8v0c0-4.1,0.7-7,1.4-8.8c0.1,0.1,0.3,0.2,0.4,0.4c0.4,0.4,0.9,0.8,1.4,1.4
			c0.2,0.2,0.3,0.3,0.5,0.5c0.1,0.1,0.2,0.2,0.4,0.3c0.2,0.2,0.4,0.4,0.6,0.6c0.3,0.3,0.6,0.6,0.9,0.9c0.1,0.1,0.3,0.3,0.4,0.4
			c1.1,1.1,2.2,2.3,3.5,3.6c0.3,0.3,0.6,0.6,0.8,0.9c1,1.1,2,2.2,3.1,3.4c0.3,0.3,0.5,0.6,0.8,0.9c0.8,0.9,1.6,1.9,2.5,2.9
			c0.3,0.4,0.6,0.8,1,1.2s0.6,0.8,1,1.2c0.3,0.4,0.7,0.8,1,1.2c0,0,0,0,0,0c0.3,0.4,0.6,0.8,1,1.2c0.3,0.4,0.6,0.7,0.8,1.1
			c0.4,0.5,0.7,1,1.1,1.5c0.3,0.4,0.7,0.9,1,1.3c0.3,0.4,0.6,0.9,1,1.3c0.3,0.5,0.6,0.9,1,1.4c0.1,0.1,0.1,0.2,0.2,0.3
			c0.2,0.4,0.5,0.7,0.7,1.1c0.6,0.9,1.3,1.9,1.9,2.8c0.3,0.5,0.6,0.9,0.9,1.4c0,0,0,0,0,0c0.3,0.4,0.5,0.8,0.8,1.2
			c0.3,0.5,0.7,1.1,1,1.7c0.3,0.4,0.5,0.9,0.8,1.3c0.4,0.6,0.7,1.2,1,1.9c0.2,0.4,0.4,0.8,0.6,1.2c0,0.1,0.1,0.1,0.1,0.2
			c0.3,0.5,0.5,1,0.8,1.4c0,0,0,0,0,0c0.3,0.5,0.5,1,0.8,1.5l0.1,0.2l0,0c0,0,27.1,36.6,106.2,36.6s104.4-36.6,104.4-36.6l0-0.1
			c0.4-0.8,0.8-1.5,1.2-2.3c0.2-0.3,0.3-0.6,0.5-0.9c0.2-0.4,0.4-0.7,0.6-1.1c0.1-0.2,0.3-0.5,0.4-0.7c0.7-1.2,1.3-2.3,2-3.4
			c0.3-0.4,0.5-0.8,0.8-1.3c0.3-0.4,0.6-0.9,0.8-1.3c0.3-0.4,0.6-0.9,0.8-1.3c0,0,0-0.1,0.1-0.1c0.3-0.4,0.5-0.8,0.8-1.2
			c0.3-0.4,0.6-0.8,0.9-1.3c0.3-0.4,0.6-0.8,0.9-1.3c0-0.1,0.1-0.1,0.1-0.2c0.3-0.4,0.5-0.7,0.8-1.1c0.3-0.4,0.5-0.7,0.8-1.1
			c0,0,0-0.1,0.1-0.1c0.6-0.8,1.2-1.6,1.8-2.4c2.4-3.2,4.9-6.2,7.2-8.8c5-5.8,9.4-10.1,12-12.6C522.8,273.8,523.3,276.7,522.9,280.7
			z"/>
		<path class="st24" d="M552.2,343c0,0-0.5,6.4-5.4,8.5c-0.6,0.2-1.2,0.4-2,0.6c-4,0.9-10.6,1.1-14.6,1.2
			c-5.3-6.9-11.7-17.7-11.9-31.5c0-1.6,0-3.6,0.5-7.8c0.9-7.3,2.6-17.2,6.7-29.4c0.4-1.2,0.8-2.3,1.2-3.5l0-0.1c0,0,0.5,0,1.2,0
			c3.7,0,14.7,0,18.8,1.8c4.9,2.1,5.4,8.5,5.4,8.5s-0.4,0-1,0c-3.7,0.1-16.2,1.1-15.8,11.8v28.2c-0.1,4.1,1.6,6.8,4.1,8.5
			c3.9,2.8,9.6,3.2,11.8,3.3c0,0,0.1,0,0.1,0C551.9,343,552.2,343,552.2,343z"/>
		<path class="st25" d="M551.2,343c-2.2,0-7.9-0.4-11.8-3.3c-2.4-1.7-4.2-4.4-4.1-8.5V303c-0.3-10.7,12.1-11.7,15.8-11.8
			C551.4,291.8,560.6,317.2,551.2,343z"/>
		<path class="st23" d="M235.2,506.5"/>
		<path class="st23" d="M235.3,506.2"/>
		<g>
			<path class="st24" d="M535.5,463.8c-0.2,2.5-0.5,4.5-0.7,5.8c-0.1,0.8-0.2,1.2-0.2,1.2c-0.8,13.4-2.2,27.3-4.5,41.5H242
				c-1.8-11.5-3.1-22.8-4-33.8c-0.2-2.6-0.4-5.2-0.5-7.7c0,0-1.2-6.7-1.3-13.9c0-1.2,0-2.5,0.1-3.7c0.1-1.4,0.2-2.8,0.4-4.2
				c0.7-4.4,2.2-8,5.2-9.3c0,0,4.8-1.4,14.3-3.4c4.9-1,11.1-2.2,18.5-3.3c12.3-1.9,28.2-3.9,47.5-5.4c4.6-0.4,9.5-0.7,14.5-1
				c4.3-0.2,8.8-0.5,13.3-0.6c10.4-0.4,21.5-0.7,33.4-0.7c1.8,0,3.6,0,5.4,0c10.8,0,20.9,0.3,30.5,0.6c4.7,0.2,9.2,0.4,13.6,0.6
				c27.3,1.5,48.9,4,64.7,6.5c4.1,0.6,7.9,1.3,11.3,1.9c5.3,1,9.7,1.9,13,2.7c0.2,0,0.4,0.1,0.7,0.1c5.2,1.2,7.9,2,7.9,2
				C536.6,442.4,536.4,455.5,535.5,463.8z"/>
		</g>
		<polygon class="st23" points="386.3,468.8 386.3,469.1 386,468.9 		"/>
		<polygon class="st23" points="386,468.9 385.7,469.1 385.7,468.8 		"/>
		<g>
			<path class="st26" d="M542.3,475.4L542.3,475.4c-0.1,5.3-0.4,10.7-0.8,16c-0.5,7.4-1.3,14.6-2.1,21H232.6
				c-0.8-6.6-1.6-14-2.2-21.6c-0.1-2.1-0.3-4.1-0.4-6.2c-0.2-4-0.3-8-0.4-11.9c0-1,0-2.1,0-3.1c0-4.5,0.2-8.9,0.6-13
				c0.1-1.3,0.3-2.5,0.4-3.7c0.2-1.5,0.5-2.9,0.7-4.3c0.5-2.4,1.1-4.6,1.8-6.6c2.9-7.9,7.3-13,12.1-16.2c10.9-7.2,23.6-4.9,24.3-4.8
				c0,0,0,0,0,0s1.9,5.1,4.8,12c6,14.3,16.1,36.4,21.2,36.6c7.5,0.3,24.4-12.6,90.3-12.6h0.1c65.9,0,82.7,12.9,90.3,12.6
				c5.1-0.2,15.2-22.3,21.2-36.6c2.9-6.9,4.8-12,4.8-12s11.9-2.4,22.6,3.8c1.1,0.6,2.1,1.3,3.2,2.1c4.2,3.2,8,8,10.6,15.1
				c2.4,6.7,3.4,15.9,3.6,26.1C542.4,470.5,542.4,472.9,542.3,475.4z"/>
		</g>
		<path class="st28" d="M430.6,438.3c-37.8,10.8-92.1,0-92.1,0c-0.8-3.1-1.3-6.3-1.7-9.5c-0.6-5.1-0.7-10-0.6-14.6
			c0.3-11.5,2.3-20.1,2.3-20.1c18.2-4.9,38.1-5.5,54.7-4.7h0c21.4,1.1,37.4,4.7,37.4,4.7c1.5,6.4,2.2,12.4,2.5,17.7c0,0,0,0,0,0
			C434,428.1,430.6,438.3,430.6,438.3z"/>
		<path class="st28" d="M581.1,391.3"/>
		<path class="st29" d="M163,468.9c0,0,4.2-0.1,9.9-1.5c5.7-1.4-5.2-7.5-5.2-7.5L163,468.9z"/>
		<path class="st28" d="M598.7,374.8c-0.1-0.1-0.3-0.2-0.4-0.3c-0.1-0.1-0.3-0.2-0.4-0.3c-1.3-1-2.8-1.9-4.4-2.6
			c-0.4-0.2-0.9-0.4-1.3-0.6c0,0,0,0-0.1,0c-0.4-0.2-0.8-0.3-1.2-0.5c-0.1,0-0.2-0.1-0.3-0.1c-0.2-0.1-0.4-0.2-0.6-0.2
			c-0.3-0.1-0.6-0.2-0.9-0.3c-0.3-0.1-0.5-0.2-0.8-0.3c-0.6-0.2-1.1-0.4-1.7-0.5c0,0,0,0,0,0c-0.3-0.1-0.5-0.2-0.8-0.2
			c-0.4-0.1-0.7-0.2-1.1-0.3c-0.5-0.2-1.1-0.3-1.6-0.4c-0.3-0.1-0.6-0.1-0.9-0.2c-4.7-1.1-9.6-1.8-13.7-2.2c-0.2,0-0.5,0-0.7-0.1
			c-0.9-0.1-1.7-0.1-2.5-0.2c-0.3,0-0.7,0-1-0.1c-0.5,0-1-0.1-1.4-0.1c-0.8,0-1.5-0.1-2.1-0.1c-0.4,0-0.8,0-1.2,0c0,0,0,0,0,0
			c-0.4,0-0.7,0-1,0c-1.1,0-1.7,0-1.7,0c-0.3-3.5-0.5-8.7-0.4-14.7c0.1-23.8,2.4-60.9,2.4-60.9c1.3-0.4,2.6-0.8,3.9-1.1
			c13.7-3.2,29.4,0,37,1.9h0c2.8,0.7,4.5,1.3,4.5,1.3C610.4,307.4,598.7,374.8,598.7,374.8z"/>
		<path class="st28" d="M598,374.4c-1.6-0.6-4.3-0.6-7.9-0.8c-7.8-0.3-19.6-1-33-8.7c0,0,0.6,0,1.7,0c0.3,0,0.6,0,1,0c0,0,0,0,0,0
			c0.4,0,0.8,0,1.2,0c0.6,0,1.3,0.1,2.1,0.1c0.5,0,0.9,0.1,1.4,0.1c0.3,0,0.7,0,1,0.1c0.8,0.1,1.7,0.1,2.5,0.2c0.2,0,0.5,0,0.7,0.1
			c4.2,0.4,9,1.1,13.7,2.2c0.3,0.1,0.6,0.1,0.9,0.2c0.5,0.1,1.1,0.3,1.6,0.4c0.4,0.1,0.7,0.2,1.1,0.3c0.3,0.1,0.5,0.2,0.8,0.2
			c0,0,0,0,0,0c0.6,0.2,1.1,0.4,1.7,0.5c0.3,0.1,0.5,0.2,0.8,0.3c0.3,0.1,0.6,0.2,0.9,0.3c0.2,0.1,0.4,0.2,0.6,0.2
			c0.1,0,0.2,0.1,0.3,0.1c0.4,0.2,0.8,0.3,1.2,0.5c0,0,0,0,0.1,0c0.4,0.2,0.9,0.4,1.3,0.6c1.6,0.8,3.1,1.6,4.4,2.6v0L598,374.4z"/>
		<path class="st29" d="M598.7,374.8c-0.2-0.1-0.5-0.3-0.7-0.4l0-0.2c0.1,0.1,0.3,0.2,0.4,0.3C598.5,374.6,598.6,374.7,598.7,374.8z
			"/>
		<path class="st30" d="M580.2,404.6c-1,6.5-1.8,11.3-1.8,11.5c-6,0.9-12.7,2.6-19.4,4.6c0.7-5.3,1.5-11.1,2.3-17.5
			C564.4,402.6,580.2,404.6,580.2,404.6z"/>
		<path class="st30" d="M563.5,386.6c7.9,0.4,19,1.9,19,1.9c-0.2,1.8-0.5,3.7-0.7,5.5c-0.1,0.5-0.1,1.1-0.2,1.6
			c-0.2,1.4-0.4,2.9-0.6,4.3c-0.1,0.5-0.1,0.9-0.2,1.3c-0.1,0.6-0.2,1.2-0.3,1.7c-4.3-1-19-0.9-19-0.9
			C562.1,397.1,562.8,392,563.5,386.6z"/>
		<path class="st30" d="M583.8,375.7c0,0.7-0.1,1.5-0.2,2.4c0,0.3-0.1,0.7-0.1,1c-0.1,0.8-0.2,1.7-0.3,2.6c0,0.2,0,0.4-0.1,0.5
			c0,0.4-0.1,0.7-0.1,1.1c0,0.1,0,0.3-0.1,0.4c0,0.2,0,0.4-0.1,0.6c-0.1,0.5-0.1,1-0.2,1.4c0,0.3-0.1,0.7-0.1,1c0,0,0,0,0,0.1
			c0,0.3-0.1,0.7-0.1,1.1c0,0,0,0,0,0.1c-2.9-1-12.9-2-18.9-2.6c0.8-5.8,1.6-11.9,2.4-18.2c6.1,0.2,16.1,0.9,17.6,2.5
			c0.1,0.1,0.2,0.3,0.2,0.6c0,0.2,0.1,0.4,0.1,0.7C584,372.2,584,373.8,583.8,375.7z"/>
		<path class="st30" d="M599.9,290.2L599.9,290.2c-2.1-0.6-4.9-1.2-8.1-1.8c-8.2-1.5-19-2.4-28.9-0.2c0,0-9.9-19.2,3.1-27.1
			c3.4-2.1,8.3-3.3,15.3-3.3C615.4,257.8,599.9,290.2,599.9,290.2z"/>
		<path class="st31" d="M587.7,369.2c-0.4,6.5-1.7,27.3-3.6,46.3c-1.8,0.1-3.7,0.4-5.7,0.7c0-0.2,0.8-5.1,1.8-11.5
			c0,0-15.8-2-18.9-1.4c0-0.4,0.1-0.8,0.1-1.2c0,0,14.7-0.1,19,0.9c0.1-0.6,0.2-1.1,0.3-1.7c0.1-0.4,0.1-0.9,0.2-1.3
			c0.2-1.4,0.4-2.8,0.6-4.3c0.1-0.5,0.1-1.1,0.2-1.6c0.3-1.8,0.5-3.7,0.7-5.5c0,0-11.1-1.5-19-1.9c0.1-0.4,0.1-0.7,0.1-1.1
			c6,0.5,16,1.5,18.9,2.6c0,0,0-0.1,0-0.1c0-0.4,0.1-0.7,0.1-1.1c0,0,0,0,0-0.1c0-0.3,0.1-0.7,0.1-1c0.1-0.5,0.1-1,0.2-1.4
			c0-0.2,0.1-0.4,0.1-0.6c0-0.1,0-0.3,0.1-0.4c0-0.4,0.1-0.8,0.1-1.1c0-0.2,0-0.4,0.1-0.5c0.1-0.9,0.2-1.8,0.3-2.6
			c0-0.3,0.1-0.7,0.1-1c0.1-0.8,0.1-1.6,0.2-2.4c0.1-2,0.2-3.6,0.1-4.6c0-0.3-0.1-0.5-0.1-0.7c-0.1-0.3-0.1-0.5-0.2-0.6
			c-1.4-1.6-11.5-2.2-17.6-2.5c0-0.1,0-0.2,0-0.3c0.1-0.6,0.2-1.2,0.3-1.8C572.4,365.8,580.5,366.9,587.7,369.2z"/>
		<path class="st31" d="M583.3,381.7c0.1-0.9,0.2-1.8,0.3-2.6C583.5,379.9,583.4,380.8,583.3,381.7z"/>
		<path class="st31" d="M583.6,378.1c0.1-0.8,0.1-1.6,0.2-2.4C583.8,376.5,583.7,377.3,583.6,378.1z"/>
		<path class="st31" d="M583.9,371.1c0-0.3-0.1-0.5-0.1-0.7C583.8,370.6,583.9,370.9,583.9,371.1z"/>
		<path class="st31" d="M599.9,290.2L599.9,290.2c-2.1-0.6-4.9-1.2-8.1-1.8c0,0,16.7-27-25.7-27.3c3.4-2.1,8.3-3.3,15.3-3.3
			C615.4,257.8,599.9,290.2,599.9,290.2z"/>
		<path class="st24" d="M598.7,384.3c0,0-1.3-2.1-3.2-5.7c-0.7-1.4-1.6-3-2.4-4.9c-7.7-16.3-18.5-48.2,1.4-70.6
			c1.3-1.5,2.7-2.9,4.3-4.3C598.7,298.9,633.9,335.7,598.7,384.3z"/>
		<path class="st32" d="M489.8,314.4c0-0.1,0-0.1,0-0.2L489.8,314.4C489.9,314.3,489.8,314.3,489.8,314.4z"/>
		<path class="st32" d="M524.7,269.7c0,0-0.9,0.8-2.4,2.2c-2.6,2.4-7,6.8-12,12.6c-2.3,2.7-4.8,5.6-7.2,8.8
			c-0.6,0.8-1.2,1.6-1.8,2.4c0,0-0.1,0.1-0.1,0.1c-0.3,0.4-0.5,0.7-0.8,1.1c-0.3,0.4-0.5,0.7-0.8,1.1c0,0-0.1,0.1-0.1,0.1
			c-0.3,0.4-0.6,0.8-0.9,1.3c-0.3,0.4-0.6,0.8-0.9,1.3c-0.3,0.4-0.5,0.8-0.8,1.2c0,0-0.1,0.1-0.1,0.1c-0.3,0.4-0.6,0.9-0.9,1.3
			c-0.3,0.4-0.6,0.9-0.8,1.3c-0.3,0.4-0.5,0.8-0.8,1.3c-0.7,1.1-1.4,2.3-2,3.4c-0.1,0.2-0.3,0.5-0.4,0.7c-0.2,0.3-0.4,0.7-0.6,1.1
			c-0.2,0.3-0.3,0.6-0.5,0.9c-0.4,0.8-0.8,1.5-1.2,2.3c4-26.7,29.4-45.8,28.5-48.6c-0.9-2.9-25.8-35.5-31.9-31.3
			c-4.5,3.1-24.7,11.5-34.9,15.7c3-1.3,6-2.8,8.9-4.4c0.1-0.1,0.3-0.2,0.4-0.3c0,0,0,0,0.1,0c5-2.8,9.9-6,14.5-9.8
			c2.3-1.8,4.5-3.8,6.6-5.9c0.1-0.1,0.1-0.1,0.2-0.2c0.1,0,0.1-0.1,0.1-0.1l0.6,0.1c-0.1-0.1-0.2-0.2-0.4-0.3c0,0,0,0,0,0
			c1.9-1.9,3.7-3.9,5.4-6c0,0,3.4,1.6,2.6,6.3C490.5,229.3,517.5,237.6,524.7,269.7z"/>
		<path class="st32" d="M309.9,246.3c-0.1,0.2-0.2,0.3-0.3,0.4c-0.6-0.3-1.2-0.5-1.8-0.8c-10.1-4.2-21.9-9.4-25.2-11.7
			c-6.1-4.1-31,28.5-31.9,31.3c-0.9,2.8,24.4,22,28.5,48.6c-0.4-0.8-0.8-1.5-1.2-2.3c-0.2-0.3-0.3-0.6-0.5-0.9
			c-0.2-0.4-0.4-0.7-0.6-1.1c-0.1-0.2-0.3-0.5-0.4-0.7c-0.7-1.2-1.3-2.3-2-3.4c-0.3-0.4-0.5-0.8-0.8-1.3c-0.3-0.4-0.5-0.9-0.8-1.3
			c-0.3-0.4-0.6-0.9-0.9-1.3c0,0-0.1-0.1-0.1-0.1c-0.3-0.4-0.5-0.8-0.8-1.2c-0.3-0.4-0.6-0.8-0.9-1.3c-0.3-0.4-0.6-0.8-0.9-1.3
			c0,0-0.1-0.1-0.1-0.1c-0.3-0.4-0.5-0.7-0.8-1.1c-0.3-0.4-0.5-0.7-0.8-1.1c0,0-0.1-0.1-0.1-0.1c-0.6-0.8-1.2-1.6-1.8-2.4
			c-2.4-3.2-4.9-6.1-7.2-8.8c-5-5.7-9.4-10.1-12-12.6c-1.5-1.4-2.4-2.2-2.4-2.2c7.2-32,34.2-40.3,34.2-40.3
			c-0.8-4.7,2.6-6.3,2.6-6.3c1.7,2.1,3.5,4.1,5.4,6c0,0,0,0,0,0c-0.2,0.2-0.3,0.3-0.4,0.3l0.6-0.1c0,0,0.1,0.1,0.1,0.1
			c0.7,0.7,1.4,1.4,2.2,2.1c5.8,5.5,12.3,10,19,13.7c0,0,0,0,0.1,0c0.1,0.1,0.3,0.2,0.4,0.3C309,245.8,309.5,246,309.9,246.3z"/>
		<path class="st32" d="M317.5,250c-2.2-0.9-4.9-2-7.8-3.3c0.1-0.1,0.2-0.3,0.3-0.4C312.4,247.6,314.9,248.8,317.5,250z"/>
		<path class="st32" d="M250.3,291.2c0,0,17.8,34.9,9.2,62.6c0,0,7.6,20,34.7,50.6c-11.6-6.5-23.2-14.5-33.9-24.4
			c-8.1-7.5-15.7-16.1-22.5-25.9c0.2-0.3,0.5-0.6,0.7-0.9c5.3-6.9,11.7-17.7,11.9-31.5c0-1.6,0-3.6-0.5-7.8c-0.9-8-3-19.2-8-33
			c-0.6-1.7-1.2-3.4-1.9-5.2c1.4,1.1,2.8,2.3,4.3,3.6c10.7,9.3,23.5,22.7,33.5,40.8c0,0,0,0,0,0c0,0,0,0,0,0.1v0c0,0,0,0,0,0
			c0,0,0,0,0,0.1c0.6,1,1.1,2.1,1.6,3c0,0.1,0.1,0.1,0.1,0.2c0,0,0,0,0,0c2.5,4,8,11,18.9,17.9c0,0,0,0,0,0s-19.8-5-27.8-17.5
			C262.7,311.6,252.9,293,250.3,291.2z"/>
		<path class="st32" d="M518.4,291.2c0,0-17.8,34.9-9.2,62.6c0,0-7.6,20-34.7,50.6c11.6-6.5,23.2-14.5,33.9-24.4
			c8.1-7.5,15.7-16.1,22.5-25.9c-0.2-0.3-0.5-0.6-0.7-0.9c-5.3-6.9-11.7-17.7-11.9-31.5c0-1.6,0-3.6,0.5-7.8c0.9-8,3-19.2,8-33
			c0.6-1.7,1.2-3.4,1.9-5.2c-1.4,1.1-2.8,2.3-4.3,3.6c-10.7,9.3-23.5,22.7-33.5,40.8c0,0,0,0,0,0c0,0,0,0,0,0.1v0c0,0,0,0,0,0
			c0,0,0,0,0,0.1c-0.6,1-1.1,2.1-1.6,3c0,0.1-0.1,0.1-0.1,0.2c0,0,0,0,0,0c-2.5,4-8,11-18.9,17.9c0,0,0,0,0,0s19.8-5,27.8-17.5
			C506,311.6,515.8,293,518.4,291.2z"/>
		<path class="st32" d="M433.1,411.9c-0.3-5.3-1-11.3-2.5-17.7c0,0-50.6-11.3-92.1,0c0,0-1.9,8.6-2.3,20.1c-2.1-4.8-5-14.9,1.4-23
			c8.9-11.2,92-5.7,95.4-2.1C436.5,392.7,433.2,411.4,433.1,411.9z"/>
		<path class="st27" d="M482,229.6c-0.1,0.1-0.2,0.2-0.3,0.3c-0.4,0.4-0.9,0.9-1.3,1.3c-0.5,0.4-0.9,0.9-1.4,1.3
			c-0.2,0.1-0.3,0.3-0.5,0.4c-1,0.9-2,1.8-3.1,2.6c-11.3-22.3-85.6-11.2-85.6-11.2s84.9,9.2,53.2,21.6
			c-31.7,12.4-119.7,3.9-112.9-4.3c6.9-8.2,20.6-12.6,20.6-12.6c-27.2,0.2-38.3,13.7-40.8,17.2c-4.5-2.4-8.9-5.1-13-8.1
			c-2.8-2-5.4-4.2-8-6.6l0-0.1v0c-0.1-0.1-0.1-0.1-0.2-0.2c0.1-0.1,0.1-0.1,0.1-0.1v0c0.1-0.1,1.1-0.9,3.2-2.2
			c2.1-1.3,5.4-3.1,9.8-5.1c3.7-1.6,8.2-3.4,13.6-5.1c6.4-2,14-3.9,23-5.5c2-0.4,4.2-0.7,6.3-1c7.2-1.1,15.1-1.9,23.9-2.4
			c5.6-0.3,11.6-0.5,17.9-0.5h0.4c0.9,0,1.8,0,2.6,0c3.6,0,7.2,0.1,10.6,0.3c4.6,0.2,9,0.5,13.2,0.9c11.9,1.1,22.1,2.8,30.8,4.7
			c5.1,1.2,9.6,2.4,13.6,3.7h0c12.1,3.9,19.5,7.9,23.2,10.3C481.4,229.3,481.7,229.4,482,229.6z"/>
		
			<ellipse transform="matrix(5.426544e-02 -0.9985 0.9985 5.426544e-02 121.1777 609.022)" class="st24" cx="382.1" cy="240.5" rx="12.2" ry="26.3"/>
		<path class="st2" d="M302.6,238.8c0,0-7.3-3.9-9.8-8.1c-2.4-4.3,82.9-43.4,186.3-1.6c0,0-1.5,1.9-2.5,1.9
			C475.6,231.1,372,186.1,302.6,238.8z"/>
		<path class="st27" d="M598.7,384.3c0,0-1.3-2.1-3.2-5.7c7.9-7.5,6.7-18.9,6.7-18.9c-1,2.3-4.2,7.7-4.2,7.7
			c-14.3-31.4-4.9-57.7-3.6-57.2c1.3,0.5,7.8,6.9,7.8,6.9c-1.1-7.9-7.8-13.9-7.8-13.9c1.3-1.5,2.7-2.9,4.3-4.3
			C598.7,298.9,633.9,335.7,598.7,384.3z"/>
		<ellipse class="st24" cx="595.6" cy="335.5" rx="7.9" ry="13.1"/>
		<path class="st2" d="M597.1,379c0,0,31.8-38.9,0-75.5l1.6-1.1c0,0,32.7,31,0.4,79.1L597.1,379z"/>
		<path class="st27" d="M552.2,343c0,0-0.5,6.4-5.4,8.5c-0.6,0.2-1.2,0.4-2,0.6c-5.6-2.9-13.9-8.8-16.1-14.7c-3.1-8.2,0-40.1,0-40.1
			c-4.9,2.2-5.6,33.6-5.6,33.6c-3.8-8.5,2.5-46.1,2.5-46.1l0-0.2c0.4-1.2,0.8-2.3,1.2-3.5l0-0.1c0,0,0.5,0,1.2,0
			c3.7,0,14.7,0,18.8,1.8c4.9,2.1,5.4,8.5,5.4,8.5s-0.4,0-1,0c-3.7,0.1-16.2,1.1-15.8,11.8v28.2c-0.1,4.1,1.6,6.8,4.1,8.5
			c3.9,2.8,9.6,3.2,11.8,3.3c0,0,0.1,0,0.1,0C551.9,343,552.2,343,552.2,343z"/>
		<path class="st2" d="M548.8,287.9c0,0-0.2-5.6-19-5.7c0,0-0.4,1.3-0.7,2.9C529.2,285.1,540.8,285,548.8,287.9z"/>
		<path class="st27" d="M216.4,343c0,0,0.5,6.4,5.4,8.5c0.6,0.2,1.2,0.4,2,0.6c5.6-2.9,13.9-8.8,16.1-14.7c3.1-8.2,0-40.1,0-40.1
			c4.9,2.2,5.6,33.6,5.6,33.6c3.8-8.5-2.5-46.1-2.5-46.1l0-0.2c-0.4-1.2-0.8-2.3-1.2-3.5l0-0.1c0,0-0.5,0-1.2,0
			c-3.7,0-14.7,0-18.8,1.8c-4.9,2.1-5.4,8.5-5.4,8.5s0.4,0,1,0c3.7,0.1,16.2,1.1,15.8,11.8v28.2c0.1,4.1-1.6,6.8-4.1,8.5
			c-3.9,2.8-9.6,3.2-11.8,3.3c0,0-0.1,0-0.1,0C216.7,343,216.4,343,216.4,343z"/>
		<path class="st2" d="M219.8,287.9c0,0,0.2-5.6,19-5.7c0,0,0.4,1.3,0.7,2.9C239.4,285.1,227.8,285,219.8,287.9z"/>
		<path class="st33" d="M430.6,438.3c-37.8,10.8-92.1,0-92.1,0c-0.8-3.1-1.3-6.3-1.7-9.5c0,0,49.4,3.3,59.4-8.3
			c10-11.6-3-31.1-3-31.1h0c21.4,1.1,37.4,4.7,37.4,4.7c1.5,6.4,2.2,12.4,2.5,17.7c0,0,0,0,0,0C434,428.1,430.6,438.3,430.6,438.3z"
			/>
		<path class="st32" d="M256.4,425.3c-5.7,5.4,6.7,13.6,6.7,13.6s-3.7,17.8-8.2,19.6c-4.4,1.9-4.7-0.9-4.7-0.9s-10.4,30.7-19.7,33.1
			c-0.1-2.1-0.3-4.1-0.4-6.2c-0.2-4-0.3-8-0.4-11.9c0-1,0-2.1,0-3.1c0-4.5,0.2-8.9,0.6-13c0.1-1.3,0.3-2.5,0.4-3.7
			c0.2-1.5,0.5-2.9,0.7-4.3c0.5-2.4,1.1-4.6,1.8-6.6c2.9-7.9,7.3-13,12.1-16.2c10.9-7.2,23.6-4.9,24.3-4.8
			C269.2,421,261.8,420.1,256.4,425.3z"/>
		<path class="st30" d="M224.3,485C224.3,485,224.3,485.1,224.3,485c0,0.1,0,0.1,0,0.1c0,0,0,0,0,0.1c0,0,0,0,0,0.1c0,0,0,0.1,0,0.1
			c0,0.2-0.1,0.4-0.1,0.6c0,0.2-0.1,0.5-0.1,0.8c0,0.1-0.1,0.3-0.1,0.4c0,0.2-0.1,0.4-0.1,0.7c0,0.2-0.1,0.4-0.1,0.6
			c0,0,0,0.1,0,0.1c-0.1,0.3-0.1,0.6-0.2,0.9c0,0.1,0,0.2-0.1,0.3c0,0.1,0,0.2-0.1,0.3c-0.2,1.3-0.5,2.9-0.8,4.6
			c-0.1,0.5-0.2,1.1-0.3,1.7c-0.3,1.6-0.6,3.3-0.9,5.1c-0.1,0.6-0.2,1.2-0.3,1.8c-0.1,0.7-0.2,1.4-0.4,2.1c-0.1,0.9-0.3,1.8-0.5,2.7
			c-0.2,1.3-0.4,2.6-0.7,4h-3.4c-0.1,0-0.2,0-0.2,0v0h-28.2c0.7-8.2,1.4-15.6,2.2-21.2c0.1-0.8,0.2-1.5,0.3-2.2
			c0-0.3,0.1-0.5,0.1-0.8c0-0.1,0.1-0.2,0.1-0.3c0-0.2,0.1-0.3,0.1-0.5c0.1-0.2,0.1-0.4,0.2-0.6c0,0,0,0,0,0c0-0.1,0-0.1,0.1-0.2
			c0.4-1.3,1-2.4,1.7-3.4c0.1-0.2,0.2-0.3,0.4-0.4c0.1-0.1,0.2-0.2,0.3-0.3c0.1-0.1,0.2-0.3,0.4-0.4c0.1-0.1,0.3-0.3,0.4-0.4
			c0.4-0.3,0.7-0.6,1.1-0.8c0.2-0.1,0.4-0.2,0.6-0.3c0.2-0.1,0.3-0.2,0.5-0.2c0.1,0,0.2-0.1,0.3-0.1c0.1,0,0.2-0.1,0.2-0.1
			c0.1,0,0.2-0.1,0.2-0.1c6.6-2.6,16.3,0.5,22.2,2.8c0.4,0.2,0.7,0.3,1.1,0.4c0.3,0.1,0.6,0.2,0.8,0.4c0.8,0.3,1.4,0.6,1.9,0.9
			C223.9,484.8,224.3,485,224.3,485z"/>
		<path class="st31" d="M224.3,485.3c0,0,0,0.1,0,0.1c0,0.2-0.1,0.4-0.1,0.6c0,0.2-0.1,0.5-0.1,0.8c0,0.1-0.1,0.3-0.1,0.4
			c0,0.2-0.1,0.4-0.1,0.7c0,0.2-0.1,0.4-0.1,0.6c0,0,0,0.1,0,0.1c-0.1,0.3-0.1,0.6-0.2,0.9c0,0.1,0,0.2-0.1,0.3c0,0.1,0,0.2-0.1,0.3
			c-0.2,1.3-0.5,2.9-0.8,4.6c-0.1,0.5-0.2,1.1-0.3,1.7c-0.3,1.6-0.6,3.3-0.9,5.1c-0.1,0.6-0.2,1.2-0.3,1.8c-0.1,0.7-0.2,1.4-0.4,2.1
			c-0.1,0.9-0.3,1.8-0.5,2.7c-0.2,1.3-0.4,2.6-0.7,4h-3.4c0.8-6.4,3.4-24,3.4-24c-6.5-2.4-29.5,3.5-29.5,3.5
			c0.1-0.8,0.2-1.6,0.3-2.3c0-0.3,0.1-0.5,0.1-0.8c0-0.1,0.1-0.3,0.1-0.4c0-0.2,0.1-0.3,0.1-0.5c0.1-0.2,0.1-0.4,0.2-0.6
			c0,0,0,0,0-0.1c0-0.1,0-0.1,0.1-0.2c0.4-1.4,1-2.6,1.7-3.6c0.1-0.2,0.2-0.3,0.4-0.5c0.1-0.1,0.2-0.2,0.3-0.3
			c0.1-0.1,0.2-0.3,0.4-0.4c0.1-0.2,0.3-0.3,0.4-0.4c0.4-0.3,0.7-0.6,1.1-0.9c0.2-0.1,0.4-0.2,0.6-0.3c0.2-0.1,0.3-0.2,0.5-0.2
			c0.1-0.1,0.2-0.1,0.3-0.1c0.1,0,0.2-0.1,0.2-0.1c0.1,0,0.2-0.1,0.2-0.1l22.2,3c0.4,0.2,0.7,0.3,1.1,0.5c0.3,0.1,0.6,0.3,0.8,0.4
			c0.8,0.4,1.4,0.7,1.9,0.9C223.8,485,224.2,485.2,224.3,485.3z"/>
		<path class="st25" d="M247.1,457.5c-1.9,12.4-11.4,30.2-22.7,27.2c-12.3-3.2-34.6,3.4-37,4.6c-2.5,1.1-11.4,6-15.5,2
			c-6.2-5.7-4.7-16.4-3-22.8c0.8-3.1,1.7-5.2,1.7-5.2l2.7-10.4c0,0,74.9-10.9,74.3,1.4C247.3,455.4,247.2,456.4,247.1,457.5z"/>
		<path class="st33" d="M247.1,457.5L247.1,457.5c0,0-48.7-3.1-61.8-0.4c-6.8,1.5-12.6,6.7-16.5,11.4c0.8-3.1,1.7-5.2,1.7-5.2
			l2.7-10.4c0,0,74.9-10.9,74.3,1.4C247.3,455.4,247.2,456.4,247.1,457.5z"/>
		<path class="st25" d="M259.4,440.8c0,0-18.8-28.6-59.6-36.7c-40.8-8.2-36.8,64.9-36.8,64.9s17.8-14.4,25.6-15.2
			c15.1-1.7,53.5-1.7,63.3,1.7C251.8,455.4,258.9,448.7,259.4,440.8z"/>
		<path class="st24" d="M169.3,442.3c-0.9,0.9-1.9,1.7-2.8,2.4c0,0,0,0,0,0c-0.9,0.6-1.7,1.2-2.6,1.7c0,0-1.4-6.1-1-13.6
			c0.3-5,1.5-10.5,4.5-15.2c2.4-3.7,5.9-6.8,11.1-8.6c0.1,0.2,0.1,0.4,0.2,0.6c0.1,0.3,0.2,0.6,0.3,0.9
			C183,422.8,176.9,435.1,169.3,442.3z"/>
		<path class="st27" d="M179,415.2c-0.3,7.4-8.3,24-10.3,24.6c-2,0.6-1.5-9.1-1.5-9.1c-2.6,5.8-0.9,14-0.9,14s0,0,0,0
			c-0.9,0.6-1.7,1.2-2.6,1.7c0,0-1.4-6.1-1-13.6c0.3-5,1.5-10.5,4.5-15.2c2.4-3.7,5.9-6.8,11.1-8.6c0.1,0.2,0.1,0.4,0.2,0.6
			c-5.2,2.5-8.2,13.9-8.2,13.9S179.3,407.8,179,415.2z"/>
		<path class="st2" d="M177,410.6c0,0-11,9.1-12.8,22.9C164.2,433.5,162.8,418,177,410.6z"/>
		<path class="st32" d="M542.3,475.4L542.3,475.4c-0.1,5.3-0.4,10.7-0.8,16c-4.6,0-31.4-29.1-31.4-29.1s2.9-26.8,5.9-28.5
			c3-1.7,12-6.8,12-6.8c4.2,3.2,8,8,10.6,15.1c2.4,6.7,3.4,15.9,3.6,26.1C542.4,470.5,542.4,472.9,542.3,475.4z"/>
		<g>
			<path class="st28" d="M615,456c-4.5,16-14.1,50-47.8,40.9c-33.7-9.1-51.1-38.3-51.1-38.3l3.5-23.2c1.1-0.8,20.2-9,39.4-14.7
				c8.9-2.6,17.9-4.7,25.1-5.3c0.8-0.1,1.6-0.1,2.4-0.1C608.4,414.8,619.6,440,615,456z"/>
			<path class="st24" d="M594.4,493.4c-1.2-1.3-2.2-2.5-3.2-3.7c-25.5-30.7-2-43,13.2-47.5c5.9-1.8,10.6-2.3,10.6-2.3
				C625.7,476.6,594.4,493.4,594.4,493.4z"/>
			<path class="st27" d="M594.4,493.4c-1.2-1.3-2.2-2.5-3.2-3.7c11.8-0.5,12.8-16.4,12.8-16.4c-6.5,9.7-12.1,9.3-12.1,9.3
				c-14.8-22.1,5.6-35.3,9.5-35.3c3.8,0,8.1,10.1,8.1,10.1c1.5-10.1-5.1-15.2-5.1-15.2c5.9-1.8,10.6-2.3,10.6-2.3
				C625.7,476.6,594.4,493.4,594.4,493.4z"/>
			<path class="st2" d="M609.1,443.1c0,0,5.5,23.2-1.6,32.2c0,0,13.2-11.4,6.8-33C614.3,442.3,611.6,441.4,609.1,443.1z"/>
		</g>
		<g>
			<path class="st34" d="M561.9,203.5c-5.5,5.8-16.8,6.4-16.8,6.4c-9.8-4.9-11.7-14.5-11.4-20.2c0.1-2.1,0.6-3.7,1.1-4.2
				c1.8-1.9-0.1-11.1-0.1-11.1c4.4,2.3,6.2,9.8,6.2,9.8c1.3-3.1-7.5-14.2-7.5-14.2c11.3,1.8,19,6.8,23.9,12.4
				C564.3,190.6,565.2,200.1,561.9,203.5z"/>
			<path class="st24" d="M557.3,182.4c0,0-3.2-1.5-6.3-0.3c-3.1,1.2-1.2,2.6-4.2,4.5c-3,1.9-1.8-0.6-6.4,0c-4.6,0.6-2.9,3.4-4.7,3.9
				c-0.8,0.2-1.3-0.2-1.8-0.7c0.1-2.1,0.6-3.7,1.1-4.2c1.8-1.9-0.1-11.1-0.1-11.1c4.4,2.3,6.2,9.8,6.2,9.8
				c1.3-3.1-7.5-14.2-7.5-14.2C544.7,171.9,552.4,176.8,557.3,182.4z"/>
		</g>
	</g>
</g>
</svg>
