svg_planet<?xml version="1.0" encoding="utf-8"?>
<!-- Generator: Adobe Illustrator 27.3.1, SVG Export Plug-In . SVG Version: 6.00 Build 0)  -->
<svg version="1.1" id="Camada_1" xmlns="http://www.w3.org/2000/svg" xmlns:xlink="http://www.w3.org/1999/xlink" x="0px" y="0px"
	 viewBox="0 0 1440 1440" style="enable-background:new 0 0 1440 1440;" xml:space="preserve">
<style type="text/css">
	.planet0{fill:#001F44;}
	.planet01{fill:#006AFF;}
</style>
<path class="planet0" d="M1440,720.8c0,116.7-27.8,226.8-77.2,324.2c-6.9,13.6-14.2,27-22,40.1c-12.9,21.9-27,43.1-42.1,63.5
	c-6.7,9-13.6,17.9-20.7,26.6c-6,7.3-12.1,14.5-18.4,21.6c-22.8,25.9-47.5,50-73.9,72.4c-6,5.1-12.1,10.1-18.4,15.1
	c-108.5,86.1-242.4,141.6-388.7,153.4c-19.4,1.6-39,2.4-58.8,2.4s-39.4-0.8-58.8-2.4c-135.7-10.9-260.8-59.5-364.8-135.2
	c-12.4-9-24.5-18.4-36.3-28.2c-7.5-6.3-14.9-12.6-22.2-19.2c-15.4-13.8-30.1-28.4-44.3-43.5c-29-31-55.3-64.6-78.4-100.3
	c-3.5-5.3-6.9-10.7-10.2-16.2c-12.5-20.4-23.9-41.4-34.3-63C33.1,953.9,9.2,867.8,2.2,776.9c-1-12.6-1.6-25.2-1.9-37.9
	C0.1,733,0,726.9,0,720.8c0-12.5,0.3-24.9,1-37.2c1.8-35.3,6.1-69.9,12.8-103.6c1.2-5.9,2.4-11.8,3.7-17.7c0.2-0.8,0.4-1.6,0.5-2.4
	c9.6-42.1,22.9-82.7,39.6-121.6c11.1-26,23.7-51.1,37.7-75.4c12.1-21,25.2-41.4,39.3-60.9c6.6-9.2,13.4-18.3,20.5-27.1l0,0
	c8.9-11.3,18.2-22.3,27.9-33.1c25.9-29,54.1-55.8,84.4-80.2c7.2-5.9,14.5-11.5,22-17.1c16.2-12.1,33-23.5,50.2-34.3
	c15.4-9.6,31.2-18.6,47.3-27c62.8-32.8,131-56.6,202.9-69.7c13.1-2.4,26.4-4.5,39.8-6.1c29.6-3.7,59.7-5.6,90.3-5.6
	c44.8,0,88.5,4.1,131,11.9c29,5.3,57.4,12.4,85,21c13.9,4.4,27.7,9.1,41.2,14.3c22.9,8.8,45.2,18.6,66.9,29.6
	c27.8,14,54.6,29.8,80.2,47.2c10.4,7,20.5,14.3,30.5,21.9c12.8,9.6,25.2,19.8,37.3,30.3c41,35.6,78,75.8,110,119.8
	c13.5,18.4,26,37.4,37.7,57.1c15.6,26.3,29.5,53.6,41.7,81.9c5.1,11.8,9.8,23.7,14.3,35.8c3.3,8.9,6.4,17.8,9.3,26.9
	c8,24.8,14.7,50.2,20.1,76.1c1,4.9,2,9.8,2.9,14.8c3.1,17.1,5.7,34.4,7.6,51.9C1438.5,667.9,1440,694.2,1440,720.8z"/>
<g>
	<path class="planet01" d="M1194.1,1213.4c-24.7-1.1-48.9,0.1-71.2,12.7c-2.7,1.5-6.4,1.9-9.6,1.5c-28-3.1-54.6,5.3-79.2,15.6
		c-20.7,8.7-40.6,10.8-61.8,10.1c-17.8-0.6-33.8,3.1-48.7,13.7c-5.7,4.1-14.9,7.4-21,5.7c-15.5-4.3-30.3-11.4-45.2-17.8
		c-14.5-6.2-29.1-8.5-42.6,1.3c-20.4,14.8-42.3,20-67.9,21.1c-24.7,1.1-53.7,2.2-65.5,32.9c-0.5,1.4-3.3,1.8-4.5,3.2
		c-15,16.6-37.9,9.9-55.9,18.5c4.5-4.5,9.4-8.5,15.1-10.2c25.8-7.5,44.6-23.1,55.5-47.6c3.5-7.8,7.7-20.1-4.2-22
		c-17.6-2.9-36.4-3.3-54-0.5c-16.6,2.6-32.1,14-48.6,15.5c-19.5,1.7-24.2,27.3-45.1,23.9c-1.1-0.2-3.7,3.3-3.9,5.2
		c-1,11.2-6.8,23.5,7.4,31.4c2.1,1.2,2.7,4.9,4.7,8.8c-21.2-1.3-42.3,2.5-51.7-22.2c-3.3-8.7-9.7-16.2-13.5-24.7
		c-2-4.4-3.2-10.3-1.9-14.7c2.1-6.9,8.1-12.8,9.5-19.8c1.5-7.7,2.8-19-1.3-23.5c-6.9-7.6-15.9-4.9-20.9,6.1
		c-6.3,14-13.3,28.2-32.5,26.5c-15.8-1.4-16,8-15.6,19.7c0.7,21.9,1.4,21.2-20.7,21c-1.4,0-2.7,0.5-4.1,0.9c-2.1,4.8-5,9.3-6.1,14.3
		c-3.8,17.5-9.3,20.5-25.5,12.3c-17.5-8.9-34.6-18.6-52.1-27.4c-3.5-1.8-7.5-2.9-11.4-4.1C404,1376.5,529,1425,664.7,1436h117.6
		c154.7-12.5,295.5-73.8,407.1-168.4c6.4-12.1,12.2-24.6,18.4-36.9C1213.4,1219.3,1207.6,1214.1,1194.1,1213.4z M858.3,1333.9
		c-1.6,2.9-5.9,4.9-6.5,7.8c-5.6,27.3-9.6,30.4-36,28.9c-22.7-1.3-45.3-2-68-2.9c-2.7-0.1-5.4,0-12.4,0c7.1-4.1,10.6-5.9,13.9-8
		c12.7-8,25.1-16.5,38.2-23.8c7-3.9,15.1-7.1,23-8.1c13.1-1.6,26.8,1.7,37.4-10.6c2-2.3,10.9,1.4,16.6,2.4
		C862.6,1324.3,860.9,1329.3,858.3,1333.9z"/>
	<path class="planet01" d="M1412,569.2c-1.3-23.8-2.3-47.7-3.3-71.5c-16.5-50.9-38.5-99.3-65.3-144.6c0.6,3.5,1.3,7.3,3.4,9.2
		c10.9,9.6,9,22.1,6.9,33.1c-3.9,19.7-10.4,38.9-17.4,64.3c-10.9-7-19.6-10.5-25.3-16.7c-8.3-9-16.1-15.7-29.2-17.8
		c-21.7-3.4-30.7-27.5-18.1-49.8c8.2-14.5,13.8-27.1,5.7-43.7c-3.4-6.9-1.2-14.9,9.3-18.9c9.8-3.7,17.9-11.6,27.1-16.8
		c-32.1-44-69-84.2-110-119.8c-4.9-0.5-9.9-0.9-14.8-1.4c-0.8,1.1-1.6,2.3-2.4,3.4c7.1,5.5,14.3,10.9,21.5,16.4
		c-0.4,1.8-0.9,3.7-1.3,5.5c-9.2-0.9-19.9,0.9-27.1-3.4c-10.2-6-17.5-16.6-26.4-24.9c-9.3-8.8-15.9-23.1-32.9-17.5
		c-2.5,0.8-5.8,1.7-7.2,3.6c-11.7,16.4-27.9,14.9-44.8,12c-5.4-0.9-12-1.7-16.5,0.5c-12.1,6.1-22.7,3.9-33.8-2c-13-7-30-2.1-39.6,9
		c-3.6,4.2-10.6,7.9-16.1,7.8c-23.1-0.1-46.3-1.2-69.4-3c-19.5-1.6-32.7,9-43.5,17.9c3.9,7.5,8.9,13,9.4,18.9
		c1.3,14.4-3.1,17.3-17.7,14.1c-21.7-4.8-26.6-0.2-23.7,23.4c12.3,0.7,24.8,1.5,36.1,2.1c8.8-12.4,17-24.3,25.6-35.9
		c1.6-2.1,4.6-5.2,6.5-4.8c17.8,3.3,38.1-3.5,52.4,14.4c5.8,7.2,14.7,12,22.1,17.9c1-1.1,2-2.2,3-3.3c-4.7-5.5-9.3-11-14-16.4
		c-7.3-8.4-2.5-11.8,5.8-12.9c3.1-0.4,7.4-0.5,9.6,1.3c21.6,17.6,50.1,28,60.7,57.3c1,2.9,4,5.1,6,7.6c0.5-0.3,1-0.5,1.5-0.8
		c0.6-0.3,1.2-0.7,1.8-1c-0.3-1.2-0.7-2.4-1-3.6v-0.2c-0.6-2.1-1.2-4-1.3-6.1c-0.2-3.5-0.4-9.7,1.1-10.3c10.2-4,9.5-12.2,10.5-20.7
		c0.9-7.7,13.4-9.7,19.2-3.4c2.1,2.4,3.4,5.6,5.8,9.8c2.2-3.2,3.4-6.9,5.7-7.7c6.2-2.3,13.1-5.3,19.3-4.4c3.4,0.5,6.1,7.8,8.6,12.4
		c3,5.3,5.9,10.7,8.3,16.3c2.8,6.5,4.9,13.3,7.3,20c-7.5,0.7-15.5,3.4-22.4,1.7c-8.5-2-16.4-7-26.8-12c-0.7-0.3-1.4-0.7-2.2-1
		c0.1,0.2,0.2,0.4,0.3,0.7c6.2,15.6,14.3,22.1,28.7,21.3c13.1-0.7,36.6,17.1,40.5,29.1c4.8,15.1-0.9,23.9-18.3,31.3
		c4.2,9,8.3,17.9,12.5,26.8c1,2,2,4.7,3.7,5.6c20.3,9.7,25.3,28.9,31.2,48.1c1.5,4.9,6.2,10.4,10.9,12.4c21.3,9.1,30.5,24.1,25,46.8
		c-3.3,13.5-4.5,23.9,12.3,28.6c2.7,0.8,5.9,7.4,5.5,10.9c-1.9,15.2,8.5,24.7,15.5,35.4c2.1,3.2,10.8,5.7,13.3,3.9
		c4.3-3,7.9-9.3,8.5-14.6c0.8-7.3-1.5-14.9-2.4-22.4c-1-8.6,0.9-15.3,11.4-15.5c8.8-0.1,16.4,1.3,16.9,12.5c0.1,1.3,0.6,2.6,0.9,3.9
		c1.3-0.5,2.6-0.9,3.9-1.4c-3.2-8.3-6.3-16.6-9.6-24.9c-3.9-9.4-8-18.6-12.3-28.7c-0.7,0.5-3.1,2.9-5.9,4.3
		c-13.7,6.8-19.5,1.9-23-12.5c-2.5-10.2-10.5-19.2-16.2-28.6c-5.7-9.4-14.8-18.1-16.6-28.1c-3.5-19.4,10.6-28.3,27.7-17.6
		c9,5.6,14.5,16.7,21.7,25.2c4.9,5.9,9.9,11.7,15,17.4c10.2,11.5,20.2,23.2,30.7,34.5c6.3,6.7,12.6,13.9,20.3,18.5
		c9.4,5.5,16.1,10.5,18.9,22.5c2.7,11.2,12.3,20.7,16.8,31.7c6.4,15.8,12.4,32.1,15.9,48.8c4.3,20,11.6,37.8,25.5,52.8
		c17,18.4,32.3,37.5,30.5,65.4c1.5-2.9,3.1-5.7,4.7-8.6v-85.6C1419.1,604.8,1413,587.1,1412,569.2z M1140.7,284
		c13.3-8.8,22.9-10.4,28.1,5c4.1,12.2,7.4,24.7,11.5,37c3,9,6.8,17.8,10.3,26.7c1.1,2.8,2.7,5.4,4.1,8.1
		C1169.3,340.1,1153.3,313.4,1140.7,284z"/>
	<path class="planet01" d="M789.3,1213.7c0.9-0.9,3.3-5.1,6.2-5.5c16.6-2.5,33.3-5.8,50-5.7c18.5,0.1,37.6,1.4,55.4,6.2
		c9.3,2.5,20.8,12.6,23.1,21.3c2.5,9.6-1.4,25.1-8.4,31.6c-5.9,5.5-21.1,4.5-30.8,1.6c-11.8-3.6-21.7-12.7-32.9-18.5
		C831.6,1234.3,811,1224.5,789.3,1213.7z"/>
	<path class="planet01" d="M277.3,584.4c2.6,10.6,8.1,15.6,20,16.1c5.8,0.2,12.5,7.7,16.8,13.5c5.4,7.4,12.7,11.8,18.5,5.2
		c15.2-17.1,34-9.6,52.3-10.8c2.3,13.3,9,20.4,23.2,20.2c3.6,0,9.1,6.1,10.7,10.4c4.8,13.1,9.1,23.6,27.1,18.2
		c5.2-1.6,13.7,3.2,19,7.3c10.5,8.1,21.7,10,34.6,9.7c18-0.4,37.4-5,51.9,11.5c1.1,1.3,3.4,1.6,5.2,2.1c19,4.8,24.3,22.7,11.7,37.9
		c-11.3,13.6-22.3,27.5-32.8,41.7c-2.6,3.5-3.5,8.7-3.8,13.2c-0.6,8.5-1.2,17.3,0.1,25.6c4.1,25.3-10.1,45.4-18.1,67.3
		c-0.8,2.2-2.1,5.1-3.9,5.8c-15.4,5.7-27.1,17.4-40.9,25.1c-16.7,9.3-25.6,18.2-23.1,38.5c1.3,10.7-10.5,32.7-18.7,39.1
		c-5.3,4.1-9.5,10.6-12.3,16.8c-3.7,7.9-5.6,15.5-14.9,20.4c-6.4,3.4-12.5,12.6-13.3,19.8c-1.6,14.3-5.5,24.2-21.1,26.7
		c-2.7,0.4-5.4,3.6-7.4,6c-4.7,5.7-8.7,12-13.4,17.7c-5.7,6.9-10.2,13.1-3.8,22.7c2.8,4.2,1.3,11,2.5,16.5
		c1.6,7.4,3.9,14.6,6.7,24.8c-12.7,25.2-12.1,27.6,14.7,49.9c-29.3,5.3-45.6-6.7-54.6-34.6c-4.6-14.2-12.8-27.1-10.9-43
		c0.2-1.7-3.3-5.5-5-5.5c-13.1,0.5-13.9-8.8-14.5-17.8c-1.4-18.3-2.1-36.7-3.4-55c-0.2-3.2-1.2-6.9-3.2-9.2
		c-11.2-13-9.8-28.4-11.2-44c-1.7-19-7.6-37.6-12.1-56.3c-1.9-8.2-3.1-17.3-7.7-23.8c-4.5-6.3-13.5-14-19.8-13.5
		c-18.8,1.5-25.6-11.5-34.8-22.6c-16.5-19.9-32.8-40-50.2-59c-5.4-5.9-7.7-10-3.4-16.9c4.9-8,1.9-13.9-4.5-19.9
		c-2.9-2.7-4.8-8.9-3.8-12.6c3.3-12.2,8.3-23.8,12.4-35.8c1.2-3.5,1.5-7.3,1.6-11.1c0.9-17.9,11.5-34.9,3.6-54
		c-1.9-4.5,0-15.5,11.1-16c1.7-0.1,3.7-2.8,4.8-4.8c7.8-13.4,15.5-27,23.7-41.5c13.6,13.9,19.3,12.6,38.4-4.9
		C248.7,623.4,257.3,588.1,277.3,584.4z"/>
	<path class="planet01" d="M1090.4,112.1c-14.1-12-29-23.1-42.8-35.3c-34.5-17.4-70.7-32.1-108.1-43.9c3.8,11.7-1.3,27.5-11.5,29
		c-9.9,1.5-20.5-0.4-30.7-1.7c-10.2-1.3-20.2-5.4-30.3-5.4c-28,0.1-56,1-83.9,2.7c-22.5,1.4-25.5-4.4-21.6-29
		c0.7-4.5,2.5-8.7,4.7-15.9c11.3,2.7,22,5.7,32.8,7.7c6.7,1.2,14.8,3.4,20.2,0.7c11.5-5.6,23.3-8.4,35.4-9.2
		C812.1,4.1,768.3,0,723.5,0c-30.6,0-60.7,1.9-90.3,5.6c4.1,2.9,5.7,8.6,4.6,16.9c-2.1,16-6.2,32.3-12.7,47
		c-4.5,10.1-9.4,19.1-8.2,30.5c1.2,11.2-4.4,15.9-17.2,17.4c-6.5-4.7-14.4-8.2-19.3-14.3c-7-8.5-14.4-12.4-25.5-11.6
		c-12.3,0.9-24.7,0.5-37.1,0c-5-0.2-11.7-0.8-14.5-4c-4.4-5.1-8.1-12.4-8.2-18.8c-0.1-3.6,7.3-8.6,12.2-10.6
		c13.3-5.5,28-8.2,40.5-15c10.1-5.4,16.7-17.2,26.8-22.6c6-3.2,12.3-6.2,18.7-8.7c-90.4,16.5-175,49.8-250.2,96.7
		c14.8-4.7,29.5-9.8,44.6-11.3c26.2-2.5,52.9-0.1,79.3,0.9c3.3,0.1,6.4,4.5,9.6,6.9c-2.2,2.8-4.1,6.1-6.7,8.3
		c-13.8,11.6-27.9,22.9-43.8,36c21.4,4.9,35.8,13.1,30.5,38.4c8.1-12.5,17.7-15.2,27.1-9.6c13.1,7.7,4.7,17.8,0.1,26.7
		c12.1,12.2,43.5,8.2,49.2-7c6.8-17.9,20.1-26.8,37.5-27.9c17.3-1.1,29-9,39.9-21.1c4.9-5.5,11.4-11.5,18.1-13
		c12.8-3,26.7-2.4,27.1-21c0.1-1.7,3.3-3.1,4.9-4.9c3.9-4.2,7.6-8.4,14.2-15.8h-37.5c7.4-19.5,9-22.1,18.9-21.9
		c18.9,0.3,37.8,2.1,56.7,2.4c16.8,0.3,33.6-0.4,50.4-0.9c11.7-0.3,24.3-4.2,34.7-0.7c9.9,3.3,18,4.7,28.3,2.8
		c17.5-3.3,36.8-9.4,53-5.3c48.3,12.1,96.7,17.3,146.2,16.2c7.9-0.2,16.9,3.3,23.5,7.7c5.8,3.9,14.1,14.2,12.6,17.2
		c-5.5,10.9-13.1,0.9-20.1-0.9c-3.7-0.9-8.3,1.5-12.5,2.5c1.6,3.7,3,7.6,5,11c2.5,4.4,7.5,8.1,8.1,12.6c1.4,9.7,6.4,10.3,13.9,8.4
		c-1.3-19.5-1.2-19.9,19.1-19.4c9,0.2,18,1.7,26.9,2.6c0.6-1.1,1.2-2.3,1.9-3.4C1099.6,120.7,1095.2,116.2,1090.4,112.1z"/>
	<path class="planet01" d="M375.4,202c-19.5,12.7-19.5,12.7,1.2,27.4c-9.6,1.1-19.1,2.1-31,3.5c6.6-15.7,0.3-19.3-12.8-18.3
		c-8,0.6-16.3-0.7-24.2-2.1c-10.9-2-18.3,0.4-22.4,11.6c-1.4,4-5.7,6.9-8.6,10.2c-1.8-1.2-2.6-1.5-3-2.1c-13.1-17.5-11.7-20,10.7-24
		c6.8-1.2,14.1-3.9,19.4-8.1c16.2-12.6,32.7-1.7,49-1.9C359.8,198.2,365.9,200.3,375.4,202z"/>
	<path class="planet01" d="M310.8,153.8c34.7-19.5,69.3-31.9,108.5-37.3c-17.4,22.1-39.1,33.1-63.7,37.8c-10.5,2-19.4,13.2-31.7,6.1
		C320.4,158.3,316.5,156.7,310.8,153.8z"/>
	<path class="planet01" d="M213.4,255.5c7.1,9,21.2,4.5,23.3-7.9c0.9-5.2,0.1-10.8,0.1-15.7c13.6,7.5,25.7,14.3,40,22.2
		c-10,3.7-16.1,9.6-26.4,4.2c-4-2.1-13.7,2.2-18.2,6.4c-12.1,11.6-22.7,24.7-34.6,37.9c-4-8.9-5.2-18.3-10.1-20.8
		c-5.5-2.8-14.2,0.5-23.6,1.3C181.5,273.4,197.1,264.7,213.4,255.5z"/>
	<path class="planet01" d="M241.7,269.1c8.1,2.1,13.8,4.9,19.2,4.4c4.5-0.4,8.7-4.5,13.3-7.2c-0.8,11.6-1.8,20.9-2.1,30.3
		c-0.5,14.8-21.7,0.3-20.6,16.5c-12.7-17.3-29.7,4.6-41.3-8.6C220.5,293,231.9,280.1,241.7,269.1z"/>
	<path class="planet01" d="M171.8,266.8c-4.6,1.3-8.9,3.6-13.1,6.3c8.9-11.3,18.2-22.3,27.9-33.1C192.1,258.6,185.3,263,171.8,266.8z"/>
	<path class="planet01" d="M338.5,293.9c11.3-4.2,22.7-8.5,34.1-12.8c1.2,1.3,2.3,2.6,3.5,3.9c-5.2,8.3-10.4,16.6-13.8,22
		C352.6,301.6,346.2,298.1,338.5,293.9z"/>
	<path class="planet01" d="M429.2,102.4c10.9,1.6,19.6,2.8,32,4.6c-8.3,6-13.7,10-18,13.1C438.6,114.2,434.9,109.5,429.2,102.4z"/>
	<path class="planet01" d="M1263.8,622.5c0,0.1,1.9,3.2,1.5,5.9c-1.2,9.2-3.2,18.3-5,27.4c-4.7,23.8-9.4,47.7-14.4,71.5
		c-3.3,16-9.7,20.9-26.3,21c-26.6,0.1-36.6,10.3-36.6,37.2c0,12.4,1.5,24.9-0.3,37c-2.3,15.1-7.1,29.8-11.2,44.5
		c-0.7,2.5-3,6.1-5.1,6.5c-21.7,4.6-25.6,26.2-37.1,39.9c-6.5,7.7-5.2,22-8,36.2c0.6-0.1-3.3-0.2-6.3,1.4c-7.4,4-14.8,8.3-21.4,13.5
		c-3.2,2.4-4.9,6.9-7,10.6c-14.1,24.7-36.8,27.3-61.7,23.6c-9.8-1.4-19.4-3.9-29-5.8c-2.4-19.5-5.3-38.9-7.3-58.5
		c-1.7-16.9-10.7-29.2-23.3-39.2c-10.9-8.6-11.2-16.9-2.9-27.8c3.7-4.8,4.7-11.9,5.8-18.2c3.2-18.5,5.9-36.7,21.3-50.7
		c5.8-5.3,9.4-15.4,9.8-23.5c1.3-23.2-0.3-46.6,0.8-69.8c0.6-13-3.4-24-12.3-32c-13.6-12.2-7.6-27.2-7.9-41.3c0-2,6.7-5.4,10.7-6.2
		c25.3-5.2,50.4-11.6,76.8-9.6c11.4,0.9,15.6-8.8,15.4-25.5c-0.1-12.4-7.5-14.2-17-13.3c-16.9,1.6-33.7,4.8-50.5,5.2
		c-18.9,0.4-37.7-2.1-56.6-2.5c-13.3-0.3-11.8-11.1-12.8-18.3c-3.9-26.6-12.1-30.3-35.1-16.4c-10.8,6.5-23,10.9-34.8,15.7
		c-2.7,1.1-7.6,1.2-9.3-0.4c-12.7-12.5-28-8.9-43.6-8c-6.6-14.2-14.2-28.4-19.8-43.3c-5.4-14.4-14.5-24.2-28.4-29.7
		c-9.1-3.6-13.6-9.5-12.3-19.7c1-8.2,0.1-15.5-8.7-20.6c-18.6-10.7-24.4-26.7-15.2-46.8c9.6-21,21.3-41.1,32.5-61.3
		c1.3-2.4,4.8-4.6,7.6-5.2c9.6-2,13.1-7.6,16.3-16.8c3-8.4,13.7-13.9,17.9-22.2c6.5-12.8,17.3-5.2,25.2-6.3
		c17.8-2.3,36.1-1.1,54.1-0.3c3.9,0.2,9.7,3.2,11.1,6.5c5.2,12,15.3,13.4,25.8,13.1c11.2-0.3,19.4,3.4,25,13
		c0.5,0.8,1.2,1.5,1.7,2.3c15.4,28.5,40.9,28.3,67.7,23.1c22.2-4.3,52.6,17,52,39.1c-0.5,18.2,8.7,28.2,22,36.7
		c8.2,5.3,14.2,10.1,15.1,21.7c0.6,7.5,8,15.7,14.4,21.2c12.5,10.8,22,22.1,19.4,40c-2.8,19.4,2.8,35.1,17,49.9
		c12.7,13.3,22,30,31.5,45.9c4.3,7.3,3.9,17.4,8.3,24.7c6.3,10.3,15.9,19.2,29.1,17C1242.3,632.9,1251.7,627.3,1263.8,622.5z"/>
	<path class="planet01" d="M1080.4,357.7c-5.7-6-12.4-11.6-17.2-18.5c-9.8-13.8-23.2-15.4-37.9-12.3c-40.7,8.6-45.9,6.5-70-31.1
		c16-3.6,22.7-16.1,22.2-38.6c6.7,10.5,13.9,20.6,19.8,31.6c4.8,9,12,13.9,20.5,10c4.3-2,5.4-11.1,7.6-17.1c0.8-2.2-0.3-5.2,0.8-7.2
		c3.5-6.5,7.5-12.6,11.4-19c7.9,8.2,18.1,15.9,26.6-3.4c0.2-0.4,8.8,0.9,9.8,3.1c4.2,8.9,6.9,18.4,10.2,27.7c-6-2.4-14.3-6.9-23.1-9
		c-6.7-1.6-14.2-0.2-21.3-0.1c1.5,7.3,1.5,15.4,4.9,21.7c6.2,11.7,16.7,17.1,30.6,16.1c11-0.8,29,11.9,30.6,22.4
		c0.7,4.5-2.8,11.1-6.5,14.4C1094.6,352.4,1087.8,354.2,1080.4,357.7z"/>
	<path class="planet01" d="M877.7,630.8c0.2-22.6,3.6-25.5,22.9-20c15,4.3,29.3,4,44.2-2.1c9.1-3.7,19.9-3.1,30-4.4
		c1.6,2.2,3.2,4.4,4.8,6.6c-4.5,2.3-9.3,4.2-13.4,7c-24.6,16.4-31.9,37.8-25.2,66c2.1,8.6,0.4,18.5-1.1,27.5
		c-0.6,3.2-5.9,7.7-9.1,7.8c-3.5,0.1-9.1-3.5-10.4-6.9c-8.3-20.9-17-41.9-22.8-63.5C894.5,637.4,890.6,630.8,877.7,630.8z"/>
	<path class="planet01" d="M847.7,147.4c23.8-36.2,59.1-26.9,91.8-26c12.4,0.4,24.8,2.3,41.1,4c-19.3,8.5-21,14.7-10.3,29.3
		c-5,0-9.2-0.4-13.2,0.1c-10.2,1.1-14.4-3.1-15.3-13.4c-1.3-15.2-13.7-20.7-25.8-12.4c-10.6,7.3-10.6,18.9,1,24.4
		c7.4,3.5,11.9,8.6,7.4,15c-2.5,3.5-11.7,5.4-16.3,3.7c-12-4.4-24.5-7.4-33.1-19.8C871.3,147.1,857.7,148.9,847.7,147.4z"/>
	<path class="planet01" d="M955.5,267.5c-14.5,3.8-14.7,12.5-10,22.8c-5.6-0.4-10.7-1.2-15.8-1.1c-8.1,0.2-14.4-1.3-18.4-9.8
		c-4-8.4-11.3-11.6-21.2-10.9c-13.7,0.9-27.5,0.2-44.7-2.7c8.3-10.4,14.8-26.2,25.4-29.8c11.2-3.8,28.4-4.1,39.3,8.6
		c9.9,11.5,20.8,21,37.8,18.6C949.7,263,951.8,265.3,955.5,267.5z"/>
	<path class="planet01" d="M1086.8,374c10.2,1.4,14.7,6,13.7,16.2c-0.3,3.4,2.5,9.2,5.4,10.3c22.2,8.8,26.3,28.5,31.3,47.9
		c-1.1,0.8-2.3,1.6-3.4,2.4c-3.6-5.2-10.2-10.4-10.4-15.7c-0.5-15.8-10.1-23.1-21.7-30.5C1091.3,397.9,1081.4,389.8,1086.8,374z"/>
	<path class="planet01" d="M959,171.1c-8.1,4.3-16.2,8.6-24.2,12.9c-1-1.3-2-2.6-2.9-3.9c1.9-5.9,3.8-11.8,5.7-17.8
		c6.5,1.6,13,3.2,19.6,4.8C957.8,168.4,958.4,169.7,959,171.1z"/>
	<path class="planet01" d="M985.2,129.4c10.2,3.8,20.3,7.5,30.5,11.3c-0.7,1.9-1.4,3.7-2.1,5.6c-10.1-3.8-20.2-7.5-30.3-11.3
		C983.9,133.1,984.6,131.3,985.2,129.4z"/>
	<path class="planet01" d="M1274,829.4c-1.4,23.5-3.2,47-6.1,70.4c-0.7,5.4-6.7,9.9-9.5,15.3c-17.4,33.3-43.9,58.4-72.9,81.1
		c-4.5,3.6-10.1,5.7-15.2,8.6c-2.1-5.8-4.2-11.7-6.4-17.5c-0.1-22.3,14.2-36.2,25.7-51.7c4.5-6,6.5-13.8,9.4-21
		c2.7-6.5,5.3-12.9,7.6-19.5c3.5-9.9,7.8-19.6,9.9-29.8c3.1-14.6,3.5-29.9,6.8-44.4c3.5-15.1,13.8-22.7,24.6-20.6
		C1266.3,803.8,1275,812.9,1274,829.4z"/>
	<path class="planet01" d="M1314.4,406.4c-7.3,5-19.1,4.5-28.9,4.1c-2.9-0.1-8-8.1-7.9-12.3c0.9-25.3,3.1-50.5,4.9-76.7
		c10.6-0.7,28.4,12.7,32.8,24c3.5,9.1,7.3,18.3,9.6,27.8C1328.1,386.1,1324.7,399.4,1314.4,406.4z"/>
	<path class="planet01" d="M307.5,297c18.3-9.2,37.7-17.4,57.5-22.6c13.5-3.6,28.3-2,42.3-15.8c-9,1.1-14.4,2-19.7,2.3
		c-5.1,0.3-12.6,1.9-14.9-0.6c-12-13.7-19.2-6.8-29.4,2.9c-13.7,12.9-27.3,9.3-32-5.1c-23.3-7-29,12-38.5,25.5
		c8.7,16.7-0.9,32.7-21,38.6c-3.3,5.6-8.3,13.6-12.2,13.1c-5.6-0.7-10.4-7.7-16.7-13c-6.1,0-16.2-1.9-25.2,0.5
		c-10.1,2.6-16.3,0.3-20.3-8.4c-2.9-6.2-4.5-13.1-7.1-20.5c-11.3,2.1-24.3,2.4-35.3,7.2c-2.3,1-4.7,1.3-7,1.2
		c-14.1,19.6-27.2,39.9-39.3,60.9c3.5-0.9,7.4-1,12,0.3c10.4,2.9,17,5.4,16.8,18.5c-3.5,6.9-5.3,16.8-10.9,20.1
		c-10.4,6.1-14.9,14.2-18.5,24.8c-3,8.7-8,16.3-20.3,9.7c-3.5-1.9-10,2.5-15,2.3c-0.6,0-1.2-0.1-1.8-0.1
		c-16.7,38.9-30,79.5-39.6,121.6c1.7,2.9,3.7,5.9,3.6,8.8c-0.1,19.3-1.2,38.6-2,59.2c4.6,1.7,11.1,4.1,17.2,6.4
		c7.7-5.9,13.4-15.7,24.4-5.9c3.9,3.5,9.6,7,14.5,7c14,0.1,19.8,6.6,20.4,19.9c0.6,12.4,0.9,12.3,14.7,10.3
		c-16.4-14.9-10.7-31.3-3.8-45.6c-8.9-2.4-21.1-2.3-24.7-7.7c-3.5-5.4,1.7-16.5,3.3-27.2c-4.1,6.1-6.7,11.8-10.9,15.7
		c-5.5,5.1-12.2,8.7-18.4,13c-1.9-6.9-3.9-13.7-5.4-20.6c-0.4-2.1,0.8-4.5,1.3-6.8c1.8-8.4,2.5-17.3,5.6-25.3
		c4.6-12,8.1-26.4,16.9-34.4c17.6-16.1,38.5-28.7,58.2-42.4c3.4-2.4,7.6-4.5,11.7-4.9c9.5-1.1,17.2,1.4,17.3,13.2
		c0.1,3.1,0.6,6.2,0.9,9.3c2-25,11.5-45.7,31.3-61.4c5.6-4.4,11.4-8.8,15.8-14.3c18.7-23,29.7-53.3,61.7-63.4
		c0.7-0.2,1.1-1.5,1.7-2.2c13.1-13.1,26.3-26.2,39.4-39.3c0.6,1.3,1.2,2.5,1.8,3.8c5.5,1.2,11.1,2.4,20,4.3c-6-6.3-8.9-9.3-11.5-12
		c-6.4,1.4-12.7,2.7-19.5,4.2C293.5,309.7,299.9,300.8,307.5,297z M184.8,388.1c-3.1,22.6-10.4,33.1-29.9,33.4
		c-1.5-0.9-8.5-2.8-9.7-6.6c-1.4-4.2,0.8-11.8,4.2-15c7.9-7.4,17-13.6,26.4-19C181.8,377.5,186.1,378.2,184.8,388.1z M200.2,370.3
		c-3.5,1.3-6.9,2.5-10.5,3c-4.4,0.7-9.3-1.4-13.9-2.3c1.1-4.5,1.6-9.2,3.5-13.4c1-2.3,4-4.5,6.5-5.3c6.1-1.8,13.3-4.9,18.3-3.1
		c2.7,1,3.6,7.3,4.8,12.6C206.3,365.1,202.9,368.1,200.2,370.3z M245.9,362.3c-4.7,6.8-11.2,12.7-18.1,17.3
		c-8.5,5.7-15.9,2.9-18.6-5.5c3.3-5.1,6.3-11.3,8.4-15.8c4.9-4.2,9.9-8.3,15.3-11.6c3.5-2.1,9.5-0.1,14.3-0.1
		C246.9,352,248.5,358.6,245.9,362.3z"/>
</g>
</svg>
