<?xml version="1.0" encoding="utf-8"?>
<!-- Generator: Adobe Illustrator 27.3.1, SVG Export Plug-In . SVG Version: 6.00 Build 0)  -->
<svg version="1.1" id="Camada_1" xmlns="http://www.w3.org/2000/svg" xmlns:xlink="http://www.w3.org/1999/xlink" x="0px" y="0px"
	 viewBox="0 0 512 512" style="enable-background:new 0 0 512 512;" xml:space="preserve">
<style type="text/css">
	.st0{stroke:#000000;stroke-width:9;stroke-linejoin:round;stroke-miterlimit:10;}
	.st1{fill:#84929B;}
	.st2{fill:#A1AEB7;}
	.st3{fill:#D5DEEB;}
	.st4{fill:#BEC9D3;}
	.st5{fill:#AAB4BA;}
	.st6{fill:#0057AD;}
	.st7{fill:#060D16;}
	.st8{fill:#B1BCC4;}
	.st9{fill:#9CA7AF;}
	.st10{fill:#0C1829;}
	.st11{fill:#90A0AF;}
	.st12{fill:#006AFF;}
	.st13{fill:#121F32;}
	.st14{fill:#E6F0FF;}
	.st15{fill:#0098FF;}
	.st16{fill:#52EFFF;}
	.st17{fill:#C9D7E2;}
	.st18{fill:#DDE7F4;}
	.st19{fill:url(#SVGID_1_);}
	.st20{fill:#2C496B;}
	.st21{fill:none;stroke:#006AFF;stroke-width:2;stroke-miterlimit:10;}
	.st22{fill:#1866A6;stroke:#006AFF;stroke-width:2;stroke-miterlimit:10;}
	.st23{fill:#006AFF;stroke:#006AFF;stroke-width:0.5;stroke-miterlimit:10;}
	.st24{fill:none;stroke:#52EFFF;stroke-width:2;stroke-miterlimit:10;}
	.st25{fill:#FFFFFF;}
</style>
<g>
	<path class="st0" d="M450.8,372.3L450.8,372.3c-0.7-8.3-2.2-17.2-4.8-26.4l0,0l0,0c0,0-3.1,4.7-4.9,11.1c-3,0.2-8.2,0.7-14.3,1.4
		c0-4.1-0.1-9.8-0.4-16.2c0,0,0,0,0-0.1c0-1.3-0.1-2.7-0.1-4l0,0l0,0c-0.3-8.2-0.8-17.2-1.3-25.8c-0.1-0.9-0.1-1.8-0.2-2.7
		c-0.5-8.1-1.2-15.4-1.9-20.9l0,0c-0.1-0.7-0.2-1.4-0.3-2c0-0.3-0.1-0.5-0.1-0.7c1.4,0.5,2.3,0.8,2.7,1c2,1,9.3,5.6,12.6,1.9
		c5-5.3,3.8-15.2,2.5-21.1l0,0l0,0v-0.1c-0.2-0.3-1.2-0.2-4.7,1.2c4.4,2.1,8,2.5,9.1,1c0.2-0.3,0.4-0.8,0.3-1.7l0,0l0,0
		c0,0,0-0.1,0.1-0.3c0-1.9,0.1-3.8,0-5.8c-0.1-5.2-0.3-10.1-0.8-14.7l0,0c0,0,1.2-5.7,0.8-12.6c-0.3-4.6-1.2-9.8-3.7-14.1
		c-0.5-0.8-1-1.7-1.6-2.4c-0.3-0.4-0.6-0.8-1-1.1c-0.7-0.7-1.4-1.4-2.2-2c-0.4-0.3-0.8-0.6-1.3-0.9c-0.9-0.6-1.9-1.1-2.9-1.5l0,0
		c-4.2-4.3-9.8-6.4-17.3-4.7c-15.2,3.5-26.7,11-34.6,18c-9.5-14.2-25.4-10.5-25.4-10.5l0,0c-0.1,0.1-3,4.4-4.9,7.9
		c-14.7-2.6-35.3-5.2-61.8-6.4c0.1-0.8,0.1-1.7-0.1-2.5c16.2-4.6,28.9-11.1,28.9-11.1l-0.8-0.5c22-10.5,46-27.7,63.2-56.2l0,0v-0.1
		c3.9-0.1,9.3-0.5,11.6-1.6c4-1.9,4.4-7.9,4.4-7.9s-0.1,0-0.2,0l-0.8-0.7c7.2-21.4,1.5-42.7,0.3-46.7l0.5-0.7l0,0c0.2,0,0.3,0,0.3,0
		s-0.3-4.9-3.4-7.2c-0.3-0.2-0.6-0.5-1-0.6c-3.3-1.6-12.3-1.7-15.3-1.7l0,0c0.6-1.8,1.2-3.7,1.8-5.6l-4.1,2c0.3-2.7,0.2-4.9-0.1-6.3
		c0.6-1.1,0.8-2.4,0.8-2.4c-5.9-29.7-27.8-37.4-27.8-37.4c0.7-4.3-2-5.8-2.1-5.9l0,0c0,0-2.6-0.7-7.6,3.7c-3.2-2.2-9-5.7-18-8.9
		c-3.3-1.2-7-2.4-11.1-3.4c-7-1.8-15.3-3.4-25-4.4c-2.2-0.2-4.4-0.4-6.7-0.6c-4.3-0.6-12-0.6-18.5-0.5c-3.9,0.1-7.7,0.2-11.3,0.4
		c-0.4,0-0.6,0-0.6,0l0,0c-7,0.5-13.3,1.2-19,2.2c-1.8,0.3-3.5,0.6-5.1,1c-7.2,1.5-13.4,3.3-18.5,5.1c-4.3,1.6-8,3.2-10.9,4.7
		c-3.4,1.7-5.9,3.3-7.6,4.5c-5.1-4.5-7.7-3.9-7.8-3.9l0,0l0,0l0,0c0,0-2.1,1.2-2.2,4.4c0,0.5,0,1,0.1,1.5c0,0-0.1,0-0.4,0.1
		c-2.9,1.2-22,9.8-27.4,37.2l0,0l0,0c0,0,0.3,1.7,1.1,2.9c-0.2,1.5-0.3,3.5,0,6l-4.3-2.1c-0.1-0.1-0.1-0.1-0.2-0.2v0.1l0,0l0,0l0,0
		l0,0c0.7,1.9,1.3,3.8,1.8,5.6c-0.3,0-0.5,0-0.8,0l0,0l0,0c-3.7,0-11.1,0.2-14,1.7c-2.5,1.2-3.6,4-4.1,6l0,0l0,0
		c-0.3,1.1-0.3,1.9-0.3,1.9s0,0,0.1,0h-0.1c-0.1,0.2-0.2,0.4-0.3,0.7c-1.1,4.8-2,10.2-2.4,16.3c-0.8,11.8,0.6,21.9,2.2,29.6
		c0.1,0.5,0.3,0.9,0.4,1.4l0,0c0,0.1,0.4,5.9,4.4,7.9c2.3,1.1,7.4,1.5,11.2,1.6v0.1c0.7,1.2,1.5,2.4,2.3,3.6c0.3,0.5,0.7,1,1,1.5
		c0.4,0.7,0.9,1.3,1.3,2c0.4,0.6,0.8,1.1,1.2,1.6c0.4,0.6,0.9,1.2,1.3,1.8c0.4,0.5,0.8,1,1.2,1.6c0.5,0.6,1,1.3,1.5,1.9
		c0.2,0.3,0.5,0.6,0.7,1l0,0c0.6,0.7,1.1,1.4,1.7,2.1c0.2,0.2,0.3,0.4,0.5,0.6c0.5,0.6,1,1.2,1.5,1.7c0.3,0.3,0.5,0.6,0.8,0.9
		c0.5,0.5,0.9,1,1.4,1.6c0.2,0.2,0.3,0.3,0.5,0.5c0.9,1,1.6,1.7,1.6,1.7c0.6,0.6,8.1,7.2,29,25.1c5,2.5,10.1,5.1,15.1,7.6l0,0l0,0
		l0,0c0,0,11,5.5,25.5,10h-0.1c0.1,0,0.1,0,0.2,0.1h0.1c0.1,0,0.1,0,0.2,0c0.7,0.2,1.5,0.4,2.2,0.7c-0.1,0.8-0.2,1.8-0.2,2.8
		c-8.3,0.4-16,0.9-23.1,1.5c-14.8,1.3-27,3-36.7,4.7c-2.8-5.6-5.6-7.6-5.8-7.8l0,0c0,0-18-4.2-27.1,13.5
		c-7.7-6.3-18.2-12.5-31.7-15.6c-7.5-1.7-13.1,0.4-17.3,4.7l0,0c-1,0.4-2,0.9-2.9,1.5c-0.4,0.3-0.9,0.6-1.3,0.9
		c-0.8,0.6-1.6,1.3-2.2,2c-0.3,0.4-0.7,0.7-1,1.1c-0.6,0.8-1.1,1.6-1.6,2.4c-2.5,4.3-3.4,9.5-3.7,14.1c-0.4,6.9,0.8,12.6,0.8,12.6
		l0,0c-1.1,11.4-0.7,20.9-0.7,20.9l0,0c0.2-0.2,0.5-0.5,0.7-0.8c0.3,0.1,0.6,0.1,0.9,0.2c-0.3,0.5-0.4,0.9-0.3,1.1
		c0.3,0.5,1.7,0.2,4.1-0.7c-0.2-0.5-0.2-0.8-0.2-0.8c0.1,0,0.2,0,0.5,0.3c-0.1-0.1-0.5-0.4-0.9-0.3c-0.3,0.2-0.5,0.9-0.1,1.8
		c-0.1,0.3-0.3,0.7-0.5,1.2c-2.1,6.4-1.9,16.3,2.9,18.8c2.9,1.5,7.4,0.9,12.6-1.9c0.4-0.2,1.3-0.6,2.7-1c0,0.2-0.1,0.5-0.1,0.7
		c-0.1,0.6-0.2,1.3-0.3,2l0,0c-0.7,5.5-1.4,12.8-1.9,20.9l0,0l0,0c-0.1,0.9-0.1,1.8-0.2,2.7l0,0c-0.5,8.5-1,17.6-1.3,25.7l0,0
		c0,1.4-0.1,2.8-0.1,4.1l0,0l0,0c-0.2,6.4-0.3,12.1-0.4,16.2c-6.1-0.7-11.3-1.1-14.3-1.4c-1.8-6.4-4.9-11-4.9-11.1l0,0
		c-1.3,4.6-2.3,9.1-3.1,13.5c-0.8,4.4-1.3,8.7-1.7,12.9l0,0c-1,12.2-0.4,23.1,0.8,32l0,0l0,0c1.9,14.5,5.3,23.6,5.4,23.8
		c0.1,4.9,0.3,7.9,0.3,7.9c0.8,0.5,1.5,0.9,2.3,1.4C78.2,468,77.9,476,77.9,479c0,0.3,0,0.6,0,0.6c0,5.9,0.7,10.3,1.2,13.2l0,0l0,0
		c0.2,0.7,0.5,1.3,0.8,1.8c1.4,2.3,3.3,3.7,5.5,4.4l0,0c0.5,1.2,1.5,2.9,2.4,3.1c1.5,0.4,13.3-1.5,13.3-4.7c0-0.8-0.6-3.6-1.5-7.5
		c0.9-0.2,1.9-0.6,3-1.6c1.4-1.4-3.6-17.3-7.4-28.7c0.3-1.8,0.6-3.5,1.1-5.1l0,0c0.5-1.8,1.2-3.4,2.1-4.9c0.2-0.4,0.5-0.8,0.8-1.2
		c2.8,0.1,5.5-0.2,7.8-0.6c1.1,6.2-0.8,18.4-1.4,21.5c-0.1,0.3-0.1,0.5-0.1,0.8v0.1c0,0.2,0,0.4,0.1,0.6c0,0,0,0.1,0.1,0.1
		c0.1,0.2,0.1,0.4,0.2,0.5l0.1,0.1c0.1,0.1,0.2,0.3,0.3,0.4l0.1,0.1c0,0,0,0,0,0.1c0.1,0.2,0.3,0.3,0.5,0.5l0.1,0.1
		c0.4,0.3,0.8,0.6,1.3,0.9l0,0c0.2,0.1,0.5,0.2,0.7,0.3c0,0,0.1,0,0.1,0.1c0.2,0.1,0.5,0.2,0.7,0.3c0,0,0,0,0.1,0
		c0.3,0.1,0.6,0.2,0.9,0.2c0,0,0,0,0.1,0c0.3,0.1,0.5,0.1,0.8,0.2c0.1,0,0.1,0,0.2,0c0.2,0,0.5,0.1,0.7,0.1c0.1,0,0.1,0,0.2,0
		c0.3,0,0.6,0,0.8,0.1h0.1c0.2,0,0.5,0,0.7,0c0.1,0,0.2,0,0.2,0c0.2,0,0.4,0,0.5,0s0.1,0,0.2,0c0.2,0,0.5-0.1,0.7-0.1
		c0.7-0.2,1.3-0.4,1.7-0.8c2.5-2.4,7-19.8,5-23.5c-0.8-1.4-1.7-3.3-2.8-5.2c-0.3-0.6-0.7-1.2-1-1.8l0,0l0,0
		c-0.1-0.1-0.1-0.2-0.2-0.3c0.8-0.5,1.2-0.8,1.2-0.8c5.2-23.7,4.4-73.7,4.4-73.7c-2.3-0.6-4.7-1.1-7.2-1.6
		c0.5-6.5,1.4-14.5,2.4-22.8c0-0.3,0.1-0.6,0.1-0.9c1.1-9.1,2.4-18.6,3.6-27c0.1-0.7,0.2-1.5,0.3-2.2c2.1-14.6,3.8-25.6,3.8-25.6
		s-0.4-0.2-1-0.5c0.3,0.1,0.7,0.2,1,0.3c2.6,0.8,5.2,0,7.4-1.8c1.5,19.5,4.2,36.2,4.2,36.2l0,0c0.2,0.3,1.9,3.3,4.5,5.7
		c0.1,0.3,0.1,0.5,0.2,0.8c0.2,0.6,0.3,1.3,0.5,2c0.8,3.1,1.7,6.6,2.7,10.3c5.5,20.7,13.4,48.1,17.3,50.8c0,0,2.4,1.8,5.8,3.1
		c0.5,1.3,1,2.5,1.6,3.8l0,0c4.8,11.4,10.2,22.8,16.4,34.4c4.1,7.6,8.3,14.1,12.5,19.7l0,0c1.8,2.4,3.7,4.6,5.5,6.7
		c0.7,2.2,1.5,4.6,2.5,6.1l0,0l0,0c0.1,0.1,1,2.4,3.6,5.4c0.4,0.5,0.9,1,1.4,1.5c1.5,1.5,3.5,3.2,5.9,4.8c4.1,2.7,9.5,5.4,16.8,7.3
		c6.5,1.7,14.5,2.8,24.2,2.8h0.2c43-0.1,51.7-21.8,51.7-21.9l0,0c0,0,0,0,0-0.1c1.1-1.7,2-3.9,2.7-6.1c3.1-3.4,6.1-7.4,9.2-11.8
		c0.3-0.5,0.7-1,1-1.5c0.1-0.1,0.1-0.2,0.2-0.3c2.6-3.9,5.1-8.1,7.6-12.8c7-13.1,13.1-26.1,18.3-38.9c4.9-1.3,5.3-2.3,5.3-2.4l0,0
		c5-3.5,16.6-47.5,21.3-66c2.5-1.7,4-3.7,4-3.7c0.2-0.6,0.3-1.2,0.5-1.8c-0.4,1.1-0.9,2.2-0.9,2.3c0,0,0.8-1.8,1-2.3
		c1.9-4.6,1.1-10.4,1.2-11.1c1-9.9,2-19.7,2.9-29.4c2.5,2.3,5.3,3.4,8.2,2.5c0.3-0.1,0.6-0.2,1-0.2c-0.4,0.2-0.7,0.4-0.9,0.5h-0.1
		c0,0,1.7,11,3.8,25.6c0.1,0.7,0.2,1.5,0.3,2.2c1.2,8.5,2.5,17.9,3.6,27c0,0.3,0.1,0.6,0.1,0.9l0,0l0,0c1,8.3,1.9,16.2,2.4,22.8
		c-2.5,0.5-5,1-7.2,1.6c0,0.4,0,0.7,0,1.1c0.3-0.7,0.4-1,0.3-1c0,0-0.1,0-0.3,0.2c0,0.1,0,0.5,0,0.6c-0.1,11.9-0.4,20.7-0.4,21.6
		c-0.2,5.7,0.7,18.9,4.9,51.3c0.1,0.1,0.2,0.2,0.3,0.2c0.2,0.1,0.5,0.4,0.9,0.6c-0.1,0.1-0.1,0.2-0.2,0.3l0,0l0,0
		c-0.4,0.6-0.7,1.2-1,1.8c-1.1,1.9-2,3.8-2.8,5.2c-1.9,3.7,2.5,21.1,5,23.5c0.4,0.4,1,0.6,1.7,0.8c0.2,0,0.5,0.1,0.7,0.1
		c0.1,0,0.1,0,0.2,0c0.2,0,0.4,0,0.5,0s0.2,0,0.2,0c0.2,0,0.5,0,0.7,0h0.1c0.3,0,0.6,0,0.8-0.1c0.1,0,0.1,0,0.2,0
		c0.2,0,0.5-0.1,0.7-0.1c0.1,0,0.1,0,0.2,0c0.3,0,0.5-0.1,0.8-0.2l0,0c0.3-0.1,0.6-0.2,0.9-0.2c0,0,0,0,0.1,0
		c0.3-0.1,0.5-0.2,0.7-0.3c0,0,0.1,0,0.1-0.1c0.2-0.1,0.5-0.2,0.7-0.3l0,0c0.5-0.3,0.9-0.6,1.3-0.9l0.1-0.1c0.2-0.2,0.3-0.3,0.5-0.5
		c0,0,0,0,0-0.1l0.1-0.1c0.1-0.1,0.2-0.3,0.3-0.4l0.1-0.1c0.1-0.2,0.2-0.3,0.2-0.5v-0.1c0.1-0.2,0.1-0.4,0.1-0.6v-0.1
		c0-0.2,0-0.5-0.1-0.8c-0.6-3.1-2.5-15.3-1.4-21.5c2.3,0.5,5,0.7,7.8,0.6c0.3,0.4,0.5,0.8,0.8,1.2c0.9,1.5,1.5,3.1,2,4.9
		c0.5,1.6,0.8,3.3,1.1,5.1c-3.9,11.4-8.9,27.3-7.4,28.7c1.1,1,2.2,1.4,3,1.6c-0.8,3.9-1.4,6.6-1.5,7.5c0,3.2,11.8,5.2,13.3,4.7
		c1-0.3,1.9-2,2.4-3.1l0,0c2.1-0.8,4.1-2.1,5.5-4.4l0,0l0,0c0.3-0.5,0.5-1.1,0.8-1.8c3.2-10.7-0.7-45.5-1.3-49.9
		c0.7-0.4,1.5-0.9,2.3-1.4c0,0,0.1-3,0.3-7.9l0,0c0,0,3.4-9.1,5.4-23.8l0,0l0,0C451.2,395.4,451.9,384.4,450.8,372.3z"/>
	<path class="st0" d="M309.4,471.4c-1.7,1.9-4,4.1-7.3,6.3c-4.1,2.7-9.5,5.4-16.8,7.3c-6.5,1.7-14.5,2.8-24.2,2.8H261h-0.1h-0.1
		c-9.7,0-17.7-1.1-24.2-2.8c-7.3-1.9-12.8-4.6-16.8-7.3c-3.2-2.2-5.6-4.4-7.3-6.3c0,0-5,5-6.5,11.7s16.4,17.7,54.9,17.7l0,0l0,0l0,0
		l0,0c38.5,0,56.4-11,54.9-17.7S309.4,471.4,309.4,471.4z"/>
</g>
<path class="st1" d="M98,490c0,0,2.4,0.5,4.7-1.7c2.3-2.2-12-42-11.5-40s-5.5,42.4-5.1,42.5C86.5,490.8,98,490,98,490z"/>
<path class="st2" d="M84.9,497.9c0,0,1.4,3.8,2.9,4.2s13.3-1.5,13.3-4.7s-9.3-36.8-6.2-50.5c3.2-13.7-11.3,41.6-11.3,41.6
	L84.9,497.9z"/>
<path class="st3" d="M117.7,473.8c-0.4,0.4-1,0.6-1.7,0.8c-2.9,0.7-8-0.3-9.8-2.7c-0.6-0.8-0.8-1.6-0.7-2.7
	c0.7-3.8,3.4-20.7,0.4-24.4c-0.7-0.9-1.7-1-3-0.2c-0.4,0.2-0.8,0.5-1.2,0.9c-0.2,0.2-0.3,0.3-0.5,0.5c-0.3,0.3-0.6,0.6-0.9,0.9
	c-0.7,0.8-1.3,1.7-1.9,2.6c-0.8,1.5-1.5,3.1-2.1,4.9c-0.5,1.6-0.8,3.3-1.1,5.1c-0.2,1.2-0.3,2.4-0.4,3.6l0,0
	c-0.7,9.6,0.8,20.3,1.8,26.9c0.5,3.1,0.8,5.2,0.8,6c-0.1,2-4.2,3.9-8.7,3.6c-1.1-0.1-2.3-0.3-3.4-0.7c-2.1-0.8-4.1-2.1-5.5-4.4
	c-0.3-0.5-0.6-1.1-0.8-1.8c-3.4-11.4,1.3-50.4,1.3-50.4s7.5-1.6,15.5-3c0.7-0.1,1.4-0.2,2.2-0.4c3.6-0.6,7.1-1.1,10-1.3
	c1-0.1,1.9-0.1,2.7-0.2c1.4,0,2.5,0,3.1,0.2l0,0c0.2,0.1,0.3,0.1,0.4,0.2c0.1,0,0.1,0.1,0.2,0.1c1.4,1.1,2.9,3.1,4.3,5.3
	c0.4,0.6,0.7,1.2,1.1,1.8c1.1,1.9,2,3.8,2.8,5.2C124.7,454,120.2,471.4,117.7,473.8z"/>
<path class="st4" d="M101.2,446c-0.3,0.3-0.6,0.6-0.9,0.9c-0.7,0.8-1.3,1.7-1.9,2.6c-0.8,1.5-1.5,3.1-2.1,4.9c0,0-0.8-0.1-2.1-0.3
	c-0.3,0-0.6-0.1-0.9-0.1c-0.2,0-0.4-0.1-0.6-0.1c-0.6-0.1-1.3-0.2-2-0.3c-2.4-0.4-4.9-1-5.6-1.5c-0.9-0.6-0.4,13,0.9,27.1l0,0
	c0.2,2,0.4,4,0.6,6c0.2,1.9,0.4,3.7,0.7,5.5c0.4,3.2,0.9,6.3,1.4,9c-1.1-0.1-2.3-0.3-3.4-0.7c-2.1-0.8-4.1-2.1-5.5-4.4
	c-0.3-0.5-0.6-1.1-0.8-1.8c-3.4-11.4,1.3-50.4,1.3-50.4s7.5-1.6,15.5-3L101.2,446z"/>
<path class="st5" d="M104.6,440.1l-1.7,4.5c-0.5,0.3-1.1,0.8-1.8,1.4c-0.3,0.3-0.6,0.6-0.9,0.9c-0.7,0.8-1.3,1.7-1.9,2.6
	c-1-0.2-2.3-0.5-3.8-0.9c-0.1,0-0.2-0.1-0.4-0.1c-4.7-1.1-10.5-2.7-12.9-4c0,0-3.3,30.1-2.2,48.1c-3.4-11.4,1.3-50.4,1.3-50.4
	s7.5-1.6,15.5-3c0.7-0.1,1.4-0.2,2.2-0.4C102,439.6,104.6,440.1,104.6,440.1z"/>
<path class="st4" d="M116,474.6c-3.9,0.9-11.3-1.1-10.5-5.4c0.7-3.8,3.4-20.7,0.4-24.4c1.1-3.3,1.9-6,2.3-7.1
	c0.1-0.4,0.2-0.5,0.2-0.5l2.5,0.4l3.8,0.6c1.8,1.4,3.7,4.3,5.3,7.1c0,0-6.7,4.9-8.7,4.9c0,0-1.2,17.1-2.2,20.2
	C108.4,472.3,112.4,473.8,116,474.6z"/>
<path class="st5" d="M108.1,448.2c0,0-0.1,21.9-1.9,23.6l0,0c-0.6-0.8-0.8-1.6-0.7-2.7c0.7-3.8,3.4-20.7,0.4-24.4
	c-0.7-0.9-1.7-1-3-0.2c-0.4,0.2-0.8,0.5-1.2,0.9c0-3.1-0.1-5.2,0-5.2c0.1-0.1,7.5-1.6,12.3-2.6l0,0c0.2,0.1,0.3,0.1,0.4,0.2
	c0.1,0,0.1,0.1,0.2,0.1c1.4,1.1,2.9,3.1,4.3,5.3C116.4,444.6,108.9,448.3,108.1,448.2z"/>
<path class="st6" d="M76.5,351.3c0,0,4.4,6.7,5.9,15.1c1.4,8.4-9.1,4.8-9.1,4.8L76.5,351.3z"/>
<path class="st7" d="M78.8,362.1c0,0,27.5,1.8,45.6,6.3l-23.5,13.2L78.8,362.1z"/>
<path class="st8" d="M127.4,288.4c0,0-1.7,11-3.8,25.6c-0.1,0.7-0.2,1.5-0.3,2.2c-1.2,8.5-2.5,17.9-3.6,27c0,0.3-0.1,0.6-0.1,0.9
	c-1.2,9.5-2.1,18.6-2.6,25.6c-0.2,3-0.3,5.5-0.3,7.6c-0.1,20.9-20.3,1.9-20.8-8.5c0-0.6-0.1-1.4-0.1-2.2c0-0.5,0-1,0-1.5
	c0-4.2,0.1-10.5,0.3-17.6c0.1-1.3,0.1-2.7,0.2-4.1c0.3-8.2,0.8-17.2,1.3-25.8c0.1-0.9,0.1-1.8,0.2-2.7c0.6-8.1,1.2-15.5,1.9-20.9
	c0.1-0.7,0.2-1.4,0.3-2c0.7-4.6,2.7-7.2,5.4-8.4c5.3-2.4,13.2,0.4,18,2.6C125.8,287.4,127.4,288.4,127.4,288.4z"/>
<path class="st9" d="M127.4,288.4c0,0-1.7,11-3.8,25.6c-1.2-0.6-2.9-0.3-2.9-0.3c0.2-2.9,2.9-22.7,2.9-22.7c-5.2-2.1-24,3-24,3
	c0.1-0.7,0.2-1.4,0.3-2c0.7-4.6,2.7-7.2,5.4-8.4l18,2.6C125.8,287.4,127.4,288.4,127.4,288.4z"/>
<path class="st7" d="M77.6,273.4c0,0,3.4-0.1,8-1.4s-4.2-7-4.2-7L77.6,273.4z"/>
<path class="st10" d="M232.5,211.9c0,0-1.5,5.4,0.2,8.3s54.7,1.5,54.7,1.5s2.2-6.7,0-9.8C285.3,208.8,232.5,211.9,232.5,211.9z"/>
<path class="st11" d="M317.1,452.4c0,0-2.1,14-7.6,16.5s-5.8-17.8-5.8-17.8L317.1,452.4z"/>
<path class="st11" d="M204.8,454.3c0,0,2.4,11.4,5.1,12.9s5.4-13.8,5.4-13.8L204.8,454.3z"/>
<path class="st11" d="M357,392.1c0,0-0.2,2-15.5,4.4s0-16.2,0.9-16.5S357,392.1,357,392.1"/>
<path class="st11" d="M164.4,392.1c0,0,5.7,4.4,11.9,4.4s-2.2-10.1-2.2-10.1L164.4,392.1"/>
<path class="st11" d="M355.1,215.4c0,0-5,7.4-6.1,10.7s5.6,1.3,5.6,1.3L355.1,215.4"/>
<path class="st11" d="M166.3,215.4c0,0,4.1,2.6,7.4,11.3s-6.7,7.7-6.7,7.7L166.3,215.4"/>
<g>
	<path class="st12" d="M263,216.3v3.3V238v2.6v5.5v13.7L262.7,483c0,0-0.6,0.2-1.8,0.4c-6,1.2-26.7,3.3-48.9-17.6
		c-3.7-3.5-7.4-7.6-11.2-12.5c-4.2-5.5-8.4-12.1-12.5-19.7c-6.2-11.5-11.6-23-16.4-34.4l0,0c-2.3-5.5-4.5-11-6.5-16.5
		c-16.3-44.1-23.1-86.1-25.1-124.1c0,0-4.1-25.1,3.5-28.8c0,0,21.7-7.4,65.2-11.2c14.2-1.2,30.8-2.1,49.7-2.2
		C260,216.3,261.5,216.3,263,216.3z"/>
	<path class="st12" d="M381.4,258.5c-1.9,36-8,75.7-22.6,117.3l0,0c-6.6,18.9-15,38.2-25.4,57.7c-7.6,14.2-15.6,24.5-23.4,31.9
		c-22.3,21.3-43.1,19.2-49.2,17.9c-1.2-0.2-1.8-0.4-1.8-0.4l-0.3-223.5v-13.2v-6.3v-2.2v-18.1v-3.2c1.5,0,2.9,0,4.4,0
		c46.8,0.2,79.2,5.1,97.4,8.9c11.7,2.4,17.5,4.4,17.5,4.4C385.4,233.4,381.4,258.5,381.4,258.5z"/>
</g>
<path class="st12" d="M245.8,10.4c0,0,22-1.3,30.5,0.1c8.5,1.3-2.7,50.4-2.7,50.4l-12.7,10.4l-17.2-2.7l-6.9-28L245.8,10.4z"/>
<g>
	<polygon class="st6" points="126.1,137.1 130.2,133.7 131,138.5 	"/>
	<polygon class="st6" points="126.1,89.1 129,93.2 131.6,88.2 	"/>
</g>
<path class="st11" d="M146.9,67.3c0,0,0.5,2.9,1.9,3.8s4.6-1.9,4.6-1.9l-3.8-2.8L146.9,67.3z"/>
<g>
	<polygon class="st11" points="149.3,82 143.5,74 148.7,76.6 	"/>
	<polygon class="st11" points="204.1,203.4 206.2,202.1 208.8,204.4 	"/>
	<polygon class="st11" points="141.7,146.7 141.7,146 142.7,146.4 142.4,147 	"/>
	<path class="st11" d="M176.8,24.1c0,0,3.1-0.8,9.2,5.1s-5.8,6-5.8,6L176.8,24.1z"/>
</g>
<path class="st13" d="M260.9,76.3l-81.7-13.5l-11.5,74.4c4.8,9.9,13.9,25.4,30.1,39.8c20.7,18.3,42.3,25.2,53.7,28.1
	c3.1,0,6.3,0,9.4,0V76.3z"/>
<path class="st13" d="M126.6,89.1c0,0-8,24,0.3,48c5.6,9.2,17.1-3.7,17.1-3.7l1.2-28.9l-1.9-16.6L131.7,86L126.6,89.1"/>
<path class="st14" d="M114.2,147.4"/>
<g>
	<polygon class="st6" points="395.5,137.1 391.5,133.7 390.6,138.5 	"/>
	<polygon class="st6" points="395.5,89.1 392.6,93.2 390.1,88.2 	"/>
</g>
<path class="st11" d="M374.5,67.3c0,0-0.5,2.9-1.9,3.8c-1.5,0.9-4.6-1.9-4.6-1.9l3.8-2.8L374.5,67.3z"/>
<g>
	<polygon class="st11" points="372.1,82 377.9,74 372.7,76.6 	"/>
	<polygon class="st11" points="317.3,203.4 315.2,202.1 312.6,204.4 	"/>
	<polygon class="st11" points="379.7,146.7 379.7,146 378.7,146.4 379,147 	"/>
	<path class="st11" d="M344.6,24.1c0,0-3.1-0.8-9.2,5.1s5.8,6,5.8,6L344.6,24.1z"/>
</g>
<path class="st13" d="M260.5,76.3l81.7-13.5l11.5,74.4c-4.8,9.9-13.9,25.4-30.1,39.8c-20.7,18.3-42.3,25.2-53.7,28.1
	c-3.1,0-6.3,0-9.4,0V76.3z"/>
<path class="st13" d="M394.9,89.1c0,0,8,24-0.3,48c-5.6,9.2-17.1-3.7-17.1-3.7l-1.2-28.9l1.9-16.6l11.6-1.9L394.9,89.1"/>
<path class="st12" d="M260.7,61.6V9.9c-5.2,0-10.1,0.2-14.7,0.5c-7.1,0.5-13.5,1.2-19.2,2.2c-1.8,0.3-3.5,0.6-5.1,1
	c-7.2,1.5-13.4,3.3-18.5,5.1c-4.4,1.6-8,3.2-10.9,4.7c-7.3,3.7-10.5,6.7-10.5,6.7s0,0-0.1,0.1c-0.2,0.4-0.8,1.6-1.5,2.9
	c-1,1.8-2.1,3.7-2.5,3.2c-0.6-0.9,9.4,26.5,9.4,26.5l72.6-1.2H260.7L260.7,61.6z M178.8,96.2c5.8-12.3-29.9-29-29.9-29
	s-0.3,0.5-0.6,1.5c-0.7,2.5-1.3,7.9,2.2,16.1c4.9,11.4,25.4,33.9,25.7,34.2c0-0.1-1.4-4.6-0.7-11.1
	C175.8,104.5,176.8,100.5,178.8,96.2z M158.3,102.7l-11.6-23.1c0,0-0.9,0-2.2,0c-3.7,0-11.1,0.2-14,1.7c-2.5,1.2-3.6,4.1-4.1,6
	c-0.3,1.1-0.3,1.9-0.3,1.9s14-0.7,13.7,10.9v26.1c0.1,3.8-1.3,6.3-3.3,7.9c-4.1,3.3-10.4,3-10.4,3s0.4,5.9,4.4,7.9
	c4,1.9,16.2,1.6,16.2,1.6l9.7-0.9l5.2-22L158.3,102.7z M344.1,36.4c-0.2,0.2-0.5-0.1-0.9-0.7c-0.5-0.7-1-1.7-1.6-2.6
	c-0.8-1.5-1.5-3-1.5-3s-0.7-0.7-2.3-1.8c-3-2.1-9-5.9-18.9-9.5l0,0c-3.3-1.2-7-2.4-11.1-3.4c-7-1.8-15.3-3.4-25-4.4
	c-3.4-0.3-7-0.6-10.7-0.8c-2.8-0.1-5.6-0.2-8.6-0.3c-0.8,0-1.6,0-2.5,0v51.7h-0.2l9.6,0.2l29.4,0.5l7.8,0.1l26.9,0.5
	c0,0,4.1-11.1,6.9-19C343.1,39.4,344.3,36,344.1,36.4z M373,67.2c0,0-35.8,16.8-29.9,29c5.8,12.2,2.7,22.7,2.6,22.9
	c0.3-0.3,20.8-22.8,25.7-34.2C376.2,73.3,373,67.2,373,67.2z M395.1,137.1c-1.7,0-6.5-0.3-9.7-3c-2-1.6-3.4-4.1-3.3-7.9V100
	c-0.3-11.7,13.7-10.9,13.7-10.9s-0.4-5.9-4.4-7.9c-3.3-1.6-12.3-1.7-15.3-1.7c-0.6,0-1,0-1,0l-11.6,23.1l-3.3,21l5.2,22l9.7,0.9
	c0,0,12.3,0.3,16.2-1.6c4-1.9,4.4-7.9,4.4-7.9S395.5,137.1,395.1,137.1z"/>
<g>
	<path class="st14" d="M260.5,218.7c0,0,78.8-4.9,119.2-72c-4.4-6.3-10-16.7-10.2-30.1c0-1.4,0-3.4,0.4-7.2c0.9-8.3,2.9-20.4,8-35.4
		c-9.3,8.6-21.5,22.1-30.7,41.2c-9.6,20-8.1,30.1-15.4,42.1c-8.1,13.4-26.5,27.8-71.3,31.6V218.7L260.5,218.7z"/>
</g>
<path class="st12" d="M314.9,117.8c-0.1,9-6.7,5.7-9.5,4.4s-11-0.7-14,0.5l0,0c-3,1.2-7.1,5.5-9.1,5.5s-4.6-2.3-4.5-4.9
	c0.1-2.3-0.4-13.9,11.8-17.3c1.6-0.4,3.4-0.7,5.5-0.8C312.9,104.2,314.9,117.8,314.9,117.8z"/>
<path class="st14" d="M449.7,147.3"/>
<path class="st14" d="M189.6,157.4c-7.3-12-5.9-22.1-15.4-42.1l0,0C165,96.1,152.8,82.6,143.5,74c5.2,15.1,7.2,27.1,8,35.4
	c0.4,3.8,0.4,5.8,0.4,7.2c-0.2,13.4-5.9,23.8-10.2,30.1c5.5,9.1,11.7,17,18.2,24c42.1,44.4,100.9,48,100.9,48v-29.8
	C216.1,185.1,197.8,170.7,189.6,157.4z"/>
<path class="st3" d="M260.9,61.6v27.5C236.8,88.7,220,74.7,214.3,74c-25.2-3.4-37.1,28.9-38.9,34.1c-0.1,0.4-0.2,0.7-0.2,0.7
	c-8.4-19.4-22.5-35.2-26.9-40c-0.9-0.9-1.4-1.4-1.4-1.4c5.4-27.4,24.5-36.1,27.4-37.2c0.2-0.1,0.4-0.1,0.4-0.1
	c-0.7-4.4,2.1-5.9,2.1-5.9c1.5,2.2,3.2,4.3,4.9,6.2c2.5,2.9,5.2,5.5,8.1,7.9c14.8,12.5,32.8,18.3,47.1,21.1l0,0
	C250,61.7,259.8,61.6,260.9,61.6L260.9,61.6z"/>
<path class="st12" d="M291.8,160.9c-5.9,3.6-14,9.1-31.3,9.1c-0.9,0-1.9,0-2.8-0.1l0,0c-15.8-0.6-26.2-6.6-29.5-10
	c-3.5-3.6,1.7-7.8,7.2-4.6c0,0,7.6,7,25.1,6.5c17.4-0.5,18.9-2.2,25.3-6.5s9-0.6,9-0.6S297.7,157.4,291.8,160.9z"/>
<path class="st12" d="M243.7,123.3c0.1,2.6-2.4,4.9-4.5,4.9c-2,0-6.1-4.2-9.1-5.4c-2.4-1-7.9-1.6-11.6-1.2l0,0
	c-1,0.1-1.8,0.3-2.4,0.6c-2.9,1.4-9.4,4.6-9.5-4.4c0,0,1.2-8.3,10.3-11.5l0,0c2.5-0.9,5.7-1.4,9.6-1.2
	C244.3,106.1,243.6,120.7,243.7,123.3z"/>
<path class="st3" d="M284.8,182.2h-48.2l0,0l0,0c0.1-0.1,1-1.3,4.4-2.5c3.1-1.1,8.2-2.1,16.8-2.3l0,0c0.9,0,1.9,0,3,0
	C281.4,177.4,284.7,182.1,284.8,182.2L284.8,182.2z"/>
<path class="st15" d="M261.5,9.9v41.7c-0.9,0-1.7,0-2.6,0c-29,0-59.3-10.4-54.7-15.2c4.5-4.8,16.7-9.7,16.7-9.7
	c-14,1.2-31,11.5-31,11.5c-2.9-2.4-5.6-5-8.1-7.9c0.1-0.1,0.1-0.1,0.1-0.1s3.2-3,10.6-6.7c3-1.5,6.6-3.1,11-4.7
	c5.2-1.9,11.4-3.7,18.7-5.1c1.7-0.3,3.4-0.7,5.1-1c5.8-1,12.3-1.8,19.4-2.2C251.3,10.1,256.2,9.9,261.5,9.9z"/>
<path class="st15" d="M340,30c-5.3,6.1-11.3,11-17.6,14.9c-10.1-9.3-26-9.8-26-9.8c6,1.7,14.5,8.1,10.8,9.5
	c-3.5,1.4-19.1,6.6-46,6.9V9.9c0.8,0,1.7,0,2.5,0c3,0,5.8,0.1,8.6,0.3c3.7,0.2,7.3,0.5,10.7,0.8c9.7,1,18,2.6,25,4.4
	c4.1,1.1,7.8,2.2,11.1,3.4l0,0c9.8,3.6,15.9,7.4,18.9,9.5C339,29.2,339.7,29.8,340,30z"/>
<path class="st15" d="M243.7,123.3c0.1,2.6-2.4,4.9-4.5,4.9c-2,0-6.1-4.2-9.1-5.4c-2.4-1-7.9-1.6-11.6-1.2c0.3-0.1,10.1-4.7,19.8,0
	c0,0,3.3-9.4-18-12.1c0,0,7.7-2.7,14.5,0s-4.7-4.6-18-3.1c2.5-0.9,5.7-1.4,9.6-1.2C244.3,106.1,243.6,120.7,243.7,123.3z"/>
<path class="st16" d="M230.8,121.7c0,0,4.6,3.1,6.5,4.8c1.9,1.7,5.7-0.9,5.5-2.4s0.1-10.4-7.1-14.6c0,0,5.4,6.2,5.8,13.1
	c0.1,2.4-1.7,3.4-2.4,3.2S234.1,122.7,230.8,121.7z"/>
<path class="st15" d="M142,144.9c-12,0.4-14-6.4-14-6.4c7.8,5.6,14.2,1.8,14.2,1.8c12.3-23.7,1.3-56.8,1.3-56.8
	c-5.6-1-10.7,1-10.7,1c3.6,0,6.4,1.4,6.4,1.4c-8.2-0.7-12.8,1.2-12.8,1.2l0,0c0.5-1.9,1.6-4.7,4.1-6c2.9-1.4,10.3-1.6,14-1.7
	c0.2,0.7,0.4,1.2,0.4,1.2C159.7,126.1,142,144.9,142,144.9z"/>
<path class="st16" d="M127.7,85.4c0,0,1.4-4,6.4-4.7s9.7-0.6,9.7-0.6s-7.9,0.7-9.5,1.3C132.7,82,129.8,82.9,127.7,85.4z"/>
<path class="st16" d="M143.9,80.1c0,0,1.2,3,1.4,3.9c0,0-1.5-3.5-2-3.6s-10.3-0.1-15.6,5c0,0,2.4-4.2,5.4-4.1
	c2.9,0.1,3.3-0.7,3.3-0.7L143.9,80.1z"/>
<path class="st17" d="M236.8,59.2c-0.7,0-24.4-0.8-42.7-10.2c-18.6-9.5-31.4,27.5-31.4,27.5s9,16.3,12.7,31.5
	c-0.1,0.4-0.2,0.7-0.2,0.7c-8.4-19.4-22.5-35.2-26.9-40c-0.9-0.9-1.4-1.4-1.4-1.4c5.4-27.4,24.5-36.1,27.4-37.2
	c0.2-0.1,0.4-0.1,0.4-0.1c-0.7-4.4,2.1-5.9,2.1-5.9c1.5,2.2,3.2,4.3,4.9,6.2c2.5,2.9,5.2,5.5,8.1,7.9c4.4,3.7,9.1,6.8,13.8,9.4
	C214.9,53.8,226.8,57.3,236.8,59.2z"/>
<path class="st4" d="M203.6,47.6c-0.6-0.2-18.8-8.2-25.8-13.2c-7.1-5-30.5,26.3-20.5,38.7s18,35.6,18,35.6
	c-4.1-9.5-9.6-18.2-14.6-25l0,0l0,0c-5.3-7.2-10-12.5-12.3-14.9c-0.9-0.9-1.4-1.4-1.4-1.4c5.4-27.4,24.5-36.1,27.4-37.2
	c0.2-0.1,0.4-0.1,0.4-0.1c-0.7-4.4,2.1-5.9,2.1-5.9c1.5,2.2,3.2,4.3,4.9,6.2c2,2.3,4.1,4.4,6.4,6.4c0.6,0.5,1.1,1,1.7,1.5
	C194.1,41.8,198.8,45,203.6,47.6z"/>
<path class="st8" d="M188.1,36.7c-4.4-1.8-8.8-4.5-8.8-4.5s-1.6-1.5-3.6-0.8c-18.8,9.3-23,25.9-24.8,31.4c-1.9,5.4,2.2,7.4,3.7,9.7
	c1.5,2.3,5.8,10.6,6.1,11.1c-5.3-7.2-10-12.5-12.3-14.9c-0.9-0.9-1.4-1.4-1.4-1.4c5.4-27.4,24.5-36.1,27.4-37.2
	c0.2-0.1,0.4-0.1,0.4-0.1c-0.7-4.4,2.1-5.9,2.1-5.9c1.5,2.2,3.2,4.3,4.9,6.2C183.7,32.6,185.9,34.7,188.1,36.7z"/>
<path class="st14" d="M203.6,47.6c0,0-24.5-12-25.8-13.6s-5,0.2-6.8,1.6s-18.5,16.8-16.4,33c0,0,0.6,3.4,2.7,5.5
	c2.1,2.1,15,27,15,27s-10.1-23.6-13.5-28c-3.4-4.5-4.4-19.1,12.6-37.1c0,0,4-3,6-1.6S198.9,46.6,203.6,47.6z"/>
<path class="st15" d="M361.1,226l-9.2,41.3l-86.9-6.7c0,0-0.5,0-1.4-0.1c-1-0.1-2.5-0.2-4.2-0.4c-11.8-1.1-37.4-4-30.9-8.8
	c4.2-3.1,18.1-4.2,30.9-4.5c1.5,0,2.9-0.1,4.3-0.1c10.7-0.1,19.6,0.2,19.6,0.2c-2.4-2-10.6-4-19.6-5.7c-1.4-0.3-2.9-0.5-4.3-0.8
	c-12-2.1-23.9-3.5-23.9-3.5c6.9-0.1,15.3,0.5,23.8,1.3c1.4,0.1,2.9,0.3,4.3,0.4c20.4,2.1,40.8,5.2,44.2,3.4c5-2.6,3.8-16.3,3.8-16.3
	c-4.2-2.9-25.8-4.6-48-5.5c-1.5-0.1-2.9-0.1-4.4-0.2c-25.1-0.9-49.7-1-49.7-1l0,0c14.2-1.2,30.8-2.1,49.7-2.2c1.5,0,2.9,0,4.4,0
	C310.4,217.2,342.9,222.1,361.1,226z"/>
<g>
	<path class="st3" d="M317.3,203.4c0,0-12.8,6.4-29,11.1l0,0c-8.6,2.5-18.2,4.4-27.4,4.6c-0.1,0-0.1,0-0.2,0s-0.1,0-0.2,0v-39.8
		c0,0,0.1,0,0.2,0c2-0.2,18.3-1.8,24.1,3l0,0c0.7,2.4,1.7,4.3,2.4,5.6c1,1.8,3,5.3,6.9,8.2c1.1,0.8,2.4,1.6,4.1,2.4
		C304.9,201.6,312.9,202.8,317.3,203.4z"/>
	<path class="st3" d="M374.5,67.3c0,0-18.2,18.1-28.3,41.4c0,0-11.7-38.4-39.1-34.7c-5.6,0.8-22.5,14.7-46.6,15.1V61.6
		c0,0,33.8,1,61.8-16.6c6.3-4,12.3-8.9,17.6-14.9c1.6-1.9,3.2-3.9,4.7-6c0,0,2.8,1.5,2.1,5.9C346.7,29.9,368.6,37.6,374.5,67.3z"/>
</g>
<path class="st3" d="M260.7,179.2c-0.8-0.1-4-0.4-7.8-0.4c-4.1,0-8.9,0.3-12.6,1.5c-1.4,0.5-2.7,1.1-3.6,1.9l0,0l0,0
	c-0.8,2.4-1.7,4.3-2.4,5.6c-1,1.8-3,5.3-6.9,8.2c-1.1,0.8-2.4,1.6-4.1,2.4c-6.7,3.1-14.7,4.4-19,4.9c0,0,26.2,13.2,51.3,15.4
	l1.2,0.1h0.1c1.3,0.1,2.5,0.2,3.8,0.2c0.1,0,0.1,0,0.2,0s0.1,0,0.2,0v-39.8C260.9,179.3,260.9,179.2,260.7,179.2z"/>
<path class="st17" d="M288.3,214.4c-8.6,2.5-18.2,4.4-27.4,4.6l0,0c-0.1,0-0.1,0-0.2,0s-0.1,0-0.2,0l0,0
	c-26.6-0.7-56.4-15.7-56.4-15.7c4.4-0.5,12.4-1.8,19-4.9c1.8-0.8,3-1.6,4.1-2.4c3.9-2.9,5.9-6.4,6.9-8.2c0.7-1.3,1.6-3.2,2.4-5.6
	l0,0c0.1-0.1,3.1-4.4,21.1-4.8c-0.1,0-2.4,0.6-4.9,1.4c-3.2,1-6.8,2.4-6.7,3.4c0.1,1.8-7.6,22.2,1.1,29c2.7,2.1,7.6,3.2,13.2,3.8
	c0.1,0,0.3,0,0.4,0C272.9,216.1,287.6,214.5,288.3,214.4z"/>
<path class="st4" d="M256.5,218.9l-1.1-0.1c-8.9-0.8-17.8-2.9-25.7-5.4c0,0,0,0-0.1,0c-14.6-4.5-25.5-10-25.5-10
	c4.4-0.5,12.4-1.8,19-4.9c1.8-0.8,3-1.6,4.1-2.4c3.9-2.9,5.9-6.4,6.9-8.2c0.5-1,1.2-2.3,1.8-3.9l0,0c0.2-0.5,0.4-1.1,0.6-1.7l0,0
	l0,0c0.1-0.1,1-1.3,4.4-2.5l0.1,0.1c0,0-0.4,0.2-0.9,0.6c-0.8,0.5-1.8,1.3-2.2,1.9c-0.1,0.1-0.1,0.3-0.1,0.4c0,0.9-7.1,17.7-3,26.3
	C238.7,216.9,254.6,218.7,256.5,218.9z"/>
<path class="st8" d="M229.6,213.4c-14.6-4.5-25.5-10-25.5-10c4.4-0.5,12.4-1.8,19-4.9c1.8-0.8,3-1.6,4.1-2.4
	c3.9-2.9,5.9-6.4,6.9-8.2c0.5-1,1.2-2.3,1.8-3.9c-0.1,0.4-2.9,13.3-12.6,16.1c0,0-2.8,5-1.4,8.2
	C223.2,211.1,228.8,213.1,229.6,213.4z"/>
<path class="st10" d="M175.7,97.2c0,1-0.8,1.8-1.8,1.8s-1.8-0.8-1.8-1.8s0.8-1.8,1.8-1.8C174.9,95.4,175.7,96.2,175.7,97.2z
	 M164.6,77.7c-1,0-1.8,0.8-1.8,1.8s0.8,1.8,1.8,1.8s1.8-0.8,1.8-1.8S165.6,77.7,164.6,77.7z M152.4,64.9c-1,0.2-1.7,1.1-1.5,2.1
	s1.1,1.7,2.1,1.5s1.7-1.1,1.5-2.1C154.4,65.4,153.4,64.7,152.4,64.9z M222,203.2c-1,0-1.8,0.8-1.8,1.8s0.8,1.8,1.8,1.8
	s1.8-0.8,1.8-1.8S223,203.2,222,203.2z M345.7,97.2c0,1,0.8,1.8,1.8,1.8s1.8-0.8,1.8-1.8s-0.8-1.8-1.8-1.8
	C346.5,95.4,345.7,96.2,345.7,97.2z M355,79.6c0,1,0.8,1.8,1.8,1.8s1.8-0.8,1.8-1.8s-0.8-1.8-1.8-1.8C355.8,77.7,355,78.5,355,79.6z
	 M366.9,66.4c-0.1,1,0.5,1.9,1.5,2.1s1.9-0.5,2.1-1.5s-0.5-2-1.5-2.1C368,64.7,367,65.4,366.9,66.4z M297.6,205c0,1,0.8,1.8,1.8,1.8
	s1.8-0.8,1.8-1.8s-0.8-1.8-1.8-1.8S297.6,204,297.6,205z"/>
<path class="st11" d="M382.3,322.4c0,0-3.3,4.4-8.5,5.7s5.4-8,5.4-8L382.3,322.4"/>
<path class="st11" d="M139.1,322.4c0,0,4.2,7.7,9.8,8.5s2.8-10,2.8-10L139.1,322.4"/>
<path class="st11" d="M201,445"/>
<path class="st15" d="M245.2,414.2l-33.3,51.5c-3.7-3.5-7.4-7.6-11.2-12.5c0.2-1.5,0.3-3.2,0.3-4.8c0-3.8-12.3-35-16-41.1
	c-3.6-6-13-8.2-13.3-8.3l0,0c-2.3-5.5-4.5-11-6.5-16.5l43.9,2.9L245.2,414.2z"/>
<path class="st16" d="M172.8,396.5c0,0,9.5,1.1,14.2,5.8c4.6,4.8,13.1,25.7,17.8,52c0,0-11.4-41.9-19.5-50.2
	C185.3,404.1,181.3,399,172.8,396.5z"/>
<path class="st15" d="M352.1,393.2c-5.4,13.3-11.6,26.8-18.9,40.5c-6.6,12.3-13.5,21.7-20.2,28.8c0.5-4,1.1-7.8,1.7-11.5
	c1.5-1.5,3.1-3.5,3.4-5.7c0.6-4.2,5.1-15.8,5.3-16.2c0,0,0,0.1-0.1,0.2c-0.8,2.2,0,7.9,0,7.9s18-30.6,16.2-32.3
	c-1.8-1.6-13.8,5.7-13.8,5.7c3.1-7,6.3-11.4,9.3-12.5c5.3-2.1,12.1-3.8,12.1-3.8C348.8,393.8,350.6,393.5,352.1,393.2z"/>
<path class="st16" d="M333.8,403.6c0,0,8.3-4.9,12-4.5S317,452.5,317,452.5s-0.8,1.2-1,3.4c-0.2,2.2,17.5-19.2,33.5-60.4
	C349.6,395.5,333,398.4,333.8,403.6z"/>
<path class="st17" d="M163.6,104.4c0,0,13,40.4-3.6,66.3c-2.7-2.8-5.3-5.8-7.8-9c-3-3.8-5.9-7.8-8.6-12.1c-0.6-0.9-1.2-1.9-1.8-2.9
	c4.4-6.3,10.1-16.7,10.2-30.1c0-1.4,0-3.4-0.4-7.2c-0.9-8.3-2.9-20.4-8-35.4c3.9,3.6,8.2,8,12.7,13.3l0,0c4.3,5.1,8.6,11,12.6,17.8
	l0,0l0,0c1.9,3.2,3.7,6.5,5.4,10.1C174,115,168.6,107.7,163.6,104.4z"/>
<path class="st14" d="M154.1,155.6c0,0,10.4-37.8-2.7-68.2c0,0,17.4,30.8,2.9,67.4"/>
<path class="st14" d="M141.1,308.2"/>
<path class="st14" d="M260.9,255.2L260.7,466v19.7c-5.3,0.6-13.9,1-23.8-1.9l0,0c-0.2,0-0.4-0.1-0.6-0.2c-6.8-2-12.4-5.1-16.8-8.2
	c-2.9-2-5.3-4.1-7.2-5.9c-1.4-1.4-2.6-2.6-3.5-3.6l0,0c-4.4-37.7-14.4-64.9-22.4-68.1c-5.3-2.1-12.1-3.8-12.1-3.8
	c-5.1-1.1-9.8-1.9-9.8-1.9c-5-3.5-16.6-47.4-21.2-66c-0.1-0.6-0.3-1.1-0.4-1.6c-0.1-0.2-0.1-0.4-0.2-0.6c-0.9-3.7-1.5-5.9-1.5-5.9
	l6.7-3.5l1-0.5l21.1-11L260.9,255.2z"/>
<path class="st14" d="M380.2,318c0,0-17,69.7-23.3,74.2c0,0-2,0.3-4.7,0.9c-1.5,0.3-3.3,0.7-5.1,1.1c0,0-6.7,1.7-12.1,3.8
	c-3,1.2-6.2,5.6-9.3,12.5c-4.2,9.4-8.1,23.3-11,40.3c-0.6,3.7-1.2,7.5-1.7,11.5c-0.2,1.2-0.3,2.5-0.5,3.8
	c-3.9,4.4-13.1,13.5-28.1,17.8c-9.9,2.9-18.5,2.5-23.9,1.9l-0.2-230.4L380.2,318z"/>
<path class="st14" d="M312.6,466c0,0-8.7,21.8-51.7,21.9h-0.2c-9.7,0-17.7-1.1-24.2-2.8c-7.3-1.9-12.8-4.6-16.8-7.3
	c-3.2-2.2-5.6-4.4-7.3-6.3c-2.6-3-3.6-5.3-3.6-5.4l0,0L312.6,466L312.6,466z"/>
<path class="st18" d="M260.9,395"/>
<g>
	<path class="st3" d="M260.7,248.8V394h-0.1l0,0c-0.8,0-7.4-0.3-16.9-3.2c-7.6-2.4-16.9-6.4-26.7-13.4c-4.2-3-8.6-6.6-12.8-10.8
		c-25.8-25.5-60.6-42.1-64.7-43.9c-0.2-0.1-0.4-0.2-0.4-0.2s-5.1-32-5.3-59.2c0-1,0-1.9,0-2.9c0.1-9.9,0.9-19.1,2.9-25.5
		c7.8-24.5,29.6-19.5,29.6-19.5s15,44.8,21.1,45.1C193.5,260.7,207.2,248.8,260.7,248.8L260.7,248.8L260.7,248.8z"/>
	<path class="st3" d="M260.6,394c0,0,29.2-0.4,56.6-27.5s65-44.1,65-44.1s10.1-63.1,2.4-87.6s-29.5-19.5-29.5-19.5
		s-15,44.8-21.1,45.1c-6.1,0.3-19.8-11.7-73.3-11.7L260.6,394L260.6,394z"/>
</g>
<path class="st17" d="M243.7,390.8c-7.6-2.4-16.9-6.4-26.7-13.4c-4.2-3-8.6-6.6-12.8-10.8c-25.8-25.5-60.6-42.1-64.7-43.9
	c-0.2-0.1-0.4-0.2-0.4-0.2s-5.1-32-5.3-59.2c0-1,0-1.9,0-2.9c0.1-9.8,0.9-18.8,2.9-25.1c3.1-9.9,8.6-15,13.9-17.5c0,0.1,0,0.2,0,0.4
	c0,0.1,0,0.1,0,0.2c2.2,18,8.3,42.6,26.6,63.2c7.1,8,13.3,12.3,17.2,15.3C211.2,309.9,231.2,335.5,243.7,390.8z"/>
<path class="st4" d="M217.2,377.3c-0.2-0.2-0.4-0.3-0.7-0.5l0,0l0,0c-4-2.9-8-6.3-12-10.2c-27.4-27.1-65.1-44.1-65.1-44.1
	s-10.1-63.1-2.4-87.6c3.1-9.9,8.6-15,13.9-17.5c-2.7,17.5-1.6,31.8-0.2,41.2c1.5,10.1,3.4,21.7,11,34c5.2,8.4,10.8,13.4,12.9,15.3
	c9.2,8.6,21.9,24.9,37.7,59C214.1,370.1,215.6,373.6,217.2,377.3z"/>
<path class="st17" d="M259.8,377.8c0,0-22.2,0-28.7-4.2s3.8-8.4,3.8-8.4L259.8,377.8z"/>
<path class="st8" d="M216.9,377.4c-4.2-3-8.6-6.6-12.8-10.8c-25.8-25.5-60.6-42.1-64.7-43.9c-0.3-1.7-1.3-8.5-2.4-17.9
	c-1.4-11.7-2.8-27.3-2.8-41.5c0-0.3,0-0.6,0-1c0-0.3,0-0.6,0-1c0.1-10.1,0.9-19.3,2.9-25.9c3.1-9.6,8.3-14.7,13.5-17.3
	c0.1-0.1,0.2-0.1,0.3-0.2h0.1c0,0,0,0-0.1,0.1s-0.2,0.2-0.3,0.3c-1.9,2-9.9,10.8-9.6,16.6c0.3,6.3-4.1,54.6,4.1,76.2
	c0.3,0.7,0.6,1.4,0.9,2.1c0,0,0.6,0.5,1.7,1.3c9.6,7.4,56.3,43.5,68.8,62.3l0,0l0,0C216.7,377,216.8,377.2,216.9,377.4z"/>
<path class="st17" d="M206.6,310.1c0,0,24-35.2,55.9-30.9S216,320.9,216,320.9L206.6,310.1z"/>
<linearGradient id="SVGID_1_" gradientUnits="userSpaceOnUse" x1="212" y1="2616.3999" x2="310.2" y2="2616.3999" gradientTransform="matrix(1 0 0 1 0 -2288)">
	<stop  offset="0.4999" style="stop-color:#E6F0FF"/>
	<stop  offset="0.5" style="stop-color:#B1BCC4"/>
	<stop  offset="0.51" style="stop-color:#B1BCC4"/>
</linearGradient>
<path class="st19" d="M283.1,372.3L283.1,372.3l-0.3,0.1l0,0c-6.6,3.3-14,5.1-21.8,5.1c-7,0-13.6-1.5-19.6-4.1l0,0l-0.6-0.3l0,0
	c-17-7.7-28.8-24.8-28.8-44.7c0-27.1,22-49.1,49.1-49.1s49.1,22,49.1,49.1C310.1,347.6,299.1,364.2,283.1,372.3z"/>
<path class="st13" d="M299.2,328.4c0,14.8-8.5,27.7-20.8,34c-5.2,2.7-11.1,4.1-17.3,4.1c-5.7,0-11.2-1.3-16-3.5
	c-13.1-6.1-22.1-19.3-22.1-34.6c0-21.1,17.1-38.1,38.1-38.1S299.2,307.3,299.2,328.4z"/>
<path class="st17" d="M152.4,399.1"/>
<path class="st4" d="M124.9,191.5"/>
<path class="st4" d="M134.4,350.1"/>
<path class="st14" d="M151.1,217.9c0,0-3.8,14.4-2.3,28.7c0.9,9.7,5.8,40,14.2,51.8s16.5,13.2,29.6,35.3s24,42,24,42
	s-15.3-40.2-29.3-57.4s-17.7-14.6-21.1-21.5c-3.4-7-14-29.6-14.8-50.7C150.5,225,151.1,217.9,151.1,217.9z"/>
<path class="st14" d="M262.5,379c0,0,23.4,0.7,39.5-20.7c16.1-21.4,9-39.4,8.2-42.6c-0.8-3.3-9.3-22.3-18.2-28.1
	s-29.5-10.1-29.5-10.1s19.2-2.7,38,14.8c18.8,17.6,16.1,44.1,13.1,51.5c-3,7.5-11.6,28.8-31.3,33.9C262.4,382.9,262.5,379,262.5,379
	z"/>
<path class="st14" d="M356.2,215.8c0,0,14-0.7,20.8,7.4c6.7,8.1,8.3,25.9,8.3,25.9s-1.4,63.7-5.1,71.7c0,0-16.4,6.9-19.6,10.5
	c-3.3,3.6,5.7-7.8,17.6-13c0,0,5.9-54.4,4.1-70.3s-4.5-21.6-7-23.7C372.9,222.3,370,218.5,356.2,215.8z"/>
<path class="st16" d="M337.6,30.3c0,0-27.2-17.8-76.7-17.8s-75.6,17.8-75.6,17.8s1,1.3,1.9,1.9c0,0,32.6-17.5,73.7-17.5
	s74.4,17.5,74.4,17.5S336.7,31.2,337.6,30.3z"/>
<ellipse transform="matrix(0.2561 -0.9666 0.9666 0.2561 202.0769 321.7344)" class="st16" cx="310.1" cy="29.6" rx="9.1" ry="14.2"/>
<ellipse transform="matrix(6.750260e-02 -0.9977 0.9977 6.750260e-02 190.4839 293.558)" class="st12" cx="252.3" cy="44.9" rx="15.3" ry="29"/>
<ellipse transform="matrix(0.2561 -0.9666 0.9666 0.2561 185.8045 300.0385)" class="st16" cx="287.8" cy="29.3" rx="4.3" ry="6.7"/>
<ellipse transform="matrix(6.750260e-02 -0.9977 0.9977 6.750260e-02 179.6887 256.6897)" class="st12" cx="227.2" cy="32.2" rx="4.2" ry="7.9"/>
<ellipse transform="matrix(0.2561 -0.9666 0.9666 0.2561 202.9626 321.691)" class="st14" cx="310.5" cy="29" rx="6.9" ry="10.8"/>
<path class="st15" d="M314.9,117.8c-0.1,9-6.7,5.7-9.5,4.4s-11-0.7-14,0.5c0.2-0.2,7.8-7.1,12.9-6.1c5.2,1.1-2.7-4.7-9-4.1
	c0,0,7.3-2.4,12.4,1.9c-0.1-0.2-3.2-6.1-18.1-8.4c1.6-0.4,3.4-0.7,5.5-0.8C312.9,104.2,314.9,117.8,314.9,117.8z"/>
<ellipse transform="matrix(0.2561 -0.9666 0.9666 0.2561 185.991 300.1828)" class="st14" cx="288" cy="29.2" rx="3.1" ry="4.9"/>
<path class="st16" d="M307.8,109.5c0,0,2.8,1.7,5.3,7.2s-1.5,6.2-1.5,6.2s-5.4-2.6-10.3-2.7c0,0-0.1-0.8,9.9,0.5
	C312.5,121,312.3,116.5,307.8,109.5z"/>
<ellipse transform="matrix(0.3459 -0.9383 0.9383 0.3459 94.2033 356.6409)" class="st16" cx="302.9" cy="110.8" rx="3.5" ry="5.5"/>
<ellipse transform="matrix(0.5817 -0.8134 0.8134 0.5817 6.5028 234.6128)" class="st16" cx="231.4" cy="111" rx="3.5" ry="5.5"/>
<ellipse transform="matrix(0.5817 -0.8134 0.8134 0.5817 6.5028 234.6128)" class="st14" cx="231.4" cy="111" rx="2.5" ry="3.9"/>
<ellipse transform="matrix(0.3459 -0.9383 0.9383 0.3459 94.2033 356.6409)" class="st14" cx="302.9" cy="110.8" rx="2.5" ry="3.9"/>
<ellipse transform="matrix(0.1032 -0.9947 0.9947 0.1032 85.1629 329.7752)" class="st15" cx="225.5" cy="117.7" rx="2.6" ry="4"/>
<ellipse transform="matrix(0.1032 -0.9947 0.9947 0.1032 90.9064 338.8901)" class="st15" cx="233.4" cy="119" rx="1.9" ry="2.6"/>
<ellipse transform="matrix(0.9538 -0.3003 0.3003 0.9538 -21.2878 94.9106)" class="st15" cx="298.1" cy="116.7" rx="2.6" ry="1.9"/>
<ellipse transform="matrix(0.5817 -0.8134 0.8134 0.5817 -131.9618 354.7383)" class="st20" cx="278.9" cy="305.7" rx="8.2" ry="12.8"/>
<ellipse transform="matrix(0.9105 -0.4135 0.4135 0.9105 -19.0957 130.7464)" class="st15" cx="292.5" cy="109.5" rx="4" ry="2.6"/>
<path class="st15" d="M291.8,160.9c-5.9,3.6-14,9.1-31.3,9.1c-0.9,0-1.9,0-2.8-0.1c3.2-0.3,18.2-2,24.2-6.6c-0.2,0.1-7,2.6-9.6,2.4
	c0,0,10.5-4.2,12-5.7c-0.4,0.1-16.7,4.4-23.9,1.8c17.4-0.5,18.9-2.2,25.3-6.5s9-0.6,9-0.6S297.7,157.4,291.8,160.9z"/>
<path class="st16" d="M288.9,154.6c0,0,2.4-1.2,5.1,0.6s-4.6,6.3-7.9,7.7c0,0,6.8-4.9,7-6.3C293.2,155.1,291.5,154.8,288.9,154.6z"
	/>
<ellipse transform="matrix(0.8311 -0.5562 0.5562 0.8311 -39.3733 187.408)" class="st16" cx="288.8" cy="158.5" rx="3.2" ry="2.1"/>
<ellipse transform="matrix(0.8311 -0.5562 0.5562 0.8311 -39.3733 187.408)" class="st14" cx="288.8" cy="158.5" rx="2.3" ry="1.5"/>
<ellipse transform="matrix(0.9767 -0.2148 0.2148 0.9767 -29.6488 61.1659)" class="st15" cx="266.6" cy="167" rx="3.6" ry="2.3"/>
<path class="st15" d="M382.1,126.1c-0.1,3.8,1.3,6.3,3.3,7.9c3.2,2.7,8,3,9.7,3l0,0c0,0-0.3,6.6-5.9,7.9c-5.6,1.2-6,0-6,0
	c2.4,0.1,4.9-1.4,4.9-1.4c-3.4,0.8-8.6-1.7-5.4-0.9c3.1,0.7,8-1.7,8.3-1.8c-0.3,0.1-4.8,1-7.7-0.8c-3.1-1.8-6.8-8.6-7.5-12.3
	c-0.8-3.7,0.1-28.2,0.6-34.9c0.5-6.7,11.7-7.6,11.7-7.6c-2.2-1.7-9.5-1.2-9.5-1.2c2.4-1.3,7.8-0.8,7.8-0.8
	c-1.4-1.2-10.6-1.1-10.6-1.1h-0.3l0.7-2.4c3,0,12,0,15.3,1.7c4,1.9,4.4,7.9,4.4,7.9s-14-0.7-13.7,10.9L382.1,126.1L382.1,126.1z"/>
<path class="st16" d="M376.7,80c0,0,8.9-0.6,13.6,1.4c3,1.3,4.4,4.7,4.9,7.1c0,0-5.8,0-9,2.2c0,0,3.3-3.7,7.1-3.4
	c0,0-0.4-3.4-3.6-4.9S381.9,80.2,376.7,80z"/>
<path class="st16" d="M384.8,92c0,0-2.8,1.4-3.1,4s-0.5,29.7-0.5,30.5c0,0-1.5-11.1-0.8-30.4C380.5,93.6,384.8,92,384.8,92z"/>
<ellipse transform="matrix(0.5825 -0.8129 0.8129 0.5825 93.2464 350.6768)" class="st16" cx="388" cy="84.6" rx="3.1" ry="4.9"/>
<ellipse transform="matrix(0.5825 -0.8129 0.8129 0.5825 93.2464 350.6768)" class="st14" cx="388" cy="84.6" rx="2.2" ry="3.5"/>
<ellipse transform="matrix(0.4369 -0.8995 0.8995 0.4369 127.4841 395.0626)" class="st16" cx="379.3" cy="95.7" rx="3.4" ry="2.2"/>
<ellipse transform="matrix(0.4369 -0.8995 0.8995 0.4369 127.4841 395.0626)" class="st14" cx="379.3" cy="95.7" rx="2.4" ry="1.6"/>
<ellipse transform="matrix(0.5271 -0.8498 0.8498 0.5271 107.0423 368.9788)" class="st16" cx="385.1" cy="88.3" rx="1.2" ry="1.6"/>
<ellipse transform="matrix(0.5271 -0.8498 0.8498 0.5271 107.0423 368.9788)" class="st14" cx="385.1" cy="88.3" rx="0.9" ry="1.1"/>
<ellipse class="st12" cx="377.2" cy="110.1" rx="2.4" ry="7.5"/>
<ellipse transform="matrix(0.8278 -0.561 0.561 0.8278 -11.1543 237.908)" class="st12" cx="382" cy="137.1" rx="1.8" ry="2.3"/>
<ellipse transform="matrix(0.6381 -0.7699 0.7699 0.6381 68.5782 321.9076)" class="st15" cx="376.7" cy="88" rx="3.1" ry="1.9"/>
<ellipse transform="matrix(0.943 -0.3328 0.3328 0.943 -57.8499 136.4855)" class="st14" cx="369.5" cy="237.1" rx="12" ry="18.7"/>
<ellipse transform="matrix(0.943 -0.3328 0.3328 0.943 -63.6096 134.2481)" class="st14" cx="360.1" cy="252.8" rx="8.2" ry="10.5"/>
<ellipse transform="matrix(0.943 -0.3328 0.3328 0.943 -66.3424 140.8568)" class="st14" cx="378" cy="264.1" rx="3.2" ry="4.1"/>
<ellipse transform="matrix(5.289998e-02 -0.9986 0.9986 5.289998e-02 56.92 657.1301)" class="st14" cx="374.9" cy="298.6" rx="10.5" ry="6.4"/>
<ellipse transform="matrix(5.289998e-02 -0.9986 0.9986 5.289998e-02 43.282 654.5284)" class="st14" cx="366.7" cy="304.4" rx="5.6" ry="3.4"/>
<circle class="st14" cx="362.6" cy="287" r="4.1"/>
<ellipse transform="matrix(0.9042 -0.4271 0.4271 0.9042 -99.3449 163.4616)" class="st14" cx="314.7" cy="303.2" rx="6.4" ry="10.5"/>
<ellipse transform="matrix(0.866 -0.5 0.5 0.866 -105.3551 200.42)" class="st14" cx="321.3" cy="296.8" rx="3.4" ry="5.6"/>
<ellipse transform="matrix(0.866 -0.5 0.5 0.866 -128.8201 133.2333)" class="st14" cx="184.2" cy="307" rx="6.4" ry="10.5"/>
<ellipse transform="matrix(0.9356 -0.3531 0.3531 0.9356 -84.0445 75.3178)" class="st14" cx="164.4" cy="268" rx="10.1" ry="17.2"/>
<circle class="st14" cx="169.8" cy="256.9" r="4.1"/>
<ellipse transform="matrix(0.9356 -0.3531 0.3531 0.9356 -68.8603 70.3223)" class="st14" cx="158.3" cy="223.9" rx="8.4" ry="4.9"/>
<path class="st4" d="M341.5,341.3c0,0-11,6.7-13.2,9.4s-5.6-80.4-5.6-80.4s-6.8-13.1-24.4-15.1s23.8-3.1,36.7,12.7l9,71.4
	L341.5,341.3z"/>
<path class="st8" d="M346.1,338.3c0,0-3.4,1.6-4.6,3c0,0-5.3-63.5-9.2-71.4s-4.1-7.7-8.2-9.8c0,0,11.4,3.9,12.4,8.4
	C337.4,273,345.8,338.1,346.1,338.3z"/>
<path class="st17" d="M324.1,260.1c0,0,6.9,2.3,9.8,3.9s8-8.8,8-8.8s-1.6,10.6-3.2,11.4s7.5,71.7,7.5,71.7L334,268
	C334,268,329,260.8,324.1,260.1z"/>
<path class="st4" d="M283.1,372.3l-0.3,0.1l0,0c-6.6,3.3-14,5.1-21.8,5.1c-7,0-13.6-1.5-19.6-4.1l0,0l-0.6-0.3L245,363
	c4.9,2.3,10.3,3.5,16,3.5c6.2,0,12.1-1.5,17.3-4.1L283.1,372.3z"/>
<path class="st17" d="M283,284.5l-0.3-0.1l0,0c-6.6-3.3-14-5.1-21.8-5.1c-7,0-13.6,1.5-19.6,4.1l0,0l-0.6,0.3l4.3,10.1
	c4.9-2.3,10.3-3.5,16-3.5c6.2,0,12.1,1.5,17.3,4.1L283,284.5z"/>
<ellipse transform="matrix(0.5817 -0.8134 0.8134 0.5817 61.8052 296.1699)" class="st20" cx="318.9" cy="88" rx="8.4" ry="13.1"/>
<ellipse transform="matrix(0.5825 -0.8129 0.8129 0.5825 61.6284 295.9513)" class="st14" cx="318.9" cy="88" rx="5.7" ry="8.9"/>
<ellipse transform="matrix(0.5817 -0.8134 0.8134 0.5817 55.1277 303.8019)" class="st20" cx="322.9" cy="98.3" rx="2.6" ry="4"/>
<path class="st14" d="M322.9,98.3l2,1.8c-0.7,0.6-2,0.4-3-0.4c-1.2-0.9-1.8-2.2-1.2-3s2-0.7,3.2,0.2c1.2,0.9,1.8,2.2,1.2,3
	L322.9,98.3z"/>
<g>
	<path class="st21" d="M249.2,314.8c-0.3,2.2,6,6.5,11.6,7.6v28"/>
	<line class="st21" x1="279.5" y1="318.8" x2="254.3" y2="343.9"/>
	<path class="st21" d="M248.4,338"/>
	<path class="st21" d="M248.6,338.2"/>
	<path class="st21" d="M248.7,338.3v-20.5c0,0-0.5-10.2,12.2-10.8"/>
</g>
<g>
	<line class="st21" x1="242.3" y1="318.8" x2="267.5" y2="343.9"/>
	<path class="st21" d="M273.3,338"/>
	<path class="st21" d="M273.1,338.2"/>
	<path class="st21" d="M272.9,338.3v-20.5c0,0,0.5-10.2-12-10.8"/>
</g>
<path class="st22" d="M273,325.3c1.4,0.3-5.3-1.4-12.2-2.8"/>
<circle class="st23" cx="240.7" cy="317.3" r="1.1"/>
<circle class="st23" cx="281.1" cy="317.3" r="1.1"/>
<circle class="st23" cx="260.8" cy="317.3" r="1.1"/>
<circle class="st21" cx="260.8" cy="328.4" r="30.5"/>
<path class="st21" d="M276.5,349.3"/>
<polyline class="st21" points="290.3,335.4 284.8,335.4 284.8,326.8 260.8,350.7 236.9,326.8 236.9,335.6 231.1,335.6 "/>
<g>
	<g>
		<path class="st24" d="M248.4,338"/>
		<path class="st24" d="M248.6,338.2"/>
	</g>
	<g>
		<path class="st24" d="M273.3,338"/>
		<path class="st24" d="M273.1,338.2"/>
	</g>
	<path class="st24" d="M268.2,298.7c8.6,2.1,15.8,7.9,19.8,15.6"/>
	<path class="st24" d="M276.5,349.3"/>
</g>
<ellipse transform="matrix(0.5825 -0.8129 0.8129 0.5825 -132.0033 354.3889)" class="st14" cx="279" cy="305.7" rx="4.3" ry="6.7"/>
<ellipse transform="matrix(0.9996 -2.800044e-02 2.800044e-02 0.9996 -2.2586 3.9021)" class="st16" cx="138.2" cy="82.6" rx="3.7" ry="2.1"/>
<ellipse transform="matrix(0.9996 -2.800044e-02 2.800044e-02 0.9996 -2.2558 3.9048)" class="st14" cx="138.3" cy="82.5" rx="2.7" ry="1.5"/>
<ellipse transform="matrix(0.9996 -2.800044e-02 2.800044e-02 0.9996 -3.1028 4.2163)" class="st12" cx="149" cy="112.9" rx="1.2" ry="9.9"/>
<ellipse transform="matrix(0.3603 -0.9328 0.9328 0.3603 -33.1118 218.781)" class="st15" cx="143" cy="133.5" rx="6" ry="2.8"/>
<ellipse transform="matrix(0.9902 -0.1399 0.1399 0.9902 -12.0421 21.0924)" class="st15" cx="144" cy="96.2" rx="3.2" ry="6.7"/>
<ellipse transform="matrix(0.9902 -0.1399 0.1399 0.9902 -11.25 20.5716)" class="st15" cx="140.7" cy="90.3" rx="1.6" ry="3.4"/>
<path class="st14" d="M343.1,30.7c0,0,20.9,8.6,26.2,27.8C369.4,58.5,365.6,45.7,343.1,30.7z"/>
<ellipse transform="matrix(0.7528 -0.6583 0.6583 0.7528 57.8539 241.979)" class="st14" cx="351.1" cy="44" rx="6.7" ry="11.4"/>
<ellipse transform="matrix(0.7528 -0.6583 0.6583 0.7528 51.4771 242.8103)" class="st14" cx="349" cy="52.9" rx="2.9" ry="4.6"/>
<ellipse transform="matrix(0.866 -0.5 0.5 0.866 21.8196 189.2082)" class="st14" cx="364" cy="53.9" rx="1.2" ry="2.7"/>
<path class="st17" d="M322.2,74.4c-1.3-0.9-2.9-1.5-4.5-1.9c-0.3-0.1-0.6-0.1-1-0.2c-1.2-0.2-2.4-0.3-3.5-0.4
	c-3.1-0.1-5.6,0.2-5.6,0.2s-0.5-12.9-6.3-11.6c-5.7,1.2-16,1.4-16.4,1.4l0,0l0,0c8-1.2,15.4-3.8,21.3-6.4c0.9-0.4,1.8-0.8,2.7-1.2
	c0.8-0.4,1.5-0.7,2.2-1.1c4.2-2.1,7-3.8,7.7-4.3c-0.7,0.5-3.4,2.6-4.7,7C312.4,61,321.9,74.1,322.2,74.4z"/>
<path class="st4" d="M316.7,72.4c-1.2-0.2-2.4-0.3-3.5-0.4c-3.1-0.1-5.6,0.2-5.6,0.2s-0.5-12.9-6.3-11.6c-5.7,1.2-16,1.4-16.4,1.4
	l0,0c8-1.2,15.4-3.8,21.3-6.4c0.9-0.4,1.8-0.8,2.7-1.2C309.5,58,312.2,70,316.7,72.4z"/>
<path class="st8" d="M317.7,72.6c-0.3-0.1-0.6-0.1-1-0.2c-1.2-0.2-2.4-0.3-3.5-0.4l0,0c-1.5-9.7-7.1-16.4-7.1-16.4
	c0.9-0.4,1.8-0.8,2.7-1.2c0.8-0.4,1.5-0.7,2.2-1.1C308.9,62.9,315,70,317.7,72.6z"/>
<ellipse transform="matrix(0.5 -0.866 0.866 0.5 40.047 169.0254)" class="st14" cx="166.4" cy="49.8" rx="13.3" ry="5.3"/>
<ellipse transform="matrix(0.5 -0.866 0.866 0.5 53.5246 174.3414)" class="st14" cx="177.7" cy="40.8" rx="3.9" ry="2"/>
<path class="st20" d="M152.1,65.3c0,0,1.1-0.5,1.8,0.4s0.2,1.7-0.3,2.2c0,0,0.6-0.6,0.2-1.5S152.8,65.3,152.1,65.3z"/>
<ellipse transform="matrix(0.866 -0.5 0.5 0.866 -12.6633 85.5592)" class="st20" cx="153.3" cy="66.4" rx="0.4" ry="0.7"/>
<path class="st20" d="M163.9,78.2c0,0,1.1-0.5,1.8,0.4s0.2,1.7-0.3,2.2c0,0,0.6-0.6,0.2-1.5C165.2,78.4,164.6,78.2,163.9,78.2z"/>
<ellipse transform="matrix(0.866 -0.5 0.5 0.866 -17.4627 93.1964)" class="st20" cx="165.2" cy="79.2" rx="0.4" ry="0.7"/>
<path class="st20" d="M173.2,96c0,0,1.1-0.5,1.8,0.4s0.2,1.7-0.3,2.2c0,0,0.6-0.6,0.2-1.5C174.5,96.2,173.8,96,173.2,96z"/>
<ellipse transform="matrix(0.866 -0.5 0.5 0.866 -25.1388 100.1866)" class="st20" cx="174.4" cy="97" rx="0.4" ry="0.7"/>
<path class="st20" d="M346.8,95.9c0,0,1.1-0.5,1.8,0.4c0.7,0.9,0.2,1.7-0.3,2.2c0,0,0.6-0.6,0.2-1.5S347.5,95.9,346.8,95.9z"/>
<ellipse transform="matrix(0.866 -0.5 0.5 0.866 -1.8429 186.9829)" class="st20" cx="348" cy="96.9" rx="0.4" ry="0.7"/>
<path class="st20" d="M356.1,78.2c0,0,1.1-0.5,1.8,0.4s0.2,1.7-0.3,2.2c0,0,0.6-0.6,0.2-1.5C357.5,78.4,356.8,78.2,356.1,78.2z"/>
<ellipse transform="matrix(0.866 -0.5 0.5 0.866 8.2424 189.3285)" class="st20" cx="357.4" cy="79.3" rx="0.4" ry="0.7"/>
<path class="st20" d="M368,65.3c0,0,1.1-0.5,1.8,0.4c0.7,0.9,0.2,1.7-0.3,2.2c0,0,0.6-0.6,0.2-1.5S368.7,65.3,368,65.3z"/>
<ellipse transform="matrix(0.866 -0.5 0.5 0.866 16.262 193.5125)" class="st20" cx="369.2" cy="66.4" rx="0.4" ry="0.7"/>
<path class="st20" d="M298.7,203.7c0,0,1.1-0.5,1.8,0.4s0.2,1.7-0.3,2.1c0,0,0.6-0.6,0.2-1.5C300,203.9,299.3,203.7,298.7,203.7z"/>
<ellipse transform="matrix(0.866 -0.5 0.5 0.866 -62.1769 177.3673)" class="st20" cx="299.9" cy="204.7" rx="0.4" ry="0.7"/>
<path class="st20" d="M221.2,203.7c0,0,1.1-0.5,1.8,0.4s0.2,1.7-0.3,2.1c0,0,0.6-0.6,0.2-1.5C222.6,203.9,221.9,203.7,221.2,203.7z"
	/>
<ellipse transform="matrix(0.866 -0.5 0.5 0.866 -72.5415 138.6676)" class="st20" cx="222.5" cy="204.7" rx="0.4" ry="0.7"/>
<ellipse transform="matrix(0.9621 -0.2726 0.2726 0.9621 -12.6696 110.4062)" class="st20" cx="391" cy="100.8" rx="4.5" ry="7"/>
<ellipse transform="matrix(0.9624 -0.2717 0.2717 0.9624 -12.679 110.0289)" class="st14" cx="391" cy="100.8" rx="3.1" ry="4.8"/>
<ellipse transform="matrix(0.9621 -0.2726 0.2726 0.9621 -14.7223 110.0535)" class="st20" cx="388.7" cy="108" rx="2.1" ry="3.3"/>
<ellipse transform="matrix(0.9624 -0.2717 0.2717 0.9624 -14.7137 109.7015)" class="st14" cx="388.8" cy="108" rx="1.5" ry="2.3"/>
<ellipse transform="matrix(0.7739 -0.6333 0.6333 0.7739 29.4653 270.1535)" class="st20" cx="393.1" cy="93.8" rx="1.3" ry="2.1"/>
<ellipse transform="matrix(0.7745 -0.6326 0.6326 0.7745 29.3098 269.8279)" class="st14" cx="393.1" cy="93.8" rx="0.9" ry="1.4"/>
<ellipse transform="matrix(0.9621 -0.2726 0.2726 0.9621 -21.8271 40.0739)" class="st20" cx="133.3" cy="98.6" rx="4.5" ry="7"/>
<ellipse transform="matrix(0.9624 -0.2717 0.2717 0.9624 -21.7726 39.9288)" class="st14" cx="133.3" cy="98.6" rx="3.1" ry="4.8"/>
<path class="st16" d="M346.8,226c0,0-9,26.9-13.5,30c-1.5,1.2-3.5,0.6-3.5,0.6s-31.3-14.7-79.1-11.9c0,0,53.1-7.5,78.2,7.1
	C332.1,252.9,343.2,233.4,346.8,226z"/>
<ellipse transform="matrix(0.5745 -0.8185 0.8185 0.5745 -56.12 372.4219)" class="st16" cx="330.1" cy="240.2" rx="14.2" ry="9.1"/>
<ellipse transform="matrix(0.5745 -0.8185 0.8185 0.5745 -55.7848 371.8149)" class="st14" cx="329.7" cy="239.6" rx="10.8" ry="6.9"/>
<ellipse transform="matrix(0.9842 -0.1768 0.1768 0.9842 -34.6159 62.3002)" class="st16" cx="332.3" cy="225.4" rx="6.2" ry="4"/>
<ellipse transform="matrix(0.9842 -0.1768 0.1768 0.9842 -34.6143 62.3178)" class="st14" cx="332.4" cy="225.4" rx="4.7" ry="3"/>
<ellipse transform="matrix(9.040100e-02 -0.9959 0.9959 9.040100e-02 16.6927 488.8445)" class="st15" cx="276" cy="235.3" rx="6.1" ry="13.5"/>
<ellipse transform="matrix(0.9913 -0.1319 0.1319 0.9913 -30.3076 31.2585)" class="st15" cx="220.8" cy="244.4" rx="10.5" ry="3.5"/>
<ellipse class="st15" cx="227.3" cy="222.3" rx="8.6" ry="3.5"/>
<path class="st14" d="M237.7,183.3c0,0-7.8,18.4-3.8,24.5c3.9,6.1,7.7,7.1,7.7,7.1s-5.9-4.2-7.4-7.4S233.8,194.5,237.7,183.3z"/>
<ellipse transform="matrix(9.040100e-02 -0.9959 0.9959 9.040100e-02 15.3223 416.353)" class="st14" cx="235.6" cy="199.8" rx="4.3" ry="1.9"/>
<ellipse transform="matrix(0.9885 -0.1511 0.1511 0.9885 -26.9741 38.2184)" class="st14" cx="238" cy="196.6" rx="0.9" ry="1.9"/>
<ellipse transform="matrix(0.2743 -0.9616 0.9616 0.2743 -5.1537 364.8354)" class="st14" cx="239.2" cy="185.8" rx="2.7" ry="1.1"/>
<ellipse transform="matrix(0.9204 -0.3909 0.3909 0.9204 -149.9277 107.4631)" class="st15" cx="189" cy="422" rx="2.6" ry="11.6"/>
<ellipse transform="matrix(0.4787 -0.878 0.878 0.4787 -195.1405 508.8433)" class="st15" cx="330.9" cy="418.7" rx="11.6" ry="2.6"/>
<ellipse transform="matrix(0.4596 -0.8881 0.8881 0.4596 -179.4762 521.8174)" class="st16" cx="339.1" cy="408.4" rx="6.5" ry="3.5"/>
<ellipse transform="matrix(0.4596 -0.8881 0.8881 0.4596 -179.4762 521.8174)" class="st14" cx="339.1" cy="408.4" rx="4.6" ry="2.5"/>
<ellipse transform="matrix(0.8669 -0.4985 0.4985 0.8669 -179.5842 147.0278)" class="st16" cx="185.5" cy="409.8" rx="3.5" ry="6.5"/>
<ellipse transform="matrix(0.8669 -0.4985 0.4985 0.8669 -179.5842 147.0278)" class="st14" cx="185.5" cy="409.8" rx="2.5" ry="4.6"/>
<ellipse transform="matrix(0.4596 -0.8881 0.8881 0.4596 -183.9851 516.8901)" class="st16" cx="332.8" cy="409.6" rx="4.3" ry="1.9"/>
<ellipse transform="matrix(0.4596 -0.8881 0.8881 0.4596 -183.9851 516.8901)" class="st14" cx="332.8" cy="409.6" rx="3.1" ry="1.4"/>
<path class="st25" d="M364.4,90.7c0,0,8.6-11.9,10.5-12.5c0,0-6.7,22.8-6.8,33.1s3.3,27.4,9.1,35.3c0,0-12.5-16.2-11.3-37.9
	c0.8-14.9,6.2-25.8,6.2-25.8S368.1,86.5,364.4,90.7z"/>
<ellipse transform="matrix(0.9984 -5.620220e-02 5.620220e-02 0.9984 -5.8938 20.6223)" class="st25" cx="363.7" cy="115.1" rx="2.4" ry="9.5"/>
<ellipse transform="matrix(0.1505 -0.9886 0.9886 0.1505 200.3806 446.9369)" class="st25" cx="360.3" cy="106.9" rx="5" ry="2"/>
<ellipse transform="matrix(0.1505 -0.9886 0.9886 0.1505 216.5017 442.853)" class="st25" cx="365.9" cy="95.4" rx="5" ry="2"/>
<path class="st4" d="M346.8,180.9c-0.1,0.1-1.6,1.4-3.6,3.1l0,0l0,0c-1.4,1.1-3,2.4-4.7,3.7c-1.6,1.2-3.2,2.3-4.8,3.2
	c-0.5,0.3-1,0.6-1.5,0.8l0,0c-0.9,0.4-1.7,0.8-2.4,1c0,0,3.2-8.6-9.2-16.9c0,0-8.3,1.9-12.9,3c0.5-0.1,4.1-1.3,8.7-3.9l0,0l0,0
	c1.4-0.8,2.9-1.8,4.5-2.9c1.7-1.2,3.5-2.7,5.2-4.4l0,0c3.2-3.1,6.3-7.1,8.8-12c-0.1,0.3-3.5,11.4-7.5,14.4
	C323.2,173.1,337.9,187.2,346.8,180.9z"/>
<path class="st17" d="M346.8,180.9c-0.2,0.2-4,3.7-8.4,6.9L320.8,172c4.9-3.6,10.2-8.9,14-16.4c-0.1,0.3-3.5,11.4-7.5,14.4
	C323.2,173.1,337.9,187.2,346.8,180.9z"/>
<path class="st8" d="M343.2,184.1L343.2,184.1C343.1,184.1,343.1,184.1,343.2,184.1c-1.4,1.2-3,2.4-4.7,3.7
	c-1.6,1.2-3.2,2.3-4.8,3.2c1-0.6,2.1-1.6,2.4-2.7c0.4-2.1-13.6-14.2-15.4-14.4c-1.7-0.1-3.9,0.9-4.2,1c1.4-0.8,2.9-1.8,4.5-2.9
	c1.7-1.2,3.5-2.7,5.2-4.4c-0.1,0.2-1.8,3.3-3.1,4.1c-1.4,0.9,13.8,13.6,16.3,13.3C341.6,184.7,342.9,184.3,343.2,184.1z"/>
<path class="st17" d="M320.6,414.8c0-0.1,0.1-0.2,0.1-0.2C320.6,414.6,320.6,414.7,320.6,414.8z"/>
<path class="st17" d="M333.5,355.5c5.9-4.4,12-8.7,14.6-10.6c-6.6,5-11.2,14-11.2,14c-6.3,13.8,5.5,32.5,5.5,32.5
	c-1.9,0-5.1,1.3-8.1,2.6c-1.2,0.5-2.4,1-3.4,1.5c-3.3,1.3-9.1,16.3-10.2,19.1c8.6-23.2,12.5-53.5,10.2-53.5
	c-2.4,0-10.2,5.3-10.5,5.5C322.6,364,328,359.7,333.5,355.5z"/>
<path class="st17" d="M348.1,344.9c0.4-0.3,0.9-0.6,1.3-0.9C349.3,344.1,348.8,344.5,348.1,344.9z"/>
<path class="st4" d="M320.6,414.8c0-0.1,0.1-0.2,0.1-0.2C320.6,414.6,320.6,414.7,320.6,414.8z"/>
<path class="st4" d="M334.3,394c-1.2,0.5-2.4,1-3.4,1.5c-3.3,1.3-9.1,16.3-10.2,19.1c8.6-23.2,12.5-53.5,10.2-53.5
	c-2.4,0-10.2,5.3-10.5,5.5c2.3-2.5,7.6-6.8,13.2-11L334.3,394z"/>
<path class="st8" d="M330.1,358.2c0,0,10.4-7.9,7.7-5.8s-6.8,20-1.5,40.8l-4.1,1.7C332.2,394.9,336.1,353.2,330.1,358.2z"/>
<g>
	<g>
		<path class="st3" d="M195.9,356.8L195.9,356.8L195.9,356.8L195.9,356.8z"/>
	</g>
	<g>
		<path class="st17" d="M236.3,483.6c0.1,0.5,0.1,0.9,0.2,1.4c-7.3-1.9-12.8-4.6-16.8-7.3c-3.2-2.2-5.6-4.4-7.3-6.3
			c-2.6-3-3.6-5.3-3.6-5.4l0,0c-4.4-37.7-14.4-64.9-22.4-68.1c-5.3-2.1-12.1-3.8-12.1-3.8c-5.1-1.1-9.8-1.9-9.8-1.9
			c-5-3.5-16.6-47.4-21.2-66c10.5,5.3,39,20.8,60.9,42.9c3.4,3.5,6.9,6.5,10.3,9.1l0,0c6.1,4.8,12.2,8.3,17.8,11
			c2.5,1.2,5,2.2,7.3,3.1c0.1,0,0.1,0,0.1,0l0,0c0,0-13.6-1.5-29.1-12.2c3.1,3.4,6.9,9.2,9.3,19.1c4,16.3,7.8,24.3,14,66.9
			C234.6,471.3,235.4,477.1,236.3,483.6z"/>
		<path class="st4" d="M219.6,477.7c-3.2-2.2-5.6-4.4-7.3-6.3c-2.6-3-3.6-5.3-3.6-5.4l0,0c-4.4-37.7-14.4-64.9-22.4-68.1
			c-5.3-2.1-12.1-3.8-12.1-3.8c-5.1-1.1-9.8-1.9-9.8-1.9c-5-3.5-16.6-47.4-21.2-66c10.5,5.3,39,20.8,60.9,42.9
			c3.4,3.5,6.9,6.5,10.3,9.1c-0.6-0.3-9.9-5.2-12.5-7.2c-2.7-2.1-26-20.5-32.4-22.6c0.1,0,0.6,0.5,1.4,1.2
			c5.2,4.6,23,20.8,27.7,31.9c8.2,19.1,16.3,58.5,19.7,84.5c0.4,3.4,0.8,6.6,1.1,9.5C219.5,476.2,219.6,477,219.6,477.7z"/>
	</g>
	<path class="st8" d="M212.2,469.6c0.1,0.6,0.1,1.2,0.2,1.8c-2.6-3-3.6-5.3-3.6-5.4l0,0c-4.4-37.7-14.4-64.9-22.4-68.1
		c-5.3-2.1-12.1-3.8-12.1-3.8c-5.1-1.1-9.8-1.9-9.8-1.9c-5-3.5-16.6-47.4-21.2-66c10.5,5.3,39,20.8,60.9,42.9
		c3.4,3.5,6.9,6.5,10.3,9.1l0,0c6.1,4.8,12.2,8.3,17.8,11c-9.8-4.3-26.6-12-32.3-17.2c-4.3-4-17.1-13.8-29-22.3
		c-10.9-7.9-21-14.8-22.6-14.9c0,0,19.8,45.4,22.3,47.5c2.6,2.1,18.3-0.6,25.3,6.4c5.4,5.3,13.4,53.3,15.9,77.4
		C212,467.2,212.1,468.5,212.2,469.6z"/>
</g>
<path class="st14" d="M188.1,364c0,0,0.1,0.1,0.2,0.3c1.5,1.8,5.9,6.4,9.5,14.1s8.9,30.2,21.5,89.1c0,0-12.6-80.4-20.1-90
	C191.8,367.8,188.1,364,188.1,364z"/>
<ellipse transform="matrix(0.9692 -0.2461 0.2461 0.9692 -93.3487 64.4541)" class="st14" cx="211.2" cy="405.7" rx="4" ry="10.5"/>
<ellipse transform="matrix(0.9692 -0.2461 0.2461 0.9692 -100.6333 66.5369)" class="st14" cx="215.9" cy="435.9" rx="2" ry="5.2"/>
<path class="st25" d="M361.2,336.8c0,0,10.1-6.6,14.2-8.4c0,0-6.9,34.7-19,61.2c0,0-4,0.4-5.6,1.2c0,0,2.7-2.9,4.4-2.5
	c0,0,15.6-40.3,17.2-56.8C372.4,331.6,363.7,335.5,361.2,336.8z"/>
<ellipse transform="matrix(0.3164 -0.9486 0.9486 0.3164 -83.3351 582.5267)" class="st25" cx="362.5" cy="349.1" rx="9.8" ry="6.2"/>
<ellipse transform="matrix(0.3164 -0.9486 0.9486 0.3164 -101.199 592.5517)" class="st25" cx="360.5" cy="366.5" rx="4.6" ry="3.1"/>
<path class="st25" d="M273.6,394c0,0,15.4-2.2,24-9c0,0-7.8,6.8-9.5,7.7s2.6,76.3,7.1,81.2c4.5,5,10.5-1.8,10.5-1.8
	s0.1,3.6-16.1,9.8c0,0,4-3.1,3.5-5.1s-8-81.7-12.6-81.9C276,394.8,273.6,394,273.6,394z"/>
<path class="st4" d="M156.3,91.8c-4.3-3.5-4.7-3.8-4.7-3.9c0.3,0.6,16.5,28.4,0.5,73.7c-3.7-4.6-7.2-9.6-10.4-15
	c4.4-6.3,10.1-16.7,10.2-30.1c0-1.4,0-3.4-0.4-7.2c-0.9-8.3-2.9-20.4-8-35.4c7.6,7,17.1,17.2,25.3,31.1
	C168.5,104.8,160.9,95.6,156.3,91.8z"/>
<path class="st8" d="M148,81.9c0,0,16.4,37.6-4.4,67.6c-0.6-0.9-1.2-1.9-1.8-2.9c4.4-6.3,10.1-16.7,10.2-30.1c0-1.4,0-3.4-0.4-7.2
	c-0.9-8.3-2.9-20.4-8-35.4c3.9,3.6,8.2,8,12.7,13.3C156,87.1,149.9,82.2,148,81.9z"/>
<path class="st13" d="M260.9,487.9v12.9c-38.6,0-56.5-11-55-17.7s6.4-11.7,6.4-11.7c1.7,1.9,4,4.1,7.3,6.3c4.1,2.7,9.6,5.4,16.8,7.3
	c6.5,1.7,14.5,2.8,24.2,2.8L260.9,487.9L260.9,487.9z"/>
<path class="st13" d="M260.7,487.9v12.9c38.6,0,56.5-11,55-17.7s-6.5-11.7-6.5-11.7c-1.7,1.9-4,4.1-7.3,6.3
	c-4.1,2.7-9.5,5.4-16.8,7.3c-6.5,1.7-14.5,2.8-24.2,2.8L260.7,487.9L260.7,487.9z"/>
<polygon class="st13" points="266,494.2 260.8,487.9 255.1,494.4 260.8,500.8 "/>
<path class="st13" d="M145.8,262.8c-1.6,11.5-9.2,28-18.4,25.3c-10-3-28.1,3.2-30.1,4.2s-9.3,5.6-12.6,1.9c-5-5.3-3.8-15.2-2.5-21.1
	c0.7-2.9,1.3-4.8,1.3-4.8l2.2-9.7c0,0,60.8-10.1,60.3,1.3C146.1,260.8,146,261.8,145.8,262.8z"/>
<path class="st10" d="M145.8,262.8L145.8,262.8c0,0-39.5-2.9-50.2-0.3c-5.5,1.4-10.2,6.2-13.4,10.6c0.7-2.9,1.3-4.8,1.3-4.8l2.2-9.7
	c0,0,60.8-10.1,60.3,1.3C146.1,260.8,146,261.8,145.8,262.8z"/>
<path class="st13" d="M155.9,247.3c0,0-15.2-26.5-48.4-34.1s-29.9,60.2-29.9,60.2s14.4-13.3,20.8-14.1c12.2-1.6,43.4-1.6,51.3,1.6
	C149.7,260.9,155.4,254.6,155.9,247.3z"/>
<path class="st20" d="M149,257.9c0,0-38.9-7.8-52.6-1.6c-13.7,6.1-16.9,12-16.9,12s7.4-13.9,16.3-17.1S136.4,251.2,149,257.9z"/>
<ellipse transform="matrix(0.5579 -0.8299 0.8299 0.5579 -134.9803 214.1828)" class="st20" cx="133.5" cy="233.8" rx="6" ry="9.4"/>
<ellipse transform="matrix(0.5587 -0.8294 0.8294 0.5587 -134.9621 213.9437)" class="st14" cx="133.6" cy="233.8" rx="4.1" ry="6.4"/>
<ellipse transform="matrix(0.1592 -0.9872 0.9872 0.1592 -137.5804 338.2598)" class="st20" cx="129.8" cy="249.9" rx="3.4" ry="9.3"/>
<ellipse transform="matrix(0.1595 -0.9872 0.9872 0.1595 -137.566 338.1568)" class="st14" cx="129.8" cy="249.9" rx="2.3" ry="6.3"/>
<path class="st20" d="M138.9,276.5c0,0-3.2,8.6-7.4,9c-4.1,0.4-7.1-1.2-15.7-0.2s-19.2,4.4-23.2,7.3s-6.9-0.8-9.2-5.8
	c0,0,3.7,4.1,6.4,3.3c2.6-0.8,19.8-8.7,40.8-7.8C130.5,282.4,132.3,284,138.9,276.5z"/>
<ellipse transform="matrix(0.9962 -8.670601e-02 8.670601e-02 0.9962 -23.8422 11.468)" class="st20" cx="120.1" cy="280.2" rx="9.3" ry="3.4"/>
<ellipse transform="matrix(0.9963 -8.629473e-02 8.629473e-02 0.9963 -23.7414 11.4103)" class="st14" cx="120.1" cy="280.3" rx="6.3" ry="2.3"/>
<path class="st9" d="M123.2,316.1c-1.2,8.5-2.5,17.9-3.6,27c-0.1,0-2.1-0.5-2.9-0.3c0,0,3.8-21.8,3.2-23.6
	c-0.6-1.7-20.2-1.7-22.4-1.7c0.1-0.9,0.1-1.8,0.2-2.7C99.1,314.9,110.1,314.7,123.2,316.1z"/>
<path class="st9" d="M116.9,369.7c-13.4,1.7-21.2-3.1-21.2-3.1c0-0.5,0-1,0-1.5c6.1,2.6,18.5,3.7,18.5,3.7s4.2-21,1.8-21.6
	c-2.2-0.6-17.9,0.2-20,0.4c0.1-1.3,0.1-2.7,0.2-4.1l0,0c9.2-0.9,21.3,0.5,23.3,0.7C118.3,353.6,117.4,362.7,116.9,369.7z"/>
<ellipse transform="matrix(0.2549 -0.967 0.967 0.2549 -222.9137 351.3342)" class="st14" cx="116.5" cy="320.3" rx="2.5" ry="4"/>
<ellipse transform="matrix(0.2549 -0.967 0.967 0.2549 -192.7914 333.8551)" class="st14" cx="120.2" cy="292" rx="2.5" ry="4"/>
<ellipse transform="matrix(0.2549 -0.967 0.967 0.2549 -251.818 368.7377)" class="st14" cx="113.4" cy="347.8" rx="2.5" ry="4"/>
<path class="st13" d="M119.9,442.2c0,0-17.9,14.4-41.8-0.8c0,0-2.4-64.1,0.6-79.2c0,0,36.3,11.2,45.6,6.3
	C124.4,368.5,125.2,418.5,119.9,442.2z"/>
<ellipse transform="matrix(0.1592 -0.9872 0.9872 0.1592 -281.3116 423.648)" class="st20" cx="108.1" cy="377" rx="3.4" ry="9.3"/>
<ellipse transform="matrix(0.1595 -0.9872 0.9872 0.1595 -281.2637 423.5114)" class="st14" cx="108.1" cy="376.9" rx="2.3" ry="6.3"/>
<path class="st20" d="M80.6,364.6c0,0,25.7,9.5,41.1,6.5c0,0,0.4,22.1-0.6,32.5c0,0-0.6-26.7-2.9-28.5
	C118.2,375.2,92.8,372.8,80.6,364.6z"/>
<path class="st12" d="M78.3,252.6c0,0-1.2-5.7-0.8-12.6c0.3-4.6,1.2-9.8,3.7-14.1c1.9-3.4,4.8-6.3,9-8
	C95.1,232.4,86.4,247.1,78.3,252.6z"/>
<path class="st12" d="M77.9,433.5c0,0-3.4-9.1-5.4-23.8l0,0l0,0l0,0c-1.2-8.9-1.8-19.8-0.8-32l0,0c0.7-8.3,2.2-17.2,4.8-26.4
	C83.5,372,85.9,402.5,77.9,433.5z"/>
<path class="st15" d="M77.9,433.5c0,0-3.4-9.1-5.4-23.8c0.1,1,1.7,11.3,5.1,11.8c3.6,0.5,0.7-52.5-0.9-59c-1.5-6.5-5,14.6-5.1,15.2
	c0.7-8.3,2.2-17.2,4.8-26.4C83.5,372,85.9,402.5,77.9,433.5z"/>
<path class="st15" d="M78.3,252.6c0,0-1.2-5.7-0.8-12.6c0,0,0.8,8.4,2.5,7.1c1.7-1.4,9-5,8.6-25c0,0-0.9-1.5-7.4,3.9
	c1.9-3.4,4.8-6.3,9-8C95.1,232.4,86.4,247.1,78.3,252.6z"/>
<ellipse transform="matrix(0.2116 -0.9774 0.9774 0.2116 -156.5994 264.7633)" class="st15" cx="85.8" cy="229.4" rx="7.1" ry="2.1"/>
<ellipse transform="matrix(0.9987 -5.090038e-02 5.090038e-02 0.9987 -18.9887 4.3648)" class="st15" cx="76.2" cy="375" rx="2.1" ry="7.1"/>
<ellipse transform="matrix(0.9987 -5.090038e-02 5.090038e-02 0.9987 -19.628 4.4624)" class="st15" cx="77.8" cy="387.6" rx="1.4" ry="4.4"/>
<path class="st16" d="M74.4,363c0,0,2.3-5.9,3.7,0.1s3.5,22.1,3.7,24.6c0,0-0.8-24.8-5-30.5C76.8,357.3,76.1,357.5,74.4,363z"/>
<ellipse transform="matrix(0.9893 -0.1459 0.1459 0.9893 -53.4408 15.3468)" class="st16" cx="77.9" cy="372" rx="2.2" ry="3.4"/>
<ellipse transform="matrix(0.9893 -0.1459 0.1459 0.9893 -53.4264 15.3447)" class="st14" cx="77.9" cy="371.9" rx="1.6" ry="2.6"/>
<ellipse transform="matrix(0.9893 -0.1459 0.1459 0.9893 -52.3523 15.2074)" class="st16" cx="77.5" cy="364.5" rx="1.1" ry="2.9"/>
<ellipse transform="matrix(0.9893 -0.1459 0.1459 0.9893 -52.3519 15.2084)" class="st14" cx="77.5" cy="364.5" rx="0.8" ry="2.2"/>
<path class="st16" d="M84.5,222.7c0,0,3.4-3,5.1-1.5S89,236,89,236s3.3-6,1.3-16.4C90.3,219.6,88.4,218.4,84.5,222.7z"/>
<ellipse transform="matrix(9.670260e-02 -0.9953 0.9953 9.670260e-02 -145.3321 292.0348)" class="st16" cx="88.2" cy="226.1" rx="3.4" ry="2.1"/>
<ellipse transform="matrix(9.670260e-02 -0.9953 0.9953 9.670260e-02 -145.243 292.0637)" class="st14" cx="88.3" cy="226.1" rx="2.6" ry="1.6"/>
<path class="st1" d="M424.5,484.6c0,0-2.4,0.5-4.7-1.7c-2.3-2.2,12-42,11.5-40s5.5,42.4,5.1,42.5S424.5,484.6,424.5,484.6z"/>
<path class="st2" d="M437.6,492.5c0,0-1.4,3.8-2.9,4.2s-13.3-1.5-13.3-4.7s9.3-36.8,6.1-50.5c-3.1-13.7,11.3,41.6,11.3,41.6
	L437.6,492.5z"/>
<path class="st3" d="M404.8,468.4c0.4,0.4,1,0.6,1.7,0.8c2.9,0.7,8-0.3,9.8-2.7c0.6-0.8,0.9-1.6,0.6-2.7c-0.7-3.8-3.4-20.7-0.4-24.4
	c0.7-0.9,1.7-1,3-0.2c0.4,0.2,0.8,0.5,1.2,0.9c0.2,0.2,0.4,0.3,0.5,0.5c0.3,0.3,0.6,0.6,0.9,0.9c0.7,0.8,1.3,1.7,1.9,2.6
	c0.9,1.5,1.5,3.1,2,4.9c0.5,1.6,0.8,3.3,1.1,5.1c0.2,1.2,0.3,2.4,0.4,3.6l0,0c0.7,9.6-0.8,20.3-1.8,26.9c-0.5,3.1-0.8,5.2-0.8,6
	c0.1,2,4.2,3.9,8.7,3.6c1.1-0.1,2.3-0.3,3.4-0.7c2.1-0.8,4.1-2.1,5.5-4.4c0.3-0.5,0.5-1.1,0.8-1.8c3.5-11.4-1.3-50.4-1.3-50.4
	s-7.5-1.6-15.5-3c-0.7-0.1-1.4-0.2-2.1-0.4c-3.6-0.6-7.1-1.1-10-1.3c-1-0.1-1.9-0.1-2.7-0.2c-1.4,0-2.5,0-3.1,0.2l0,0
	c-0.2,0.1-0.3,0.1-0.4,0.2c-0.1,0-0.1,0.1-0.2,0.1c-1.4,1.1-2.9,3.1-4.3,5.3c-0.4,0.6-0.7,1.2-1,1.8c-1.1,1.9-2,3.8-2.8,5.2
	C397.8,448.6,402.3,466,404.8,468.4z"/>
<path class="st4" d="M421.4,440.6c0.3,0.3,0.6,0.6,0.9,0.9c0.7,0.8,1.3,1.7,1.9,2.6c0.9,1.5,1.5,3.1,2,4.9c0,0,0.8-0.1,2.1-0.3
	c0.3,0,0.6-0.1,1-0.1c0.2,0,0.4-0.1,0.6-0.1c0.6-0.1,1.3-0.2,2-0.3c2.4-0.4,4.9-1,5.6-1.5c0.9-0.6,0.4,13-0.9,27.1l0,0
	c-0.2,2-0.4,4-0.6,6c-0.2,1.9-0.4,3.7-0.7,5.5c-0.4,3.2-0.9,6.3-1.4,9c1.1-0.1,2.3-0.3,3.4-0.7c2.1-0.8,4.1-2.1,5.5-4.4
	c0.3-0.5,0.5-1.1,0.8-1.8c3.5-11.4-1.3-50.4-1.3-50.4s-7.5-1.6-15.5-3L421.4,440.6z"/>
<path class="st5" d="M417.9,434.7l1.7,4.5c0.5,0.3,1.1,0.8,1.8,1.4c0.3,0.3,0.6,0.6,0.9,0.9c0.7,0.8,1.3,1.7,1.9,2.6
	c1-0.2,2.4-0.5,3.8-0.9c0.1,0,0.2-0.1,0.4-0.1c4.7-1.1,10.5-2.7,12.9-4c0,0,3.3,30.1,2.2,48.1c3.5-11.4-1.3-50.4-1.3-50.4
	s-7.5-1.6-15.5-3c-0.7-0.1-1.4-0.2-2.1-0.4C420.5,434.2,417.9,434.7,417.9,434.7z"/>
<path class="st4" d="M406.5,469.2c3.9,0.9,11.3-1.1,10.5-5.4c-0.7-3.8-3.4-20.7-0.4-24.4c-1-3.3-1.9-6-2.3-7.1
	c-0.1-0.4-0.2-0.5-0.2-0.5l-2.5,0.4l-3.8,0.6c-1.8,1.4-3.7,4.3-5.3,7.1c0,0,6.7,4.9,8.7,4.9c0,0,1.2,17.1,2.2,20.2
	C414.1,466.9,410.1,468.4,406.5,469.2z"/>
<path class="st5" d="M414.4,442.8c0,0,0.1,21.9,1.9,23.6l0,0c0.6-0.8,0.9-1.6,0.6-2.7c-0.7-3.8-3.4-20.7-0.4-24.4
	c0.7-0.9,1.7-1,3-0.2c0.4,0.2,0.8,0.5,1.2,0.9c0-3.1,0-5.2,0-5.2c-0.1-0.1-7.5-1.6-12.4-2.6l0,0c-0.2,0.1-0.3,0.1-0.4,0.2
	c-0.1,0-0.1,0.1-0.2,0.1c-1.4,1.1-2.9,3.1-4.3,5.3C406.2,439.2,413.6,442.9,414.4,442.8z"/>
<path class="st6" d="M446,345.9c0,0-4.5,6.7-5.9,15.1s9,4.8,9,4.8L446,345.9z"/>
<path class="st7" d="M443.8,356.8c0,0-27.5,1.8-45.6,6.3l23.5,13.2L443.8,356.8z"/>
<path class="st8" d="M395.1,283c0,0,1.7,11,3.8,25.6c0.1,0.7,0.2,1.5,0.3,2.2c1.2,8.5,2.5,17.9,3.6,27c0,0.3,0.1,0.6,0.1,0.9
	c1.2,9.5,2.1,18.6,2.6,25.6c0.2,3,0.3,5.5,0.3,7.6c0,20.9,20.3,1.9,20.8-8.5c0-0.6,0-1.4,0.1-2.2c0-0.5,0-1,0-1.5
	c0-4.2-0.1-10.5-0.4-17.6c0-1.3-0.1-2.7-0.1-4.1c-0.3-8.2-0.8-17.2-1.3-25.8c-0.1-0.9-0.1-1.8-0.2-2.7c-0.5-8.1-1.2-15.5-1.9-20.9
	c-0.1-0.7-0.2-1.4-0.3-2c-0.7-4.6-2.7-7.2-5.4-8.4c-5.4-2.4-13.2,0.4-18,2.6C396.8,282,395.1,283,395.1,283z"/>
<path class="st9" d="M395.1,283c0,0,1.7,11,3.8,25.6c1.1-0.6,2.9-0.3,2.9-0.3c-0.2-2.9-2.9-22.7-2.9-22.7c5.2-2.1,24,3,24,3
	c-0.1-0.7-0.2-1.4-0.3-2c-0.7-4.6-2.7-7.2-5.4-8.4l-18,2.6C396.8,282,395.1,283,395.1,283z"/>
<path class="st7" d="M444.9,268c0,0-3.4-0.1-8-1.4s4.2-7,4.2-7L444.9,268z"/>
<path class="st13" d="M376.7,257.4c1.6,11.5,9.2,28,18.4,25.3c10-3,28,3.2,30.1,4.2s9.3,5.6,12.6,1.9c5-5.3,3.8-15.2,2.5-21.1
	c-0.7-2.9-1.4-4.8-1.4-4.8l-2.2-9.7c0,0-60.8-10.1-60.3,1.3C376.5,255.4,376.6,256.4,376.7,257.4z"/>
<path class="st10" d="M376.7,257.4L376.7,257.4c0,0,39.5-2.9,50.1-0.3c5.5,1.4,10.2,6.2,13.4,10.6c-0.7-2.9-1.4-4.8-1.4-4.8
	l-2.2-9.7c0,0-60.8-10.1-60.3,1.3C376.5,255.4,376.6,256.4,376.7,257.4z"/>
<path class="st13" d="M366.7,241.9c0,0,15.2-26.5,48.4-34.1S445,268,445,268s-14.4-13.3-20.8-14.1c-12.2-1.6-43.4-1.6-51.3,1.6
	C372.8,255.5,367.1,249.2,366.7,241.9z"/>
<path class="st20" d="M373.5,252.5c0,0,38.9-7.8,52.6-1.6c13.7,6.1,16.9,12,16.9,12s-7.4-13.9-16.3-17.1
	C417.8,242.6,386.1,245.8,373.5,252.5z"/>
<path class="st20" d="M383.7,271.1c0,0,3.2,8.6,7.4,9s7.1-1.2,15.7-0.2s19.2,4.4,23.2,7.3s6.9-0.8,9.2-5.8c0,0-3.7,4.1-6.4,3.3
	c-2.6-0.8-19.8-8.7-40.8-7.8C392,277,390.2,278.6,383.7,271.1z"/>
<path class="st9" d="M399.3,310.7c1.2,8.5,2.5,17.9,3.6,27c0.1,0,2-0.5,2.9-0.3c0,0-3.8-21.8-3.2-23.6c0.5-1.7,20.2-1.7,22.4-1.7
	c-0.1-0.9-0.1-1.8-0.2-2.7C423.4,309.5,412.5,309.4,399.3,310.7z"/>
<path class="st9" d="M405.6,364.3c13.4,1.7,21.1-3.1,21.1-3.1c0-0.5,0-1,0-1.5c-6.1,2.6-18.5,3.7-18.5,3.7s-4.2-21-1.8-21.6
	c2.2-0.6,17.9,0.2,20,0.4c0-1.3-0.1-2.7-0.1-4.1l0,0c-9.2-0.9-21.3,0.5-23.3,0.7C404.2,348.2,405.2,357.3,405.6,364.3z"/>
<path class="st13" d="M402.6,436.8c0,0,17.9,14.4,41.8-0.8c0,0,2.4-64.1-0.6-79.2c0,0-36.3,11.2-45.6,6.3
	C398.2,363.1,397.4,413.1,402.6,436.8z"/>
<ellipse transform="matrix(0.9872 -0.1592 0.1592 0.9872 -53.872 70.7283)" class="st20" cx="414.5" cy="371.6" rx="9.3" ry="3.4"/>
<ellipse transform="matrix(0.9872 -0.1595 0.1595 0.9872 -53.9634 70.8697)" class="st14" cx="414.5" cy="371.6" rx="6.3" ry="2.3"/>
<path class="st20" d="M441.9,359.2c0,0-25.7,9.5-41.1,6.5c0,0-0.4,22.1,0.6,32.5c0,0,0.5-26.7,3-28.5
	C404.3,369.8,429.8,367.4,441.9,359.2z"/>
<path class="st12" d="M444.2,247.2c0,0,1.2-5.7,0.8-12.6c-0.3-4.6-1.2-9.8-3.7-14.1c-1.9-3.4-4.8-6.3-9-8
	C427.5,227,436.1,241.8,444.2,247.2z"/>
<path class="st12" d="M444.6,428.1c0,0,3.4-9.1,5.4-23.8l0,0l0,0l0,0c1.2-8.9,1.8-19.8,0.8-32l0,0c-0.7-8.3-2.2-17.2-4.8-26.4
	C439.1,366.7,436.6,397.2,444.6,428.1z"/>
<path class="st15" d="M444.6,428.1c0,0,3.4-9.1,5.4-23.8c-0.1,1-1.7,11.3-5.1,11.8c-3.6,0.5-0.7-52.5,0.9-59
	c1.5-6.5,5,14.6,5.1,15.2c-0.7-8.3-2.2-17.2-4.8-26.4C439.1,366.7,436.6,397.2,444.6,428.1z"/>
<path class="st15" d="M444.2,247.2c0,0,1.2-5.7,0.8-12.6c0,0-0.8,8.4-2.5,7.1c-1.7-1.4-9-5-8.6-25c0,0,0.9-1.5,7.4,3.9
	c-1.9-3.4-4.8-6.3-9-8C427.5,227,436.1,241.8,444.2,247.2z"/>
<ellipse transform="matrix(0.9774 -0.2116 0.2116 0.9774 -37.5337 97.4799)" class="st15" cx="436.7" cy="224.1" rx="2.1" ry="7.1"/>
<ellipse transform="matrix(5.090038e-02 -0.9987 0.9987 5.090038e-02 54.549 796.5914)" class="st15" cx="446.4" cy="369.6" rx="7.1" ry="2.1"/>
<ellipse transform="matrix(5.090038e-02 -0.9987 0.9987 5.090038e-02 40.3759 806.8771)" class="st15" cx="444.7" cy="382.2" rx="4.4" ry="1.4"/>
<path class="st16" d="M448.1,357.6c0,0-2.3-5.9-3.7,0.1c-1.4,6-3.5,22.1-3.7,24.6c0,0,0.8-24.8,5-30.5
	C445.7,351.9,446.4,352.2,448.1,357.6z"/>
<ellipse transform="matrix(0.1459 -0.9893 0.9893 0.1459 17.0716 753.0354)" class="st16" cx="444.7" cy="366.6" rx="3.4" ry="2.1"/>
<ellipse transform="matrix(0.1459 -0.9893 0.9893 0.1459 17.1041 752.9344)" class="st14" cx="444.6" cy="366.6" rx="2.6" ry="1.6"/>
<ellipse transform="matrix(0.1459 -0.9893 0.9893 0.1459 24.759 746.9126)" class="st16" cx="445" cy="359.1" rx="2.9" ry="1.1"/>
<ellipse transform="matrix(0.1459 -0.9893 0.9893 0.1459 24.8398 746.9278)" class="st14" cx="445" cy="359.1" rx="2.2" ry="0.8"/>
<path class="st16" d="M438,217.3c0,0-3.4-3-5.1-1.5c-1.7,1.6,0.7,14.8,0.7,14.8s-3.3-6-1.3-16.4C432.2,214.2,434.1,213,438,217.3z"
	/>
<ellipse transform="matrix(0.9953 -9.670260e-02 9.670260e-02 0.9953 -19.3159 43.0325)" class="st16" cx="434.3" cy="220.8" rx="2.1" ry="3.4"/>
<ellipse transform="matrix(0.9953 -9.670260e-02 9.670260e-02 0.9953 -19.3075 43.022)" class="st14" cx="434.2" cy="220.7" rx="1.6" ry="2.6"/>
<path class="st5" d="M141.4,434.5L141.4,434.5z"/>
<ellipse transform="matrix(0.9619 -0.2735 0.2735 0.9619 -43.2516 127.7326)" class="st16" cx="436.5" cy="219" rx="0.7" ry="1.7"/>
<ellipse transform="matrix(0.9619 -0.2735 0.2735 0.9619 -43.2502 127.7346)" class="st14" cx="436.5" cy="219" rx="0.6" ry="1.3"/>
</svg>
