<?xml version="1.0" encoding="utf-8"?>
<!-- Generator: Adobe Illustrator 27.3.1, SVG Export Plug-In . SVG Version: 6.00 Build 0)  -->
<svg version="1.1" id="Camada_1" xmlns="http://www.w3.org/2000/svg" xmlns:xlink="http://www.w3.org/1999/xlink" x="0px" y="0px"
	 viewBox="0 0 780 512" style="enable-background:new 0 0 780 512;" xml:space="preserve">
<style type="text/css">
	.st0{fill:#E14F1D;}
	.st1{fill:#C1330E;}
	.st2{fill:#00858C;stroke:#52EFFF;stroke-width:12;stroke-miterlimit:10;}
	.st3{fill:#002551;}
	.st4{fill:#FFFFFF;}
	.st5{fill:#FFFFFF;stroke:#022056;stroke-width:6;stroke-miterlimit:10;}
	.st6{fill:none;stroke:#022056;stroke-width:6;stroke-miterlimit:10;}
	.st7{fill:#77FF00;}
	.st8{fill:#FFED69;}
	.st9{fill:#E600FF;}
	.st10{fill:#8B9AA3;stroke:#000000;stroke-width:10;stroke-miterlimit:10;}
	.st11{fill:#B1BCC4;stroke:#000000;stroke-width:10;stroke-miterlimit:10;}
	.st12{fill:#1B2941;stroke:#000000;stroke-width:10;stroke-miterlimit:10;}
	.st13{fill:#006AFF;stroke:#000000;stroke-width:10;stroke-miterlimit:10;}
	.st14{fill:#D5DEEB;stroke:#000000;stroke-width:10;stroke-miterlimit:10;}
	.st15{fill:#EAEFF1;stroke:#000000;stroke-width:10;stroke-miterlimit:10;}
	.st16{fill:#081321;stroke:#000000;stroke-width:10;stroke-miterlimit:10;}
	.st17{fill:#040C16;stroke:#000000;stroke-width:10;stroke-miterlimit:10;}
	.st18{fill:#091523;stroke:#000000;stroke-width:10;stroke-miterlimit:10;}
	.st19{fill:#004DAA;stroke:#000000;stroke-width:10;stroke-miterlimit:10;}
	.st20{fill:#182338;stroke:#000000;stroke-width:10;stroke-miterlimit:10;}
	.st21{fill:#0098FF;stroke:#000000;stroke-width:10;stroke-miterlimit:10;}
	.st22{fill:#52EFFF;stroke:#000000;stroke-width:10;stroke-miterlimit:10;}
	.st23{fill:#BEC9D3;stroke:#000000;stroke-width:10;stroke-miterlimit:10;}
	.st24{fill:#9CA7AF;stroke:#000000;stroke-width:10;stroke-miterlimit:10;}
	.st25{fill:#121F32;stroke:#000000;stroke-width:10;stroke-miterlimit:10;}
	.st26{fill:#0C1829;stroke:#000000;stroke-width:10;stroke-miterlimit:10;}
	.st27{fill:#8B9AA3;}
	.st28{fill:#B1BCC4;}
	.st29{fill:#1B2941;}
	.st30{fill:#006AFF;}
	.st31{fill:#D5DEEB;}
	.st32{fill:#EAEFF1;}
	.st33{fill:#081321;}
	.st34{fill:#040C16;}
	.st35{fill:#091523;}
	.st36{fill:#004DAA;}
	.st37{fill:#182338;}
	.st38{fill:#0098FF;}
	.st39{fill:#52EFFF;}
	.st40{fill:#BEC9D3;}
	.st41{fill:#9CA7AF;}
	.st42{fill:#121F32;}
	.st43{fill:#0C1829;}
</style>
<polygon class="st0" points="790,314.3 790,511.4 -12.6,511.4 -12.6,417.1 "/>
<polygon class="st1" points="790,-0.6 790,314.3 -12.6,417.1 -12.6,-0.6 "/>
<g>
	<path class="st2" d="M592.3,456.5V47.3c0-13.8-11.2-25-25-25H258.5c-13.8,0-25,11.2-25,25v409.2c0,13.8,11.2,25,25,25h308.8
		C581.1,481.5,592.3,470.3,592.3,456.5z"/>
	<rect x="260.6" y="52.3" class="st3" width="306.2" height="180"/>
	<rect x="260.6" y="82.2" class="st4" width="306.2" height="139.4"/>
	<ellipse class="st4" cx="549" cy="64.7" rx="5.8" ry="4.9"/>
	<ellipse class="st4" cx="530.7" cy="64.7" rx="5.8" ry="4.9"/>
	<ellipse class="st4" cx="512.7" cy="64.7" rx="5.8" ry="4.9"/>
	<rect x="310.1" y="59.8" class="st4" width="189.9" height="9.9"/>
	<rect x="273.5" y="59.8" class="st4" width="26.1" height="9.9"/>
	<ellipse class="st5" cx="310.9" cy="122.8" rx="31.8" ry="27.1"/>
	<rect x="477.6" y="140.3" class="st6" width="26.8" height="86.8"/>
	<rect x="516.8" y="124.4" class="st6" width="28.5" height="100"/>
	<rect x="373.5" y="95.7" class="st6" width="124.1" height="10.9"/>
	<rect x="373.5" y="117.3" class="st6" width="124.1" height="10.9"/>
	<rect x="373.5" y="138.4" class="st6" width="90.5" height="10.9"/>
	<line class="st6" x1="464.1" y1="172.1" x2="279.1" y2="172.1"/>
	<line class="st6" x1="279.1" y1="188.2" x2="464.1" y2="188.2"/>
	<line class="st6" x1="464.1" y1="204.8" x2="279.1" y2="204.8"/>
	<g>
		<rect x="259.5" y="278.7" class="st0" width="17.2" height="8.3"/>
		<rect x="259.5" y="294.7" class="st0" width="17.2" height="8.3"/>
		<rect x="259.5" y="309.7" class="st0" width="17.2" height="8.3"/>
		<rect x="259.8" y="324.6" class="st0" width="17.2" height="8.3"/>
		<rect x="272.9" y="340.4" class="st0" width="12.6" height="8.3"/>
		<rect x="279.6" y="356.2" class="st0" width="12.6" height="8.3"/>
		<rect x="273.3" y="372.2" class="st0" width="12.6" height="8.3"/>
		<rect x="279.2" y="435.4" class="st0" width="12.6" height="8.3"/>
		<rect x="279.2" y="465.4" class="st0" width="12.6" height="4.1"/>
		<rect x="280.2" y="278.4" class="st7" width="19.3" height="8.3"/>
		<rect x="289" y="340.4" class="st7" width="22.1" height="8.3"/>
		<rect x="295.2" y="356.2" class="st7" width="27.3" height="8.3"/>
		<rect x="259.9" y="403.3" class="st7" width="26" height="8.3"/>
		<rect x="325.9" y="403.3" class="st7" width="25.7" height="8.3"/>
		<rect x="424" y="309.7" class="st7" width="9.6" height="8.3"/>
		<rect x="420.4" y="372.2" class="st7" width="19.3" height="8.3"/>
		<rect x="481.3" y="372.2" class="st7" width="19.3" height="8.3"/>
		<rect x="296" y="324.6" class="st0" width="29.1" height="8.3"/>
		<rect x="280.5" y="309.7" class="st8" width="29.1" height="8.3"/>
		<rect x="345.8" y="324.6" class="st8" width="60.4" height="8.3"/>
		<rect x="418.7" y="294" class="st8" width="29.1" height="8.3"/>
		<rect x="390.5" y="403.3" class="st9" width="25.7" height="8.3"/>
		<rect x="391.8" y="435.4" class="st9" width="10.2" height="8.3"/>
		<rect x="396.9" y="372.2" class="st9" width="10.2" height="8.3"/>
		<rect x="456.9" y="372.2" class="st9" width="10.2" height="8.3"/>
		<rect x="360.3" y="294" class="st9" width="54.2" height="8.3"/>
		<rect x="309.6" y="294.7" class="st9" width="16.2" height="8.3"/>
		<rect x="317.1" y="309.7" class="st9" width="10.2" height="8.3"/>
		<rect x="280.2" y="294.7" class="st4" width="25.5" height="8.3"/>
		<rect x="329.5" y="294" class="st4" width="25.5" height="8.3"/>
		<rect x="454.4" y="294" class="st4" width="74.5" height="8.3"/>
		<rect x="437.2" y="309.7" class="st4" width="74.5" height="8.3"/>
		<rect x="515.5" y="309.7" class="st4" width="42" height="8.3"/>
		<rect x="332.7" y="309.7" class="st4" width="74.5" height="8.3"/>
		<rect x="503.6" y="372.2" class="st4" width="74.5" height="8.3"/>
		<rect x="288.6" y="371.8" class="st4" width="74.5" height="8.3"/>
		<rect x="366.1" y="371.8" class="st4" width="27.3" height="8.3"/>
		<rect x="409.3" y="371.8" class="st4" width="9" height="8.3"/>
		<rect x="442.9" y="372.2" class="st4" width="9" height="8.3"/>
		<rect x="469.1" y="372.2" class="st4" width="9" height="8.3"/>
		<rect x="325" y="356.2" class="st4" width="27.3" height="8.3"/>
		<rect x="314" y="340.4" class="st4" width="27.3" height="8.3"/>
		<rect x="279.4" y="325" class="st4" width="12.4" height="8.3"/>
		<rect x="327.6" y="325" class="st4" width="15.8" height="8.3"/>
		<rect x="408.5" y="309.7" class="st4" width="13.2" height="8.3"/>
		<rect x="289" y="403.3" class="st4" width="27.3" height="8.3"/>
		<rect x="353.7" y="403.5" class="st4" width="33.7" height="8.3"/>
		<rect x="317.2" y="403.5" class="st4" width="7.7" height="8.3"/>
		<rect x="272.2" y="387.7" class="st4" width="27.3" height="8.3"/>
		<rect x="302.6" y="387.7" class="st4" width="56" height="8.3"/>
		<rect x="266.6" y="419.3" class="st4" width="27.3" height="8.3"/>
		<rect x="322.2" y="419.3" class="st4" width="38.7" height="8.3"/>
		<rect x="301" y="418.9" class="st4" width="13.7" height="8.3"/>
		<rect x="295.9" y="435.4" class="st4" width="27.3" height="8.3"/>
		<rect x="325.9" y="435.4" class="st4" width="60.7" height="8.3"/>
		<rect x="279" y="450.6" class="st4" width="74.5" height="8.3"/>
		<rect x="294" y="465.4" class="st4" width="46.4" height="4.1"/>
		<rect x="343.4" y="465.4" class="st4" width="74.5" height="4.1"/>
	</g>
</g>
<g>
	<g>
		<path class="st10" d="M691.1,455.3C691.1,455.3,691.1,455.4,691.1,455.3c0,0.1,0,0.2,0,0.3c0,0,0,0.1,0,0.2c0,0,0,0.1,0,0.1
			c0,0.1,0,0.2,0,0.3c0,0.3,0.1,0.7,0.1,1.2c0,0.5,0.1,1.1,0.2,1.8c0,0.3,0.1,0.6,0.1,0.8c0,0.4,0.1,0.9,0.1,1.4
			c0,0.4,0.1,0.8,0.1,1.3c0,0.1,0,0.2,0,0.2c0.1,0.6,0.1,1.2,0.2,1.9c0,0.2,0,0.4,0.1,0.6c0,0.2,0,0.4,0.1,0.7
			c0.2,2.8,0.5,6.1,0.8,9.7c0.1,1.1,0.2,2.3,0.3,3.5c0.3,3.3,0.6,6.9,0.9,10.7c0.1,1.2,0.2,2.5,0.3,3.8c0.1,1.4,0.2,2.9,0.4,4.4
			c0.2,1.9,0.3,3.8,0.5,5.7c0.2,2.7,0.4,5.5,0.7,8.4h3.5c0.1,0,0.2,0,0.2,0v0h29c-0.7-17.1-1.5-32.8-2.3-44.5
			c-0.1-1.6-0.2-3.1-0.3-4.5c0-0.5-0.1-1.1-0.2-1.6c0-0.2-0.1-0.5-0.1-0.7c0-0.3-0.1-0.7-0.1-1c-0.1-0.4-0.1-0.9-0.2-1.3
			c0,0,0-0.1,0-0.1c0-0.1,0-0.2-0.1-0.3c-0.4-2.8-1.1-5.1-1.8-7.1c-0.1-0.3-0.3-0.6-0.4-0.9c-0.1-0.2-0.2-0.4-0.3-0.6
			c-0.1-0.3-0.2-0.5-0.4-0.8c-0.1-0.3-0.3-0.6-0.5-0.8c-0.4-0.6-0.8-1.2-1.2-1.7c-0.2-0.2-0.4-0.5-0.6-0.7c-0.2-0.2-0.3-0.3-0.5-0.5
			c-0.1-0.1-0.2-0.2-0.3-0.3c-0.1-0.1-0.2-0.1-0.2-0.2c-0.1-0.1-0.2-0.1-0.2-0.2c-6.8-5.5-16.8,1-22.8,5.9c-0.4,0.3-0.8,0.6-1.1,0.9
			c-0.3,0.3-0.6,0.5-0.8,0.7c-0.8,0.7-1.5,1.4-2,1.9C691.5,454.9,691.1,455.3,691.1,455.3z"/>
		<path class="st11" d="M420,512.6h29v0c0,0,0.1,0,0.2,0h3.5c0.2-2,0.5-3.9,0.7-5.8c0.2-1.3,0.3-2.7,0.5-3.9c0.1-1,0.3-2,0.4-3
			c0.1-0.9,0.2-1.7,0.3-2.6c0.3-2.6,0.6-5.1,0.9-7.4c0.1-0.8,0.2-1.7,0.3-2.4c0.3-2.5,0.6-4.8,0.8-6.7c0-0.1,0-0.3,0-0.4
			c0-0.2,0-0.3,0.1-0.4c0.1-0.5,0.1-0.9,0.2-1.3c0-0.1,0-0.1,0-0.2c0-0.3,0.1-0.6,0.1-0.9c0-0.4,0.1-0.7,0.1-1
			c0-0.2,0.1-0.4,0.1-0.6c0.1-0.5,0.1-0.9,0.2-1.2c0-0.3,0.1-0.6,0.1-0.8c0-0.1,0-0.2,0-0.2c0,0,0-0.1,0-0.1c0,0,0-0.1,0-0.1
			c0-0.1,0-0.1,0-0.1c0,0,0-0.1,0-0.1s-0.1-0.1-0.4-0.3c0,0-0.1-0.1-0.2-0.1c-0.1-0.1-0.3-0.2-0.4-0.3c0,0-0.1-0.1-0.2-0.1
			c-0.5-0.4-1.2-0.8-2-1.3c-0.3-0.2-0.6-0.3-0.8-0.5c-0.4-0.2-0.7-0.4-1.1-0.6c-6-3.4-16-7.8-22.8-4.1c-0.1,0-0.2,0.1-0.2,0.2
			c-0.1,0-0.2,0.1-0.2,0.1c-0.1,0-0.2,0.1-0.3,0.2c-0.2,0.1-0.3,0.2-0.5,0.3c-0.2,0.2-0.4,0.3-0.6,0.5c-0.4,0.4-0.8,0.8-1.2,1.2
			c-0.2,0.2-0.3,0.4-0.5,0.6c-0.1,0.2-0.2,0.3-0.4,0.5c-0.1,0.1-0.2,0.3-0.3,0.4c-0.1,0.2-0.3,0.4-0.4,0.6c-0.7,1.3-1.3,3-1.8,4.9
			c0,0.1,0,0.2-0.1,0.2c0,0,0,0,0,0.1c-0.1,0.3-0.1,0.6-0.2,0.9c0,0.1,0,0.1,0,0.2c0,0.2-0.1,0.3-0.1,0.5c0,0.2-0.1,0.3-0.1,0.5
			c-0.1,0.4-0.1,0.7-0.2,1.1c-0.1,1-0.2,2-0.4,3.1l-0.1,0.6c-0.6,5.3-1.1,11.7-1.5,18.8c-0.1,1.3-0.2,2.6-0.3,3.9
			C420.3,507.7,420.2,510.1,420,512.6z"/>
		<path class="st12" d="M401.2,346.1c11.8-13.5,10.2-40.3,10.2-40.3c2.8-1,5.6-2.1,8.5-3.3l-1.1-4.6c-5.9,3.5-10,5.8-10.4,6
			c0.4-0.3,4.5-3.6,9.9-8.3c11.9-10.4,30-27.6,26.7-33.8c-2-3.8-4.7-5.2-7.6-5.4c-4.1-0.3-8.5,1.8-12,2.9
			c-2.9,0.9-8.9,5.6-14.6,10.1c0,0,0,0,0,0C410.4,270.5,397.7,309.7,401.2,346.1z"/>
		<path class="st13" d="M542.1,208.4c3.3,1.8,6.3,3.9,9.1,6h0c10.7,8.3,16.8,17.6,16.8,17.6s44,46.7,80.4,46.7
			c17.8,0,30.2-3.9,38.1-7.9c3.1-1.6,5.6-3.2,7.4-4.5c0,0-40-58-142.8-58C548.1,208.4,545.1,208.4,542.1,208.4z"/>
		<path class="st13" d="M406.2,265c8.5-7.6,22.7-21.4,35.3-38c1.7-2.2,3.5-4.3,5.3-6.2C425.1,229.8,414.4,244,406.2,265z"/>
		<path class="st13" d="M412.1,301.8c0.1,0.6,0.3,2.2,0.3,3.6c2.4-0.9,4.9-1.8,7.4-2.9c0.4-0.2,0.8-0.3,1.2-0.5
			c0.8-0.3,1.6-0.7,2.4-1.1c0.8-0.4,1.6-0.7,2.4-1.1c0,0,0,0,0.1,0c0.8-0.4,1.6-0.8,2.4-1.1c4-1.9,7.9-4,11.7-6.1
			c18.7-10.4,33.8-21.8,33.8-21.8c13.9-7.3,26.3-8.6,37.1-6.2c20.6,4.5,34.8,22.8,40.4,39.2c8.4,25,50.7,62.8,97.2,62.8
			c30.4,0,49.9-26,59.8-43.9c2.8-12,2.5-21.5,2.5-21.5c-1.9,3.1-3.5,6.8-3.5,6.8s-17.6,52.1-58.8,52.1c-57.6,0-87.2-56.1-87.2-56.1
			s-10-40.9-42-45.7c-32-4.8-40.3-0.8-55.9,11.2c-4.9,3.8-12.1,8.5-19.7,13.3c-2.1,1.3-4.2,2.7-6.3,4c-0.5,0.3-1,0.6-1.6,1
			c-4.9,3-9.6,5.8-13.8,8.3c-1.1,0.7-2.1,1.3-3.1,1.9C416.1,299.5,413.8,300.8,412.1,301.8z"/>
		<path class="st14" d="M397.9,278.8c1.2,0,6.8-4.6,12.8-9.4c0,0,0,0,0,0c5.7-4.5,11.7-9.1,14.6-10.1c3.5-1.1,7.9-3.2,12-2.9
			c2.9,0.2,5.6,1.6,7.6,5.4c3.3,6.2-14.8,23.5-26.7,33.8c-5.4,4.7-9.5,8-9.9,8.3c0.2-0.1,1.6-0.9,3.8-2.2c1.7-1,4-2.3,6.6-3.9
			c1-0.6,2-1.2,3.1-1.9c4.1-2.5,8.9-5.3,13.8-8.3c0.5-0.3,1-0.6,1.6-1c2.1-1.3,4.2-2.6,6.3-4c7.6-4.8,14.8-9.6,19.7-13.3
			c15.6-12,23.9-16,55.9-11.2c32,4.8,42,45.7,42,45.7s12.2,23,36,39.6c13.4,9.3,30.5,16.5,51.2,16.5c41.2,0,58.8-52.1,58.8-52.1
			s1.6-3.7,3.5-6.8c0.8-1.3,1.7-2.6,2.5-3.4c2.8-2.6,0-30-14.8-35.4c0,0-1.4,1.7-4.5,4c-6.5,4.9-20.8,12.4-45.6,12.4
			c-7.7,0-15.7-2.1-23.6-5.4c-29.5-12.3-56.9-41.3-56.9-41.3s-9.5-14.6-25.8-23.7c-6.9-3.8-15-6.7-24.2-7c-28-0.9-52.9,1-71.1,19.4
			c-1.9,1.9-3.6,3.9-5.3,6.2c-12.6,16.6-26.8,30.5-35.3,38c-3.9,3.4-6.6,5.6-7.5,6.1C395.9,272.6,395.5,278.8,397.9,278.8z"/>
		<path class="st15" d="M400.4,347c3.6,5.6,28.6,37.8,136.4,51.6c30.2,3.9,67,6.3,111.6,6.3c41.3,0,66.6-95.5,67.5-99
			c-0.3,0.9-2.8,7.8-7.7,16.7c-9.9,18-29.4,43.9-59.8,43.9c-23.1,0-45.2-9.3-62.6-21.8c-0.1-0.1-0.2-0.2-0.3-0.2
			c-17.4-12.6-30.1-28.3-34.3-40.8c-5.5-16.4-19.7-34.7-40.4-39.2c-10.7-2.4-23.2-1-37.1,6.2c0,0-15.1,11.3-33.8,21.8
			c-3.8,2.1-7.7,4.2-11.7,6.1c-0.8,0.4-1.6,0.8-2.4,1.1c0,0,0,0-0.1,0c-0.8,0.4-1.6,0.7-2.4,1.1c-0.8,0.4-1.6,0.7-2.4,1.1
			c-0.4,0.2-0.8,0.4-1.2,0.5c-2.5,1-5,2-7.4,2.9c-0.4,0.1-0.7,0.3-1.1,0.4c0,0,1.6,26.8-10.2,40.3
			C400.9,346.4,400.6,346.7,400.4,347z"/>
		<path class="st13" d="M482.1,512.6h228.5c6-37.6,10-88.8-8.5-105.2c0,0-66.1-3.8-132.3-2.6c0,0-94.6,9.1-107,13.8
			C455.3,421.5,469.6,472.5,482.1,512.6z"/>
		<path class="st13" d="M467.6,331.3c3.8,8.8,10.7,15,19.6,16.5c9.7,1.6,19.7-2.8,27.5-11c0,0,0,0,0,0c5.8-6.2,10.4-14.5,12.6-24
			c5.1-22.1-4.6-42.4-21.7-45.2c-17-2.8-35,12.8-40,35C463.1,313.1,464.1,323.2,467.6,331.3z"/>
		<path class="st14" d="M452.9,401.5c0,0,5.9,37.5,13.4,74.6c2.6,12.7,5.4,25.4,8.3,36.5h241c1.1-11.1,1.5-21.4,4-35.4
			c4.4-24.2-4.4-63.7-11.6-70.5c-7.2-6.8-15.6-3.8-19.6-3.8c-4,0,4,40.3-6,42.5c-14.2-7.8-45.9-9.1-77.9-8c-5.5,0.2-11,0.5-16.4,0.8
			c-38.6,2.3-73.4,7.2-73.4,7.2L490.3,403c0,0-13.4-5.3-25.8-4.6C460.4,398.6,456.3,399.5,452.9,401.5z"/>
		<path class="st16" d="M696.9,431.7c1,8.5,6.2,20.5,12.3,18.5c6.7-2.2,18.8,2.3,20.1,3.1c1.3,0.8,6.2,4.1,8.4,1.4
			c3.4-3.9,2.5-11.1,1.6-15.5c-0.4-2.1-0.9-3.5-0.9-3.5l-1.4-7.1c0,0-40.7-7.4-40.4,1C696.8,430.2,696.8,431,696.9,431.7z"/>
		<path class="st17" d="M696.9,431.7L696.9,431.7c0,0,26.5-2.1,33.6-0.2c3.7,1,6.8,4.6,9,7.8c-0.4-2.1-0.9-3.5-0.9-3.5l-1.4-7.1
			c0,0-40.7-7.4-40.4,1C696.8,430.2,696.8,431,696.9,431.7z"/>
		<path class="st18" d="M689.7,420.3c0,0,10.2-19.4,32.4-25c22.2-5.6,20,44.1,20,44.1s-9.7-9.8-13.9-10.3
			c-8.2-1.1-29.1-1.2-34.4,1.2C693.8,430.3,690,425.7,689.7,420.3z"/>
		<path class="st19" d="M741.2,419.3c0.2,0.5,0.4,0.9,0.6,1.3c0,0,0,0,0,0c0.2,0.3,0.3,0.6,0.5,0.9c0,0-0.6-3.4-1.5-7.4
			c-0.6-2.7-1.4-5.7-2.3-8.2c-0.7-1.9-1.4-3.6-2.1-4.5c0,0.1,0,0.2,0,0.3c0,0.2,0.1,0.3,0.1,0.5C737.5,409,739.6,415.6,741.2,419.3z
			"/>
		<path class="st20" d="M476.8,318.1c1.8,7.8,6.8,13.6,13.8,14.8c5.3,0.9,10.7-1.1,15.2-4.9c0,0,0,0,0,0c4.7-4,8.4-10,10-17.1
			c3.2-13.9-2.9-26.7-13.6-28.5c-10.7-1.8-22,8.1-25.2,22C475.9,309.3,475.9,314,476.8,318.1z"/>
		<path class="st13" d="M407.3,281.7c0,0,9.1,9.1-3.6,17C403.7,298.8,404.1,288.7,407.3,281.7z"/>
		<path class="st21" d="M542.1,208.4c3.3,1.8,6.3,3.9,9.1,6h0c47.3-0.3,58,10.5,58,10.5c-11.6-3.4-29.2,0-29.2,2.7
			c0,2.7,29.2,24.2,46.8,34c17.6,9.8,45.2,6.8,47.2,3.3c2-3.5-7-12.5-7-12.5c10.6,4.8,19.6,18.3,19.6,18.3c3.1-1.6,5.6-3.2,7.4-4.5
			c0,0-40-58-142.8-58C548.1,208.4,545.1,208.4,542.1,208.4z"/>
		<path class="st22" d="M691.1,266.1c0,0-43.6-56.3-141.7-56.3l3.6,2.2c0,0,76.8-3.6,135.7,54.1H691.1z"/>
		
			<ellipse transform="matrix(0.3706 -0.9288 0.9288 0.3706 164.0965 746.7086)" class="st13" cx="633" cy="252.3" rx="14.9" ry="25.1"/>
		<path class="st21" d="M467.6,331.3L467.6,331.3c-0.6-13.4,3.4-26.4,5-30.8c-2.4,8.4,4.3,17.7,4.3,17.7l0,0c-1-4.1-1-8.8,0.2-13.7
			c3.2-14,14.5-23.8,25.2-22c10.7,1.8,16.8,14.5,13.6,28.5c-1.6,7.1-5.3,13.1-10,17.1c11.5-5.1,15.3-18.6,15.3-18.6
			c2.7,8.1-6.3,26.9-6.5,27.4c5.8-6.2,10.4-14.5,12.6-24c5.1-22.1-4.6-42.4-21.7-45.2c-17-2.8-35,12.8-40,35
			C463.1,313.1,464.1,323.2,467.6,331.3z"/>
		<path class="st22" d="M478.1,284.9c0,0,9.8-14.3,27-12.9c17.2,1.4,19.8,26.8,19.8,26.8s0-27.7-18.8-30.1
			C487.3,266.3,478.1,284.9,478.1,284.9z"/>
		<path class="st23" d="M597.2,343.6c13.4,9.3,30.5,16.5,51.2,16.5c41.2,0,58.8-52.1,58.8-52.1s1.6-3.7,3.5-6.8
			c0.8-1.3,1.7-2.6,2.5-3.4c2.8-2.6,0-30-14.8-35.4c0,0-1.4,1.7-4.5,4c-6.5,4.9-20.8,12.4-45.6,12.4c-7.7,0-15.7-2.1-23.6-5.4
			c0,0,26,17.2,54.4,14.8c0,0,5.6,6.4,0,13.8C644.8,318.6,641.7,342.4,597.2,343.6z"/>
		<path class="st23" d="M536.8,398.6c30.2,3.9,67,6.3,111.6,6.3c41.3,0,66.6-95.5,67.5-99c-0.3,0.9-2.8,7.8-7.7,16.7
			c-9.9,18-29.4,43.9-59.8,43.9c-23.1,0-45.2-9.3-62.6-21.8c-0.3,0.2-0.5,0.3-0.5,0.3c-0.1,0.3-0.2,0.6-0.3,1
			C582.9,354.4,571,392.3,536.8,398.6z"/>
		<path class="st23" d="M596.1,512.6h119.6c1.1-11.1,1.5-21.4,4-35.4c4.4-24.2-4.4-63.7-11.6-70.5c-7.2-6.8-15.6-3.8-19.6-3.8
			c-4,0,4,40.3-6,42.5c-14.2-7.8-45.9-9.1-77.9-8c5.7,1.2,12.9,3.9,21.8,9.2C644.6,457.5,616.2,491.7,596.1,512.6z"/>
		<path class="st24" d="M449.6,502.9l-1.1,9.7h0.6v0c0,0,0.1,0,0.2,0h3.5c0.2-2,0.5-3.9,0.7-5.8c0.2-1.3,0.3-2.7,0.5-3.9
			c0.1-1,0.3-2,0.4-3c0.1-0.9,0.2-1.7,0.3-2.6c0.3-2.6,0.6-5.1,0.9-7.4c0.1-0.8,0.2-1.7,0.3-2.4c0.3-2.5,0.6-4.8,0.8-6.7
			c0-0.1,0-0.3,0-0.4c0-0.2,0-0.3,0.1-0.4c0.1-0.5,0.1-0.9,0.2-1.3c0-0.1,0-0.1,0-0.2c0-0.3,0.1-0.6,0.1-0.9c0-0.4,0.1-0.7,0.1-1
			c0-0.2,0.1-0.4,0.1-0.6c0.1-0.5,0.1-0.9,0.2-1.2c0-0.3,0.1-0.6,0.1-0.8c0-0.1,0-0.2,0-0.2c0,0,0-0.1,0-0.1c0,0,0-0.1,0-0.1
			c0-0.1,0-0.1,0-0.1c0,0,0-0.1,0-0.1s-0.1-0.1-0.4-0.3c0,0-0.1-0.1-0.2-0.1c-0.1-0.1-0.3-0.2-0.4-0.3c-11-1.6-27.4,2.4-33.5,4.3
			c0,0.2-0.1,0.3-0.1,0.5c0,0.2-0.1,0.3-0.1,0.5c-0.1,0.4-0.1,0.7-0.2,1.1c-0.1,1-0.2,2-0.4,3.1c0,0,26.9-5.2,29-4.9
			c2.1,0.4-1.4,21.2-1.4,21.2s-18.6,1.6-29.3,3.1c-0.1,1.3-0.2,2.6-0.3,3.9L449.6,502.9z"/>
		<path class="st23" d="M452.9,401.5c0,0,5.9,37.5,13.4,74.6c9.8-4.6,18.2-28,18.2-28s1.9,3.2,4.6,0c2.7-3.2,11.7-11.2,11-19.3
			c-0.7-7.8-33.6-29.2-35.6-30.5C460.4,398.6,456.3,399.5,452.9,401.5z"/>
		<path class="st25" d="M404.9,479.6c4.3,4,13.4-0.9,16-2c0.4-0.2,1.1-0.4,2.2-0.8c6.1-1.9,22.5-5.9,33.5-4.3
			c0.8,0.1,1.7,0.3,2.4,0.5c11.7,2.9,21.4-14.8,23.3-27.2c0.2-1.1,0.3-2.1,0.3-3.1c0.6-12.3-76.4-1.4-76.4-1.4l-2.7,10.4
			c0,0-0.9,2.1-1.7,5.2C400,463.2,398.5,473.9,404.9,479.6z"/>
		<path class="st26" d="M482.3,445.7L482.3,445.7c0,0-50.1-3.1-63.6-0.4c-7,1.5-12.9,6.7-17,11.4c0.8-3.1,1.7-5.2,1.7-5.2l2.7-10.4
			c0,0,77.1-10.9,76.5,1.4C482.6,443.6,482.5,444.6,482.3,445.7z"/>
		<path class="st25" d="M495,429c0,0-19.3-28.6-61.3-36.7c-42-8.2-37.9,64.9-37.9,64.9s18.3-14.4,26.3-15.2
			c15.5-1.7,55-1.7,65.1,1.7C487.2,443.7,494.4,436.9,495,429z"/>
		<path class="st13" d="M396.7,434.7c0.9-0.5,1.8-1.1,2.6-1.7c0,0,0,0,0,0c1-0.7,2-1.5,2.9-2.4c7.4-6.8,13.4-18.1,10.7-29.6
			c-0.2-0.7-0.4-1.4-0.6-2.2c-0.1-0.3-0.2-0.6-0.3-0.9c-0.1-0.2-0.1-0.4-0.2-0.6c-5.3,1.9-9,5-11.4,8.6c-3.1,4.7-4.3,10.2-4.7,15.2
			C395.2,428.5,396.7,434.7,396.7,434.7z"/>
		<path class="st21" d="M396.7,434.7c0.9-0.5,1.8-1.1,2.6-1.7c-2.9-5.8,0.9-17.7,0.9-17.7s-1.9,13.4,0.9,12.6
			c2.8-0.8,10.8-22.8,9.3-23.1c-1.5-0.2-6.6,3.1-6.9,3.3c1.3-3.4,9.4-7.2,9.4-7.2c-0.2-0.7-0.4-1.4-0.6-2.2
			c-0.1-0.3-0.2-0.6-0.3-0.9c-0.1-0.2-0.1-0.4-0.2-0.6c-5.3,1.9-9,5-11.4,8.6c-3.1,4.7-4.3,10.2-4.7,15.2
			C395.2,428.5,396.7,434.7,396.7,434.7z"/>
		<path class="st22" d="M411.2,399l0.7,1.4c0,0-16.2,3.5-13.7,32.3l-1.1,0.9C397.2,433.6,391.7,407.9,411.2,399z"/>
		<path class="st22" d="M442.7,224.3c0,0-21.7,11.9-33.6,35.8C409.1,260.2,424.7,240.3,442.7,224.3z"/>
		<path class="st22" d="M407.4,283.5c0,0-3.1,11.4-3.1,13.7C404.3,299.4,408.8,286.1,407.4,283.5z"/>
		<path class="st12" d="M580.8,428.9c0,0,9.6-0.1,22.3-0.7c0,0,0,0,0,0c22.1-1,53.7-3.5,62.1-9.5c0,0,6.4-25.6-5.2-42.9
			c0,0-24.8-3.3-50.4-0.4c-13.6,1.5-27.5,4.8-38,11.3C571.6,386.6,563.2,411.5,580.8,428.9z"/>
		<path class="st26" d="M603.1,428.2c22.1-1,53.7-3.5,62.1-9.5c0,0,6.4-25.6-5.2-42.9c0,0-24.8-3.3-50.4-0.4
			C610.4,375.8,650.4,399.5,603.1,428.2z"/>
	</g>
	<g>
		<path class="st27" d="M691.1,454.2C691.1,454.2,691.1,454.2,691.1,454.2c0,0.1,0,0.2,0,0.3c0,0,0,0.1,0,0.2c0,0,0,0.1,0,0.1
			c0,0.1,0,0.2,0,0.3c0,0.3,0.1,0.7,0.1,1.2c0,0.5,0.1,1.1,0.2,1.8c0,0.3,0.1,0.6,0.1,0.8c0,0.4,0.1,0.9,0.1,1.4
			c0,0.4,0.1,0.8,0.1,1.3c0,0.1,0,0.2,0,0.2c0.1,0.6,0.1,1.2,0.2,1.9c0,0.2,0,0.4,0.1,0.6c0,0.2,0,0.4,0.1,0.7
			c0.2,2.8,0.5,6.1,0.8,9.7c0.1,1.1,0.2,2.3,0.3,3.5c0.3,3.3,0.6,6.9,0.9,10.7c0.1,1.2,0.2,2.5,0.3,3.8c0.1,1.4,0.2,2.9,0.4,4.4
			c0.2,1.9,0.3,3.8,0.5,5.7c0.2,2.7,0.4,5.5,0.7,8.4h3.5c0.1,0,0.2,0,0.2,0v0h29c-0.7-17.1-1.5-32.8-2.3-44.5
			c-0.1-1.6-0.2-3.1-0.3-4.5c0-0.5-0.1-1.1-0.2-1.6c0-0.2-0.1-0.5-0.1-0.7c0-0.3-0.1-0.7-0.1-1c-0.1-0.4-0.1-0.9-0.2-1.3
			c0,0,0-0.1,0-0.1c0-0.1,0-0.2-0.1-0.3c-0.4-2.8-1.1-5.1-1.8-7.1c-0.1-0.3-0.3-0.6-0.4-0.9c-0.1-0.2-0.2-0.4-0.3-0.6
			c-0.1-0.3-0.2-0.5-0.4-0.8c-0.1-0.3-0.3-0.6-0.5-0.8c-0.4-0.6-0.8-1.2-1.2-1.7c-0.2-0.2-0.4-0.5-0.6-0.7c-0.2-0.2-0.3-0.3-0.5-0.5
			c-0.1-0.1-0.2-0.2-0.3-0.3c-0.1-0.1-0.2-0.1-0.2-0.2c-0.1-0.1-0.2-0.1-0.2-0.2c-6.8-5.5-16.8,1-22.8,5.9c-0.4,0.3-0.8,0.6-1.1,0.9
			c-0.3,0.3-0.6,0.5-0.8,0.7c-0.8,0.7-1.5,1.4-2,1.9C691.5,453.7,691.1,454.2,691.1,454.2z"/>
		<path class="st28" d="M420,511.4h29v0c0,0,0.1,0,0.2,0h3.5c0.2-2,0.5-3.9,0.7-5.8c0.2-1.3,0.3-2.7,0.5-3.9c0.1-1,0.3-2,0.4-3
			c0.1-0.9,0.2-1.7,0.3-2.6c0.3-2.6,0.6-5.1,0.9-7.4c0.1-0.8,0.2-1.7,0.3-2.4c0.3-2.5,0.6-4.8,0.8-6.7c0-0.1,0-0.3,0-0.4
			c0-0.2,0-0.3,0.1-0.4c0.1-0.5,0.1-0.9,0.2-1.3c0-0.1,0-0.1,0-0.2c0-0.3,0.1-0.6,0.1-0.9c0-0.4,0.1-0.7,0.1-1
			c0-0.2,0.1-0.4,0.1-0.6c0.1-0.5,0.1-0.9,0.2-1.2c0-0.3,0.1-0.6,0.1-0.8c0-0.1,0-0.2,0-0.2c0,0,0-0.1,0-0.1c0,0,0-0.1,0-0.1
			c0-0.1,0-0.1,0-0.1c0,0,0-0.1,0-0.1s-0.1-0.1-0.4-0.3c0,0-0.1-0.1-0.2-0.1c-0.1-0.1-0.3-0.2-0.4-0.3c0,0-0.1-0.1-0.2-0.1
			c-0.5-0.4-1.2-0.8-2-1.3c-0.3-0.2-0.6-0.3-0.8-0.5c-0.4-0.2-0.7-0.4-1.1-0.6c-6-3.4-16-7.8-22.8-4.1c-0.1,0-0.2,0.1-0.2,0.2
			c-0.1,0-0.2,0.1-0.2,0.1c-0.1,0-0.2,0.1-0.3,0.2c-0.2,0.1-0.3,0.2-0.5,0.3c-0.2,0.2-0.4,0.3-0.6,0.5c-0.4,0.4-0.8,0.8-1.2,1.2
			c-0.2,0.2-0.3,0.4-0.5,0.6c-0.1,0.2-0.2,0.3-0.4,0.5c-0.1,0.1-0.2,0.3-0.3,0.4c-0.1,0.2-0.3,0.4-0.4,0.6c-0.7,1.3-1.3,3-1.8,4.9
			c0,0.1,0,0.2-0.1,0.2c0,0,0,0,0,0.1c-0.1,0.3-0.1,0.6-0.2,0.9c0,0.1,0,0.1,0,0.2c0,0.2-0.1,0.3-0.1,0.5c0,0.2-0.1,0.3-0.1,0.5
			c-0.1,0.4-0.1,0.7-0.2,1.1c-0.1,1-0.2,2-0.4,3.1l-0.1,0.6c-0.6,5.3-1.1,11.7-1.5,18.8c-0.1,1.3-0.2,2.6-0.3,3.9
			C420.3,506.5,420.2,508.9,420,511.4z"/>
		<path class="st29" d="M401.2,345c11.8-13.5,10.2-40.3,10.2-40.3c2.8-1,5.6-2.1,8.5-3.3l-1.1-4.6c-5.9,3.5-10,5.8-10.4,6
			c0.4-0.3,4.5-3.6,9.9-8.3c11.9-10.4,30-27.6,26.7-33.8c-2-3.8-4.7-5.2-7.6-5.4c-4.1-0.3-8.5,1.8-12,2.9
			c-2.9,0.9-8.9,5.6-14.6,10.1c0,0,0,0,0,0C410.4,269.3,397.7,308.5,401.2,345z"/>
		<path class="st30" d="M542.1,207.3c3.3,1.8,6.3,3.9,9.1,6h0c10.7,8.3,16.8,17.6,16.8,17.6s44,46.7,80.4,46.7
			c17.8,0,30.2-3.9,38.1-7.9c3.1-1.6,5.6-3.2,7.4-4.5c0,0-40-58-142.8-58C548.1,207.2,545.1,207.2,542.1,207.3z"/>
		<path class="st30" d="M406.2,263.8c8.5-7.6,22.7-21.4,35.3-38c1.7-2.2,3.5-4.3,5.3-6.2C425.1,228.6,414.4,242.8,406.2,263.8z"/>
		<path class="st30" d="M412.1,300.6c0.1,0.6,0.3,2.2,0.3,3.6c2.4-0.9,4.9-1.8,7.4-2.9c0.4-0.2,0.8-0.3,1.2-0.5
			c0.8-0.3,1.6-0.7,2.4-1.1c0.8-0.4,1.6-0.7,2.4-1.1c0,0,0,0,0.1,0c0.8-0.4,1.6-0.8,2.4-1.1c4-1.9,7.9-4,11.7-6.1
			c18.7-10.4,33.8-21.8,33.8-21.8c13.9-7.3,26.3-8.6,37.1-6.2c20.6,4.5,34.8,22.8,40.4,39.2c8.4,25,50.7,62.8,97.2,62.8
			c30.4,0,49.9-26,59.8-43.9c2.8-12,2.5-21.5,2.5-21.5c-1.9,3.1-3.5,6.8-3.5,6.8s-17.6,52.1-58.8,52.1c-57.6,0-87.2-56.1-87.2-56.1
			s-10-40.9-42-45.7c-32-4.8-40.3-0.8-55.9,11.2c-4.9,3.8-12.1,8.5-19.7,13.3c-2.1,1.3-4.2,2.7-6.3,4c-0.5,0.3-1,0.6-1.6,1
			c-4.9,3-9.6,5.8-13.8,8.3c-1.1,0.7-2.1,1.3-3.1,1.9C416.1,298.3,413.8,299.6,412.1,300.6z"/>
		<path class="st31" d="M397.9,277.6c1.2,0,6.8-4.6,12.8-9.4c0,0,0,0,0,0c5.7-4.5,11.7-9.1,14.6-10.1c3.5-1.1,7.9-3.2,12-2.9
			c2.9,0.2,5.6,1.6,7.6,5.4c3.3,6.2-14.8,23.5-26.7,33.8c-5.4,4.7-9.5,8-9.9,8.3c0.2-0.1,1.6-0.9,3.8-2.2c1.7-1,4-2.3,6.6-3.9
			c1-0.6,2-1.2,3.1-1.9c4.1-2.5,8.9-5.3,13.8-8.3c0.5-0.3,1-0.6,1.6-1c2.1-1.3,4.2-2.6,6.3-4c7.6-4.8,14.8-9.6,19.7-13.3
			c15.6-12,23.9-16,55.9-11.2c32,4.8,42,45.7,42,45.7s12.2,23,36,39.6c13.4,9.3,30.5,16.5,51.2,16.5c41.2,0,58.8-52.1,58.8-52.1
			s1.6-3.7,3.5-6.8c0.8-1.3,1.7-2.6,2.5-3.4c2.8-2.6,0-30-14.8-35.4c0,0-1.4,1.7-4.5,4c-6.5,4.9-20.8,12.4-45.6,12.4
			c-7.7,0-15.7-2.1-23.6-5.4C595.4,260,568,230.9,568,230.9s-9.5-14.6-25.8-23.7c-6.9-3.8-15-6.7-24.2-7c-28-0.9-52.9,1-71.1,19.4
			c-1.9,1.9-3.6,3.9-5.3,6.2c-12.6,16.6-26.8,30.5-35.3,38c-3.9,3.4-6.6,5.6-7.5,6.1C395.9,271.4,395.5,277.6,397.9,277.6z"/>
		<path class="st32" d="M400.4,345.8c3.6,5.6,28.6,37.8,136.4,51.6c30.2,3.9,67,6.3,111.6,6.3c41.3,0,66.6-95.5,67.5-99
			c-0.3,0.9-2.8,7.8-7.7,16.7c-9.9,18-29.4,43.9-59.8,43.9c-23.1,0-45.2-9.3-62.6-21.8c-0.1-0.1-0.2-0.2-0.3-0.2
			c-17.4-12.6-30.1-28.3-34.3-40.8c-5.5-16.4-19.7-34.7-40.4-39.2c-10.7-2.4-23.2-1-37.1,6.2c0,0-15.1,11.3-33.8,21.8
			c-3.8,2.1-7.7,4.2-11.7,6.1c-0.8,0.4-1.6,0.8-2.4,1.1c0,0,0,0-0.1,0c-0.8,0.4-1.6,0.7-2.4,1.1c-0.8,0.4-1.6,0.7-2.4,1.1
			c-0.4,0.2-0.8,0.4-1.2,0.5c-2.5,1-5,2-7.4,2.9c-0.4,0.1-0.7,0.3-1.1,0.4c0,0,1.6,26.8-10.2,40.3
			C400.9,345.3,400.6,345.6,400.4,345.8z"/>
		<path class="st30" d="M482.1,511.4h228.5c6-37.6,10-88.8-8.5-105.2c0,0-66.1-3.8-132.3-2.6c0,0-94.6,9.1-107,13.8
			C455.3,420.4,469.6,471.3,482.1,511.4z"/>
		<path class="st30" d="M467.6,330.1c3.8,8.8,10.7,15,19.6,16.5c9.7,1.6,19.7-2.8,27.5-11c0,0,0,0,0,0c5.8-6.2,10.4-14.5,12.6-24
			c5.1-22.1-4.6-42.4-21.7-45.2c-17-2.8-35,12.8-40,35C463.1,312,464.1,322.1,467.6,330.1z"/>
		<path class="st31" d="M452.9,400.3c0,0,5.9,37.5,13.4,74.6c2.6,12.7,5.4,25.4,8.3,36.5h241c1.1-11.1,1.5-21.4,4-35.4
			c4.4-24.2-4.4-63.7-11.6-70.5c-7.2-6.8-15.6-3.8-19.6-3.8c-4,0,4,40.3-6,42.5c-14.2-7.8-45.9-9.1-77.9-8c-5.5,0.2-11,0.5-16.4,0.8
			c-38.6,2.3-73.4,7.2-73.4,7.2l-24.4-42.5c0,0-13.4-5.3-25.8-4.6C460.4,397.4,456.3,398.3,452.9,400.3z"/>
		<path class="st33" d="M696.9,430.5c1,8.5,6.2,20.5,12.3,18.5c6.7-2.2,18.8,2.3,20.1,3.1c1.3,0.8,6.2,4.1,8.4,1.4
			c3.4-3.9,2.5-11.1,1.6-15.5c-0.4-2.1-0.9-3.5-0.9-3.5l-1.4-7.1c0,0-40.7-7.4-40.4,1C696.8,429.1,696.8,429.8,696.9,430.5z"/>
		<path class="st34" d="M696.9,430.5L696.9,430.5c0,0,26.5-2.1,33.6-0.2c3.7,1,6.8,4.6,9,7.8c-0.4-2.1-0.9-3.5-0.9-3.5l-1.4-7.1
			c0,0-40.7-7.4-40.4,1C696.8,429.1,696.8,429.8,696.9,430.5z"/>
		<path class="st35" d="M689.7,419.2c0,0,10.2-19.4,32.4-25c22.2-5.6,20,44.1,20,44.1s-9.7-9.8-13.9-10.3
			c-8.2-1.1-29.1-1.2-34.4,1.2C693.8,429.1,690,424.5,689.7,419.2z"/>
		<path class="st36" d="M741.2,418.2c0.2,0.5,0.4,0.9,0.6,1.3c0,0,0,0,0,0c0.2,0.3,0.3,0.6,0.5,0.9c0,0-0.6-3.4-1.5-7.4
			c-0.6-2.7-1.4-5.7-2.3-8.2c-0.7-1.9-1.4-3.6-2.1-4.5c0,0.1,0,0.2,0,0.3c0,0.2,0.1,0.3,0.1,0.5
			C737.5,407.8,739.6,414.4,741.2,418.2z"/>
		<path class="st37" d="M476.8,317c1.8,7.8,6.8,13.6,13.8,14.8c5.3,0.9,10.7-1.1,15.2-4.9c0,0,0,0,0,0c4.7-4,8.4-10,10-17.1
			c3.2-13.9-2.9-26.7-13.6-28.5c-10.7-1.8-22,8.1-25.2,22C475.9,308.1,475.9,312.8,476.8,317z"/>
		<path class="st30" d="M407.3,280.6c0,0,9.1,9.1-3.6,17C403.7,297.6,404.1,287.6,407.3,280.6z"/>
		<path class="st38" d="M542.1,207.3c3.3,1.8,6.3,3.9,9.1,6h0c47.3-0.3,58,10.5,58,10.5c-11.6-3.4-29.2,0-29.2,2.7
			c0,2.7,29.2,24.2,46.8,34c17.6,9.8,45.2,6.8,47.2,3.3c2-3.5-7-12.5-7-12.5c10.6,4.8,19.6,18.3,19.6,18.3c3.1-1.6,5.6-3.2,7.4-4.5
			c0,0-40-58-142.8-58C548.1,207.2,545.1,207.2,542.1,207.3z"/>
		<path class="st39" d="M691.1,265c0,0-43.6-56.3-141.7-56.3l3.6,2.2c0,0,76.8-3.6,135.7,54.1H691.1z"/>
		
			<ellipse transform="matrix(0.3706 -0.9288 0.9288 0.3706 165.1741 745.9784)" class="st30" cx="633" cy="251.1" rx="14.9" ry="25.1"/>
		<path class="st38" d="M467.6,330.1L467.6,330.1c-0.6-13.4,3.4-26.4,5-30.8c-2.4,8.4,4.3,17.7,4.3,17.7l0,0c-1-4.1-1-8.8,0.2-13.7
			c3.2-14,14.5-23.8,25.2-22c10.7,1.8,16.8,14.5,13.6,28.5c-1.6,7.1-5.3,13.1-10,17.1c11.5-5.1,15.3-18.6,15.3-18.6
			c2.7,8.1-6.3,26.9-6.5,27.4c5.8-6.2,10.4-14.5,12.6-24c5.1-22.1-4.6-42.4-21.7-45.2c-17-2.8-35,12.8-40,35
			C463.1,312,464.1,322.1,467.6,330.1z"/>
		<path class="st39" d="M478.1,283.7c0,0,9.8-14.3,27-12.9s19.8,26.8,19.8,26.8s0-27.7-18.8-30.1
			C487.3,265.1,478.1,283.7,478.1,283.7z"/>
		<path class="st40" d="M597.2,342.4c13.4,9.3,30.5,16.5,51.2,16.5c41.2,0,58.8-52.1,58.8-52.1s1.6-3.7,3.5-6.8
			c0.8-1.3,1.7-2.6,2.5-3.4c2.8-2.6,0-30-14.8-35.4c0,0-1.4,1.7-4.5,4c-6.5,4.9-20.8,12.4-45.6,12.4c-7.7,0-15.7-2.1-23.6-5.4
			c0,0,26,17.2,54.4,14.8c0,0,5.6,6.4,0,13.8C644.8,317.4,641.7,341.2,597.2,342.4z"/>
		<path class="st40" d="M536.8,397.4c30.2,3.9,67,6.3,111.6,6.3c41.3,0,66.6-95.5,67.5-99c-0.3,0.9-2.8,7.8-7.7,16.7
			c-9.9,18-29.4,43.9-59.8,43.9c-23.1,0-45.2-9.3-62.6-21.8c-0.3,0.2-0.5,0.3-0.5,0.3c-0.1,0.3-0.2,0.6-0.3,1
			C582.9,353.3,571,391.1,536.8,397.4z"/>
		<path class="st40" d="M596.1,511.4h119.6c1.1-11.1,1.5-21.4,4-35.4c4.4-24.2-4.4-63.7-11.6-70.5c-7.2-6.8-15.6-3.8-19.6-3.8
			c-4,0,4,40.3-6,42.5c-14.2-7.8-45.9-9.1-77.9-8c5.7,1.2,12.9,3.9,21.8,9.2C644.6,456.3,616.2,490.5,596.1,511.4z"/>
		<path class="st41" d="M449.6,501.7l-1.1,9.7h0.6v0c0,0,0.1,0,0.2,0h3.5c0.2-2,0.5-3.9,0.7-5.8c0.2-1.3,0.3-2.7,0.5-3.9
			c0.1-1,0.3-2,0.4-3c0.1-0.9,0.2-1.7,0.3-2.6c0.3-2.6,0.6-5.1,0.9-7.4c0.1-0.8,0.2-1.7,0.3-2.4c0.3-2.5,0.6-4.8,0.8-6.7
			c0-0.1,0-0.3,0-0.4c0-0.2,0-0.3,0.1-0.4c0.1-0.5,0.1-0.9,0.2-1.3c0-0.1,0-0.1,0-0.2c0-0.3,0.1-0.6,0.1-0.9c0-0.4,0.1-0.7,0.1-1
			c0-0.2,0.1-0.4,0.1-0.6c0.1-0.5,0.1-0.9,0.2-1.2c0-0.3,0.1-0.6,0.1-0.8c0-0.1,0-0.2,0-0.2c0,0,0-0.1,0-0.1c0,0,0-0.1,0-0.1
			c0-0.1,0-0.1,0-0.1c0,0,0-0.1,0-0.1s-0.1-0.1-0.4-0.3c0,0-0.1-0.1-0.2-0.1c-0.1-0.1-0.3-0.2-0.4-0.3c-11-1.6-27.4,2.4-33.5,4.3
			c0,0.2-0.1,0.3-0.1,0.5c0,0.2-0.1,0.3-0.1,0.5c-0.1,0.4-0.1,0.7-0.2,1.1c-0.1,1-0.2,2-0.4,3.1c0,0,26.9-5.2,29-4.9
			c2.1,0.4-1.4,21.2-1.4,21.2s-18.6,1.6-29.3,3.1c-0.1,1.3-0.2,2.6-0.3,3.9L449.6,501.7z"/>
		<path class="st40" d="M452.9,400.3c0,0,5.9,37.5,13.4,74.6c9.8-4.6,18.2-28,18.2-28s1.9,3.2,4.6,0c2.7-3.2,11.7-11.2,11-19.3
			c-0.7-7.8-33.6-29.2-35.6-30.5C460.4,397.4,456.3,398.3,452.9,400.3z"/>
		<path class="st42" d="M404.9,478.4c4.3,4,13.4-0.9,16-2c0.4-0.2,1.1-0.4,2.2-0.8c6.1-1.9,22.5-5.9,33.5-4.3
			c0.8,0.1,1.7,0.3,2.4,0.5c11.7,2.9,21.4-14.8,23.3-27.2c0.2-1.1,0.3-2.1,0.3-3.1c0.6-12.3-76.4-1.4-76.4-1.4l-2.7,10.4
			c0,0-0.9,2.1-1.7,5.2C400,462,398.5,472.7,404.9,478.4z"/>
		<path class="st43" d="M482.3,444.6L482.3,444.6c0,0-50.1-3.1-63.6-0.4c-7,1.5-12.9,6.7-17,11.4c0.8-3.1,1.7-5.2,1.7-5.2l2.7-10.4
			c0,0,77.1-10.9,76.5,1.4C482.6,442.4,482.5,443.5,482.3,444.6z"/>
		<path class="st42" d="M495,427.8c0,0-19.3-28.6-61.3-36.7c-42-8.2-37.9,64.9-37.9,64.9s18.3-14.4,26.3-15.2
			c15.5-1.7,55-1.7,65.1,1.7C487.2,442.5,494.4,435.8,495,427.8z"/>
		<path class="st30" d="M396.7,433.5c0.9-0.5,1.8-1.1,2.6-1.7c0,0,0,0,0,0c1-0.7,2-1.5,2.9-2.4c7.4-6.8,13.4-18.1,10.7-29.6
			c-0.2-0.7-0.4-1.4-0.6-2.2c-0.1-0.3-0.2-0.6-0.3-0.9c-0.1-0.2-0.1-0.4-0.2-0.6c-5.3,1.9-9,5-11.4,8.6c-3.1,4.7-4.3,10.2-4.7,15.2
			C395.2,427.4,396.7,433.5,396.7,433.5z"/>
		<path class="st38" d="M396.7,433.5c0.9-0.5,1.8-1.1,2.6-1.7c-2.9-5.8,0.9-17.7,0.9-17.7s-1.9,13.4,0.9,12.6
			c2.8-0.8,10.8-22.8,9.3-23.1c-1.5-0.2-6.6,3.1-6.9,3.3c1.3-3.4,9.4-7.2,9.4-7.2c-0.2-0.7-0.4-1.4-0.6-2.2
			c-0.1-0.3-0.2-0.6-0.3-0.9c-0.1-0.2-0.1-0.4-0.2-0.6c-5.3,1.9-9,5-11.4,8.6c-3.1,4.7-4.3,10.2-4.7,15.2
			C395.2,427.4,396.7,433.5,396.7,433.5z"/>
		<path class="st39" d="M411.2,397.8l0.7,1.4c0,0-16.2,3.5-13.7,32.3l-1.1,0.9C397.2,432.4,391.7,406.7,411.2,397.8z"/>
		<path class="st39" d="M442.7,223.2c0,0-21.7,11.9-33.6,35.8C409.1,259,424.7,239.2,442.7,223.2z"/>
		<path class="st39" d="M407.4,282.3c0,0-3.1,11.4-3.1,13.7S408.8,285,407.4,282.3z"/>
		<path class="st29" d="M580.8,427.7c0,0,9.6-0.1,22.3-0.7c0,0,0,0,0,0c22.1-1,53.7-3.5,62.1-9.5c0,0,6.4-25.6-5.2-42.9
			c0,0-24.8-3.3-50.4-0.4c-13.6,1.5-27.5,4.8-38,11.3C571.6,385.5,563.2,410.3,580.8,427.7z"/>
		<path class="st43" d="M603.1,427c22.1-1,53.7-3.5,62.1-9.5c0,0,6.4-25.6-5.2-42.9c0,0-24.8-3.3-50.4-0.4
			C610.4,374.6,650.4,398.3,603.1,427z"/>
	</g>
</g>
</svg>
