<?xml version="1.0" encoding="utf-8"?>
<!-- Generator: Adobe Illustrator 27.3.1, SVG Export Plug-In . SVG Version: 6.00 Build 0)  -->
<svg version="1.1" id="Camada_1" xmlns="http://www.w3.org/2000/svg" xmlns:xlink="http://www.w3.org/1999/xlink" x="0px" y="0px"
	 viewBox="0 0 780 512" style="enable-background:new 0 0 780 512;" xml:space="preserve">
<style type="text/css">
	.st0{fill:#F6F4B0;}
	.st1{fill:#CCC885;}
	.st2{fill:#00858C;stroke:#52EFFF;stroke-width:12;stroke-miterlimit:10;}
	.st3{fill:#E14F1D;}
	.st4{fill:#77FF00;}
	.st5{fill:#FFED69;}
	.st6{fill:#E600FF;}
	.st7{fill:#FFFFFF;}
	.st8{fill:#8B9AA3;stroke:#000000;stroke-width:10;stroke-miterlimit:10;}
	.st9{fill:#B1BCC4;stroke:#000000;stroke-width:10;stroke-miterlimit:10;}
	.st10{fill:#1B2941;stroke:#000000;stroke-width:10;stroke-miterlimit:10;}
	.st11{fill:#006AFF;stroke:#000000;stroke-width:10;stroke-miterlimit:10;}
	.st12{fill:#D5DEEB;stroke:#000000;stroke-width:10;stroke-miterlimit:10;}
	.st13{fill:#EAEFF1;stroke:#000000;stroke-width:10;stroke-miterlimit:10;}
	.st14{fill:#081321;stroke:#000000;stroke-width:10;stroke-miterlimit:10;}
	.st15{fill:#040C16;stroke:#000000;stroke-width:10;stroke-miterlimit:10;}
	.st16{fill:#091523;stroke:#000000;stroke-width:10;stroke-miterlimit:10;}
	.st17{fill:#004DAA;stroke:#000000;stroke-width:10;stroke-miterlimit:10;}
	.st18{fill:#182338;stroke:#000000;stroke-width:10;stroke-miterlimit:10;}
	.st19{fill:#0098FF;stroke:#000000;stroke-width:10;stroke-miterlimit:10;}
	.st20{fill:#52EFFF;stroke:#000000;stroke-width:10;stroke-miterlimit:10;}
	.st21{fill:#BEC9D3;stroke:#000000;stroke-width:10;stroke-miterlimit:10;}
	.st22{fill:#9CA7AF;stroke:#000000;stroke-width:10;stroke-miterlimit:10;}
	.st23{fill:#121F32;stroke:#000000;stroke-width:10;stroke-miterlimit:10;}
	.st24{fill:#0C1829;stroke:#000000;stroke-width:10;stroke-miterlimit:10;}
	.st25{fill:#8B9AA3;}
	.st26{fill:#B1BCC4;}
	.st27{fill:#1B2941;}
	.st28{fill:#006AFF;}
	.st29{fill:#D5DEEB;}
	.st30{fill:#EAEFF1;}
	.st31{fill:#081321;}
	.st32{fill:#040C16;}
	.st33{fill:#091523;}
	.st34{fill:#004DAA;}
	.st35{fill:#182338;}
	.st36{fill:#0098FF;}
	.st37{fill:#52EFFF;}
	.st38{fill:#BEC9D3;}
	.st39{fill:#9CA7AF;}
	.st40{fill:#121F32;}
	.st41{fill:#0C1829;}
</style>
<g>
	<polygon class="st0" points="732.3,109.1 732.3,511.9 49.7,511.9 49.7,211.9 	"/>
	<polygon class="st1" points="732.3,-0.1 732.3,109.1 49.7,211.9 49.7,-0.1 	"/>
	<path class="st2" d="M295.3,457V47.8c0-13.8,11.2-25,25-25h255.2c13.8,0,25,11.2,25,25V457c0,13.8-11.2,25-25,25H320.3
		C306.5,482,295.3,470.8,295.3,457z"/>
	<g>
		<rect x="314.9" y="55.1" class="st3" width="14.7" height="8.3"/>
		<rect x="314.9" y="71.1" class="st3" width="14.7" height="8.3"/>
		<rect x="314.9" y="86.1" class="st3" width="14.7" height="8.3"/>
		<rect x="315.2" y="101" class="st3" width="14.7" height="8.3"/>
		<rect x="326.4" y="116.8" class="st3" width="10.7" height="8.3"/>
		<rect x="332" y="132.6" class="st3" width="10.7" height="8.3"/>
		<rect x="326.7" y="148.6" class="st3" width="10.7" height="8.3"/>
		<rect x="331.7" y="211.8" class="st3" width="10.7" height="8.3"/>
		<rect x="331.7" y="241.8" class="st3" width="10.7" height="8.3"/>
		<rect x="353.7" y="399.4" class="st3" width="5.9" height="8.3"/>
		<rect x="396.6" y="444.9" class="st3" width="27.6" height="8.3"/>
		<rect x="427.8" y="444.9" class="st3" width="15.4" height="8.3"/>
		<rect x="332.6" y="54.8" class="st4" width="16.4" height="8.3"/>
		<rect x="340" y="116.8" class="st4" width="18.8" height="8.3"/>
		<rect x="345.3" y="132.6" class="st4" width="23.2" height="8.3"/>
		<rect x="315.3" y="179.7" class="st4" width="22.1" height="8.3"/>
		<rect x="371.4" y="179.7" class="st4" width="21.8" height="8.3"/>
		<rect x="454.9" y="86.1" class="st4" width="8.2" height="8.3"/>
		<rect x="356" y="273.8" class="st4" width="8.8" height="8.3"/>
		<rect x="356" y="288.9" class="st4" width="8.8" height="8.3"/>
		<rect x="356" y="304.8" class="st4" width="8.8" height="8.3"/>
		<rect x="356" y="320.8" class="st4" width="8.8" height="8.3"/>
		<rect x="451.8" y="148.6" class="st4" width="16.4" height="8.3"/>
		<rect x="503.6" y="148.6" class="st4" width="16.4" height="8.3"/>
		<rect x="367" y="273.8" class="st4" width="18.8" height="8.3"/>
		<rect x="367" y="288.9" class="st4" width="26.9" height="8.3"/>
		<rect x="367" y="304.8" class="st4" width="18.8" height="8.3"/>
		<rect x="367" y="320.8" class="st4" width="18.8" height="8.3"/>
		<rect x="397.1" y="288.9" class="st4" width="8.8" height="8.3"/>
		<rect x="426.4" y="304.8" class="st4" width="21.8" height="8.3"/>
		<rect x="425.3" y="273.9" class="st4" width="21.8" height="8.3"/>
		<rect x="445.1" y="288.9" class="st4" width="21.8" height="8.3"/>
		<rect x="443.3" y="320.9" class="st4" width="21.8" height="8.3"/>
		<rect x="346" y="101" class="st3" width="24.8" height="8.3"/>
		<rect x="332.8" y="86.1" class="st5" width="24.8" height="8.3"/>
		<rect x="388.4" y="101" class="st5" width="51.4" height="8.3"/>
		<rect x="450.4" y="70.4" class="st5" width="24.8" height="8.3"/>
		<rect x="441.1" y="336.1" class="st5" width="24.8" height="8.3"/>
		<rect x="470.2" y="336.1" class="st5" width="14.7" height="8.3"/>
		<rect x="375.5" y="444.9" class="st5" width="18.1" height="8.3"/>
		<rect x="446.3" y="444.9" class="st5" width="15.7" height="8.3"/>
		<rect x="379.7" y="429.5" class="st4" width="9.6" height="8.3"/>
		<rect x="321.1" y="320.8" class="st6" width="14.5" height="8.3"/>
		<rect x="321.1" y="304.8" class="st6" width="14.5" height="8.3"/>
		<rect x="321.1" y="289.4" class="st6" width="14.5" height="8.3"/>
		<rect x="321.1" y="273.8" class="st6" width="14.5" height="8.3"/>
		<rect x="396.8" y="304.8" class="st6" width="14.5" height="8.3"/>
		<rect x="415.8" y="288.9" class="st6" width="14.5" height="8.3"/>
		<rect x="397.6" y="273.8" class="st6" width="14.5" height="8.3"/>
		<rect x="426.4" y="179.7" class="st6" width="21.8" height="8.3"/>
		<rect x="427.5" y="211.8" class="st6" width="8.7" height="8.3"/>
		<rect x="431.9" y="148.6" class="st6" width="8.7" height="8.3"/>
		<rect x="482.9" y="148.6" class="st6" width="8.7" height="8.3"/>
		<rect x="400.7" y="70.4" class="st6" width="46.1" height="8.3"/>
		<rect x="357.6" y="71.1" class="st6" width="13.8" height="8.3"/>
		<rect x="363.9" y="86.1" class="st6" width="8.7" height="8.3"/>
		<rect x="427.4" y="320.9" class="st6" width="13" height="8.3"/>
		<rect x="392.2" y="414.1" class="st6" width="12.5" height="8.3"/>
		<rect x="416" y="414.1" class="st6" width="8.7" height="8.3"/>
		<rect x="332.6" y="71.1" class="st7" width="21.7" height="8.3"/>
		<rect x="374.5" y="70.4" class="st7" width="21.7" height="8.3"/>
		<rect x="480.7" y="70.4" class="st7" width="63.4" height="8.3"/>
		<rect x="466.1" y="86.1" class="st7" width="63.4" height="8.3"/>
		<rect x="532.7" y="86.1" class="st7" width="35.7" height="8.3"/>
		<rect x="377.2" y="86.1" class="st7" width="63.4" height="8.3"/>
		<rect x="522.6" y="148.6" class="st7" width="63.4" height="8.3"/>
		<rect x="339.7" y="148.2" class="st7" width="63.4" height="8.3"/>
		<rect x="405.6" y="148.2" class="st7" width="23.2" height="8.3"/>
		<rect x="442.3" y="148.2" class="st7" width="7.7" height="8.3"/>
		<rect x="471" y="148.6" class="st7" width="7.7" height="8.3"/>
		<rect x="493.2" y="148.6" class="st7" width="7.7" height="8.3"/>
		<rect x="370.7" y="132.6" class="st7" width="23.2" height="8.3"/>
		<rect x="361.3" y="116.8" class="st7" width="23.2" height="8.3"/>
		<rect x="331.8" y="101.4" class="st7" width="10.6" height="8.3"/>
		<rect x="372.9" y="101.4" class="st7" width="13.4" height="8.3"/>
		<rect x="441.7" y="86.1" class="st7" width="11.2" height="8.3"/>
		<rect x="340" y="179.7" class="st7" width="23.2" height="8.3"/>
		<rect x="395.1" y="180" class="st7" width="28.7" height="8.3"/>
		<rect x="364" y="180" class="st7" width="6.6" height="8.3"/>
		<rect x="325.8" y="164.1" class="st7" width="23.2" height="8.3"/>
		<rect x="351.6" y="164.1" class="st7" width="47.6" height="8.3"/>
		<rect x="321" y="195.7" class="st7" width="23.2" height="8.3"/>
		<rect x="368.3" y="195.7" class="st7" width="32.9" height="8.3"/>
		<rect x="350.2" y="195.3" class="st7" width="11.6" height="8.3"/>
		<rect x="346" y="211.8" class="st7" width="23.2" height="8.3"/>
		<rect x="371.4" y="211.8" class="st7" width="51.7" height="8.3"/>
		<rect x="331.5" y="227" class="st7" width="63.4" height="8.3"/>
		<rect x="344.3" y="241.8" class="st7" width="39.5" height="8.3"/>
		<rect x="386.3" y="241.8" class="st7" width="63.4" height="8.3"/>
		<rect x="331.5" y="257.8" class="st7" width="63.4" height="8.3"/>
		<rect x="339.1" y="273.9" class="st7" width="13.4" height="8.3"/>
		<rect x="339.5" y="289.4" class="st7" width="13.4" height="8.3"/>
		<rect x="339.5" y="304.9" class="st7" width="13.4" height="8.3"/>
		<rect x="339.5" y="320.4" class="st7" width="13.4" height="8.3"/>
		<rect x="387.1" y="305" class="st7" width="7.8" height="8.3"/>
		<rect x="388.2" y="320.9" class="st7" width="7.8" height="8.3"/>
		<rect x="387.1" y="273.8" class="st7" width="7.8" height="8.3"/>
		<rect x="407" y="289.4" class="st7" width="7.8" height="8.3"/>
		<rect x="414.1" y="273.9" class="st7" width="8.9" height="8.3"/>
		<rect x="449.6" y="273.9" class="st7" width="19.1" height="8.3"/>
		<rect x="431.9" y="288.9" class="st7" width="9.2" height="8.3"/>
		<rect x="451" y="305" class="st7" width="13.5" height="8.3"/>
		<rect x="470.2" y="289.4" class="st7" width="13.8" height="8.3"/>
		<rect x="467.7" y="320.8" class="st7" width="7.8" height="8.3"/>
		<rect x="409.5" y="336.1" class="st7" width="7.8" height="8.3"/>
		<rect x="489.5" y="336.1" class="st7" width="63.4" height="8.3"/>
		<rect x="342.4" y="336.1" class="st7" width="63.4" height="8.3"/>
		<rect x="420.2" y="336.1" class="st7" width="17.9" height="8.3"/>
		<rect x="315.2" y="336.1" class="st7" width="24.3" height="8.3"/>
		<rect x="414.1" y="305" class="st7" width="8.9" height="8.3"/>
		<rect x="362.8" y="383.4" class="st7" width="5.2" height="8.3"/>
		<rect x="370.5" y="366.9" class="st7" width="5.2" height="8.3"/>
		<rect x="377.1" y="351.7" class="st7" width="5.2" height="8.3"/>
		<rect x="407.3" y="320.4" class="st7" width="17.9" height="8.3"/>
		<rect x="398.5" y="320.9" class="st7" width="5.2" height="8.3"/>
		<rect x="339.5" y="414.5" class="st7" width="49.8" height="8.3"/>
		<rect x="407.3" y="414.5" class="st7" width="5.2" height="8.3"/>
		<rect x="427.8" y="414.1" class="st7" width="5.2" height="8.3"/>
		<rect x="339.5" y="429.5" class="st7" width="37.4" height="8.3"/>
		<rect x="328" y="445.8" class="st7" width="37.4" height="8.3"/>
		<rect x="368.1" y="445.8" class="st7" width="5.2" height="8.3"/>
	</g>
	<g>
		<path class="st8" d="M201.3,454.3C201.3,454.3,201.3,454.3,201.3,454.3c0,0.1,0,0.2,0,0.3c0,0,0,0.1,0,0.2c0,0,0,0.1,0,0.1
			c0,0.1,0,0.2,0,0.3c0,0.3-0.1,0.7-0.1,1.2c0,0.5-0.1,1.1-0.1,1.8c0,0.3,0,0.6-0.1,0.8c0,0.4-0.1,0.9-0.1,1.4
			c0,0.4-0.1,0.8-0.1,1.3c0,0.1,0,0.2,0,0.2c0,0.6-0.1,1.2-0.1,1.9c0,0.2,0,0.4,0,0.6c0,0.2,0,0.4,0,0.7c-0.2,2.8-0.4,6.1-0.7,9.7
			c-0.1,1.1-0.2,2.3-0.3,3.5c-0.2,3.3-0.5,6.9-0.8,10.7c-0.1,1.2-0.2,2.5-0.3,3.8c-0.1,1.4-0.2,2.9-0.3,4.4
			c-0.1,1.9-0.3,3.8-0.4,5.7c-0.2,2.7-0.4,5.5-0.6,8.4h-3c-0.1,0-0.2,0-0.2,0v0h-24.7c0.6-17.1,1.2-32.8,2-44.5
			c0.1-1.6,0.2-3.1,0.3-4.5c0-0.5,0.1-1.1,0.1-1.6c0-0.2,0-0.5,0.1-0.7c0-0.3,0.1-0.7,0.1-1c0-0.4,0.1-0.9,0.2-1.3c0,0,0-0.1,0-0.1
			c0-0.1,0-0.2,0-0.3c0.4-2.8,0.9-5.1,1.5-7.1c0.1-0.3,0.2-0.6,0.3-0.9c0.1-0.2,0.2-0.4,0.2-0.6c0.1-0.3,0.2-0.5,0.3-0.8
			c0.1-0.3,0.3-0.6,0.4-0.8c0.3-0.6,0.6-1.2,1-1.7c0.2-0.2,0.3-0.5,0.5-0.7c0.1-0.2,0.3-0.3,0.4-0.5c0.1-0.1,0.2-0.2,0.2-0.3
			c0.1-0.1,0.1-0.1,0.2-0.2c0.1-0.1,0.1-0.1,0.2-0.2c5.8-5.5,14.3,1,19.4,5.9c0.3,0.3,0.6,0.6,0.9,0.9c0.3,0.3,0.5,0.5,0.7,0.7
			c0.7,0.7,1.3,1.4,1.7,1.9C200.9,453.8,201.3,454.3,201.3,454.3z"/>
		<path class="st9" d="M431.8,511.5h-24.6v0c0,0-0.1,0-0.2,0h-3c-0.2-2-0.4-3.9-0.6-5.8c-0.1-1.3-0.3-2.7-0.4-3.9
			c-0.1-1-0.2-2-0.3-3c-0.1-0.9-0.2-1.7-0.3-2.6c-0.3-2.6-0.5-5.1-0.8-7.4c-0.1-0.8-0.2-1.7-0.2-2.4c-0.3-2.5-0.5-4.8-0.7-6.7
			c0-0.1,0-0.3,0-0.4c0-0.2,0-0.3-0.1-0.4c-0.1-0.5-0.1-0.9-0.1-1.3c0-0.1,0-0.1,0-0.2c0-0.3-0.1-0.6-0.1-0.9c0-0.4-0.1-0.7-0.1-1
			c0-0.2-0.1-0.4-0.1-0.6c-0.1-0.5-0.1-0.9-0.1-1.2c0-0.3-0.1-0.6-0.1-0.8c0-0.1,0-0.2,0-0.2c0,0,0-0.1,0-0.1c0,0,0-0.1,0-0.1
			c0-0.1,0-0.1,0-0.1c0,0,0-0.1,0-0.1s0.1-0.1,0.4-0.3c0,0,0.1-0.1,0.1-0.1c0.1-0.1,0.2-0.2,0.4-0.3c0,0,0.1-0.1,0.1-0.1
			c0.4-0.4,1-0.8,1.7-1.3c0.2-0.2,0.5-0.3,0.7-0.5c0.3-0.2,0.6-0.4,1-0.6c5.1-3.4,13.6-7.8,19.4-4.1c0.1,0,0.1,0.1,0.2,0.2
			c0.1,0,0.1,0.1,0.2,0.1c0.1,0,0.2,0.1,0.2,0.2c0.1,0.1,0.3,0.2,0.4,0.3c0.2,0.2,0.3,0.3,0.5,0.5c0.3,0.4,0.7,0.8,1,1.2
			c0.1,0.2,0.3,0.4,0.4,0.6c0.1,0.2,0.2,0.3,0.3,0.5c0.1,0.1,0.2,0.3,0.2,0.4c0.1,0.2,0.2,0.4,0.3,0.6c0.6,1.3,1.1,3,1.5,4.9
			c0,0.1,0,0.2,0,0.2c0,0,0,0,0,0.1c0.1,0.3,0.1,0.6,0.2,0.9c0,0.1,0,0.1,0,0.2c0,0.2,0,0.3,0.1,0.5c0,0.2,0.1,0.3,0.1,0.5
			c0.1,0.4,0.1,0.7,0.1,1.1c0.1,1,0.2,2,0.3,3.1l0.1,0.6c0.5,5.3,0.9,11.7,1.3,18.8c0.1,1.3,0.1,2.6,0.2,3.9
			C431.6,506.6,431.7,509,431.8,511.5z"/>
		<path class="st10" d="M447.9,345c-10-13.5-8.6-40.3-8.6-40.3c-2.4-1-4.8-2.1-7.2-3.3l0.9-4.6c5,3.5,8.5,5.8,8.8,6
			c-0.3-0.3-3.8-3.6-8.4-8.3c-10.1-10.4-25.5-27.6-22.8-33.8c1.7-3.8,4-5.2,6.5-5.4c3.4-0.3,7.2,1.8,10.2,2.9
			c2.5,0.9,7.6,5.6,12.4,10.1c0,0,0,0,0,0C440.1,269.4,450.9,308.6,447.9,345z"/>
		<path class="st11" d="M328,207.3c-2.8,1.8-5.4,3.9-7.7,6h0C311.1,221.7,306,231,306,231s-37.4,46.7-68.4,46.7
			c-15.2,0-25.7-3.9-32.4-7.9c-2.7-1.6-4.7-3.2-6.3-4.5c0,0,34-58,121.5-58C322.9,207.3,325.5,207.3,328,207.3z"/>
		<path class="st11" d="M443.6,263.9c-7.3-7.6-19.3-21.4-30.1-38c-1.4-2.2-3-4.3-4.6-6.2C427.5,228.7,436.6,242.9,443.6,263.9z"/>
		<path class="st11" d="M438.6,300.7c-0.1,0.6-0.2,2.2-0.2,3.6c-2.1-0.9-4.2-1.8-6.3-2.9c-0.3-0.2-0.7-0.3-1-0.5
			c-0.7-0.3-1.4-0.7-2.1-1.1c-0.7-0.4-1.4-0.7-2-1.1c0,0,0,0-0.1,0c-0.7-0.4-1.3-0.8-2-1.1c-3.4-1.9-6.7-4-10-6.1
			c-15.9-10.4-28.8-21.8-28.8-21.8c-11.8-7.3-22.4-8.6-31.5-6.2c-17.5,4.5-29.6,22.8-34.3,39.2c-7.1,25-43.2,62.8-82.7,62.8
			c-25.9,0-42.5-26-50.9-43.9c-2.4-12-2.1-21.5-2.1-21.5c1.6,3.1,3,6.8,3,6.8s15,52.1,50,52.1c49,0,74.2-56.1,74.2-56.1
			s8.5-40.9,35.8-45.7c27.2-4.8,34.3-0.8,47.6,11.2c4.2,3.8,10.3,8.5,16.8,13.3c1.8,1.3,3.6,2.7,5.4,4c0.4,0.3,0.9,0.6,1.3,1
			c4.1,3,8.2,5.8,11.7,8.3c0.9,0.7,1.8,1.3,2.7,1.9C435.2,298.4,437.1,299.7,438.6,300.7z"/>
		<path class="st12" d="M450.7,277.7c-1.1,0-5.8-4.6-10.9-9.4c0,0,0,0,0,0c-4.8-4.5-9.9-9.1-12.4-10.1c-3-1.1-6.8-3.2-10.2-2.9
			c-2.5,0.2-4.8,1.6-6.5,5.4c-2.8,6.2,12.6,23.5,22.8,33.8c4.6,4.7,8.1,8,8.4,8.3c-0.2-0.1-1.4-0.9-3.2-2.2c-1.5-1-3.4-2.3-5.6-3.9
			c-0.9-0.6-1.7-1.2-2.7-1.9c-3.5-2.5-7.6-5.3-11.7-8.3c-0.4-0.3-0.9-0.6-1.3-1c-1.8-1.3-3.6-2.6-5.4-4c-6.5-4.8-12.6-9.6-16.8-13.3
			c-13.3-12-20.3-16-47.6-11.2c-27.2,4.8-35.8,45.7-35.8,45.7s-10.3,23-30.7,39.6c-11.4,9.3-25.9,16.5-43.6,16.5
			c-35.1,0-50-52.1-50-52.1s-1.3-3.7-3-6.8c-0.7-1.3-1.4-2.6-2.2-3.4c-2.4-2.6,0-30,12.6-35.4c0,0,1.2,1.7,3.8,4
			c5.6,4.9,17.7,12.4,38.8,12.4c6.5,0,13.4-2.1,20.1-5.4C282.7,260.1,306,231,306,231s8.1-14.6,22-23.7c5.9-3.8,12.8-6.7,20.6-7
			c23.8-0.9,45,1,60.5,19.4c1.6,1.9,3.1,3.9,4.6,6.2c10.8,16.6,22.8,30.5,30.1,38c3.3,3.4,5.6,5.6,6.4,6.1
			C452.4,271.5,452.7,277.7,450.7,277.7z"/>
		<path class="st13" d="M448.5,345.9c-3.1,5.6-24.3,37.8-116,51.6c-25.7,3.9-57,6.3-94.9,6.3c-35.1,0-56.7-95.5-57.4-99
			c0.3,0.9,2.4,7.8,6.6,16.7c8.4,18,25,43.9,50.9,43.9c19.7,0,38.4-9.3,53.2-21.8c0.1-0.1,0.2-0.2,0.3-0.2
			c14.8-12.6,25.6-28.3,29.2-40.8c4.7-16.4,16.8-34.7,34.3-39.2c9.1-2.4,19.7-1,31.5,6.2c0,0,12.8,11.3,28.8,21.8
			c3.2,2.1,6.6,4.2,10,6.1c0.7,0.4,1.3,0.8,2,1.1c0,0,0,0,0.1,0c0.7,0.4,1.4,0.7,2,1.1c0.7,0.4,1.4,0.7,2.1,1.1
			c0.3,0.2,0.7,0.4,1,0.5c2.1,1,4.2,2,6.3,2.9c0.3,0.1,0.6,0.3,0.9,0.4c0,0-1.4,26.8,8.6,40.3C448.1,345.3,448.3,345.6,448.5,345.9z
			"/>
		<path class="st11" d="M379,511.5H184.6c-5.1-37.6-8.5-88.8,7.3-105.2c0,0,56.2-3.8,112.6-2.6c0,0,80.5,9.1,91.1,13.8
			C401.9,420.4,389.7,471.4,379,511.5z"/>
		<path class="st11" d="M391.4,330.2c-3.3,8.8-9.1,15-16.7,16.5c-8.3,1.6-16.8-2.8-23.4-11c0,0,0,0,0,0c-5-6.2-8.9-14.5-10.7-24
			c-4.3-22.1,3.9-42.4,18.4-45.2c14.5-2.8,29.7,12.8,34.1,35C395.2,312,394.4,322.1,391.4,330.2z"/>
		<path class="st12" d="M403.9,400.4c0,0-5,37.5-11.4,74.6c-2.2,12.7-4.6,25.4-7,36.5h-205c-1-11.1-1.3-21.4-3.4-35.4
			c-3.7-24.2,3.8-63.7,9.9-70.5c6.1-6.8,13.3-3.8,16.7-3.8c3.4,0-3.4,40.3,5.1,42.5c12.1-7.8,39-9.1,66.2-8c4.7,0.2,9.3,0.5,14,0.8
			c32.8,2.3,62.4,7.2,62.4,7.2l20.8-42.5c0,0,11.4-5.3,21.9-4.6C397.5,397.5,401,398.4,403.9,400.4z"/>
		<path class="st14" d="M196.3,430.6c-0.9,8.5-5.3,20.5-10.5,18.5c-5.7-2.2-16,2.3-17.1,3.1c-1.1,0.8-5.3,4.1-7.2,1.4
			c-2.9-3.9-2.2-11.1-1.4-15.5c0.4-2.1,0.8-3.5,0.8-3.5l1.2-7.1c0,0,34.6-7.4,34.4,1C196.4,429.2,196.4,429.9,196.3,430.6z"/>
		<path class="st15" d="M196.3,430.6L196.3,430.6c0,0-22.5-2.1-28.6-0.2c-3.2,1-5.8,4.6-7.6,7.8c0.4-2.1,0.8-3.5,0.8-3.5l1.2-7.1
			c0,0,34.6-7.4,34.4,1C196.4,429.2,196.4,429.9,196.3,430.6z"/>
		<path class="st16" d="M202.5,419.2c0,0-8.7-19.4-27.6-25c-18.9-5.6-17,44.1-17,44.1s8.2-9.8,11.8-10.3c7-1.1,24.7-1.2,29.2,1.2
			C198.9,429.2,202.2,424.6,202.5,419.2z"/>
		<path class="st17" d="M158.7,418.3c-0.2,0.5-0.3,0.9-0.5,1.3c0,0,0,0,0,0c-0.1,0.3-0.3,0.6-0.4,0.9c0,0,0.5-3.4,1.3-7.4
			c0.5-2.7,1.2-5.7,1.9-8.2c0.6-1.9,1.2-3.6,1.8-4.5c0,0.1,0,0.2,0,0.3c0,0.2,0,0.3-0.1,0.5C161.8,407.9,160,414.5,158.7,418.3z"/>
		<path class="st18" d="M383.5,317c-1.5,7.8-5.8,13.6-11.7,14.8c-4.5,0.9-9.1-1.1-12.9-4.9c0,0,0,0,0,0c-4-4-7.1-10-8.5-17.1
			c-2.7-13.9,2.5-26.7,11.6-28.5c9.1-1.8,18.7,8.1,21.5,22C384.3,308.2,384.3,312.9,383.5,317z"/>
		<path class="st11" d="M442.7,280.6c0,0-7.7,9.1,3,17C445.7,297.7,445.4,287.7,442.7,280.6z"/>
		<path class="st19" d="M328,207.3c-2.8,1.8-5.4,3.9-7.7,6h0c-40.2-0.3-49.3,10.5-49.3,10.5c9.9-3.4,24.9,0,24.9,2.7
			c0,2.7-24.9,24.2-39.8,34c-15,9.8-38.5,6.8-40.2,3.3c-1.7-3.5,6-12.5,6-12.5c-9,4.8-16.6,18.3-16.6,18.3c-2.7-1.6-4.7-3.2-6.3-4.5
			c0,0,34-58,121.5-58C322.9,207.3,325.5,207.3,328,207.3z"/>
		<path class="st20" d="M201.3,265c0,0,37.1-56.3,120.5-56.3l-3.1,2.2c0,0-65.4-3.6-115.4,54.1H201.3z"/>
		<ellipse transform="matrix(0.866 -0.5 0.5 0.866 -92.0105 158.9998)" class="st11" cx="250.7" cy="251.2" rx="22.1" ry="14.4"/>
		<path class="st19" d="M391.4,330.2L391.4,330.2c0.5-13.4-2.9-26.4-4.2-30.8c2,8.4-3.6,17.7-3.6,17.7l0,0c0.8-4.1,0.8-8.8-0.1-13.7
			c-2.7-14-12.3-23.8-21.5-22c-9.1,1.8-14.3,14.5-11.6,28.5c1.4,7.1,4.5,13.1,8.5,17.1c-9.8-5.1-13-18.6-13-18.6
			c-2.3,8.1,5.3,26.9,5.5,27.4c-5-6.2-8.9-14.5-10.7-24c-4.3-22.1,3.9-42.4,18.4-45.2c14.5-2.8,29.7,12.8,34.1,35
			C395.2,312,394.4,322.1,391.4,330.2z"/>
		<path class="st20" d="M382.4,283.8c0,0-8.3-14.3-23-12.9c-14.6,1.4-16.9,26.8-16.9,26.8s0-27.7,16-30.1
			C374.6,265.2,382.4,283.8,382.4,283.8z"/>
		<path class="st21" d="M281.1,342.5c-11.4,9.3-25.9,16.5-43.6,16.5c-35.1,0-50-52.1-50-52.1s-1.3-3.7-3-6.8
			c-0.7-1.3-1.4-2.6-2.2-3.4c-2.4-2.6,0-30,12.6-35.4c0,0,1.2,1.7,3.8,4c5.6,4.9,17.7,12.4,38.8,12.4c6.5,0,13.4-2.1,20.1-5.4
			c0,0-22.1,17.2-46.3,14.8c0,0-4.8,6.4,0,13.8C240.6,317.5,243.3,341.3,281.1,342.5z"/>
		<path class="st21" d="M332.5,397.5c-25.7,3.9-57,6.3-94.9,6.3c-35.1,0-56.7-95.5-57.4-99c0.3,0.9,2.4,7.8,6.6,16.7
			c8.4,18,25,43.9,50.9,43.9c19.7,0,38.4-9.3,53.2-21.8c0.3,0.2,0.4,0.3,0.4,0.3c0.1,0.3,0.1,0.6,0.2,1
			C293.3,353.4,303.4,391.2,332.5,397.5z"/>
		<path class="st21" d="M282.1,511.5H180.4c-1-11.1-1.3-21.4-3.4-35.4c-3.7-24.2,3.8-63.7,9.9-70.5c6.1-6.8,13.3-3.8,16.7-3.8
			c3.4,0-3.4,40.3,5.1,42.5c12.1-7.8,39-9.1,66.2-8c-4.8,1.2-10.9,3.9-18.5,9.2C240.8,456.4,265,490.6,282.1,511.5z"/>
		<path class="st22" d="M406.7,501.8l1,9.7h-0.5v0c0,0-0.1,0-0.2,0h-3c-0.2-2-0.4-3.9-0.6-5.8c-0.1-1.3-0.3-2.7-0.4-3.9
			c-0.1-1-0.2-2-0.3-3c-0.1-0.9-0.2-1.7-0.3-2.6c-0.3-2.6-0.5-5.1-0.8-7.4c-0.1-0.8-0.2-1.7-0.2-2.4c-0.3-2.5-0.5-4.8-0.7-6.7
			c0-0.1,0-0.3,0-0.4c0-0.2,0-0.3-0.1-0.4c-0.1-0.5-0.1-0.9-0.1-1.3c0-0.1,0-0.1,0-0.2c0-0.3-0.1-0.6-0.1-0.9c0-0.4-0.1-0.7-0.1-1
			c0-0.2-0.1-0.4-0.1-0.6c-0.1-0.5-0.1-0.9-0.1-1.2c0-0.3-0.1-0.6-0.1-0.8c0-0.1,0-0.2,0-0.2c0,0,0-0.1,0-0.1c0,0,0-0.1,0-0.1
			c0-0.1,0-0.1,0-0.1c0,0,0-0.1,0-0.1s0.1-0.1,0.4-0.3c0,0,0.1-0.1,0.1-0.1c0.1-0.1,0.2-0.2,0.4-0.3c9.4-1.6,23.3,2.4,28.5,4.3
			c0,0.2,0,0.3,0.1,0.5c0,0.2,0.1,0.3,0.1,0.5c0.1,0.4,0.1,0.7,0.1,1.1c0.1,1,0.2,2,0.3,3.1c0,0-22.9-5.2-24.7-4.9
			c-1.8,0.4,1.1,21.2,1.1,21.2s15.9,1.6,24.9,3.1c0.1,1.3,0.1,2.6,0.2,3.9L406.7,501.8z"/>
		<path class="st21" d="M403.9,400.4c0,0-5,37.5-11.4,74.6c-8.3-4.6-15.5-28-15.5-28s-1.6,3.2-3.9,0c-2.3-3.2-10-11.2-9.3-19.3
			c0.6-7.8,28.6-29.2,30.3-30.5C397.5,397.5,401,398.4,403.9,400.4z"/>
		<path class="st23" d="M444.7,478.5c-3.6,4-11.4-0.9-13.6-2c-0.3-0.2-0.9-0.4-1.8-0.8c-5.2-1.9-19.1-5.9-28.5-4.3
			c-0.7,0.1-1.4,0.3-2.1,0.5c-9.9,2.9-18.2-14.8-19.9-27.2c-0.1-1.1-0.2-2.1-0.3-3.1c-0.5-12.3,65-1.4,65-1.4l2.3,10.4
			c0,0,0.7,2.1,1.4,5.2C448.8,462.1,450.2,472.8,444.7,478.5z"/>
		<path class="st24" d="M378.9,444.6L378.9,444.6c0,0,42.6-3.1,54.1-0.4c6,1.5,11,6.7,14.5,11.4c-0.7-3.1-1.5-5.2-1.5-5.2l-2.3-10.4
			c0,0-65.6-10.9-65,1.4C378.6,442.5,378.7,443.6,378.9,444.6z"/>
		<path class="st23" d="M368,427.9c0,0,16.4-28.6,52.2-36.7c35.8-8.2,32.2,64.9,32.2,64.9s-15.6-14.4-22.4-15.2
			c-13.2-1.7-46.8-1.7-55.4,1.7C374.7,442.6,368.5,435.8,368,427.9z"/>
		<path class="st11" d="M451.7,433.6c-0.7-0.5-1.5-1.1-2.2-1.7c0,0,0,0,0,0c-0.8-0.7-1.7-1.5-2.5-2.4c-6.3-6.8-11.4-18.1-9.1-29.6
			c0.1-0.7,0.3-1.4,0.5-2.2c0.1-0.3,0.2-0.6,0.3-0.9c0.1-0.2,0.1-0.4,0.2-0.6c4.5,1.9,7.6,5,9.7,8.6c2.7,4.7,3.7,10.2,4,15.2
			C453,427.4,451.7,433.6,451.7,433.6z"/>
		<path class="st19" d="M451.7,433.6c-0.7-0.5-1.5-1.1-2.2-1.7c2.4-5.8-0.8-17.7-0.8-17.7s1.6,13.4-0.7,12.6
			c-2.4-0.8-9.2-22.8-7.9-23.1c1.2-0.2,5.6,3.1,5.9,3.3c-1.1-3.4-8-7.2-8-7.2c0.1-0.7,0.3-1.4,0.5-2.2c0.1-0.3,0.2-0.6,0.3-0.9
			c0.1-0.2,0.1-0.4,0.2-0.6c4.5,1.9,7.6,5,9.7,8.6c2.7,4.7,3.7,10.2,4,15.2C453,427.4,451.7,433.6,451.7,433.6z"/>
		<path class="st20" d="M439.3,397.9l-0.6,1.4c0,0,13.8,3.5,11.7,32.3l0.9,0.9C451.3,432.5,455.9,406.8,439.3,397.9z"/>
		<path class="st20" d="M412.5,223.3c0,0,18.5,11.9,28.6,35.8C441.1,259.1,427.9,239.3,412.5,223.3z"/>
		<path class="st20" d="M442.6,282.4c0,0,2.6,11.4,2.6,13.7C445.2,298.3,441.4,285,442.6,282.4z"/>
		<path class="st10" d="M295.1,427.8c0,0-8.1-0.1-19-0.7c0,0,0,0,0,0c-18.8-1-45.7-3.5-52.8-9.5c0,0-5.4-25.6,4.4-42.9
			c0,0,21.1-3.3,42.9-0.4c11.6,1.5,23.4,4.8,32.3,11.3C302.9,385.6,310.1,410.4,295.1,427.8z"/>
		<path class="st24" d="M276.1,427.1c-18.8-1-45.7-3.5-52.8-9.5c0,0-5.4-25.6,4.4-42.9c0,0,21.1-3.3,42.9-0.4
			C269.9,374.7,235.9,398.4,276.1,427.1z"/>
	</g>
	<g>
		<path class="st25" d="M201.9,455.1C201.9,455.1,201.9,455.2,201.9,455.1c0,0.1,0,0.2,0,0.3c0,0,0,0.1,0,0.2c0,0,0,0.1,0,0.1
			c0,0.1,0,0.2,0,0.3c0,0.3-0.1,0.7-0.1,1.2c0,0.5-0.1,1.1-0.1,1.8c0,0.3,0,0.6-0.1,0.8c0,0.4-0.1,0.9-0.1,1.4
			c0,0.4-0.1,0.8-0.1,1.3c0,0.1,0,0.2,0,0.2c0,0.6-0.1,1.2-0.1,1.9c0,0.2,0,0.4,0,0.6c0,0.2,0,0.4,0,0.7c-0.2,2.8-0.4,6.1-0.7,9.7
			c-0.1,1.1-0.2,2.3-0.3,3.5c-0.2,3.3-0.5,6.9-0.8,10.7c-0.1,1.2-0.2,2.5-0.3,3.8c-0.1,1.4-0.2,2.9-0.3,4.4
			c-0.1,1.9-0.3,3.8-0.4,5.7c-0.2,2.7-0.4,5.5-0.6,8.4h-3c-0.1,0-0.2,0-0.2,0v0H170c0.6-17.1,1.2-32.8,2-44.5
			c0.1-1.6,0.2-3.1,0.3-4.5c0-0.5,0.1-1.1,0.1-1.6c0-0.2,0-0.5,0.1-0.7c0-0.3,0.1-0.7,0.1-1c0-0.4,0.1-0.9,0.2-1.3c0,0,0-0.1,0-0.1
			c0-0.1,0-0.2,0-0.3c0.4-2.8,0.9-5.1,1.5-7.1c0.1-0.3,0.2-0.6,0.3-0.9c0.1-0.2,0.2-0.4,0.2-0.6c0.1-0.3,0.2-0.5,0.3-0.8
			c0.1-0.3,0.3-0.6,0.4-0.8c0.3-0.6,0.6-1.2,1-1.7c0.2-0.2,0.3-0.5,0.5-0.7c0.1-0.2,0.3-0.3,0.4-0.5c0.1-0.1,0.2-0.2,0.2-0.3
			c0.1-0.1,0.1-0.1,0.2-0.2c0.1-0.1,0.1-0.1,0.2-0.2c5.8-5.5,14.3,1,19.4,5.9c0.3,0.3,0.6,0.6,0.9,0.9c0.3,0.3,0.5,0.5,0.7,0.7
			c0.7,0.7,1.3,1.4,1.7,1.9C201.5,454.7,201.9,455.1,201.9,455.1z"/>
		<path class="st26" d="M432.4,512.4h-24.6v0c0,0-0.1,0-0.2,0h-3c-0.2-2-0.4-3.9-0.6-5.8c-0.1-1.3-0.3-2.7-0.4-3.9
			c-0.1-1-0.2-2-0.3-3c-0.1-0.9-0.2-1.7-0.3-2.6c-0.3-2.6-0.5-5.1-0.8-7.4c-0.1-0.8-0.2-1.7-0.2-2.4c-0.3-2.5-0.5-4.8-0.7-6.7
			c0-0.1,0-0.3,0-0.4c0-0.2,0-0.3-0.1-0.4c-0.1-0.5-0.1-0.9-0.1-1.3c0-0.1,0-0.1,0-0.2c0-0.3-0.1-0.6-0.1-0.9c0-0.4-0.1-0.7-0.1-1
			c0-0.2-0.1-0.4-0.1-0.6c-0.1-0.5-0.1-0.9-0.1-1.2c0-0.3-0.1-0.6-0.1-0.8c0-0.1,0-0.2,0-0.2c0,0,0-0.1,0-0.1c0,0,0-0.1,0-0.1
			c0-0.1,0-0.1,0-0.1c0,0,0-0.1,0-0.1s0.1-0.1,0.4-0.3c0,0,0.1-0.1,0.1-0.1c0.1-0.1,0.2-0.2,0.4-0.3c0,0,0.1-0.1,0.1-0.1
			c0.4-0.4,1-0.8,1.7-1.3c0.2-0.2,0.5-0.3,0.7-0.5c0.3-0.2,0.6-0.4,1-0.6c5.1-3.4,13.6-7.8,19.4-4.1c0.1,0,0.1,0.1,0.2,0.2
			c0.1,0,0.1,0.1,0.2,0.1c0.1,0,0.2,0.1,0.2,0.2c0.1,0.1,0.3,0.2,0.4,0.3c0.2,0.2,0.3,0.3,0.5,0.5c0.3,0.4,0.7,0.8,1,1.2
			c0.1,0.2,0.3,0.4,0.4,0.6c0.1,0.2,0.2,0.3,0.3,0.5c0.1,0.1,0.2,0.3,0.2,0.4c0.1,0.2,0.2,0.4,0.3,0.6c0.6,1.3,1.1,3,1.5,4.9
			c0,0.1,0,0.2,0,0.2c0,0,0,0,0,0.1c0.1,0.3,0.1,0.6,0.2,0.9c0,0.1,0,0.1,0,0.2c0,0.2,0,0.3,0.1,0.5c0,0.2,0.1,0.3,0.1,0.5
			c0.1,0.4,0.1,0.7,0.1,1.1c0.1,1,0.2,2,0.3,3.1l0.1,0.6c0.5,5.3,0.9,11.7,1.3,18.8c0.1,1.3,0.1,2.6,0.2,3.9
			C432.2,507.5,432.3,509.9,432.4,512.4z"/>
		<path class="st27" d="M448.5,345.9c-10-13.5-8.6-40.3-8.6-40.3c-2.4-1-4.8-2.1-7.2-3.3l0.9-4.6c5,3.5,8.5,5.8,8.8,6
			c-0.3-0.3-3.8-3.6-8.4-8.3c-10.1-10.4-25.5-27.6-22.8-33.8c1.7-3.8,4-5.2,6.5-5.4c3.4-0.3,7.2,1.8,10.2,2.9
			c2.5,0.9,7.6,5.6,12.4,10.1c0,0,0,0,0,0C440.7,270.3,451.5,309.5,448.5,345.9z"/>
		<path class="st28" d="M328.6,208.2c-2.8,1.8-5.4,3.9-7.7,6h0c-9.1,8.3-14.2,17.6-14.2,17.6s-37.4,46.7-68.4,46.7
			c-15.2,0-25.7-3.9-32.4-7.9c-2.7-1.6-4.7-3.2-6.3-4.5c0,0,34-58,121.5-58C323.5,208.2,326.1,208.2,328.6,208.2z"/>
		<path class="st28" d="M444.2,264.8c-7.3-7.6-19.3-21.4-30.1-38c-1.4-2.2-3-4.3-4.6-6.2C428.1,229.6,437.2,243.8,444.2,264.8z"/>
		<path class="st28" d="M439.2,301.6c-0.1,0.6-0.2,2.2-0.2,3.6c-2.1-0.9-4.2-1.8-6.3-2.9c-0.3-0.2-0.7-0.3-1-0.5
			c-0.7-0.3-1.4-0.7-2.1-1.1c-0.7-0.4-1.4-0.7-2-1.1c0,0,0,0-0.1,0c-0.7-0.4-1.3-0.8-2-1.1c-3.4-1.9-6.7-4-10-6.1
			c-15.9-10.4-28.8-21.8-28.8-21.8c-11.8-7.3-22.4-8.6-31.5-6.2c-17.5,4.5-29.6,22.8-34.3,39.2c-7.1,25-43.2,62.8-82.7,62.8
			c-25.9,0-42.5-26-50.9-43.9c-2.4-12-2.1-21.5-2.1-21.5c1.6,3.1,3,6.8,3,6.8s15,52.1,50,52.1c49,0,74.2-56.1,74.2-56.1
			s8.5-40.9,35.8-45.7c27.2-4.8,34.3-0.8,47.6,11.2c4.2,3.8,10.3,8.5,16.8,13.3c1.8,1.3,3.6,2.7,5.4,4c0.4,0.3,0.9,0.6,1.3,1
			c4.1,3,8.2,5.8,11.7,8.3c0.9,0.7,1.8,1.3,2.7,1.9C435.8,299.3,437.7,300.6,439.2,301.6z"/>
		<path class="st29" d="M451.3,278.6c-1.1,0-5.8-4.6-10.9-9.4c0,0,0,0,0,0c-4.8-4.5-9.9-9.1-12.4-10.1c-3-1.1-6.8-3.2-10.2-2.9
			c-2.5,0.2-4.8,1.6-6.5,5.4c-2.8,6.2,12.6,23.5,22.8,33.8c4.6,4.7,8.1,8,8.4,8.3c-0.2-0.1-1.4-0.9-3.2-2.2c-1.5-1-3.4-2.3-5.6-3.9
			c-0.9-0.6-1.7-1.2-2.7-1.9c-3.5-2.5-7.6-5.3-11.7-8.3c-0.4-0.3-0.9-0.6-1.3-1c-1.8-1.3-3.6-2.6-5.4-4c-6.5-4.8-12.6-9.6-16.8-13.3
			c-13.3-12-20.3-16-47.6-11.2c-27.2,4.8-35.8,45.7-35.8,45.7s-10.3,23-30.7,39.6c-11.4,9.3-25.9,16.5-43.6,16.5
			c-35.1,0-50-52.1-50-52.1s-1.3-3.7-3-6.8c-0.7-1.3-1.4-2.6-2.2-3.4c-2.4-2.6,0-30,12.6-35.4c0,0,1.2,1.7,3.8,4
			c5.6,4.9,17.7,12.4,38.8,12.4c6.5,0,13.4-2.1,20.1-5.4c25.1-12.3,48.4-41.3,48.4-41.3s8.1-14.6,22-23.7c5.9-3.8,12.8-6.7,20.6-7
			c23.8-0.9,45,1,60.5,19.4c1.6,1.9,3.1,3.9,4.6,6.2c10.8,16.6,22.8,30.5,30.1,38c3.3,3.4,5.6,5.6,6.4,6.1
			C453,272.4,453.3,278.6,451.3,278.6z"/>
		<path class="st30" d="M449.1,346.8c-3.1,5.6-24.3,37.8-116,51.6c-25.7,3.9-57,6.3-94.9,6.3c-35.1,0-56.7-95.5-57.4-99
			c0.3,0.9,2.4,7.8,6.6,16.7c8.4,18,25,43.9,50.9,43.9c19.7,0,38.4-9.3,53.2-21.8c0.1-0.1,0.2-0.2,0.3-0.2
			c14.8-12.6,25.6-28.3,29.2-40.8c4.7-16.4,16.8-34.7,34.3-39.2c9.1-2.4,19.7-1,31.5,6.2c0,0,12.8,11.3,28.8,21.8
			c3.2,2.1,6.6,4.2,10,6.1c0.7,0.4,1.3,0.8,2,1.1c0,0,0,0,0.1,0c0.7,0.4,1.4,0.7,2,1.1c0.7,0.4,1.4,0.7,2.1,1.1
			c0.3,0.2,0.7,0.4,1,0.5c2.1,1,4.2,2,6.3,2.9c0.3,0.1,0.6,0.3,0.9,0.4c0,0-1.4,26.8,8.6,40.3C448.7,346.2,448.9,346.5,449.1,346.8z
			"/>
		<path class="st28" d="M379.6,512.4H185.2c-5.1-37.6-8.5-88.8,7.3-105.2c0,0,56.2-3.8,112.6-2.6c0,0,80.5,9.1,91.1,13.8
			C402.5,421.3,390.3,472.3,379.6,512.4z"/>
		<path class="st28" d="M392,331.1c-3.3,8.8-9.1,15-16.7,16.5c-8.3,1.6-16.8-2.8-23.4-11c0,0,0,0,0,0c-5-6.2-8.9-14.5-10.7-24
			c-4.3-22.1,3.9-42.4,18.4-45.2c14.5-2.8,29.7,12.8,34.1,35C395.8,312.9,395,323,392,331.1z"/>
		<path class="st29" d="M404.5,401.3c0,0-5,37.5-11.4,74.6c-2.2,12.7-4.6,25.4-7,36.5H181c-1-11.1-1.3-21.4-3.4-35.4
			c-3.7-24.2,3.8-63.7,9.9-70.5c6.1-6.8,13.3-3.8,16.7-3.8c3.4,0-3.4,40.3,5.1,42.5c12.1-7.8,39-9.1,66.3-8c4.7,0.2,9.3,0.5,14,0.8
			c32.8,2.3,62.4,7.2,62.4,7.2l20.8-42.5c0,0,11.4-5.3,21.9-4.6C398.1,398.4,401.6,399.3,404.5,401.3z"/>
		<path class="st31" d="M196.9,431.5c-0.9,8.5-5.3,20.5-10.5,18.5c-5.7-2.2-16,2.3-17.1,3.1c-1.1,0.8-5.3,4.1-7.2,1.4
			c-2.9-3.9-2.2-11.1-1.4-15.5c0.4-2.1,0.8-3.5,0.8-3.5l1.2-7.1c0,0,34.6-7.4,34.4,1C197,430,197,430.8,196.9,431.5z"/>
		<path class="st32" d="M196.9,431.5L196.9,431.5c0,0-22.5-2.1-28.6-0.2c-3.2,1-5.8,4.6-7.6,7.8c0.4-2.1,0.8-3.5,0.8-3.5l1.2-7.1
			c0,0,34.6-7.4,34.4,1C197,430,197,430.8,196.9,431.5z"/>
		<path class="st33" d="M203,420.1c0,0-8.7-19.4-27.6-25c-18.9-5.6-17,44.1-17,44.1s8.2-9.8,11.8-10.3c7-1.1,24.7-1.2,29.2,1.2
			C199.5,430.1,202.8,425.5,203,420.1z"/>
		<path class="st34" d="M159.3,419.2c-0.2,0.5-0.3,0.9-0.5,1.3c0,0,0,0,0,0c-0.1,0.3-0.3,0.6-0.4,0.9c0,0,0.5-3.4,1.3-7.4
			c0.5-2.7,1.2-5.7,1.9-8.2c0.6-1.9,1.2-3.6,1.8-4.5c0,0.1,0,0.2,0,0.3c0,0.2,0,0.3-0.1,0.5C162.4,408.8,160.6,415.4,159.3,419.2z"
			/>
		<path class="st35" d="M384.1,317.9c-1.5,7.8-5.8,13.6-11.7,14.8c-4.5,0.9-9.1-1.1-12.9-4.9c0,0,0,0,0,0c-4-4-7.1-10-8.5-17.1
			c-2.7-13.9,2.5-26.7,11.6-28.5c9.1-1.8,18.7,8.1,21.5,22C384.9,309.1,384.9,313.8,384.1,317.9z"/>
		<path class="st28" d="M443.3,281.5c0,0-7.7,9.1,3,17C446.3,298.6,446,288.5,443.3,281.5z"/>
		<path class="st36" d="M328.6,208.2c-2.8,1.8-5.4,3.9-7.7,6h0c-40.2-0.3-49.3,10.5-49.3,10.5c9.9-3.4,24.9,0,24.9,2.7
			c0,2.7-24.9,24.2-39.8,34c-15,9.8-38.5,6.8-40.2,3.3c-1.7-3.5,6-12.5,6-12.5c-9,4.8-16.6,18.3-16.6,18.3c-2.7-1.6-4.7-3.2-6.3-4.5
			c0,0,34-58,121.5-58C323.5,208.2,326.1,208.2,328.6,208.2z"/>
		<path class="st37" d="M201.9,265.9c0,0,37.1-56.3,120.5-56.3l-3.1,2.2c0,0-65.4-3.6-115.4,54.1H201.9z"/>
		<ellipse transform="matrix(0.866 -0.5 0.5 0.866 -92.375 159.4158)" class="st28" cx="251.3" cy="252.1" rx="22.1" ry="14.4"/>
		<path class="st36" d="M392,331.1L392,331.1c0.5-13.4-2.9-26.4-4.2-30.8c2,8.4-3.6,17.7-3.6,17.7l0,0c0.8-4.1,0.8-8.8-0.1-13.7
			c-2.7-14-12.3-23.8-21.5-22c-9.1,1.8-14.3,14.5-11.6,28.5c1.4,7.1,4.5,13.1,8.5,17.1c-9.8-5.1-13-18.6-13-18.6
			c-2.3,8.1,5.3,26.9,5.5,27.4c-5-6.2-8.9-14.5-10.7-24c-4.3-22.1,3.9-42.4,18.4-45.2c14.5-2.8,29.7,12.8,34.1,35
			C395.8,312.9,395,323,392,331.1z"/>
		<path class="st37" d="M383,284.7c0,0-8.3-14.3-23-12.9c-14.6,1.4-16.9,26.8-16.9,26.8s0-27.7,16-30.1
			C375.2,266.1,383,284.7,383,284.7z"/>
		<path class="st38" d="M281.7,343.4c-11.4,9.3-25.9,16.5-43.6,16.5c-35.1,0-50-52.1-50-52.1s-1.3-3.7-3-6.8
			c-0.7-1.3-1.4-2.6-2.2-3.4c-2.4-2.6,0-30,12.6-35.4c0,0,1.2,1.7,3.8,4c5.6,4.9,17.7,12.4,38.8,12.4c6.5,0,13.4-2.1,20.1-5.4
			c0,0-22.1,17.2-46.3,14.8c0,0-4.8,6.4,0,13.8C241.2,318.4,243.9,342.2,281.7,343.4z"/>
		<path class="st38" d="M333.1,398.4c-25.7,3.9-57,6.3-94.9,6.3c-35.1,0-56.7-95.5-57.4-99c0.3,0.9,2.4,7.8,6.6,16.7
			c8.4,18,25,43.9,50.9,43.9c19.7,0,38.4-9.3,53.2-21.8c0.3,0.2,0.4,0.3,0.4,0.3c0.1,0.3,0.1,0.6,0.2,1
			C293.9,354.2,304,392.1,333.1,398.4z"/>
		<path class="st38" d="M282.7,512.4H181c-1-11.1-1.3-21.4-3.4-35.4c-3.7-24.2,3.8-63.7,9.9-70.5c6.1-6.8,13.3-3.8,16.7-3.8
			c3.4,0-3.4,40.3,5.1,42.5c12.1-7.8,39-9.1,66.3-8c-4.8,1.2-10.9,3.9-18.5,9.2C241.4,457.3,265.6,491.5,282.7,512.4z"/>
		<path class="st39" d="M407.3,502.7l1,9.7h-0.5v0c0,0-0.1,0-0.2,0h-3c-0.2-2-0.4-3.9-0.6-5.8c-0.1-1.3-0.3-2.7-0.4-3.9
			c-0.1-1-0.2-2-0.3-3c-0.1-0.9-0.2-1.7-0.3-2.6c-0.3-2.6-0.5-5.1-0.8-7.4c-0.1-0.8-0.2-1.7-0.2-2.4c-0.3-2.5-0.5-4.8-0.7-6.7
			c0-0.1,0-0.3,0-0.4c0-0.2,0-0.3-0.1-0.4c-0.1-0.5-0.1-0.9-0.1-1.3c0-0.1,0-0.1,0-0.2c0-0.3-0.1-0.6-0.1-0.9c0-0.4-0.1-0.7-0.1-1
			c0-0.2-0.1-0.4-0.1-0.6c-0.1-0.5-0.1-0.9-0.1-1.2c0-0.3-0.1-0.6-0.1-0.8c0-0.1,0-0.2,0-0.2c0,0,0-0.1,0-0.1c0,0,0-0.1,0-0.1
			c0-0.1,0-0.1,0-0.1c0,0,0-0.1,0-0.1s0.1-0.1,0.4-0.3c0,0,0.1-0.1,0.1-0.1c0.1-0.1,0.2-0.2,0.4-0.3c9.4-1.6,23.3,2.4,28.5,4.3
			c0,0.2,0,0.3,0.1,0.5c0,0.2,0.1,0.3,0.1,0.5c0.1,0.4,0.1,0.7,0.1,1.1c0.1,1,0.2,2,0.3,3.1c0,0-22.9-5.2-24.7-4.9
			c-1.8,0.4,1.1,21.2,1.1,21.2s15.9,1.6,24.9,3.1c0.1,1.3,0.1,2.6,0.2,3.9L407.3,502.7z"/>
		<path class="st38" d="M404.5,401.3c0,0-5,37.5-11.4,74.6c-8.3-4.6-15.5-28-15.5-28s-1.6,3.2-3.9,0c-2.3-3.2-10-11.2-9.3-19.3
			c0.6-7.8,28.6-29.2,30.3-30.5C398.1,398.4,401.6,399.3,404.5,401.3z"/>
		<path class="st40" d="M445.3,479.4c-3.6,4-11.4-0.9-13.6-2c-0.3-0.2-0.9-0.4-1.8-0.8c-5.2-1.9-19.1-5.9-28.5-4.3
			c-0.7,0.1-1.4,0.3-2.1,0.5c-9.9,2.9-18.2-14.8-19.9-27.2c-0.1-1.1-0.2-2.1-0.3-3.1c-0.5-12.3,65-1.4,65-1.4l2.3,10.4
			c0,0,0.7,2.1,1.4,5.2C449.4,463,450.8,473.7,445.3,479.4z"/>
		<path class="st41" d="M379.5,445.5L379.5,445.5c0,0,42.6-3.1,54.1-0.4c6,1.5,11,6.7,14.5,11.4c-0.7-3.1-1.5-5.2-1.5-5.2l-2.3-10.4
			c0,0-65.6-10.9-65,1.4C379.2,443.4,379.3,444.4,379.5,445.5z"/>
		<path class="st40" d="M368.6,428.8c0,0,16.4-28.6,52.2-36.7C456.6,383.9,453,457,453,457s-15.6-14.4-22.4-15.2
			c-13.2-1.7-46.8-1.7-55.4,1.7C375.3,443.5,369.1,436.7,368.6,428.8z"/>
		<path class="st28" d="M452.3,434.5c-0.7-0.5-1.5-1.1-2.2-1.7c0,0,0,0,0,0c-0.8-0.7-1.7-1.5-2.5-2.4c-6.3-6.8-11.4-18.1-9.1-29.6
			c0.1-0.7,0.3-1.4,0.5-2.2c0.1-0.3,0.2-0.6,0.3-0.9c0.1-0.2,0.1-0.4,0.2-0.6c4.5,1.9,7.6,5,9.7,8.6c2.7,4.7,3.7,10.2,4,15.2
			C453.6,428.3,452.3,434.5,452.3,434.5z"/>
		<path class="st36" d="M452.3,434.5c-0.7-0.5-1.5-1.1-2.2-1.7c2.4-5.8-0.8-17.7-0.8-17.7s1.6,13.4-0.7,12.6
			c-2.4-0.8-9.2-22.8-7.9-23.1c1.2-0.2,5.6,3.1,5.9,3.3c-1.1-3.4-8-7.2-8-7.2c0.1-0.7,0.3-1.4,0.5-2.2c0.1-0.3,0.2-0.6,0.3-0.9
			c0.1-0.2,0.1-0.4,0.2-0.6c4.5,1.9,7.6,5,9.7,8.6c2.7,4.7,3.7,10.2,4,15.2C453.6,428.3,452.3,434.5,452.3,434.5z"/>
		<path class="st37" d="M439.9,398.8l-0.6,1.4c0,0,13.8,3.5,11.7,32.3l0.9,0.9C451.9,433.4,456.5,407.7,439.9,398.8z"/>
		<path class="st37" d="M413.1,224.1c0,0,18.5,11.9,28.6,35.8C441.7,260,428.4,240.1,413.1,224.1z"/>
		<path class="st37" d="M443.2,283.3c0,0,2.6,11.4,2.6,13.7S442,285.9,443.2,283.3z"/>
		<path class="st27" d="M295.7,428.7c0,0-8.1-0.1-19-0.7c0,0,0,0,0,0c-18.8-1-45.7-3.5-52.8-9.5c0,0-5.4-25.6,4.4-42.9
			c0,0,21.1-3.3,42.9-0.4c11.6,1.5,23.4,4.8,32.3,11.3C303.5,386.4,310.7,411.3,295.7,428.7z"/>
		<path class="st41" d="M276.7,428c-18.8-1-45.7-3.5-52.8-9.5c0,0-5.4-25.6,4.4-42.9c0,0,21.1-3.3,42.9-0.4
			C270.5,375.6,236.5,399.3,276.7,428z"/>
	</g>
</g>
<g>
	<polygon class="st0" points="790,109.1 790,511.9 -8.9,511.9 -8.9,211.9 	"/>
	<polygon class="st1" points="790,-0.1 790,109.1 -8.9,211.9 -8.9,-0.1 	"/>
	<path class="st2" d="M278.5,457V47.8c0-13.8,11.2-25,25-25h307.2c13.8,0,25,11.2,25,25V457c0,13.8-11.2,25-25,25H303.5
		C289.7,482,278.5,470.8,278.5,457z"/>
	<g>
		<rect x="301.5" y="55.1" class="st3" width="17.2" height="8.3"/>
		<rect x="301.5" y="71.1" class="st3" width="17.2" height="8.3"/>
		<rect x="301.5" y="86.1" class="st3" width="17.2" height="8.3"/>
		<rect x="301.9" y="101" class="st3" width="17.2" height="8.3"/>
		<rect x="314.9" y="116.8" class="st3" width="12.5" height="8.3"/>
		<rect x="321.5" y="132.6" class="st3" width="12.5" height="8.3"/>
		<rect x="315.3" y="148.6" class="st3" width="12.5" height="8.3"/>
		<rect x="321.1" y="211.8" class="st3" width="12.5" height="8.3"/>
		<rect x="321.1" y="241.8" class="st3" width="12.5" height="8.3"/>
		<rect x="346.9" y="399.4" class="st3" width="6.9" height="8.3"/>
		<rect x="397.1" y="444.9" class="st3" width="32.3" height="8.3"/>
		<rect x="433.7" y="444.9" class="st3" width="18.1" height="8.3"/>
		<rect x="322.2" y="54.8" class="st4" width="19.2" height="8.3"/>
		<rect x="330.9" y="116.8" class="st4" width="22" height="8.3"/>
		<rect x="337.1" y="132.6" class="st4" width="27.2" height="8.3"/>
		<rect x="301.9" y="179.7" class="st4" width="25.9" height="8.3"/>
		<rect x="367.6" y="179.7" class="st4" width="25.6" height="8.3"/>
		<rect x="465.3" y="86.1" class="st4" width="9.6" height="8.3"/>
		<rect x="349.6" y="273.8" class="st4" width="10.3" height="8.3"/>
		<rect x="349.6" y="288.9" class="st4" width="10.3" height="8.3"/>
		<rect x="349.6" y="304.8" class="st4" width="10.3" height="8.3"/>
		<rect x="349.6" y="320.8" class="st4" width="10.3" height="8.3"/>
		<rect x="461.8" y="148.6" class="st4" width="19.2" height="8.3"/>
		<rect x="522.3" y="148.6" class="st4" width="19.2" height="8.3"/>
		<rect x="362.5" y="273.8" class="st4" width="22" height="8.3"/>
		<rect x="362.5" y="288.9" class="st4" width="31.4" height="8.3"/>
		<rect x="362.5" y="304.8" class="st4" width="22" height="8.3"/>
		<rect x="362.5" y="320.8" class="st4" width="22" height="8.3"/>
		<rect x="397.7" y="288.9" class="st4" width="10.3" height="8.3"/>
		<rect x="432" y="304.8" class="st4" width="25.6" height="8.3"/>
		<rect x="430.7" y="273.9" class="st4" width="25.6" height="8.3"/>
		<rect x="453.8" y="288.9" class="st4" width="25.6" height="8.3"/>
		<rect x="451.8" y="320.9" class="st4" width="25.6" height="8.3"/>
		<rect x="337.9" y="101" class="st3" width="29" height="8.3"/>
		<rect x="322.5" y="86.1" class="st5" width="29" height="8.3"/>
		<rect x="387.5" y="101" class="st5" width="60.1" height="8.3"/>
		<rect x="460.1" y="70.4" class="st5" width="29" height="8.3"/>
		<rect x="449.2" y="336.1" class="st5" width="29" height="8.3"/>
		<rect x="483.3" y="336.1" class="st5" width="17.2" height="8.3"/>
		<rect x="372.4" y="444.9" class="st5" width="21.2" height="8.3"/>
		<rect x="455.3" y="444.9" class="st5" width="18.3" height="8.3"/>
		<rect x="377.3" y="429.5" class="st4" width="11.3" height="8.3"/>
		<rect x="308.7" y="320.8" class="st6" width="17" height="8.3"/>
		<rect x="308.7" y="304.8" class="st6" width="17" height="8.3"/>
		<rect x="308.7" y="289.4" class="st6" width="17" height="8.3"/>
		<rect x="308.7" y="273.8" class="st6" width="17" height="8.3"/>
		<rect x="397.3" y="304.8" class="st6" width="17" height="8.3"/>
		<rect x="419.6" y="288.9" class="st6" width="17" height="8.3"/>
		<rect x="398.2" y="273.8" class="st6" width="17" height="8.3"/>
		<rect x="432" y="179.7" class="st6" width="25.6" height="8.3"/>
		<rect x="433.3" y="211.8" class="st6" width="10.2" height="8.3"/>
		<rect x="438.4" y="148.6" class="st6" width="10.2" height="8.3"/>
		<rect x="498.1" y="148.6" class="st6" width="10.2" height="8.3"/>
		<rect x="401.9" y="70.4" class="st6" width="53.9" height="8.3"/>
		<rect x="351.4" y="71.1" class="st6" width="16.2" height="8.3"/>
		<rect x="358.9" y="86.1" class="st6" width="10.2" height="8.3"/>
		<rect x="433.2" y="320.9" class="st6" width="15.2" height="8.3"/>
		<rect x="392" y="414.1" class="st6" width="14.7" height="8.3"/>
		<rect x="419.9" y="414.1" class="st6" width="10.2" height="8.3"/>
		<rect x="322.2" y="71.1" class="st7" width="25.4" height="8.3"/>
		<rect x="371.3" y="70.4" class="st7" width="25.4" height="8.3"/>
		<rect x="495.6" y="70.4" class="st7" width="74.2" height="8.3"/>
		<rect x="478.5" y="86.1" class="st7" width="74.2" height="8.3"/>
		<rect x="556.4" y="86.1" class="st7" width="41.8" height="8.3"/>
		<rect x="374.4" y="86.1" class="st7" width="74.2" height="8.3"/>
		<rect x="544.6" y="148.6" class="st7" width="74.2" height="8.3"/>
		<rect x="330.5" y="148.2" class="st7" width="74.2" height="8.3"/>
		<rect x="407.6" y="148.2" class="st7" width="27.2" height="8.3"/>
		<rect x="450.7" y="148.2" class="st7" width="9" height="8.3"/>
		<rect x="484.1" y="148.6" class="st7" width="9" height="8.3"/>
		<rect x="510.2" y="148.6" class="st7" width="9" height="8.3"/>
		<rect x="366.8" y="132.6" class="st7" width="27.2" height="8.3"/>
		<rect x="355.8" y="116.8" class="st7" width="27.2" height="8.3"/>
		<rect x="321.3" y="101.4" class="st7" width="12.4" height="8.3"/>
		<rect x="369.4" y="101.4" class="st7" width="15.7" height="8.3"/>
		<rect x="449.9" y="86.1" class="st7" width="13.2" height="8.3"/>
		<rect x="330.9" y="179.7" class="st7" width="27.2" height="8.3"/>
		<rect x="395.3" y="180" class="st7" width="33.6" height="8.3"/>
		<rect x="359" y="180" class="st7" width="7.7" height="8.3"/>
		<rect x="314.2" y="164.1" class="st7" width="27.2" height="8.3"/>
		<rect x="344.5" y="164.1" class="st7" width="55.7" height="8.3"/>
		<rect x="308.6" y="195.7" class="st7" width="27.2" height="8.3"/>
		<rect x="364" y="195.7" class="st7" width="38.5" height="8.3"/>
		<rect x="342.8" y="195.3" class="st7" width="13.6" height="8.3"/>
		<rect x="337.8" y="211.8" class="st7" width="27.2" height="8.3"/>
		<rect x="367.6" y="211.8" class="st7" width="60.5" height="8.3"/>
		<rect x="321" y="227" class="st7" width="74.2" height="8.3"/>
		<rect x="335.9" y="241.8" class="st7" width="46.2" height="8.3"/>
		<rect x="385.1" y="241.8" class="st7" width="74.2" height="8.3"/>
		<rect x="321" y="257.8" class="st7" width="74.2" height="8.3"/>
		<rect x="329.9" y="273.9" class="st7" width="15.7" height="8.3"/>
		<rect x="330.3" y="289.4" class="st7" width="15.7" height="8.3"/>
		<rect x="330.3" y="304.9" class="st7" width="15.7" height="8.3"/>
		<rect x="330.3" y="320.4" class="st7" width="15.7" height="8.3"/>
		<rect x="386.1" y="305" class="st7" width="9.1" height="8.3"/>
		<rect x="387.2" y="320.9" class="st7" width="9.1" height="8.3"/>
		<rect x="386.1" y="273.8" class="st7" width="9.1" height="8.3"/>
		<rect x="409.2" y="289.4" class="st7" width="9.1" height="8.3"/>
		<rect x="417.6" y="273.9" class="st7" width="10.5" height="8.3"/>
		<rect x="459.1" y="273.9" class="st7" width="22.4" height="8.3"/>
		<rect x="438.4" y="288.9" class="st7" width="10.7" height="8.3"/>
		<rect x="460.8" y="305" class="st7" width="15.8" height="8.3"/>
		<rect x="483.3" y="289.4" class="st7" width="16.2" height="8.3"/>
		<rect x="480.3" y="320.8" class="st7" width="9.1" height="8.3"/>
		<rect x="412.2" y="336.1" class="st7" width="9.1" height="8.3"/>
		<rect x="505.8" y="336.1" class="st7" width="74.2" height="8.3"/>
		<rect x="333.7" y="336.1" class="st7" width="74.2" height="8.3"/>
		<rect x="424.8" y="336.1" class="st7" width="20.9" height="8.3"/>
		<rect x="301.8" y="336.1" class="st7" width="28.5" height="8.3"/>
		<rect x="417.6" y="305" class="st7" width="10.5" height="8.3"/>
		<rect x="357.6" y="383.4" class="st7" width="6.1" height="8.3"/>
		<rect x="366.6" y="366.9" class="st7" width="6.1" height="8.3"/>
		<rect x="374.3" y="351.7" class="st7" width="6.1" height="8.3"/>
		<rect x="409.7" y="320.4" class="st7" width="20.9" height="8.3"/>
		<rect x="399.3" y="320.9" class="st7" width="6.1" height="8.3"/>
		<rect x="330.3" y="414.5" class="st7" width="58.3" height="8.3"/>
		<rect x="409.7" y="414.5" class="st7" width="6.1" height="8.3"/>
		<rect x="433.7" y="414.1" class="st7" width="6.1" height="8.3"/>
		<rect x="330.3" y="429.5" class="st7" width="43.8" height="8.3"/>
		<rect x="316.9" y="445.9" class="st7" width="43.8" height="8.3"/>
		<rect x="363.7" y="445.9" class="st7" width="6.1" height="8.3"/>
	</g>
	<g>
		<path class="st8" d="M168.5,454.3C168.5,454.3,168.5,454.3,168.5,454.3c0,0.1,0,0.2,0,0.3c0,0,0,0.1,0,0.2c0,0,0,0.1,0,0.1
			c0,0.1,0,0.2,0,0.3c0,0.3-0.1,0.7-0.1,1.2c0,0.5-0.1,1.1-0.2,1.8c0,0.3-0.1,0.6-0.1,0.8c0,0.4-0.1,0.9-0.1,1.4
			c0,0.4-0.1,0.8-0.1,1.3c0,0.1,0,0.2,0,0.2c-0.1,0.6-0.1,1.2-0.2,1.9c0,0.2,0,0.4-0.1,0.6c0,0.2,0,0.4-0.1,0.7
			c-0.2,2.8-0.5,6.1-0.8,9.7c-0.1,1.1-0.2,2.3-0.3,3.5c-0.3,3.3-0.6,6.9-0.9,10.7c-0.1,1.2-0.2,2.5-0.3,3.8
			c-0.1,1.4-0.2,2.9-0.4,4.4c-0.2,1.9-0.3,3.8-0.5,5.7c-0.2,2.7-0.4,5.5-0.7,8.4h-3.5c-0.1,0-0.2,0-0.2,0v0h-28.9
			c0.7-17.1,1.5-32.8,2.3-44.5c0.1-1.6,0.2-3.1,0.3-4.5c0-0.5,0.1-1.1,0.2-1.6c0-0.2,0.1-0.5,0.1-0.7c0-0.3,0.1-0.7,0.1-1
			c0.1-0.4,0.1-0.9,0.2-1.3c0,0,0-0.1,0-0.1c0-0.1,0-0.2,0.1-0.3c0.4-2.8,1-5.1,1.8-7.1c0.1-0.3,0.2-0.6,0.4-0.9
			c0.1-0.2,0.2-0.4,0.3-0.6c0.1-0.3,0.2-0.5,0.4-0.8c0.1-0.3,0.3-0.6,0.5-0.8c0.4-0.6,0.8-1.2,1.2-1.7c0.2-0.2,0.4-0.5,0.6-0.7
			c0.2-0.2,0.3-0.3,0.5-0.5c0.1-0.1,0.2-0.2,0.3-0.3c0.1-0.1,0.2-0.1,0.2-0.2c0.1-0.1,0.2-0.1,0.2-0.2c6.8-5.5,16.7,1,22.7,5.9
			c0.4,0.3,0.8,0.6,1.1,0.9c0.3,0.3,0.6,0.5,0.8,0.7c0.8,0.7,1.5,1.4,2,1.9C168.1,453.8,168.5,454.3,168.5,454.3z"/>
		<path class="st9" d="M438.3,511.5h-28.8v0c0,0-0.1,0-0.2,0h-3.5c-0.2-2-0.5-3.9-0.7-5.8c-0.2-1.3-0.3-2.7-0.5-3.9
			c-0.1-1-0.3-2-0.4-3c-0.1-0.9-0.2-1.7-0.3-2.6c-0.3-2.6-0.6-5.1-0.9-7.4c-0.1-0.8-0.2-1.7-0.3-2.4c-0.3-2.5-0.6-4.8-0.8-6.7
			c0-0.1,0-0.3,0-0.4c0-0.2,0-0.3-0.1-0.4c-0.1-0.5-0.1-0.9-0.2-1.3c0-0.1,0-0.1,0-0.2c0-0.3-0.1-0.6-0.1-0.9c0-0.4-0.1-0.7-0.1-1
			c0-0.2-0.1-0.4-0.1-0.6c-0.1-0.5-0.1-0.9-0.2-1.2c0-0.3-0.1-0.6-0.1-0.8c0-0.1,0-0.2,0-0.2c0,0,0-0.1,0-0.1c0,0,0-0.1,0-0.1
			c0-0.1,0-0.1,0-0.1c0,0,0-0.1,0-0.1s0.1-0.1,0.4-0.3c0,0,0.1-0.1,0.2-0.1c0.1-0.1,0.3-0.2,0.4-0.3c0,0,0.1-0.1,0.2-0.1
			c0.5-0.4,1.2-0.8,2-1.3c0.3-0.2,0.6-0.3,0.8-0.5c0.4-0.2,0.7-0.4,1.1-0.6c6-3.4,16-7.8,22.7-4.1c0.1,0,0.2,0.1,0.2,0.2
			c0.1,0,0.2,0.1,0.2,0.1c0.1,0,0.2,0.1,0.3,0.2c0.2,0.1,0.3,0.2,0.5,0.3c0.2,0.2,0.4,0.3,0.6,0.5c0.4,0.4,0.8,0.8,1.2,1.2
			c0.2,0.2,0.3,0.4,0.5,0.6c0.1,0.2,0.2,0.3,0.4,0.5c0.1,0.1,0.2,0.3,0.3,0.4c0.1,0.2,0.3,0.4,0.4,0.6c0.7,1.3,1.3,3,1.8,4.9
			c0,0.1,0,0.2,0.1,0.2c0,0,0,0,0,0.1c0.1,0.3,0.1,0.6,0.2,0.9c0,0.1,0,0.1,0,0.2c0,0.2,0.1,0.3,0.1,0.5c0,0.2,0.1,0.3,0.1,0.5
			c0.1,0.4,0.1,0.7,0.2,1.1c0.1,1,0.2,2,0.4,3.1l0.1,0.6c0.6,5.3,1.1,11.7,1.5,18.8c0.1,1.3,0.2,2.6,0.3,3.9
			C438.1,506.6,438.2,509,438.3,511.5z"/>
		<path class="st10" d="M457.2,345c-11.7-13.5-10.1-40.3-10.1-40.3c-2.8-1-5.6-2.1-8.4-3.3l1.1-4.6c5.9,3.5,10,5.8,10.3,6
			c-0.4-0.3-4.5-3.6-9.8-8.3c-11.9-10.4-29.9-27.6-26.6-33.8c2-3.8,4.7-5.2,7.6-5.4c4-0.3,8.5,1.8,11.9,2.9
			c2.9,0.9,8.9,5.6,14.5,10.1c0,0,0,0,0,0C448,269.4,460.6,308.6,457.2,345z"/>
		<path class="st11" d="M316.8,207.3c-3.3,1.8-6.3,3.9-9,6h0c-10.7,8.3-16.7,17.6-16.7,17.6s-43.8,46.7-80.1,46.7
			c-17.7,0-30-3.9-38-7.9c-3.1-1.6-5.5-3.2-7.4-4.5c0,0,39.8-58,142.2-58C310.9,207.3,313.9,207.3,316.8,207.3z"/>
		<path class="st11" d="M452.1,263.9c-8.5-7.6-22.6-21.4-35.2-38c-1.7-2.2-3.5-4.3-5.3-6.2C433.3,228.7,443.9,242.9,452.1,263.9z"/>
		<path class="st11" d="M446.3,300.7c-0.1,0.6-0.3,2.2-0.3,3.6c-2.4-0.9-4.9-1.8-7.4-2.9c-0.4-0.2-0.8-0.3-1.2-0.5
			c-0.8-0.3-1.6-0.7-2.4-1.1c-0.8-0.4-1.6-0.7-2.4-1.1c0,0,0,0-0.1,0c-0.8-0.4-1.6-0.8-2.4-1.1c-4-1.9-7.9-4-11.7-6.1
			c-18.6-10.4-33.7-21.8-33.7-21.8c-13.8-7.3-26.2-8.6-36.9-6.2c-20.5,4.5-34.7,22.8-40.2,39.2c-8.4,25-50.5,62.8-96.8,62.8
			c-30.3,0-49.7-26-59.5-43.9c-2.8-12-2.5-21.5-2.5-21.5c1.9,3.1,3.5,6.8,3.5,6.8S169.9,359,211,359c57.4,0,86.9-56.1,86.9-56.1
			s10-40.9,41.8-45.7c31.9-4.8,40.1-0.8,55.7,11.2c4.9,3.8,12,8.5,19.6,13.3c2.1,1.3,4.2,2.7,6.3,4c0.5,0.3,1,0.6,1.5,1
			c4.9,3,9.6,5.8,13.7,8.3c1.1,0.7,2.1,1.3,3.1,1.9C442.3,298.4,444.5,299.7,446.3,300.7z"/>
		<path class="st12" d="M460.4,277.7c-1.2,0-6.8-4.6-12.8-9.4c0,0,0,0,0,0c-5.6-4.5-11.6-9.1-14.5-10.1c-3.5-1.1-7.9-3.2-11.9-2.9
			c-2.9,0.2-5.6,1.6-7.6,5.4c-3.3,6.2,14.7,23.5,26.6,33.8c5.3,4.7,9.4,8,9.8,8.3c-0.2-0.1-1.6-0.9-3.8-2.2c-1.7-1-4-2.3-6.6-3.9
			c-1-0.6-2-1.2-3.1-1.9c-4.1-2.5-8.9-5.3-13.7-8.3c-0.5-0.3-1-0.6-1.5-1c-2.1-1.3-4.2-2.6-6.3-4c-7.6-4.8-14.7-9.6-19.6-13.3
			c-15.5-12-23.8-16-55.7-11.2c-31.9,4.8-41.8,45.7-41.8,45.7s-12.1,23-35.9,39.6c-13.3,9.3-30.3,16.5-51,16.5
			c-41,0-58.6-52.1-58.6-52.1s-1.6-3.7-3.5-6.8c-0.8-1.3-1.7-2.6-2.5-3.4c-2.8-2.6,0-30,14.7-35.4c0,0,1.4,1.7,4.4,4
			c6.5,4.9,20.7,12.4,45.4,12.4c7.7,0,15.6-2.1,23.5-5.4c29.3-12.3,56.6-41.3,56.6-41.3s9.4-14.6,25.7-23.7c6.9-3.8,15-6.7,24.1-7
			c27.8-0.9,52.7,1,70.8,19.4c1.8,1.9,3.6,3.9,5.3,6.2c12.6,16.6,26.7,30.5,35.2,38c3.9,3.4,6.6,5.6,7.5,6.1
			C462.4,271.5,462.8,277.7,460.4,277.7z"/>
		<path class="st13" d="M457.9,345.9c-3.6,5.6-28.5,37.8-135.8,51.6c-30.1,3.9-66.7,6.3-111.1,6.3c-41.1,0-66.3-95.5-67.2-99
			c0.3,0.9,2.8,7.8,7.7,16.7c9.8,18,29.2,43.9,59.5,43.9c23,0,45-9.3,62.3-21.8c0.1-0.1,0.2-0.2,0.3-0.2
			c17.4-12.6,30-28.3,34.2-40.8c5.5-16.4,19.7-34.7,40.2-39.2c10.7-2.4,23.1-1,36.9,6.2c0,0,15,11.3,33.7,21.8
			c3.8,2.1,7.7,4.2,11.7,6.1c0.8,0.4,1.6,0.8,2.4,1.1c0,0,0,0,0.1,0c0.8,0.4,1.6,0.7,2.4,1.1c0.8,0.4,1.6,0.7,2.4,1.1
			c0.4,0.2,0.8,0.4,1.2,0.5c2.5,1,4.9,2,7.4,2.9c0.4,0.1,0.7,0.3,1.1,0.4c0,0-1.6,26.8,10.1,40.3
			C457.4,345.3,457.7,345.6,457.9,345.9z"/>
		<path class="st11" d="M376.6,511.5H149.1c-6-37.6-9.9-88.8,8.5-105.2c0,0,65.8-3.8,131.7-2.6c0,0,94.2,9.1,106.6,13.8
			C403.3,420.4,389.1,471.4,376.6,511.5z"/>
		<path class="st11" d="M391,330.2c-3.8,8.8-10.7,15-19.6,16.5c-9.7,1.6-19.6-2.8-27.3-11c0,0,0,0,0,0c-5.8-6.2-10.4-14.5-12.5-24
			c-5.1-22.1,4.6-42.4,21.6-45.2c17-2.8,34.8,12.8,39.9,35C395.4,312,394.5,322.1,391,330.2z"/>
		<path class="st12" d="M405.6,400.4c0,0-5.8,37.5-13.4,74.6c-2.6,12.7-5.4,25.4-8.2,36.5H144.1c-1.1-11.1-1.5-21.4-4-35.4
			c-4.4-24.2,4.4-63.7,11.6-70.5c7.2-6.8,15.5-3.8,19.5-3.8c4,0-4,40.3,6,42.5c14.2-7.8,45.7-9.1,77.5-8c5.5,0.2,10.9,0.5,16.3,0.8
			c38.4,2.3,73.1,7.2,73.1,7.2l24.3-42.5c0,0,13.4-5.3,25.7-4.6C398.2,397.5,402.2,398.4,405.6,400.4z"/>
		<path class="st14" d="M162.7,430.6c-1,8.5-6.2,20.5-12.3,18.5c-6.7-2.2-18.7,2.3-20,3.1c-1.3,0.8-6.2,4.1-8.4,1.4
			c-3.4-3.9-2.5-11.1-1.6-15.5c0.4-2.1,0.9-3.5,0.9-3.5l1.4-7.1c0,0,40.5-7.4,40.2,1C162.9,429.2,162.8,429.9,162.7,430.6z"/>
		<path class="st15" d="M162.7,430.6L162.7,430.6c0,0-26.3-2.1-33.4-0.2c-3.7,1-6.8,4.6-8.9,7.8c0.4-2.1,0.9-3.5,0.9-3.5l1.4-7.1
			c0,0,40.5-7.4,40.2,1C162.9,429.2,162.8,429.9,162.7,430.6z"/>
		<path class="st16" d="M169.9,419.2c0,0-10.2-19.4-32.3-25s-19.9,44.1-19.9,44.1s9.6-9.8,13.8-10.3c8.2-1.1,29-1.2,34.2,1.2
			C165.8,429.2,169.6,424.6,169.9,419.2z"/>
		<path class="st17" d="M118.6,418.3c-0.2,0.5-0.4,0.9-0.6,1.3c0,0,0,0,0,0c-0.2,0.3-0.3,0.6-0.4,0.9c0,0,0.6-3.4,1.5-7.4
			c0.6-2.7,1.4-5.7,2.2-8.2c0.7-1.9,1.4-3.6,2.1-4.5c0,0.1,0,0.2,0,0.3c0,0.2,0,0.3-0.1,0.5C122.3,407.9,120.2,414.5,118.6,418.3z"
			/>
		<path class="st18" d="M381.8,317c-1.7,7.8-6.8,13.6-13.7,14.8c-5.3,0.9-10.7-1.1-15.1-4.9c0,0,0,0,0,0c-4.6-4-8.3-10-9.9-17.1
			c-3.2-13.9,2.9-26.7,13.6-28.5c10.7-1.8,21.9,8.1,25.1,22C382.8,308.2,382.8,312.9,381.8,317z"/>
		<path class="st11" d="M451,280.6c0,0-9.1,9.1,3.6,17C454.6,297.7,454.3,287.7,451,280.6z"/>
		<path class="st19" d="M316.8,207.3c-3.3,1.8-6.3,3.9-9,6h0c-47.1-0.3-57.7,10.5-57.7,10.5c11.6-3.4,29.1,0,29.1,2.7
			c0,2.7-29.1,24.2-46.6,34c-17.5,9.8-45,6.8-47,3.3c-2-3.5,7-12.5,7-12.5c-10.5,4.8-19.5,18.3-19.5,18.3c-3.1-1.6-5.5-3.2-7.4-4.5
			c0,0,39.8-58,142.2-58C310.9,207.3,313.9,207.3,316.8,207.3z"/>
		<path class="st20" d="M168.5,265c0,0,43.4-56.3,141-56.3l-3.6,2.2c0,0-76.5-3.6-135.1,54.1H168.5z"/>
		
			<ellipse transform="matrix(0.9276 -0.3736 0.3736 0.9276 -77.4527 102.7458)" class="st11" cx="226.4" cy="251.2" rx="25.1" ry="14.9"/>
		<path class="st19" d="M391,330.2L391,330.2c0.6-13.4-3.4-26.4-5-30.8c2.4,8.4-4.2,17.7-4.2,17.7l0,0c0.9-4.1,0.9-8.8-0.2-13.7
			c-3.2-14-14.4-23.8-25.1-22c-10.7,1.8-16.8,14.5-13.6,28.5c1.6,7.1,5.3,13.1,9.9,17.1c-11.4-5.1-15.2-18.6-15.2-18.6
			c-2.7,8.1,6.2,26.9,6.5,27.4c-5.8-6.2-10.4-14.5-12.5-24c-5.1-22.1,4.6-42.4,21.6-45.2c17-2.8,34.8,12.8,39.9,35
			C395.4,312,394.5,322.1,391,330.2z"/>
		<path class="st20" d="M380.5,283.8c0,0-9.8-14.3-26.9-12.9c-17.1,1.4-19.7,26.8-19.7,26.8s0-27.7,18.7-30.1
			S380.5,283.8,380.5,283.8z"/>
		<path class="st21" d="M261.9,342.5c-13.3,9.3-30.3,16.5-51,16.5c-41,0-58.6-52.1-58.6-52.1s-1.6-3.7-3.5-6.8
			c-0.8-1.3-1.7-2.6-2.5-3.4c-2.8-2.6,0-30,14.7-35.4c0,0,1.4,1.7,4.4,4c6.5,4.9,20.7,12.4,45.4,12.4c7.7,0,15.6-2.1,23.5-5.4
			c0,0-25.9,17.2-54.2,14.8c0,0-5.6,6.4,0,13.8C214.6,317.5,217.7,341.3,261.9,342.5z"/>
		<path class="st21" d="M322.1,397.5c-30.1,3.9-66.7,6.3-111.1,6.3c-41.1,0-66.3-95.5-67.2-99c0.3,0.9,2.8,7.8,7.7,16.7
			c9.8,18,29.2,43.9,59.5,43.9c23,0,45-9.3,62.3-21.8c0.3,0.2,0.5,0.3,0.5,0.3c0.1,0.3,0.2,0.6,0.3,1
			C276.2,353.4,288.1,391.2,322.1,397.5z"/>
		<path class="st21" d="M263.1,511.5h-119c-1.1-11.1-1.5-21.4-4-35.4c-4.4-24.2,4.4-63.7,11.6-70.5c7.2-6.8,15.5-3.8,19.5-3.8
			c4,0-4,40.3,6,42.5c14.2-7.8,45.7-9.1,77.5-8c-5.6,1.2-12.8,3.9-21.7,9.2C214.8,456.4,243.1,490.6,263.1,511.5z"/>
		<path class="st22" d="M408.9,501.8l1.1,9.7h-0.6v0c0,0-0.1,0-0.2,0h-3.5c-0.2-2-0.5-3.9-0.7-5.8c-0.2-1.3-0.3-2.7-0.5-3.9
			c-0.1-1-0.3-2-0.4-3c-0.1-0.9-0.2-1.7-0.3-2.6c-0.3-2.6-0.6-5.1-0.9-7.4c-0.1-0.8-0.2-1.7-0.3-2.4c-0.3-2.5-0.6-4.8-0.8-6.7
			c0-0.1,0-0.3,0-0.4c0-0.2,0-0.3-0.1-0.4c-0.1-0.5-0.1-0.9-0.2-1.3c0-0.1,0-0.1,0-0.2c0-0.3-0.1-0.6-0.1-0.9c0-0.4-0.1-0.7-0.1-1
			c0-0.2-0.1-0.4-0.1-0.6c-0.1-0.5-0.1-0.9-0.2-1.2c0-0.3-0.1-0.6-0.1-0.8c0-0.1,0-0.2,0-0.2c0,0,0-0.1,0-0.1c0,0,0-0.1,0-0.1
			c0-0.1,0-0.1,0-0.1c0,0,0-0.1,0-0.1s0.1-0.1,0.4-0.3c0,0,0.1-0.1,0.2-0.1c0.1-0.1,0.3-0.2,0.4-0.3c11-1.6,27.3,2.4,33.3,4.3
			c0,0.2,0.1,0.3,0.1,0.5c0,0.2,0.1,0.3,0.1,0.5c0.1,0.4,0.1,0.7,0.2,1.1c0.1,1,0.2,2,0.4,3.1c0,0-26.8-5.2-28.9-4.9
			c-2.1,0.4,1.3,21.2,1.3,21.2s18.6,1.6,29.1,3.1c0.1,1.3,0.2,2.6,0.3,3.9L408.9,501.8z"/>
		<path class="st21" d="M405.6,400.4c0,0-5.8,37.5-13.4,74.6c-9.7-4.6-18.1-28-18.1-28s-1.9,3.2-4.6,0c-2.7-3.2-11.7-11.2-10.9-19.3
			c0.7-7.8,33.4-29.2,35.4-30.5C398.2,397.5,402.2,398.4,405.6,400.4z"/>
		<path class="st23" d="M453.5,478.5c-4.2,4-13.4-0.9-15.9-2c-0.4-0.2-1.1-0.4-2.2-0.8c-6.1-1.9-22.4-5.9-33.3-4.3
			c-0.8,0.1-1.7,0.3-2.4,0.5c-11.6,2.9-21.3-14.8-23.2-27.2c-0.2-1.1-0.3-2.1-0.3-3.1c-0.6-12.3,76.1-1.4,76.1-1.4l2.7,10.4
			c0,0,0.9,2.1,1.7,5.2C458.3,462.1,459.8,472.8,453.5,478.5z"/>
		<path class="st24" d="M376.4,444.6L376.4,444.6c0,0,49.9-3.1,63.3-0.4c7,1.5,12.9,6.7,16.9,11.4c-0.8-3.1-1.7-5.2-1.7-5.2
			l-2.7-10.4c0,0-76.7-10.9-76.1,1.4C376.1,442.5,376.2,443.6,376.4,444.6z"/>
		<path class="st23" d="M363.7,427.9c0,0,19.2-28.6,61.1-36.7c41.8-8.2,37.7,64.9,37.7,64.9s-18.2-14.4-26.2-15.2
			c-15.5-1.7-54.8-1.7-64.8,1.7C371.5,442.6,364.3,435.8,363.7,427.9z"/>
		<path class="st11" d="M461.6,433.6c-0.9-0.5-1.8-1.1-2.6-1.7c0,0,0,0,0,0c-1-0.7-2-1.5-2.9-2.4c-7.3-6.8-13.3-18.1-10.6-29.6
			c0.2-0.7,0.4-1.4,0.6-2.2c0.1-0.3,0.2-0.6,0.3-0.9c0.1-0.2,0.1-0.4,0.2-0.6c5.3,1.9,8.9,5,11.4,8.6c3.1,4.7,4.3,10.2,4.6,15.2
			C463.1,427.4,461.6,433.6,461.6,433.6z"/>
		<path class="st19" d="M461.6,433.6c-0.9-0.5-1.8-1.1-2.6-1.7c2.9-5.8-0.9-17.7-0.9-17.7s1.9,13.4-0.9,12.6
			c-2.8-0.8-10.8-22.8-9.3-23.1c1.5-0.2,6.6,3.1,6.9,3.3c-1.3-3.4-9.3-7.2-9.3-7.2c0.2-0.7,0.4-1.4,0.6-2.2c0.1-0.3,0.2-0.6,0.3-0.9
			c0.1-0.2,0.1-0.4,0.2-0.6c5.3,1.9,8.9,5,11.4,8.6c3.1,4.7,4.3,10.2,4.6,15.2C463.1,427.4,461.6,433.6,461.6,433.6z"/>
		<path class="st20" d="M447.1,397.9l-0.7,1.4c0,0,16.1,3.5,13.6,32.3l1,0.9C461.1,432.5,466.5,406.8,447.1,397.9z"/>
		<path class="st20" d="M415.8,223.3c0,0,21.6,11.9,33.5,35.8C449.2,259.1,433.7,239.3,415.8,223.3z"/>
		<path class="st20" d="M451,282.4c0,0,3,11.4,3,13.7S449.6,285,451,282.4z"/>
		<path class="st10" d="M278.3,427.8c0,0-9.5-0.1-22.2-0.7c0,0,0,0,0,0c-22-1-53.5-3.5-61.8-9.5c0,0-6.4-25.6,5.2-42.9
			c0,0,24.7-3.3,50.2-0.4c13.6,1.5,27.4,4.8,37.8,11.3C287.5,385.6,295.8,410.4,278.3,427.8z"/>
		<path class="st24" d="M256.1,427.1c-22-1-53.5-3.5-61.8-9.5c0,0-6.4-25.6,5.2-42.9c0,0,24.7-3.3,50.2-0.4
			C248.8,374.7,209.1,398.4,256.1,427.1z"/>
	</g>
	<g>
		<path class="st25" d="M169.2,455.1C169.2,455.1,169.2,455.2,169.2,455.1c0,0.1,0,0.2,0,0.3c0,0,0,0.1,0,0.2c0,0,0,0.1,0,0.1
			c0,0.1,0,0.2,0,0.3c0,0.3-0.1,0.7-0.1,1.2c0,0.5-0.1,1.1-0.2,1.8c0,0.3-0.1,0.6-0.1,0.8c0,0.4-0.1,0.9-0.1,1.4
			c0,0.4-0.1,0.8-0.1,1.3c0,0.1,0,0.2,0,0.2c-0.1,0.6-0.1,1.2-0.2,1.9c0,0.2,0,0.4-0.1,0.6c0,0.2,0,0.4-0.1,0.7
			c-0.2,2.8-0.5,6.1-0.8,9.7c-0.1,1.1-0.2,2.3-0.3,3.5c-0.3,3.3-0.6,6.9-0.9,10.7c-0.1,1.2-0.2,2.5-0.3,3.8
			c-0.1,1.4-0.2,2.9-0.4,4.4c-0.2,1.9-0.3,3.8-0.5,5.7c-0.2,2.7-0.4,5.5-0.7,8.4h-3.5c-0.1,0-0.2,0-0.2,0v0h-28.9
			c0.7-17.1,1.5-32.8,2.3-44.5c0.1-1.6,0.2-3.1,0.3-4.5c0-0.5,0.1-1.1,0.2-1.6c0-0.2,0.1-0.5,0.1-0.7c0-0.3,0.1-0.7,0.1-1
			c0.1-0.4,0.1-0.9,0.2-1.3c0,0,0-0.1,0-0.1c0-0.1,0-0.2,0.1-0.3c0.4-2.8,1-5.1,1.8-7.1c0.1-0.3,0.2-0.6,0.4-0.9
			c0.1-0.2,0.2-0.4,0.3-0.6c0.1-0.3,0.2-0.5,0.4-0.8c0.1-0.3,0.3-0.6,0.5-0.8c0.4-0.6,0.8-1.2,1.2-1.7c0.2-0.2,0.4-0.5,0.6-0.7
			c0.2-0.2,0.3-0.3,0.5-0.5c0.1-0.1,0.2-0.2,0.3-0.3c0.1-0.1,0.2-0.1,0.2-0.2c0.1-0.1,0.2-0.1,0.2-0.2c6.8-5.5,16.7,1,22.7,5.9
			c0.4,0.3,0.8,0.6,1.1,0.9c0.3,0.3,0.6,0.5,0.8,0.7c0.8,0.7,1.5,1.4,2,1.9C168.8,454.7,169.2,455.1,169.2,455.1z"/>
		<path class="st26" d="M439,512.4h-28.8v0c0,0-0.1,0-0.2,0h-3.5c-0.2-2-0.5-3.9-0.7-5.8c-0.2-1.3-0.3-2.7-0.5-3.9
			c-0.1-1-0.3-2-0.4-3c-0.1-0.9-0.2-1.7-0.3-2.6c-0.3-2.6-0.6-5.1-0.9-7.4c-0.1-0.8-0.2-1.7-0.3-2.4c-0.3-2.5-0.6-4.8-0.8-6.7
			c0-0.1,0-0.3,0-0.4c0-0.2,0-0.3-0.1-0.4c-0.1-0.5-0.1-0.9-0.2-1.3c0-0.1,0-0.1,0-0.2c0-0.3-0.1-0.6-0.1-0.9c0-0.4-0.1-0.7-0.1-1
			c0-0.2-0.1-0.4-0.1-0.6c-0.1-0.5-0.1-0.9-0.2-1.2c0-0.3-0.1-0.6-0.1-0.8c0-0.1,0-0.2,0-0.2c0,0,0-0.1,0-0.1c0,0,0-0.1,0-0.1
			c0-0.1,0-0.1,0-0.1c0,0,0-0.1,0-0.1s0.1-0.1,0.4-0.3c0,0,0.1-0.1,0.2-0.1c0.1-0.1,0.3-0.2,0.4-0.3c0,0,0.1-0.1,0.2-0.1
			c0.5-0.4,1.2-0.8,2-1.3c0.3-0.2,0.6-0.3,0.8-0.5c0.4-0.2,0.7-0.4,1.1-0.6c6-3.4,16-7.8,22.7-4.1c0.1,0,0.2,0.1,0.2,0.2
			c0.1,0,0.2,0.1,0.2,0.1c0.1,0,0.2,0.1,0.3,0.2c0.2,0.1,0.3,0.2,0.5,0.3c0.2,0.2,0.4,0.3,0.6,0.5c0.4,0.4,0.8,0.8,1.2,1.2
			c0.2,0.2,0.3,0.4,0.5,0.6c0.1,0.2,0.2,0.3,0.4,0.5c0.1,0.1,0.2,0.3,0.3,0.4c0.1,0.2,0.3,0.4,0.4,0.6c0.7,1.3,1.3,3,1.8,4.9
			c0,0.1,0,0.2,0.1,0.2c0,0,0,0,0,0.1c0.1,0.3,0.1,0.6,0.2,0.9c0,0.1,0,0.1,0,0.2c0,0.2,0.1,0.3,0.1,0.5c0,0.2,0.1,0.3,0.1,0.5
			c0.1,0.4,0.1,0.7,0.2,1.1c0.1,1,0.2,2,0.4,3.1l0.1,0.6c0.6,5.3,1.1,11.7,1.5,18.8c0.1,1.3,0.2,2.6,0.3,3.9
			C438.7,507.5,438.9,509.9,439,512.4z"/>
		<path class="st27" d="M457.8,345.9c-11.7-13.5-10.1-40.3-10.1-40.3c-2.8-1-5.6-2.1-8.4-3.3l1.1-4.6c5.9,3.5,10,5.8,10.3,6
			c-0.4-0.3-4.5-3.6-9.8-8.3c-11.9-10.4-29.9-27.6-26.6-33.8c2-3.8,4.7-5.2,7.6-5.4c4-0.3,8.5,1.8,11.9,2.9
			c2.9,0.9,8.9,5.6,14.5,10.1c0,0,0,0,0,0C448.7,270.3,461.3,309.5,457.8,345.9z"/>
		<path class="st28" d="M317.5,208.2c-3.3,1.8-6.3,3.9-9,6h0c-10.7,8.3-16.7,17.6-16.7,17.6s-43.8,46.7-80.1,46.7
			c-17.7,0-30-3.9-38-7.9c-3.1-1.6-5.5-3.2-7.4-4.5c0,0,39.8-58,142.2-58C311.6,208.2,314.6,208.2,317.5,208.2z"/>
		<path class="st28" d="M452.8,264.8c-8.5-7.6-22.6-21.4-35.2-38c-1.7-2.2-3.5-4.3-5.3-6.2C434,229.6,444.6,243.8,452.8,264.8z"/>
		<path class="st28" d="M446.9,301.6c-0.1,0.6-0.3,2.2-0.3,3.6c-2.4-0.9-4.9-1.8-7.4-2.9c-0.4-0.2-0.8-0.3-1.2-0.5
			c-0.8-0.3-1.6-0.7-2.4-1.1c-0.8-0.4-1.6-0.7-2.4-1.1c0,0,0,0-0.1,0c-0.8-0.4-1.6-0.8-2.4-1.1c-4-1.9-7.9-4-11.7-6.1
			c-18.6-10.4-33.7-21.8-33.7-21.8c-13.8-7.3-26.2-8.6-36.9-6.2c-20.5,4.5-34.7,22.8-40.2,39.2c-8.4,25-50.5,62.8-96.8,62.8
			c-30.3,0-49.7-26-59.5-43.9c-2.8-12-2.5-21.5-2.5-21.5c1.9,3.1,3.5,6.8,3.5,6.8s17.5,52.1,58.6,52.1c57.4,0,86.9-56.1,86.9-56.1
			s10-40.9,41.8-45.7c31.9-4.8,40.1-0.8,55.7,11.2c4.9,3.8,12,8.5,19.6,13.3c2.1,1.3,4.2,2.7,6.3,4c0.5,0.3,1,0.6,1.5,1
			c4.9,3,9.6,5.8,13.7,8.3c1.1,0.7,2.1,1.3,3.1,1.9C443,299.3,445.2,300.6,446.9,301.6z"/>
		<path class="st29" d="M461.1,278.6c-1.2,0-6.8-4.6-12.8-9.4c0,0,0,0,0,0c-5.6-4.5-11.6-9.1-14.5-10.1c-3.5-1.1-7.9-3.2-11.9-2.9
			c-2.9,0.2-5.6,1.6-7.6,5.4c-3.3,6.2,14.7,23.5,26.6,33.8c5.3,4.7,9.4,8,9.8,8.3c-0.2-0.1-1.6-0.9-3.8-2.2c-1.7-1-4-2.3-6.6-3.9
			c-1-0.6-2-1.2-3.1-1.9c-4.1-2.5-8.9-5.3-13.7-8.3c-0.5-0.3-1-0.6-1.5-1c-2.1-1.3-4.2-2.6-6.3-4c-7.6-4.8-14.7-9.6-19.6-13.3
			c-15.5-12-23.8-16-55.7-11.2c-31.9,4.8-41.8,45.7-41.8,45.7s-12.1,23-35.9,39.6c-13.3,9.3-30.3,16.5-51,16.5
			c-41,0-58.6-52.1-58.6-52.1s-1.6-3.7-3.5-6.8c-0.8-1.3-1.7-2.6-2.5-3.4c-2.8-2.6,0-30,14.7-35.4c0,0,1.4,1.7,4.4,4
			c6.5,4.9,20.7,12.4,45.4,12.4c7.7,0,15.6-2.1,23.5-5.4c29.3-12.3,56.6-41.3,56.6-41.3s9.4-14.6,25.7-23.7c6.9-3.8,15-6.7,24.1-7
			c27.8-0.9,52.7,1,70.8,19.4c1.8,1.9,3.6,3.9,5.3,6.2c12.6,16.6,26.7,30.5,35.2,38c3.9,3.4,6.6,5.6,7.5,6.1
			C463.1,272.4,463.5,278.6,461.1,278.6z"/>
		<path class="st30" d="M458.6,346.8c-3.6,5.6-28.5,37.8-135.8,51.6c-30.1,3.9-66.7,6.3-111.1,6.3c-41.1,0-66.3-95.5-67.2-99
			c0.3,0.9,2.8,7.8,7.7,16.7c9.8,18,29.2,43.9,59.5,43.9c23,0,45-9.3,62.3-21.8c0.1-0.1,0.2-0.2,0.3-0.2
			c17.4-12.6,30-28.3,34.2-40.8c5.5-16.4,19.7-34.7,40.2-39.2c10.7-2.4,23.1-1,36.9,6.2c0,0,15,11.3,33.7,21.8
			c3.8,2.1,7.7,4.2,11.7,6.1c0.8,0.4,1.6,0.8,2.4,1.1c0,0,0,0,0.1,0c0.8,0.4,1.6,0.7,2.4,1.1c0.8,0.4,1.6,0.7,2.4,1.1
			c0.4,0.2,0.8,0.4,1.2,0.5c2.5,1,4.9,2,7.4,2.9c0.4,0.1,0.7,0.3,1.1,0.4c0,0-1.6,26.8,10.1,40.3
			C458.1,346.2,458.4,346.5,458.6,346.8z"/>
		<path class="st28" d="M377.3,512.4H149.8c-6-37.6-9.9-88.8,8.5-105.2c0,0,65.8-3.8,131.7-2.6c0,0,94.2,9.1,106.6,13.8
			C404,421.3,389.8,472.3,377.3,512.4z"/>
		<path class="st28" d="M391.7,331.1c-3.8,8.8-10.7,15-19.6,16.5c-9.7,1.6-19.6-2.8-27.3-11c0,0,0,0,0,0c-5.8-6.2-10.4-14.5-12.5-24
			c-5.1-22.1,4.6-42.4,21.6-45.2c17-2.8,34.8,12.8,39.9,35C396.1,312.9,395.2,323,391.7,331.1z"/>
		<path class="st29" d="M406.3,401.3c0,0-5.8,37.5-13.4,74.6c-2.6,12.7-5.4,25.4-8.2,36.5H144.8c-1.1-11.1-1.5-21.4-4-35.4
			c-4.4-24.2,4.4-63.7,11.6-70.5c7.2-6.8,15.5-3.8,19.5-3.8c4,0-4,40.3,6,42.5c14.2-7.8,45.7-9.1,77.5-8c5.5,0.2,10.9,0.5,16.3,0.8
			c38.4,2.3,73.1,7.2,73.1,7.2l24.3-42.5c0,0,13.4-5.3,25.7-4.6C398.9,398.4,402.9,399.3,406.3,401.3z"/>
		<path class="st31" d="M163.4,431.5c-1,8.5-6.2,20.5-12.3,18.5c-6.7-2.2-18.7,2.3-20,3.1c-1.3,0.8-6.2,4.1-8.4,1.4
			c-3.4-3.9-2.5-11.1-1.6-15.5c0.4-2.1,0.9-3.5,0.9-3.5l1.4-7.1c0,0,40.5-7.4,40.2,1C163.6,430,163.5,430.8,163.4,431.5z"/>
		<path class="st32" d="M163.4,431.5L163.4,431.5c0,0-26.3-2.1-33.4-0.2c-3.7,1-6.8,4.6-8.9,7.8c0.4-2.1,0.9-3.5,0.9-3.5l1.4-7.1
			c0,0,40.5-7.4,40.2,1C163.6,430,163.5,430.8,163.4,431.5z"/>
		<path class="st33" d="M170.6,420.1c0,0-10.2-19.4-32.3-25c-22.1-5.6-19.9,44.1-19.9,44.1s9.6-9.8,13.8-10.3
			c8.2-1.1,29-1.2,34.2,1.2C166.5,430.1,170.3,425.5,170.6,420.1z"/>
		<path class="st34" d="M119.3,419.2c-0.2,0.5-0.4,0.9-0.6,1.3c0,0,0,0,0,0c-0.2,0.3-0.3,0.6-0.4,0.9c0,0,0.6-3.4,1.5-7.4
			c0.6-2.7,1.4-5.7,2.2-8.2c0.7-1.9,1.4-3.6,2.1-4.5c0,0.1,0,0.2,0,0.3c0,0.2,0,0.3-0.1,0.5C123,408.8,120.9,415.4,119.3,419.2z"/>
		<path class="st35" d="M382.5,317.9c-1.7,7.8-6.8,13.6-13.7,14.8c-5.3,0.9-10.7-1.1-15.1-4.9c0,0,0,0,0,0c-4.6-4-8.3-10-9.9-17.1
			c-3.2-13.9,2.9-26.7,13.6-28.5c10.7-1.8,21.9,8.1,25.1,22C383.5,309.1,383.5,313.8,382.5,317.9z"/>
		<path class="st28" d="M451.7,281.5c0,0-9.1,9.1,3.6,17C455.3,298.6,454.9,288.6,451.7,281.5z"/>
		<path class="st36" d="M317.5,208.2c-3.3,1.8-6.3,3.9-9,6h0c-47.1-0.3-57.7,10.5-57.7,10.5c11.6-3.4,29.1,0,29.1,2.7
			c0,2.7-29.1,24.2-46.6,34c-17.5,9.8-45,6.8-47,3.3c-2-3.5,7-12.5,7-12.5c-10.5,4.8-19.5,18.3-19.5,18.3c-3.1-1.6-5.5-3.2-7.4-4.5
			c0,0,39.8-58,142.2-58C311.6,208.2,314.6,208.2,317.5,208.2z"/>
		<path class="st37" d="M169.2,265.9c0,0,43.4-56.3,141-56.3l-3.6,2.2c0,0-76.5-3.6-135.1,54.1H169.2z"/>
		
			<ellipse transform="matrix(0.9276 -0.3736 0.3736 0.9276 -77.7342 103.0698)" class="st28" cx="227" cy="252.1" rx="25.1" ry="14.9"/>
		<path class="st36" d="M391.7,331.1L391.7,331.1c0.6-13.4-3.4-26.4-5-30.8c2.4,8.4-4.2,17.7-4.2,17.7l0,0c0.9-4.1,0.9-8.8-0.2-13.7
			c-3.2-14-14.4-23.8-25.1-22c-10.7,1.8-16.8,14.5-13.6,28.5c1.6,7.1,5.3,13.1,9.9,17.1c-11.4-5.1-15.2-18.6-15.2-18.6
			c-2.7,8.1,6.2,26.9,6.5,27.4c-5.8-6.2-10.4-14.5-12.5-24c-5.1-22.1,4.6-42.4,21.6-45.2c17-2.8,34.8,12.8,39.9,35
			C396.1,312.9,395.2,323,391.7,331.1z"/>
		<path class="st37" d="M381.2,284.7c0,0-9.8-14.3-26.9-12.9c-17.1,1.4-19.7,26.8-19.7,26.8s0-27.7,18.7-30.1
			C372,266.1,381.2,284.7,381.2,284.7z"/>
		<path class="st38" d="M262.6,343.4c-13.3,9.3-30.3,16.5-51,16.5c-41,0-58.6-52.1-58.6-52.1s-1.6-3.7-3.5-6.8
			c-0.8-1.3-1.7-2.6-2.5-3.4c-2.8-2.6,0-30,14.7-35.4c0,0,1.4,1.7,4.4,4c6.5,4.9,20.7,12.4,45.4,12.4c7.7,0,15.6-2.1,23.5-5.4
			c0,0-25.9,17.2-54.2,14.8c0,0-5.6,6.4,0,13.8C215.3,318.4,218.4,342.2,262.6,343.4z"/>
		<path class="st38" d="M322.8,398.4c-30.1,3.9-66.7,6.3-111.1,6.3c-41.1,0-66.3-95.5-67.2-99c0.3,0.9,2.8,7.8,7.7,16.7
			c9.8,18,29.2,43.9,59.5,43.9c23,0,45-9.3,62.3-21.8c0.3,0.2,0.5,0.3,0.5,0.3c0.1,0.3,0.2,0.6,0.3,1
			C276.9,354.2,288.8,392.1,322.8,398.4z"/>
		<path class="st38" d="M263.8,512.4h-119c-1.1-11.1-1.5-21.4-4-35.4c-4.4-24.2,4.4-63.7,11.6-70.5c7.2-6.8,15.5-3.8,19.5-3.8
			c4,0-4,40.3,6,42.5c14.2-7.8,45.7-9.1,77.5-8c-5.6,1.2-12.8,3.9-21.7,9.2C215.5,457.3,243.8,491.5,263.8,512.4z"/>
		<path class="st39" d="M409.6,502.7l1.1,9.7h-0.6v0c0,0-0.1,0-0.2,0h-3.5c-0.2-2-0.5-3.9-0.7-5.8c-0.2-1.3-0.3-2.7-0.5-3.9
			c-0.1-1-0.3-2-0.4-3c-0.1-0.9-0.2-1.7-0.3-2.6c-0.3-2.6-0.6-5.1-0.9-7.4c-0.1-0.8-0.2-1.7-0.3-2.4c-0.3-2.5-0.6-4.8-0.8-6.7
			c0-0.1,0-0.3,0-0.4c0-0.2,0-0.3-0.1-0.4c-0.1-0.5-0.1-0.9-0.2-1.3c0-0.1,0-0.1,0-0.2c0-0.3-0.1-0.6-0.1-0.9c0-0.4-0.1-0.7-0.1-1
			c0-0.2-0.1-0.4-0.1-0.6c-0.1-0.5-0.1-0.9-0.2-1.2c0-0.3-0.1-0.6-0.1-0.8c0-0.1,0-0.2,0-0.2c0,0,0-0.1,0-0.1c0,0,0-0.1,0-0.1
			c0-0.1,0-0.1,0-0.1c0,0,0-0.1,0-0.1s0.1-0.1,0.4-0.3c0,0,0.1-0.1,0.2-0.1c0.1-0.1,0.3-0.2,0.4-0.3c11-1.6,27.3,2.4,33.3,4.3
			c0,0.2,0.1,0.3,0.1,0.5c0,0.2,0.1,0.3,0.1,0.5c0.1,0.4,0.1,0.7,0.2,1.1c0.1,1,0.2,2,0.4,3.1c0,0-26.8-5.2-28.9-4.9
			c-2.1,0.4,1.3,21.2,1.3,21.2s18.6,1.6,29.1,3.1c0.1,1.3,0.2,2.6,0.3,3.9L409.6,502.7z"/>
		<path class="st38" d="M406.3,401.3c0,0-5.8,37.5-13.4,74.6c-9.7-4.6-18.1-28-18.1-28s-1.9,3.2-4.6,0c-2.7-3.2-11.7-11.2-10.9-19.3
			c0.7-7.8,33.4-29.2,35.4-30.5C398.9,398.4,402.9,399.3,406.3,401.3z"/>
		<path class="st40" d="M454.2,479.4c-4.2,4-13.4-0.9-15.9-2c-0.4-0.2-1.1-0.4-2.2-0.8c-6.1-1.9-22.4-5.9-33.3-4.3
			c-0.8,0.1-1.7,0.3-2.4,0.5c-11.6,2.9-21.3-14.8-23.2-27.2c-0.2-1.1-0.3-2.1-0.3-3.1c-0.6-12.3,76.1-1.4,76.1-1.4l2.7,10.4
			c0,0,0.9,2.1,1.7,5.2C459,463,460.5,473.7,454.2,479.4z"/>
		<path class="st41" d="M377.1,445.5L377.1,445.5c0,0,49.9-3.1,63.3-0.4c7,1.5,12.9,6.7,16.9,11.4c-0.8-3.1-1.7-5.2-1.7-5.2
			l-2.7-10.4c0,0-76.7-10.9-76.1,1.4C376.8,443.4,376.9,444.5,377.1,445.5z"/>
		<path class="st40" d="M364.4,428.8c0,0,19.2-28.6,61.1-36.7c41.8-8.2,37.7,64.9,37.7,64.9s-18.2-14.4-26.2-15.2
			c-15.5-1.7-54.8-1.7-64.8,1.7C372.2,443.5,365,436.7,364.4,428.8z"/>
		<path class="st28" d="M462.3,434.5c-0.9-0.5-1.8-1.1-2.6-1.7c0,0,0,0,0,0c-1-0.7-2-1.5-2.9-2.4c-7.3-6.8-13.3-18.1-10.6-29.6
			c0.2-0.7,0.4-1.4,0.6-2.2c0.1-0.3,0.2-0.6,0.3-0.9c0.1-0.2,0.1-0.4,0.2-0.6c5.3,1.9,8.9,5,11.4,8.6c3.1,4.7,4.3,10.2,4.6,15.2
			C463.8,428.3,462.3,434.5,462.3,434.5z"/>
		<path class="st36" d="M462.3,434.5c-0.9-0.5-1.8-1.1-2.6-1.7c2.9-5.8-0.9-17.7-0.9-17.7s1.9,13.4-0.9,12.6
			c-2.8-0.8-10.8-22.8-9.3-23.1c1.5-0.2,6.6,3.1,6.9,3.3c-1.3-3.4-9.3-7.2-9.3-7.2c0.2-0.7,0.4-1.4,0.6-2.2c0.1-0.3,0.2-0.6,0.3-0.9
			c0.1-0.2,0.1-0.4,0.2-0.6c5.3,1.9,8.9,5,11.4,8.6c3.1,4.7,4.3,10.2,4.6,15.2C463.8,428.3,462.3,434.5,462.3,434.5z"/>
		<path class="st37" d="M447.8,398.8l-0.7,1.4c0,0,16.1,3.5,13.6,32.3l1,0.9C461.8,433.4,467.2,407.7,447.8,398.8z"/>
		<path class="st37" d="M416.5,224.1c0,0,21.6,11.9,33.5,35.8C449.9,260,434.4,240.1,416.5,224.1z"/>
		<path class="st37" d="M451.7,283.3c0,0,3,11.4,3,13.7C454.7,299.2,450.3,285.9,451.7,283.3z"/>
		<path class="st27" d="M279,428.7c0,0-9.5-0.1-22.2-0.7c0,0,0,0,0,0c-22-1-53.5-3.5-61.8-9.5c0,0-6.4-25.6,5.2-42.9
			c0,0,24.7-3.3,50.2-0.4c13.6,1.5,27.4,4.8,37.8,11.3C288.2,386.4,296.5,411.3,279,428.7z"/>
		<path class="st41" d="M256.8,428c-22-1-53.5-3.5-61.8-9.5c0,0-6.4-25.6,5.2-42.9c0,0,24.7-3.3,50.2-0.4
			C249.5,375.6,209.8,399.3,256.8,428z"/>
	</g>
</g>
</svg>
