<?xml version="1.0" encoding="utf-8"?>
<!-- Generator: Adobe Illustrator 27.3.1, SVG Export Plug-In . SVG Version: 6.00 Build 0)  -->
<svg version="1.1" id="Camada_1" xmlns="http://www.w3.org/2000/svg" xmlns:xlink="http://www.w3.org/1999/xlink" x="0px" y="0px"
	 viewBox="0 0 512 512" style="enable-background:new 0 0 512 512;" xml:space="preserve">
<style type="text/css">
	.st0{fill:#006AFF;}
</style>
<g>
	<path class="st0" d="M356,265c-0.3,18.4-12.3,11.6-17.6,8.9c-5.3-2.8-20.4-1.4-25.9,1.1c-2.8,1.3-6,4-9.1,6.5
		c-3.1,2.5-5.9,4.6-7.8,4.6c-3.8,0-8.6-4.7-8.3-10c0.2-4.6-0.7-28.4,21.8-35.2c3-0.9,6.4-1.5,10.2-1.7C352.3,237.2,356,265,356,265z
		"/>
	<path class="st0" d="M224.4,276c0.3,5.3-4.5,10-8.3,10c-3.8,0-11.3-8.6-16.9-11.1c-4.4-2-14.6-3.2-21.4-2.3
		c-1.8,0.2-3.4,0.6-4.5,1.2c-5.3,2.8-17.4,9.4-17.6-8.9c0,0,2.3-16.9,19-23.4h0c0.6-0.2,1.2-0.5,1.9-0.7c0.7-0.2,1.3-0.4,2-0.6
		c1.4-0.3,3-0.6,4.6-0.8c2.8-0.4,5.8-0.5,9.2-0.3c4.1,0.2,7.7,0.9,10.9,1.9c1.8,0.6,3.4,1.2,4.8,2c0.5,0.2,1,0.5,1.4,0.8
		c1.9,1.1,3.5,2.3,4.9,3.6c0.3,0.3,0.7,0.7,1,1c0.7,0.7,1.3,1.4,1.9,2.1c0.3,0.4,0.6,0.7,0.8,1.1C224.7,261.2,224.3,272.9,224.4,276
		z"/>
	<path class="st0" d="M504.4,304.5l-1.5,0.5c0.1-0.2,0.3-0.5,0.4-0.7v0c0,0,0-0.1,0.1-0.1c0.1-0.4,0.2-0.8,0.4-1.2
		c13.2-43.7,2.8-87,0.6-95.2l0.8-1.3h0c0.2,0,0.3,0,0.3,0s0,0,0-0.1c0.1,0,0.1,0,0.1,0s-0.7-12.1-8.1-16c-6.1-3.3-22.7-3.5-28.2-3.4
		l0,0.1c0,0-0.1,0-0.1,0c1-3.7,2.2-7.5,3.4-11.4l-7.5,4.2c0.7-5.6,0.3-10-0.2-13c1-2.3,1.4-4.8,1.4-4.8
		c-10.8-60.5-51.3-76.3-51.3-76.3c1.3-8.9-3.9-11.9-3.9-11.9s-4.8-1.3-14.2,7.6c-5.9-4.5-16.8-11.6-33.4-18.2
		c-6-2.4-12.8-4.8-20.4-7c-13-3.7-28.3-6.9-46.2-8.9c-3.9-0.4-7.8-0.8-11.8-1.1h0c-0.1-0.1-0.2-0.1-0.3-0.1
		c-7.5-1.3-20.7-1.4-32.5-1.1c-0.4,0-0.7,0-1.1,0c-0.8,0-1.7,0-2.5,0.1c-0.7,0-1.4,0-2.1,0.1c-0.6,0-1.2,0-1.7,0.1
		c-2.5,0.1-4.8,0.2-6.8,0.3c-0.8,0.1-1.6,0.1-2.4,0.1c-0.4,0-0.8,0-1.2,0.1c-0.5,0-1,0.1-1.5,0.1c-0.4,0-0.7,0-1.1,0.1
		c-0.6,0-1.2,0.1-1.8,0.1c-0.2,0-0.4,0-0.5,0c-0.3,0-0.5,0.1-0.8,0.1c-0.1,0-0.1,0-0.2,0c-0.1,0-0.2,0-0.3,0
		c-12.9,1-24.7,2.5-35.2,4.5c-3.2,0.6-6.4,1.3-9.4,1.9c-13.4,3-24.7,6.7-34.2,10.4c-8,3.2-14.7,6.5-20.2,9.5
		c-6.4,3.6-11,6.8-14.2,9.3c-9.5-9.1-14.3-7.7-14.3-7.7l0.1,0.2c0,0,0-0.1-0.1-0.1c0,0-5.2,3-3.9,11.9c0,0-0.2,0.1-0.7,0.3
		c-5.4,2.4-40.7,20-50.7,75.9c0,0,0,0,0,0c0,0,0,0,0,0.1c0,0,0,0,0,0c0.1,0.6,0.7,3.7,2,5.9c-0.5,3-0.6,7.1,0,12.3l-8.4-4.6
		c0,0.1,0,0.1,0.1,0.2c1.2,3.8,2.3,7.6,3.3,11.3h-1.5c-1,0-2.1,0-3.3,0.1c-0.6,0-1.2,0-1.8,0.1c-0.4,0-0.9,0-1.4,0.1
		c-1.9,0.1-3.9,0.2-6,0.4c-1,0.1-2,0.2-3,0.3c-0.5,0.1-1,0.1-1.5,0.2c-0.6,0.1-1.3,0.2-1.9,0.3c0,0-0.1,0-0.1,0
		c-0.6,0.1-1.1,0.2-1.7,0.3c-0.5,0.1-1,0.2-1.5,0.3c-1,0.3-1.8,0.6-2.6,0.8c-0.4,0.2-0.8,0.3-1.1,0.5c-2.4,1.2-4,3.3-5.2,5.5
		c-0.3,0.6-0.6,1.1-0.8,1.7c-0.7,1.7-1.2,3.4-1.5,4.9v0c0,0,0,0,0,0c-0.4,1.9-0.6,3.3-0.6,3.8l1.1-0.2l-0.3,0.2c0,0,0,0,0,0.1
		c0,0.1-0.1,0.4-0.2,0.8c-1.9,6.9-13.1,51.3,0.5,96c0.1,0.3,0.2,0.7,0.3,1.1v0c-0.9,0-1.4,0-1.4,0s0,0,0,0c0.1,0.7,1.1,12.1,8.1,16
		c4.3,2.3,13.6,3,20.7,3.2c0,0,0.1,0,0.1,0c0.2-0.3,0.4-0.6,0.5-0.8l1.3,0.5l-0.2,0.4l-0.4,0.8l-1.2-0.6c0.6,1,1.1,2,1.7,2.9
		c0.6,1,1.1,2,1.7,2.9c1.4,2.5,2.9,5,4.4,7.5c1.3,2.1,2.6,4.2,4,6.3c1.2,1.8,2.4,3.6,3.6,5.3c0.1,0.1,0.2,0.3,0.3,0.4
		c0.6,0.9,1.2,1.8,1.8,2.6c0.6,0.8,1.2,1.7,1.8,2.5v0c2.3,3.2,4.7,6.3,7.1,9.4c2.4,3.1,4.8,6,7.3,8.9c26,30.2,55.4,51.2,83.1,65.7
		l-1.2,0.9l-0.1,0.1c0,0,0.1,0,0.1,0v0h0c0,0,0.1,0.1,0.1,0.1h0c0.2,0.1,0.4,0.2,0.6,0.3c0.1,0,0.1,0.1,0.2,0.1
		c0.1,0.1,0.2,0.1,0.2,0.1c0.2,0.1,0.3,0.2,0.5,0.3c0.2,0.1,0.4,0.2,0.6,0.3c0.1,0.1,0.3,0.1,0.4,0.2c0.1,0,0.1,0.1,0.1,0.1
		c0.2,0.1,0.5,0.2,0.7,0.4c0.5,0.3,1.1,0.6,1.7,0.9c0.3,0.1,0.5,0.3,0.8,0.4c0.5,0.2,1,0.5,1.5,0.7c0.2,0.1,0.3,0.2,0.5,0.3
		c0.1,0,0.2,0.1,0.3,0.1c0.3,0.1,0.5,0.2,0.8,0.4c0.1,0.1,0.2,0.1,0.4,0.2c0.6,0.3,1.1,0.5,1.7,0.8c0.6,0.3,1.3,0.6,2,0.9
		c0.5,0.3,1.1,0.5,1.6,0.8c0,0,0.1,0.1,0.1,0.1c0.2,0.1,0.3,0.1,0.4,0.2c0.3,0.1,0.5,0.2,0.8,0.4c0.4,0.2,0.9,0.4,1.3,0.6
		c0.2,0.1,0.5,0.2,0.7,0.3c0.2,0.1,0.4,0.2,0.7,0.3c0.8,0.3,1.6,0.7,2.4,1.1c1.6,0.7,3.2,1.4,4.9,2.1c0.6,0.3,1.2,0.5,1.8,0.8h0
		c2.5,1,5,2,7.7,3.1c0.3,0.1,0.6,0.2,0.9,0.4c0.2,0.1,0.3,0.1,0.5,0.2c0.1,0,0.2,0.1,0.3,0.1c1,0.3,1.9,0.7,2.9,1.1l1.5,0.5
		c1.2,0.4,2.4,0.8,3.6,1.3c0.1,0,0.1,0.1,0.2,0.1c0,0,0.1,0,0.1,0c0.3,0.1,0.6,0.2,1,0.3c0.1,0,0.1,0,0.2,0.1
		c0.1,0.1,0.2,0.1,0.2,0.1c0.3,0.1,0.7,0.2,1,0.3c0.1,0,0.2,0.1,0.3,0.1c0.3,0.1,0.7,0.3,1,0.3l6.1,1.9l0,0c0,0,0,0,0.1,0
		c0.1,0.1,0.2,0.1,0.2,0.1c0.1,0,0.1,0.1,0.1,0.1c0,0,0,0,0.1,0c0,0,0.1,0.1,0.1,0c0.2,0.1,0.5,0.2,0.7,0.2c0.2,0.1,0.5,0.2,0.7,0.2
		l2.8,0.8c0.2,0.1,0.3,0.1,0.5,0.2c0.6,0.2,1.1,0.3,1.7,0.5c0.6,0.2,1.3,0.3,1.9,0.5c1.4,0.4,2.8,0.7,4.2,1.1c1.4,0.3,2.9,0.7,4.3,1
		c1.4,0.3,2.9,0.6,4.3,0.9c1.4,0.3,2.9,0.6,4.3,0.8c0.6,0.1,1.1,0.2,1.7,0.3c1,0.2,2,0.3,3,0.5c1.1,0.2,2.2,0.3,3.2,0.5
		c0.1,0,0.2,0,0.3,0c0.4,0.1,0.7,0.1,1.1,0.1c0.6,0.1,1.2,0.2,1.8,0.2c0.7,0.1,1.3,0.2,2,0.2l0.4,0c0.2,0,0.5,0.1,0.7,0.1l0.5,0.1
		l0.8,0.1c1.1,0.1,2.3,0.2,3.5,0.2c1.2,0.1,2.3,0.1,3.4,0.2h0.8c2.1-0.1,4.3-0.2,6.4-0.3c1.2-0.1,2.4-0.2,3.6-0.3
		c1.7-0.2,3.4-0.4,5.1-0.6c1.1-0.1,2.1-0.3,3.2-0.5c0.8-0.1,1.7-0.3,2.6-0.4c1.5-0.3,3-0.5,4.5-0.8s3-0.6,4.4-0.9
		c0.9-0.2,1.7-0.4,2.6-0.6c2-0.5,3.9-1,5.9-1.5c2-0.5,4-1.1,6.1-1.7c2-0.6,4-1.2,6-1.8c0.1,0,0.1,0,0.1,0
		c29.1-9.1,52.2-21.7,53.6-22.5c0.1,0,0.1,0,0.1,0l-1.5-1c40.7-21.3,85.2-56.5,116.9-114.6c-0.1-0.1-0.1-0.2-0.2-0.3
		c0.1,0,0.1,0,0.2,0c7.3-0.2,17.2-0.9,21.6-3.2c7.4-3.9,8.1-16.1,8.1-16.1s-0.1,0-0.4,0L504.4,304.5z M256.2,470.6c0,0-0.2,0-0.4,0
		c-0.3,0-0.4,0-0.4,0v-0.1c0.2,0.1,0.3,0.1,0.4,0.1c0.1,0,0.2,0,0.4-0.1V470.6z M413.4,265.3c-15.1,37.1-13.3,57-26.1,80.3
		c-11.9,21.4-35.2,44.2-84.7,56.7c-0.7-1.8-1.4-3.8-2-6c-0.2-0.3-6.3-9.9-44.7-9.9c-1.9,0-3.8,0.1-5.5,0.1c-2.1,0.1-4.1,0.1-5.9,0.2
		c-1,0.1-1.9,0.1-2.8,0.2c-2.1,0.2-4.1,0.3-5.9,0.6c-0.9,0.1-1.8,0.2-2.6,0.3c-0.8,0.1-1.7,0.3-2.4,0.4c-0.5,0.1-1,0.2-1.5,0.3
		c-0.5,0.1-1,0.2-1.5,0.3c-0.5,0.1-1,0.2-1.4,0.3c-0.6,0.1-1.3,0.3-1.9,0.5c-1,0.3-1.9,0.5-2.7,0.8c-0.4,0.1-0.7,0.2-1.1,0.3
		c-0.5,0.2-0.9,0.3-1.3,0.5c-1.1,0.4-2.1,0.8-2.9,1.2c-0.2,0.1-0.4,0.2-0.6,0.3c-0.3,0.2-0.6,0.3-0.9,0.5c-0.2,0.1-0.4,0.3-0.7,0.4
		c-0.2,0.1-0.4,0.2-0.6,0.4c-0.2,0.1-0.3,0.2-0.5,0.4c-0.1,0-0.1,0.1-0.2,0.1l-0.6,0.5l-0.6,0.6c-0.1,0.1-0.2,0.1-0.2,0.2l-0.4,0.5
		c-0.4,1.2-0.7,2.4-1.1,3.5c-0.3,0.9-0.6,1.7-0.9,2.5c-49.7-12.5-73.1-35.3-85-56.7c-6.7-12.2-9.4-23.5-12.7-36.9
		c-2.9-11.8-6.1-25.1-12.9-42.2c0.4,0.5,0.7,0.8,0.7,0.9c-0.1-0.2-2.4-9-1.3-21.9v0c0-0.2,0.1-0.3,0.2-0.5
		c3.2-10.4,25.2-76.3,71.8-69.4c10.4,1.5,41.1,29.7,85.4,30.8h0.8c44.1-1.1,75-29.3,85.4-30.8c50.6-7.5,72.3,70.8,72.3,70.8
		c0.2-0.4,0.3-0.7,0.4-1.1C415.1,254.5,414.1,261.8,413.4,265.3z"/>
	<path class="st0" d="M319.9,345.9c-0.1,0.2-0.2,0.4-0.2,0.6c-0.2,0.4-0.4,0.8-0.7,1.2c-0.2,0.2-0.3,0.4-0.5,0.7c0,0,0,0,0,0
		c-0.5,0.6-1,1.2-1.7,1.8c-0.9,0.8-2,1.7-3.4,2.7c-10.9,7.2-25.8,18.5-57.9,18.5c-1.7,0-3.4,0-5.1-0.1c-14.6-0.6-26.8-4-36-8.1
		c-9.2-4.1-15.6-8.9-18.6-12.4c-6.4-7.3,3.2-15.8,13.3-9.3c0,0,14.1,14.3,46.3,13.3c32.2-1,34.8-4.5,46.8-13.3
		c8.4-6.1,13.2-4.3,15.3-2.6c0.7,0.5,1.1,1,1.3,1.3c0.1,0.1,0.1,0.1,0.1,0.1s0,0,0.1,0.1c0.1,0,0.1,0.1,0.1,0.1s0.1,0.1,0.3,0.4
		C319.9,341.6,320.8,343.4,319.9,345.9z"/>
</g>
</svg>
