<?xml version="1.0" encoding="utf-8"?>
<!-- Generator: Adobe Illustrator 27.3.1, SVG Export Plug-In . SVG Version: 6.00 Build 0)  -->
<svg version="1.1" id="Camada_1" xmlns="http://www.w3.org/2000/svg" xmlns:xlink="http://www.w3.org/1999/xlink" x="0px" y="0px"
	 viewBox="0 0 90.8 100" style="enable-background:new 0 0 90.8 100;" xml:space="preserve">
<style type="text/css">
	.E_st0{fill:#006AFF;}
</style>
<path class="E_st0" d="M9.1,0C7.8,0,6.6,0.2,5.5,0.7c-1.1,0.5-2.1,1.1-2.9,2C1.8,3.5,1.2,4.4,0.7,5.6C0.2,6.7,0,7.9,0,9.1v9h90.8V0
	H9.1z"/>
<path class="E_st0" d="M90.8,81.9V100H25.4c-2.5,0-5.3-0.4-8.2-1.3c-3-0.9-5.7-2.3-8.3-4.3c-2.5-2-4.6-4.7-6.3-7.9
	C0.9,83.2,0,79.2,0,74.5V40.9h60.6v18.3H18.1v15.4c0,2.4,0.6,4.2,1.9,5.4c1.3,1.2,3.1,1.9,5.5,1.9L90.8,81.9L90.8,81.9z"/>
</svg>