<?xml version="1.0" encoding="utf-8"?>
<!-- Generator: Adobe Illustrator 27.3.1, SVG Export Plug-In . SVG Version: 6.00 Build 0)  -->
<svg version="1.1" id="Camada_1" xmlns="http://www.w3.org/2000/svg" xmlns:xlink="http://www.w3.org/1999/xlink" x="0px" y="0px"
	 viewBox="0 0 95.6 100" style="enable-background:new 0 0 95.6 100;" xml:space="preserve">
<style type="text/css">
	.M_st0{fill:#006AFF;}
</style>
<path class="M_st0" d="M95.6,5.9V100H77.8V60.8L46.5,97.2c-0.8,0.9-1.8,1.6-3.2,2.1c-1.4,0.5-2.9,0.7-4.4,0.7s-3-0.2-4.3-0.7
	c-1.3-0.5-2.4-1.2-3.1-2.1L0,60.8V38.2l38.9,44.7l38.9-44.7V26.9L46.5,63.3c-0.8,0.9-1.8,1.6-3.2,2.1c-1.4,0.5-2.9,0.7-4.4,0.7
	s-3-0.2-4.3-0.7c-1.3-0.5-2.4-1.2-3.1-2.1L0,26.9V4.3L38.9,49L79,2.8c1-1.1,2.5-1.9,4.3-2.4c1.8-0.5,3.7-0.6,5.7-0.2
	c1.9,0.3,3.4,1,4.7,2.1C95,3.4,95.6,4.5,95.6,5.9z"/>
</svg>
