<?xml version="1.0" encoding="utf-8"?>
<!-- Generator: Adobe Illustrator 27.3.1, SVG Export Plug-In . SVG Version: 6.00 Build 0)  -->
<svg version="1.1" id="Camada_1" xmlns="http://www.w3.org/2000/svg" xmlns:xlink="http://www.w3.org/1999/xlink" x="0px" y="0px"
	 viewBox="0 0 81.2 100" style="enable-background:new 0 0 81.2 100;" xml:space="preserve">
<style type="text/css">
	.N_st0{fill:#006AFF;}
</style>
<polygon class="N_st0" points="0,42.4 0,63.1 19.8,63.1 "/>
<path class="N_st0" d="M81.2,0v91c0,1.3-0.2,2.5-0.7,3.6c-0.5,1.1-1.1,2.1-1.9,2.9s-1.8,1.4-2.8,1.9c-1.1,0.4-2.3,0.7-3.5,0.7
	c-1.1,0-2.2-0.2-3.3-0.6c-1-0.4-1.9-0.9-2.7-1.8c-0.1-0.1-0.2-0.2-0.3-0.2L2,30.7l-2-2V3.4l0.7,0.8l4.1,4.3l1.3,1.4l57.2,59.6V0
	H81.2L81.2,0z"/>
</svg>
