<?xml version="1.0" encoding="utf-8"?>
<!-- Generator: Adobe Illustrator 27.3.1, SVG Export Plug-In . SVG Version: 6.00 Build 0)  -->
<svg version="1.1" id="Camada_1" xmlns="http://www.w3.org/2000/svg" xmlns:xlink="http://www.w3.org/1999/xlink" x="0px" y="0px"
	 viewBox="0 0 109.4 100" style="enable-background:new 0 0 109.4 100;" xml:space="preserve">
	<style type="text/css">
		.V_st0{fill:#006AFF;}
	</style>
	<path class="V_st0" d="M54.7,71.1L42.2,45.5L20,0H0l46.6,95.1c0.8,1.5,1.9,2.6,3.3,3.5s3,1.3,4.7,1.3s3.3-0.4,4.8-1.3
		c1.5-0.9,2.5-2.1,3.3-3.5l1.9-3.8C64.6,91.3,54.7,71.1,54.7,71.1z"/>
	<path class="V_st0" d="M42.2,45.5L42.2,45.5l12.5,25.5C54.7,71.1,42.2,45.5,42.2,45.5z"/>
	<polygon class="V_st0" points="105.7,7.5 105.7,7.5 70.9,78.5 61,58.2 64.7,50.7 64.7,50.7 89.5,0 109.4,0 "/>
</svg>