<?xml version="1.0" encoding="utf-8"?>
<!-- Generator: Adobe Illustrator 27.3.1, SVG Export Plug-In . SVG Version: 6.00 Build 0)  -->
<svg version="1.1" id="Camada_1" xmlns="http://www.w3.org/2000/svg" xmlns:xlink="http://www.w3.org/1999/xlink" x="0px" y="0px"
	 viewBox="0 0 500 200" style="enable-background:new 0 0 500 200;" xml:space="preserve">
<style type="text/css">
	.st_clouds2{fill:#001D50;}
</style>
<path class="st_clouds2" d="M500,37.6v124.2c-78.5,0-88.2,28.5-115.8,28.5c-27.5,0-33.2-38-60.3-38s-21.2,27.3-74,27.3
	c-47.1,0-62.1-44.1-101-43.5c-44,0.7-64.5,57.1-94.1,44.8c-9.5-3.9-23.1-16.2-48-18.6C4,162,1.6,161.9,0,161.9V37.4
	c1.6,0,4-0.1,6.9-0.4c24.9-2.3,38.5-14.4,48-18.2c29.6-12,50.2,43,94.1,43.8c38.9,0.6,53.9-42.4,101-42.4c52.8,0,46.9,26.6,74,26.6
	s32.7-37.1,60.3-37.1C411.8,9.7,421.5,37.6,500,37.6z"/>
</svg>
