<?xml version="1.0" encoding="utf-8"?>
<!-- Generator: Adobe Illustrator 27.3.1, SVG Export Plug-In . SVG Version: 6.00 Build 0)  -->
<svg version="1.1" id="Camada_1" xmlns="http://www.w3.org/2000/svg" xmlns:xlink="http://www.w3.org/1999/xlink" x="0px" y="0px"
	 viewBox="0 0 500 250" style="enable-background:new 0 0 500 250;" xml:space="preserve">
<style type="text/css">
	.st0{fill:#001D50;}
</style>
<path class="st0" d="M499.9,56.3V125h-0.1v68.7c-0.4,0-1,0-1.7,0.1c-22.2,1.7-27.6,28.6-47.7,43.3c-18.4,13.4-47.8,15.7-67.7,10.1
	c-5.9-1.7-10.5-3.8-14.4-6.4c-25.2-16.7-34-31.1-48.1-42.9c-21.4-17.9-54.4-20.4-76.2-15c-38.8,9.6-40.8,43.7-80.8,49.3
	c-20.9,2.9-43-1.9-43-1.9c-3.1-0.7-12.6-2.9-24.2-7.9c-18.3-7.8-26-15.8-35.2-21.2c-11.2-6.7-29.7-12.8-60.8-7.4V125h0.1V56.3
	c31.1,5.4,49.6-0.7,60.8-7.4c9.1-5.5,16.9-13.4,35.2-21.2c11.7-5,21.1-7.2,24.2-7.9c0,0,22.1-4.8,43-1.9c40,5.5,42,39.7,80.8,49.3
	c21.8,5.4,54.8,2.9,76.2-15c14.1-11.8,22.9-26.2,48.1-42.9c3.9-2.6,8.5-4.7,14.4-6.4c19.9-5.6,49.3-3.3,67.7,10.1
	c20.1,14.7,25.5,41.6,47.7,43.3C498.9,56.3,499.5,56.3,499.9,56.3z"/>
</svg>
