<?xml version="1.0" encoding="utf-8"?>
<!-- Generator: Adobe Illustrator 27.3.1, SVG Export Plug-In . SVG Version: 6.00 Build 0)  -->
<svg version="1.1" id="Camada_1" xmlns="http://www.w3.org/2000/svg" xmlns:xlink="http://www.w3.org/1999/xlink" x="0px" y="0px"
	 viewBox="0 0 500 200" style="enable-background:new 0 0 500 200;" xml:space="preserve">
<style type="text/css">
	.st_clouds1{fill:#001D50;}
</style>
<path class="st_clouds1" d="M500,40.6v118.9c-20.5,32.9-35.4,34.4-41.3,33.9c-11.3-1-23.1-12.3-52.1-30.1c-0.8-0.5-1.6-1-2.4-1.5
	c-8.3-5-15.6-9.2-25.7-9.5c-11.1-0.4-19.2,4.5-23.9,6.5c-20.8,8.6-39.4,19.4-67.3,16.4c-32.2-3.4-35.5-33.6-59.2-32
	c-29.6,1.9-38.5,50.5-62.5,49c-2.4-0.1-4.9-0.8-7.3-1.9c-6.2-2.7-12.1-8.1-16.5-14.4c-1.2-2.5-2.6-4.7-4-6.8
	c-18.1-26.2-54.2-29.9-68.7-30.5c-2.4-0.1-4.8-0.1-7.3,0c-25.2,1-46.2,10.7-61.7,20.9V40.6c15.5,10.2,36.5,19.9,61.7,20.9
	c2.5,0.1,4.9,0.1,7.3,0c14.6-0.7,50.6-4.3,68.7-30.5c1.4-2.1,2.8-4.3,4-6.8c4.4-6.2,10.3-11.6,16.5-14.4c2.4-1.1,4.9-1.7,7.3-1.9
	c24-1.5,32.9,47.1,62.5,49c23.7,1.5,27-28.6,59.2-32c27.9-3,46.5,7.8,67.3,16.4c4.7,1.9,12.8,6.8,23.9,6.5
	c10.1-0.3,17.5-4.5,25.7-9.5c0.8-0.5,1.6-1,2.4-1.5c29-17.8,40.8-29.1,52.1-30.1C464.6,6.2,479.5,7.7,500,40.6z"/>
</svg>
