<?xml version="1.0" encoding="utf-8"?>
<!-- Generator: Adobe Illustrator 27.3.1, SVG Export Plug-In . SVG Version: 6.00 Build 0)  -->
<svg version="1.1" id="Camada_1" xmlns="http://www.w3.org/2000/svg" xmlns:xlink="http://www.w3.org/1999/xlink" x="0px" y="0px"
	 viewBox="0 0 1300 640" style="enable-background:new 0 0 1300 640;" xml:space="preserve">
<style type="text/css">
	.st0{fill:url(#SVGID_1_);stroke:url(#SVGID_00000010288821265561689860000011512384560129005202_);stroke-miterlimit:10;}
	
		.st1{fill:url(#SVGID_00000080170816015910050340000012129266036334249856_);stroke:url(#SVGID_00000158747884713171855080000012673161511550983101_);stroke-miterlimit:10;}
	
		.st2{fill:url(#SVGID_00000049905136249784744500000005921305371909248429_);stroke:url(#SVGID_00000156545723980210690830000010965823647983603343_);stroke-miterlimit:10;}
	
		.st3{fill:url(#SVGID_00000164513596368480887410000010244501660452491447_);stroke:url(#SVGID_00000072979268318508216380000003658920806019840958_);stroke-miterlimit:10;}
	
		.st4{fill:url(#SVGID_00000018228495273584548260000000980339255003230345_);stroke:url(#SVGID_00000098201439457657011910000013413930660497073801_);stroke-miterlimit:10;}
	
		.st5{fill:url(#SVGID_00000113350670672524521410000004261369902047798441_);stroke:url(#SVGID_00000029014292098855575970000001264479869539563648_);stroke-miterlimit:10;}
	.st6{fill:url(#SVGID_00000028315165081660501410000000246553968233931162_);}
	.st7{fill:none;stroke:#C80F83;stroke-width:10;stroke-miterlimit:10;}
	.st8{fill:none;stroke:#006AFF;stroke-width:10;stroke-miterlimit:10;}
	.st9{fill:none;stroke:#0000FF;stroke-width:10;stroke-miterlimit:10;}
	.st10{fill:none;stroke:#F51A35;stroke-width:10;stroke-miterlimit:10;}
	.st11{fill:none;stroke:#F4E41C;stroke-width:10;stroke-miterlimit:10;}
	.st12{fill:none;stroke:#FF0074;stroke-width:10;stroke-miterlimit:10;}
	.st13{fill:#006AFF;}
	.st14{fill:#C80F83;}
	.st15{fill:#ECE48C;}
</style>
<radialGradient id="SVGID_1_" cx="646.8085" cy="338.8774" r="737.1113" gradientTransform="matrix(0.9694 7.415862e-03 -4.278950e-03 0.5274 21.3325 154.2746)" gradientUnits="userSpaceOnUse">
	<stop  offset="5.327789e-09" style="stop-color:#0F278E"/>
	<stop  offset="0.2666" style="stop-color:#231D6F"/>
	<stop  offset="0.5465" style="stop-color:#341455"/>
	<stop  offset="0.7995" style="stop-color:#3E0F45"/>
	<stop  offset="1" style="stop-color:#410D40"/>
</radialGradient>
<radialGradient id="SVGID_00000085968429971610493470000006721850398538636963_" cx="646.8085" cy="338.8774" r="492.5973" gradientTransform="matrix(0.9694 0 0 0.9414 19.863 18.7957)" gradientUnits="userSpaceOnUse">
	<stop  offset="0" style="stop-color:#28083D"/>
	<stop  offset="0.1961" style="stop-color:#240951"/>
	<stop  offset="0.5029" style="stop-color:#200A6B"/>
	<stop  offset="0.7802" style="stop-color:#1D0B7B"/>
	<stop  offset="1" style="stop-color:#1C0B80"/>
</radialGradient>
<ellipse style="fill:url(#SVGID_1_);stroke:url(#SVGID_00000085968429971610493470000006721850398538636963_);stroke-miterlimit:10;" cx="646.91" cy="337.81" rx="620.77" ry="256.7"/>
<radialGradient id="SVGID_00000106848482218931658420000012520755261019855763_" cx="645.3084" cy="338.8762" r="675.6997" gradientTransform="matrix(0.9694 -6.513274e-04 3.139981e-04 0.4407 19.7567 188.8873)" gradientUnits="userSpaceOnUse">
	<stop  offset="5.327789e-09" style="stop-color:#14A6C9"/>
	<stop  offset="0.0424" style="stop-color:#149CC3"/>
	<stop  offset="0.2795" style="stop-color:#1568A3"/>
	<stop  offset="0.5018" style="stop-color:#163F8B"/>
	<stop  offset="0.7028" style="stop-color:#172179"/>
	<stop  offset="0.8755" style="stop-color:#170F6E"/>
	<stop  offset="1" style="stop-color:#17096A"/>
</radialGradient>
<radialGradient id="SVGID_00000113351330612427653540000005000207074965582729_" cx="1063.6089" cy="-204.0545" r="492.5973" gradientTransform="matrix(0.7089 0 0 0.7792 -108.504 496.812)" gradientUnits="userSpaceOnUse">
	<stop  offset="0" style="stop-color:#28083D"/>
	<stop  offset="0.3797" style="stop-color:#2A0A44;stop-opacity:0.6203"/>
	<stop  offset="1" style="stop-color:#2C0B49;stop-opacity:0"/>
</radialGradient>
<ellipse style="fill:url(#SVGID_00000106848482218931658420000012520755261019855763_);stroke:url(#SVGID_00000113351330612427653540000005000207074965582729_);stroke-miterlimit:10;" cx="645.45" cy="337.81" rx="453.92" ry="212.48"/>
<radialGradient id="SVGID_00000056405540269352380140000009642884569464947103_" cx="645.3084" cy="605.3666" r="422.3903" gradientTransform="matrix(0.9694 0 0 0.4957 19.863 37.7102)" gradientUnits="userSpaceOnUse">
	<stop  offset="0" style="stop-color:#DE8C73"/>
	<stop  offset="0.1575" style="stop-color:#DE7D6E"/>
	<stop  offset="0.4791" style="stop-color:#DD6366"/>
	<stop  offset="0.7696" style="stop-color:#DC5362"/>
	<stop  offset="1" style="stop-color:#DC4E60"/>
</radialGradient>
<radialGradient id="SVGID_00000001662993521314409140000009605364092657461437_" cx="1520.2037" cy="-797.0631" r="492.5973" gradientTransform="matrix(0.5481 0 0 0.6558 -187.7188 860.5289)" gradientUnits="userSpaceOnUse">
	<stop  offset="0" style="stop-color:#28083D"/>
	<stop  offset="0.3797" style="stop-color:#2A0A44;stop-opacity:0.6203"/>
	<stop  offset="1" style="stop-color:#2C0B49;stop-opacity:0"/>
</radialGradient>
<ellipse style="fill:url(#SVGID_00000056405540269352380140000009642884569464947103_);stroke:url(#SVGID_00000001662993521314409140000009605364092657461437_);stroke-miterlimit:10;" cx="645.45" cy="337.81" rx="350.95" ry="178.83"/>
<radialGradient id="SVGID_00000175310101366927838770000008721357879450330514_" cx="645.3084" cy="648.9363" r="369.9592" gradientTransform="matrix(0.9694 0 0 0.5051 19.863 10.0129)" gradientUnits="userSpaceOnUse">
	<stop  offset="5.327789e-09" style="stop-color:#F5DF93"/>
	<stop  offset="0.2872" style="stop-color:#F8BC76"/>
	<stop  offset="0.5599" style="stop-color:#F9A260"/>
	<stop  offset="0.8054" style="stop-color:#FB9254"/>
	<stop  offset="1" style="stop-color:#FB8D4F"/>
</radialGradient>
<radialGradient id="SVGID_00000060750400618083626130000017606863740171435396_" cx="1520.2037" cy="-727.4032" r="431.5091" gradientTransform="matrix(0.5481 0 0 0.6682 -187.7188 823.8884)" gradientUnits="userSpaceOnUse">
	<stop  offset="0" style="stop-color:#28083D"/>
	<stop  offset="0.3797" style="stop-color:#2A0A44;stop-opacity:0.6203"/>
	<stop  offset="1" style="stop-color:#2C0B49;stop-opacity:0"/>
</radialGradient>
<ellipse style="fill:url(#SVGID_00000175310101366927838770000008721357879450330514_);stroke:url(#SVGID_00000060750400618083626130000017606863740171435396_);stroke-miterlimit:10;" cx="645.45" cy="337.81" rx="307.39" ry="159.6"/>
<radialGradient id="SVGID_00000054963857924493783060000000003346627741412241_" cx="1320.6348" cy="-258.8739" r="369.9592" gradientTransform="matrix(0.6089 0 0 0.3621 -157.2143 431.5528)" gradientUnits="userSpaceOnUse">
	<stop  offset="0" style="stop-color:#F5DF93"/>
	<stop  offset="0.2244" style="stop-color:#F3DE88"/>
	<stop  offset="0.6567" style="stop-color:#F0DD78"/>
	<stop  offset="1" style="stop-color:#EFDD73"/>
</radialGradient>
<radialGradient id="SVGID_00000065770473100756445820000016618654615514477755_" cx="2714.7507" cy="-2178.8223" r="431.5091" gradientTransform="matrix(0.3442 0 0 0.479 -287.5927 1381.5414)" gradientUnits="userSpaceOnUse">
	<stop  offset="0" style="stop-color:#28083D"/>
	<stop  offset="0.3797" style="stop-color:#2A0A44;stop-opacity:0.6203"/>
	<stop  offset="1" style="stop-color:#2C0B49;stop-opacity:0"/>
</radialGradient>
<ellipse style="fill:url(#SVGID_00000054963857924493783060000000003346627741412241_);stroke:url(#SVGID_00000065770473100756445820000016618654615514477755_);stroke-miterlimit:10;" cx="646.91" cy="337.81" rx="193.06" ry="114.41"/>
<radialGradient id="SVGID_00000137836040574948705200000012528053652181435530_" cx="2856.2297" cy="-3865.9126" r="369.9592" gradientTransform="matrix(0.3293 0 0 0.1704 -295.1826 996.5813)" gradientUnits="userSpaceOnUse">
	<stop  offset="0" style="stop-color:#F5DF93"/>
	<stop  offset="0.1501" style="stop-color:#F7E7AD"/>
	<stop  offset="0.3962" style="stop-color:#FBF1D0"/>
	<stop  offset="0.6273" style="stop-color:#FDF9EA"/>
	<stop  offset="0.8352" style="stop-color:#FEFDFA"/>
	<stop  offset="1" style="stop-color:#FFFFFF"/>
</radialGradient>
<radialGradient id="SVGID_00000055688655953340001780000006203102074623098555_" cx="5430.9785" cy="-7945.8037" r="431.5091" gradientTransform="matrix(0.1862 0 0 0.2254 -365.6998 2129.0159)" gradientUnits="userSpaceOnUse">
	<stop  offset="0" style="stop-color:#28083D"/>
	<stop  offset="0.3797" style="stop-color:#2A0A44;stop-opacity:0.6203"/>
	<stop  offset="1" style="stop-color:#2C0B49;stop-opacity:0"/>
</radialGradient>
<ellipse style="fill:url(#SVGID_00000137836040574948705200000012528053652181435530_);stroke:url(#SVGID_00000055688655953340001780000006203102074623098555_);stroke-miterlimit:10;" cx="645.45" cy="337.81" rx="104.42" ry="53.84"/>
<linearGradient id="SVGID_00000063609060269820617330000009266744015337092013_" gradientUnits="userSpaceOnUse" x1="644.4168" y1="337.8122" x2="644.4168" y2="202.2518">
	<stop  offset="0" style="stop-color:#FFFFFF;stop-opacity:0.4"/>
	<stop  offset="1" style="stop-color:#FFFFFF;stop-opacity:0.4"/>
</linearGradient>
<path style="fill:url(#SVGID_00000063609060269820617330000009266744015337092013_);" d="M581.48,220.94
	c25.97-18.1,56.46-18.69,63.98-18.69c117.29,0,104.42,135.56,104.42,135.56H541.03C532.11,290.57,547.55,244.6,581.48,220.94z"/>
<path class="st7" d="M718.83,592.81c0,0,91.54-5.03,144.08-14.26"/>
<path class="st7" d="M925.27,567.32c0,0,300.83-47.79,342.41-213.16"/>
<path class="st7" d="M408.03,100.81c0,0-218.44,26.04-322.94,127.67"/>
<path class="st7" d="M150.14,401.27c0,0,23.76,87.25,201.97,132.68"/>
<path class="st7" d="M952.84,141.68c0,0,111.38,17.31,155.94,109.6"/>
<path class="st8" d="M215.12,270.03c0,0-66.72,97.65,36,173.09"/>
<path class="st8" d="M317.71,152.74c0,0-122.77,28.84-156.43,120.18"/>
<path class="st8" d="M1093.18,452.22c0,0,96.53-59.61,77.97-155.51"/>
<path class="st8" d="M1127.45,175.3c0,0-121.89-94.91-513.96-94.19"/>
<line class="st9" x1="758.42" y1="543.65" x2="758.42" y2="543.65"/>
<path class="st8" d="M771.65,543.65c0,0,270.78-28.46,327.71-205.84"/>
<path class="st8" d="M483.54,152.74c0,0-189.1,46.63-223.76,161.04"/>
<path class="st8" d="M429.09,506.06c0,0,85.15,34.61,176.23,27.88"/>
<line class="st9" x1="48.21" y1="405.89" x2="48.21" y2="405.89"/>
<path class="st8" d="M553.78,591.64c0,0-479.13-26.93-527.64-240.37"/>
<path class="st8" d="M656.81,125.34c0,0,129.58,0.65,230.13,32.53"/>
<path class="st8" d="M296.42,356.58c0,0,4.44,51.42,87.24,100.33"/>
<path class="st8" d="M930.19,233.26c0,0,56.07,32.37,65.59,93.94"/>
<path class="st10" d="M750.29,508.52c0,0,161.5-19.04,229.92-116.87"/>
<path class="st10" d="M897.15,187.11c0,0,90.59,31.01,114.35,76.43"/>
<path class="st10" d="M745.75,166.4c0,0-331.28-49.65-440.8,127.94"/>
<path class="st10" d="M338.07,316.9c0,0-46.84,139.65,264.29,180.51"/>
<path class="st11" d="M835.02,440.73c0,0,84.16-42.83,81.19-123.83c-2.97-81-209.89-114.65-209.89-114.65"/>
<path class="st11" d="M421.52,228.48c0,0,67.34-39.93,132.26-41.37"/>
<path class="st11" d="M468.96,382.26c0,0,50.19,90.17,229.91,65.77"/>
<path class="st12" d="M682.54,496.25c0,0,100.9,2.69,197.85-55.52"/>
<path class="st12" d="M811.3,180.17c0,0,45.24,11.35,75.11,27.62"/>
<path class="st12" d="M925.27,270.03c0,0,55.01,60.86,12.7,116.96"/>
<path class="st12" d="M397.9,354.16c0,0-13.86-89.41,92.08-123.06"/>
<path class="st12" d="M632.55,180.17c0,0,30.43-7.14,84.41,2.38"/>
<path class="st12" d="M833.02,307.32c0,0,31.02,71.99-51.56,112.53"/>
<ellipse class="st13" cx="383.84" cy="603.27" rx="18.12" ry="17.59"/>
<ellipse class="st13" cx="23.06" cy="198.7" rx="4.85" ry="4.71"/>
<ellipse class="st13" cx="389.85" cy="51.66" rx="18.18" ry="17.66"/>
<ellipse class="st13" cx="765.22" cy="62.72" rx="6.8" ry="6.6"/>
<ellipse class="st13" cx="1236.49" cy="206.64" rx="20.79" ry="20.19"/>
<ellipse class="st13" cx="1090" cy="549.94" rx="6.47" ry="6.29"/>
<ellipse class="st13" cx="970.29" cy="520.42" rx="12.25" ry="11.9"/>
<ellipse class="st13" cx="111.53" cy="391.05" rx="17.08" ry="16.58"/>
<ellipse class="st13" cx="147.66" cy="229.89" rx="6.68" ry="6.49"/>
<ellipse class="st13" cx="907.87" cy="131.19" rx="10.73" ry="10.42"/>
<ellipse class="st14" cx="482.63" cy="60.99" rx="5.02" ry="4.88"/>
<ellipse class="st14" cx="699.26" cy="27.39" rx="7.05" ry="6.85"/>
<ellipse class="st14" cx="886.62" cy="87.16" rx="6.23" ry="6.05"/>
<ellipse class="st14" cx="1164.84" cy="228.57" rx="12.99" ry="12.62"/>
<ellipse class="st14" cx="1195.9" cy="174.37" rx="3.96" ry="3.84"/>
<ellipse class="st14" cx="1272.13" cy="260.66" rx="9.65" ry="9.37"/>
<ellipse class="st14" cx="1205.06" cy="410.16" rx="19.06" ry="18.51"/>
<ellipse class="st14" cx="1178.39" cy="529.8" rx="13.55" ry="13.16"/>
<ellipse class="st14" cx="888.77" cy="547.85" rx="8.38" ry="8.14"/>
<ellipse class="st14" cx="656.4" cy="572.93" rx="5.78" ry="5.61"/>
<ellipse class="st14" cx="497.41" cy="575.21" rx="19.8" ry="19.23"/>
<ellipse class="st14" cx="302.2" cy="572.93" rx="5.78" ry="5.61"/>
<ellipse class="st14" cx="267.09" cy="478.54" rx="7.3" ry="7.09"/>
<ellipse class="st14" cx="50.98" cy="444.35" rx="27.92" ry="27.11"/>
<ellipse class="st14" cx="83.31" cy="197.93" rx="11.14" ry="10.82"/>
<ellipse class="st14" cx="242.9" cy="100.94" rx="20.42" ry="19.83"/>
<ellipse class="st14" cx="104.68" cy="317.26" rx="10.23" ry="9.94"/>
<ellipse class="st14" cx="582.3" cy="110.18" rx="9.65" ry="9.37"/>
<ellipse class="st15" cx="281.06" cy="372.22" rx="8.89" ry="8.64"/>
<ellipse class="st15" cx="370.17" cy="254.16" rx="6.42" ry="6.24"/>
<ellipse class="st15" cx="535.17" cy="215.37" rx="13.51" ry="13.12"/>
<ellipse class="st15" cx="430.7" cy="428.31" rx="6.06" ry="5.89"/>
<ellipse class="st15" cx="829.94" cy="273.28" rx="10.02" ry="9.73"/>
<ellipse class="st15" cx="818.21" cy="201.09" rx="6.91" ry="6.71"/>
</svg>
