<?xml version="1.0" encoding="utf-8"?>
<!-- Generator: Adobe Illustrator 27.3.1, SVG Export Plug-In . SVG Version: 6.00 Build 0)  -->
<svg version="1.1" id="Camada_1" xmlns="http://www.w3.org/2000/svg" xmlns:xlink="http://www.w3.org/1999/xlink" x="0px" y="0px"
	 viewBox="0 0 500 50" style="enable-background:new 0 0 500 50;" xml:space="preserve">
<style type="text/css">
	.st0{fill:#111B88;}
</style>
<path class="st0" d="M500,24.37c-0.19,0.05-2.68,0.73-2.87,0.78c-7.36,2.01-9.74,2.66-10.41,2.84c-6.34,1.71-14.76,3.01-24.79,3.5
	C435.35,32.8,438.76,0,399.92,0s-15.84,47.97-99.65,47.97S225.65,5.53,187.32,5.53s-37.31,42.44-65.93,42.44
	S86.65,19.53,50.36,19.53S0,24.35,0,24.35v2.03c0,0,14.08-4.82,50.36-4.82S92.78,50,121.4,50s27.6-42.44,65.93-42.44
	S216.45,50,300.26,50s60.81-47.97,99.65-47.97s35.43,32.8,62.01,31.49c7.19-0.35,13.06-0.94,24.79-3.5
	c2.69-0.59,6.42-1.47,10.92-2.86c1-0.31,1.82-0.58,2.36-0.76C500,25.72,500,25.04,500,24.37z"/>
</svg>
