<?xml version="1.0" encoding="utf-8"?>
<!-- Generator: Adobe Illustrator 27.3.1, SVG Export Plug-In . SVG Version: 6.00 Build 0)  -->
<svg version="1.1" id="Camada_1" xmlns="http://www.w3.org/2000/svg" xmlns:xlink="http://www.w3.org/1999/xlink" x="0px" y="0px"
	 viewBox="0 0 500 50" style="enable-background:new 0 0 500 50;" xml:space="preserve">
<style type="text/css">
	.st0{fill:#111B88;}
</style>
<path class="st0" d="M500,25.51L500,25.51c0,0-7.99-5.93-9.76-7.15c-8.72-5.98-22.97-4.66-30.08-3.8
	c-43.25,5.22-78.79,21.07-123.46,21.07c-44.77,0-43.41-32.08-82.48-32.08C215.15,3.55,210.12,50,181.1,50
	c-29.02,0-29.02-37.35-58.6-37.35c-29.58,0-31.81,31.13-65.86,31.13S0,25.51,0,25.51v-3.34c0,0,22.6,18.26,56.64,18.26
	S92.92,9.31,122.5,9.31c29.58,0,29.58,37.35,58.6,37.35c29.02,0,34.04-46.45,73.11-46.45c39.07,0,37.71,32.08,82.48,32.08
	c44.68,0,80.21-15.85,123.46-21.07c7.11-0.86,21.36-2.18,30.08,3.8c1.77,1.22,9.76,7.15,9.76,7.15l0,0"/>
</svg>
