<?xml version="1.0" encoding="utf-8"?>
<!-- Generator: Adobe Illustrator 27.3.1, SVG Export Plug-In . SVG Version: 6.00 Build 0)  -->
<svg version="1.1" id="Camada_1" xmlns="http://www.w3.org/2000/svg" xmlns:xlink="http://www.w3.org/1999/xlink" x="0px" y="0px"
	 viewBox="0 0 512 512" style="enable-background:new 0 0 512 512;" xml:space="preserve">
<style type="text/css">
	.st0{fill:#F4E29A;}
	.st1{fill:#F3C65F;}
	.st2{fill:#E1A546;}
	.st3{fill:#EDC259;}
	.st4{fill:#DDAC40;}
	.st5{fill:#BA7F17;}
	.st6{fill:#F6E9BB;}
	.st7{fill:#F8F4DE;}
</style>
<path class="st0" d="M506.6,255.2c0,139-112.7,251.6-251.6,251.6c-78.5,0-148.7-36-194.8-92.4C30,377.6,10.1,331.9,4.8,281.9
	c-0.9-8.8-1.4-17.6-1.4-26.6c0-17.6,1.8-34.7,5.2-51.2c0,0,0,0,0,0s0,0,0,0C32.3,89.6,133.6,3.6,255,3.6c46.5,0,90,12.6,127.4,34.6
	c0,0,0,0,0,0c68.7,40.4,116.5,112.5,123.3,196.2C506.4,241.3,506.6,248.2,506.6,255.2z"/>
<path class="st1" d="M506.6,255.2c0,139-112.7,251.6-251.6,251.6c-130,0-236.9-98.5-250.2-225C7,237.3,8.6,205.2,8.6,204
	c0,0,0,0,0,0c0.2,0.9,11.1,40.5,20.5,54.3c9.6,14,13,19.2,13,21.2s-8.4,11.9-7,26.4c1.5,14.5,18.5,21.6,18.5,21.6l24.9,25.1
	l11.2,34.8c0,0,24.7,43.9,63.8,54.2l12.4,7c0,0,30.1,21.2,82.3,22.7c0,0,3.5-19.1,24.4-13.2c20.9,5.9,29.8,7.1,35,2
	c5.2-5,78.6-17.2,123.9-66.3c0,0-11-25.3,8.3-49.7c19.3-24.4,25.5-28.8,28.6-42.8c0,0,10-32,20.5-39.5c10.4-7.5,16.8-20.9,11-30.7
	c-5.8-9.9-17.7-23.8-25.7-3.8c-8,20-20.5,31-20.6,39.7c-0.1,8.7-0.7-35.8,8.3-41.6c0,0-13.4-17.9-14.8-27.5s2.5-27.2,2.5-27.2
	s-34.8-1.5-42.1-44.3c0,0,21.9,32.8,47.3,24.6c0,0-15.4-71.4-72.4-112.8C456.8,81.9,506.6,162.8,506.6,255.2z"/>
<path class="st2" d="M506.6,255.2c0,139-112.7,251.6-251.6,251.6c-78.5,0-148.7-36-194.8-92.4c0,0,0,0,0,0s143.5,132.6,296.5,58.7
	c123-59.4,145.1-189.8,149.1-238.7C506.4,241.3,506.6,248.2,506.6,255.2z"/>
<path class="st1" d="M371.9,428.2c0,0,39.3-13.2,45.1-50.4c5.8-37.2,5-60.1-19.8-53.9c-24.8,6.3-22.4,19-22.4,19s22.6-9.9,21.1,0.6
	c-1.5,10.4-9.6,25.7-9.6,25.7s-10.2-15.6-7.9-19.7c2.3-4.1-11.3,0-2.3,21l13.2,2.9l13.8,6.1v11.7l-12.8,13L371.9,428.2z"/>
<path class="st1" d="M337.3,433.6c0,0-22.5-19.1-36.4-16.4c0,0,24.9-18.6,30.4-12S337.3,433.6,337.3,433.6z"/>
<path class="st1" d="M116.1,364.7c1.2,0,0.9-10.1,15.9-11.3c15.1-1.2,29.2,33.6,25.6,49.9c0,0-11.7-29.3-21.9-35.4
	S116.1,364.7,116.1,364.7z"/>
<path class="st1" d="M239.2,428.2c0,0,17,2,16.5,18.6c-0.4,16.5-39.1,1.1-33.4-9.6C228,426.6,239.2,428.2,239.2,428.2z"/>
<path class="st3" d="M65.1,159.5c0,0-21.1,31.6-19.4,46.4c1.7,14.8,6.8,13.6,8,21.4c1.2,7.9,6.5,20.6,6.4,33.4
	c0,12.8,4.9-34.7,4.9-34.7s14.4-2.4,17.7-5S93,251.1,93,251.1s3.9-37.8,0.9-43.6c-2.9-5.8-12.8,7.8-12.8,7.8l-7.1,3.2l-7.2,1.2
	l-5.7,0.2l-5.7-4.6C55.5,215.4,41.2,203.8,65.1,159.5z"/>
<path class="st4" d="M89.3,203.9c-0.9,1.1-15.5,13.3-20.4,7.2c-4.9-6.1-3.8-21.2,3.2-36.9c7-15.7,27.8-42.6,40.3-22.9
	c0,0,0.9,17.7-10.7,39.1S89.3,203.9,89.3,203.9z"/>
<path class="st4" d="M204.1,68c0,0,8.2-11.5,23.3-3.6l-14.7,6.5L204.1,68z"/>
<path class="st4" d="M122.9,101.6c0,0-3.7-10.8,8.3-11.4v4.2L122.9,101.6z"/>
<path class="st4" d="M367.2,86.2c0,0-12.9-19.8-2.7-15.4c10.2,4.4,27.4,19.3,27.6,25.3s-18.4-4.4-18.4-4.4L367.2,86.2z"/>
<path class="st4" d="M453.8,176.5c0,0,4.6,0.3,8.6,7.2c4,7,5.3,24.8,5.3,24.8v9.4l-4.2,1.4c0,0-8.7-12.4-8.8-12.7
	C454.7,206.4,453.8,176.5,453.8,176.5z"/>
<path class="st4" d="M359.8,384.1c0,0,24.9-10.9,31.3-1.2c6.4,9.7-5.4,21.6-8.7,24c-3.3,2.3-11.4,9.6-31.7,14.1
	c-20.3,4.5-7.5-23.4-7.5-23.4L359.8,384.1z"/>
<path class="st4" d="M463,333.9c0,0-26.5,19.7-25.5,39.8c1,20.1,21.6-7.2,25.5-16.8C466.9,347.2,469.2,336.8,463,333.9z"/>
<path class="st4" d="M478,294.6c0,0,16.7-0.6,10.8-19l-6.9,3.5L478,294.6z"/>
<g>
	<path class="st5" d="M68,154.1c0,0-26.7,42.3-8.1,61.5s56.8-47.5,54.5-67.8c0,0-3.5,56.7-34.8,71.2C48.3,233.5,40.2,203.4,68,154.1
		z"/>
	<path class="st5" d="M120.2,104.2c0,0,9.3-8.1,12.2-16.8C132.4,87.4,138.5,101.1,120.2,104.2z"/>
	<path class="st5" d="M196.5,62.9c0,0,10.2,17,40.6-7.7c0,0-5.2,19.1-28.6,20.5C208.5,75.6,203.3,74.3,196.5,62.9z"/>
	<path class="st5" d="M351.5,64.4c0,0,9.9,39.7,46.4,43.8c0,0,4.2-13-20.4-34.2c0,0,11.7,18.6,11.2,21.6
		C388,98.6,358.8,80.2,351.5,64.4z"/>
	<path class="st5" d="M453.8,168.9c0,0,3.2,39.4,11.3,48.1c8.1,8.7-9.9-54.5-12.8-54.5c0,0,24.5,32.2,14.8,62.9
		C467.2,225.4,443.7,210.3,453.8,168.9z"/>
	<path class="st5" d="M454.4,252.9c-4.1-15.7,9.9-33.6,9.9-33.6l3,6.1c-11.8,9.9-12.8,28.7-12.8,29.9"/>
	<path class="st5" d="M409.2,132.3c0,0-0.6,43.8,44.6,36.5C453.8,168.9,419.9,169.1,409.2,132.3z"/>
	<path class="st5" d="M475,301.3c0,0-1.4-27.2,16.8-30.1C491.8,271.2,480.8,287.1,475,301.3z"/>
	<path class="st5" d="M446.6,393.8c0,0-25.2-17.1,0-49.3c25.2-32.2,31.3-8.1,25.8-1.4c0,0,2-9.9-6.7-8.1
		C457,336.7,427.5,364.2,446.6,393.8z"/>
	<path class="st5" d="M339.9,435.8c0,0-13.6-37.1,30.4-53.9s24.9,15.4,24.9,15.4s-20.6,31.3-33.3,34.2c0,0,24.1-3.8,42-32.2
		c18-28.4-3.5-33.9-11.6-31.3c-8.1,2.6-36.2,1.7-62.6,41.2C329.8,409.2,320.8,420.5,339.9,435.8z"/>
	<path class="st5" d="M223.4,435.8c0,0,3.2-4.3,15.4-4.3s16.2,10.1,16.2,10.1s1.4-12.2-14.5-15.9C228,423.9,223.4,435.8,223.4,435.8
		z"/>
	<path class="st5" d="M409.1,378.3c0,0-7-26.7-1.7-38.7c0,0-12.2,22.4-9.9,31.3C399.8,379.8,409.1,378.3,409.1,378.3z"/>
	<path class="st5" d="M382.4,373.4c0,0-10.2-8.2-9.2-18c0-0.3,0.1-0.6,0.1-0.9c1.7-10.2-3.9,15.5-0.2,21.3
		C376.8,381.5,382.4,373.4,382.4,373.4z"/>
	<path class="st5" d="M329.7,419.6c0,0-5.4-8.7-22-3.5c0,0,23,2.1,23.6,6.8C331.8,427.6,329.7,419.6,329.7,419.6z"/>
	<path class="st5" d="M53.7,215.4c0,0,6,16.6,5.7,23.8l1.8-19.2L53.7,215.4z"/>
	<path class="st5" d="M81.1,215.4c0,0,6.9,2.7,11.6,10.6c0,0,1.6-17.7-3-17.5C85.1,208.7,81.1,215.4,81.1,215.4z"/>
	<path class="st5" d="M114.4,148.1c0,0,12.8-1.2,16.8-18.1c0,0-13.3,39.4-21.9,45.8c0,0,3.9-15.6,5.2-26.8L114.4,148.1z"/>
	<path class="st5" d="M32.9,282.6c0,0,5.7,6.5,7,0.9s-10.7-25.2-10.7-25.2s16.2,14.5,16.5,22.6c0.3,8.1-2.8,11-7.1,9.6
		S32.9,282.6,32.9,282.6z"/>
	<path class="st5" d="M47.7,343.5c0,0-0.8-13.1,5.2-10.4s23,25.7,26.7,36.3s11,29.6,1.4,25.9c0,0,2.3,9.9,11-1
		c8.7-10.8-15.3-65.3-33.2-69.8S47.7,343.5,47.7,343.5z"/>
	<path class="st5" d="M51.9,329.9c0,0,1,42,33.5,49.7C85.4,379.6,47.9,380.9,51.9,329.9z"/>
	<path class="st5" d="M118.4,358.9c0,0,14.1-7.9,22.4,2.7c8.3,10.6,16.4,20.5,16.8,31.3c0,0,1.5-33.4-22.8-43.3
		C134.9,349.7,122.5,349.1,118.4,358.9z"/>
	<path class="st5" d="M144.3,441.6c0,0,19.3,2.5,28.2,16.4c0,0,0.4-10.8-8.9-16.4C154.4,436,144.3,441.6,144.3,441.6z"/>
</g>
<circle class="st6" cx="266.3" cy="219.3" r="127.4"/>
<circle class="st7" cx="274.4" cy="193.9" r="76.9"/>
</svg>
