<?xml version="1.0" encoding="utf-8"?>
<!-- Generator: Adobe Illustrator 27.3.1, SVG Export Plug-In . SVG Version: 6.00 Build 0)  -->
<svg version="1.1" id="Camada_1" xmlns="http://www.w3.org/2000/svg" xmlns:xlink="http://www.w3.org/1999/xlink" x="0px" y="0px"
	 viewBox="0 0 512 512" style="enable-background:new 0 0 512 512;" xml:space="preserve">
<style type="text/css">
	.st0{fill:#FF7F00;}
	.st1{fill:#FF5500;}
	.st2{fill:#FF1800;}
	.st3{fill:#BC0D00;}
	.st4{fill:#FFAFA9;}
	.st5{fill:#910300;}
</style>
<g>
	<path class="st0" d="M508,256c0,1.7,0,3.4-0.1,5.1c-0.9,46.3-14.4,89.6-37.3,126.6c-2.2,3.5-4.4,7-6.8,10.4
		c-15.4,22.4-34.3,42.1-56,58.5c-6.7,5.1-13.6,9.8-20.8,14.2c-14.5,8.9-30.1,16.4-46.4,22.2c-11.5,4.1-23.3,7.4-35.4,9.9
		c-16,3.2-32.6,5-49.6,5h0c-0.3,0-0.7,0-1,0c-42,0-81.5-10.1-116.4-28.1c-38.1-19.6-70.6-48.6-94.3-83.9
		c-11-16.4-20.2-34.1-27.1-52.9C6.7,315.8,1.3,286.6,1.3,256c0-60.6,21.6-116.3,57.5-159.8c8.3-10,17.4-19.5,27.1-28.1
		c37.5-33.3,85-55.7,137.4-62.1c10.3-1.3,20.7-1.9,31.3-1.9c16,0,31.7,1.5,46.9,4.3c3.9,0.7,7.7,1.5,11.5,2.4
		c6.4,1.5,12.7,3.2,19,5.2c3.4,1.1,6.7,2.2,10,3.4c32.7,11.9,62.2,30.4,87,53.7c5.4,5.1,10.5,10.4,15.4,15.9
		c2.1,2.3,4.1,4.7,6.1,7.1c31.6,38.3,52.1,86,56.5,138.3C507.6,241.6,508,248.8,508,256z"/>
	<path class="st1" d="M475.6,366c0,0-18.5-52.6-52-46.5c-16.5,3-23.1,13.9-27.7,24.9c-4,9.8-6.3,19.6-12.3,24.2
		c-1,0.7-2,1.3-3.2,1.8c-16.7,6.1-28.2,14-37.9-13.2c-9.7-27.2-23.8-56.1-39.7-44.7c-15.9,11.4-5.3,11.4-14.1,27.2
		c-8.8,15.8,19.4,14.6,22.9,36.7c3.5,22.1-10.6,63.3-52.9,54.5c0,0,30-16.7,5.3-33.3c-24.7-16.7-42.8,0.7-21,34.5
		c-1-0.9-29.2-25-25.8,13.7c2.2,24.1,22.7,47.5,38.4,62.1c-0.3,0-0.7,0-1,0c-42,0-81.5-10.1-116.4-28.1c6.2-3.7,11.8-8.5,16.4-14.7
		c0,0-37.3-31.9-12.6-63.4c24.7-31.6,20-2.3,78.8-18.7c58.8-16.4,24.7-42.1,14.1-56.1c-10.6-14-48.2-24.5-21.2-49.1
		c27-24.5,74.1-18.7,63.5-54.9c-10.6-36.2-32.9-70.1-72.9-39.7c-40,30.4-15.3,51.4-54.1,51.4c-38.8,0-61.1-16.4-72.9,23.4
		s29.4,40.9,29.4,62c0,21,15.3,47.9-23.5,63.1c-17,6.6-29.3,8.8-39.4,12.9c-11-16.4-20.2-34.1-27.1-52.9
		c11.5-7.8,24.7-15.5,32.1-15.5c15,0-2.6-29.8-7.1-50.9c-4.4-21-8.8-42.1,39.7-59.6c48.5-17.5,33.5-90.3,13.2-98.2
		c-8.8-3.4-22.8-12.9-35.9-22.6c8.3-10,17.4-19.5,27.1-28.1c3.4,0.9,6.9,1.5,10.6,1.6c27.3,0.9,26.9,7,17.4,12.3
		c-9.5,5.3-6.8,10.5,22.3,1.8c28.2-8.5,84.4-30.9,87.2-77.7c10.3-1.3,20.7-1.9,31.3-1.9c16,0,31.7,1.5,46.9,4.3
		c-7.4,16.9-18.7,39.4-26.9,39.4c-13.2,0-45.8,13.2-51.1,35.9c-5.3,22.8-9.7,36.8,15.9,36.8s15-13.2,28.2-22.8
		c13.2-9.6,32.6-16.7,49.4,20.2c16.8,36.8,21.2,42.1,37.9,34.2c16.7-7.9-22-66.6-22-89.4c0-10.7,4.5-27.9,9.2-43.2
		c32.7,11.9,62.2,30.4,87,53.7c-18.6-0.7-38.2,2.8-45,18.4c-5,11.5-3,23.5,1.6,34.2c5.9,13.8,16.3,25.6,21.9,31.3
		c2.3,2.4,3.9,3.8,3.9,3.8s44.1,19.3-20.3,40.3c-64.4,21-43.2,1.8-56.4,30.7c-13.2,28.9,1.8,66.6,24.7,70.1
		c22.9,3.5,30.9-30.7,51.1-32.4c20.3-1.8,45-14.9,70.5-2.6C506.5,279.2,475.6,366,475.6,366z"/>
	<path class="st2" d="M133.9,383.5c0,0,12.3-5.8,42.3-11.1s37-5.8,24.7-29.8c-12.3-24-48.8-47.3-38.8-64.9c10-17.5,29.4-7,30-18.1
		s-19.4-26.3-42.9-12.3s-34.7,32.7-21.2,48.5c13.5,15.8,35.3,35.7,32.9,43.8c-2.4,8.2-17,7.6-25.9,21.6
		C126.2,375.4,125,383,133.9,383.5z"/>
	<path class="st2" d="M119.6,391.9c0,0,2.4,29.6-6.7,43.2s-19.2,15.2-29.4,4.7c-10.2-10.5-6.3-17.1-14.1-23.8s-13.7-20.6,0-18.3
		s20.8,12.1,27,8.6S95.3,394.6,119.6,391.9z"/>
	<path class="st3" d="M169.9,270.5c0,0-23.1,5.8-23.1-1.9c0-7.8,11.6-12.9,11.6-12.9s26.5-1.9,23.7,5.1S169.9,270.5,169.9,270.5z"/>
	<path class="st3" d="M214.5,245.9c0,0-24.3-12.1-12.9-26.1c11.4-14,26.3-29.6,37.6-19.5c11.4,10.1,24.7,24.2,6.3,34.3
		C227.1,244.8,229.8,247.9,214.5,245.9z"/>
	<path class="st3" d="M102.1,414.6c0,0-7.4-8.6-12.1-3.5c-4.7,5.1-10.6,7-2.4,16s7.1,18.3,14.5,15.2c7.4-3.1,7.4-14.6,7.4-16.1
		C109.5,424.8,102.1,414.6,102.1,414.6z"/>
	<path class="st3" d="M133,442.9c0,0-2.7-5.7-5.5-2.2c-2.7,3.5-6.7,9.7-6.7,9.7s3.5,3.9,10.2,3.9S133,442.9,133,442.9z"/>
	<path class="st1" d="M109.5,246.5c-1.9,0.9-20,4.6-15.6,19.8c4.3,15.2,7.5,31.6,7.5,31.6s7.8,7,14.1,0c6.3-7-0.8-21.4,2.4-30
		c3.1-8.6,10-21.4,10-21.4S127.5,237.6,109.5,246.5z"/>
	<path class="st0" d="M143.4,433.3c0,0-4.7-14.6,14.1-16.4s34.1,5.8,34.1,5.8s3.5,16.9-15.3,20.2S143.9,438.1,143.4,433.3z"/>
	<path class="st0" d="M273.9,306.5c-2.9,11.7,4.1,24.5,4.1,24.5l17-18.4L273.9,306.5z"/>
	<path class="st0" d="M318.8,257.4c0,0-14.1-1.2-15.7,11.3c-1.6,12.5,7.8,20.3,7.8,20.3s7.4-1.2,9.8-17.2
		C323.1,255.8,320.8,257.4,318.8,257.4z"/>
	<ellipse transform="matrix(0.344 -0.939 0.939 0.344 23.8219 370.767)" class="st4" cx="277.3" cy="168.3" rx="18.5" ry="13.5"/>
	<ellipse transform="matrix(0.3416 -0.9398 0.9398 0.3416 74.433 337.3376)" class="st4" cx="278" cy="115.5" rx="17.6" ry="9.8"/>
	
		<ellipse transform="matrix(0.5044 -0.8635 0.8635 0.5044 -16.1573 240.0201)" class="st4" cx="201" cy="134.1" rx="26.4" ry="15.5"/>
	
		<ellipse transform="matrix(0.672 -0.7405 0.7405 0.672 -14.5821 158.7262)" class="st4" cx="171.9" cy="95.8" rx="20.9" ry="11.8"/>
	
		<ellipse transform="matrix(0.6736 -0.7391 0.7391 0.6736 -69.1479 143.7846)" class="st4" cx="128.2" cy="150.2" rx="13.1" ry="8.9"/>
	
		<ellipse transform="matrix(0.4644 -0.8856 0.8856 0.4644 -79.6597 122.1696)" class="st4" cx="61.2" cy="126.9" rx="13.1" ry="8.9"/>
	<ellipse transform="matrix(0.4655 -0.885 0.885 0.4655 -116.4031 139.1451)" class="st4" cx="57" cy="165.9" rx="19.4" ry="14.1"/>
	<ellipse transform="matrix(0.5767 -0.817 0.817 0.5767 57.1156 248.725)" class="st4" cx="268.6" cy="69.2" rx="8.8" ry="9.7"/>
	<path class="st1" d="M28.8,168.3c0,0-12.3,24.2,4.7,24.2s39.4,0,44.1-19.3s38.7,12.2,5.8,23.9s-51.1,11.7-54.6,31
		S7.1,260.6,7.1,241.7S14.1,188,28.8,168.3z"/>
	<path class="st2" d="M22.2,233.2c3.2-1.6,2.7-28.4,13.3-30.8c10.6-2.3,45.4-7,48-10.9c2.6-3.9,13.1,11.7,0,15.6
		c-13.1,3.9-28,7-35.4,17.5c-7.4,10.5-7.1,19.1-17.2,29.2S18.2,235.2,22.2,233.2z"/>
	<path class="st3" d="M32.5,220.4c0,0,3.4,3.3-2.2,5.3c-5.6,1.9-12.1-1.7-12.3-2.3c-0.2-0.6-2.6-11.5,1.9-14.5
		c4.5-2.9,13.4,4.5,12.9,7.1S30.2,219.3,32.5,220.4z"/>
	<path class="st3" d="M508,256c0,1.7,0,3.4-0.1,5.1c-6.8-5.3-14.4-7.7-16.9-3.8c-4.5,7-26,4.9-34.9-1.9c-8.9-6.8-37.6-3.3-54.7,0
		c-17,3.3-36.4,36.4-36.4,36.4s-11.8-20.5-15.9-31.1c-4.1-10.7,7.6-29.7,15.9-38.9c0,0-0.6-3,15.9-12.8
		c16.5-9.8,54.1-11.8,69.4-28.8c15.3-17-28.2-43.3-30.6-72.5c-1.6-19.4,14.1-20.3,24.7-18.6c2.1,2.3,4.1,4.7,6.1,7.1
		c31.6,38.3,52.1,86,56.5,138.3C507.6,241.6,508,248.8,508,256z"/>
	<path class="st5" d="M507.1,234.6c-1.5-1.1-3-1.7-4.5-1.7c-13.5,0-5.9,4.2-22.3,9.7c-16.5,5.5-29.4-34.2-47.6-30.2
		c-18.2,4.1-25.3,32.4-38.8,37c-13.5,4.5-12.8-1.3-11.8-6.8c0,0,2.4-30.5,34.7-33.5c32.3-3,53.5-22.9,52.3-35.8
		c-1.2-12.9-18.8-13.4-21.2-30.4c-2.4-17-30.1-32.1-6.5-42.7c3-1.3,6.1-2.6,9.1-3.9C482.1,134.5,502.6,182.3,507.1,234.6z"/>
	
		<ellipse transform="matrix(0.863 -0.5053 0.5053 0.863 -19.206 218.3235)" class="st3" cx="392.9" cy="144.6" rx="13.3" ry="20.5"/>
	
		<ellipse transform="matrix(0.2493 -0.9684 0.9684 0.2493 77.0198 488.9975)" class="st3" cx="353.9" cy="194.8" rx="15.1" ry="10.8"/>
	<path class="st2" d="M336.2,129.4c0-0.8-2.2-4.2-5.3-8.9c-7.6-11.5-20.4-30.7-18.6-39.1c2.6-11.7-28.4-2.3-22-16.4
		c6.5-14-4.7-14.6,0-18.1c3.7-2.7,16.9-25.9,22.6-36.1c6.4,1.5,12.7,3.2,19,5.2c-2.9,8.6-6.7,18.3-10.2,23.9
		c-7.4,11.7,3.9,24,14.5,50.8c2.4,6.1,3.7,11.6,4.3,16.4C342.5,123.4,336.2,131.6,336.2,129.4z"/>
	
		<ellipse transform="matrix(0.999 -4.376983e-02 4.376983e-02 0.999 -4.9527 14.9818)" class="st3" cx="339.6" cy="120.6" rx="8.7" ry="13.5"/>
	<path class="st3" d="M470.6,387.7c-2.2,3.5-4.4,7-6.8,10.4c-15.4,22.4-34.3,42.1-56,58.5c-7.7,6.7-14.9,11.5-20.8,14.2
		c-14.5,8.9-30.1,16.4-46.4,22.2c-11.5,4.1-23.3,7.4-35.4,9.9c-9.9-5.1-18.1-12.4-16-22.2c4.7-22.8-5.9-28.7,37.3-33.6
		c43.2-5,58.2,26.1,73.2-7.4c15-33.5,37.9-53.7,33.5-73.8c-4.4-20.2,11.5-36.8,17.6-21C454.3,353.5,464.8,369.4,470.6,387.7z"/>
	<path class="st5" d="M381.7,472.7c1.6-0.4,3.4-1.1,5.3-1.9c-14.5,8.9-30.1,16.4-46.4,22.2c-3.6-1.4-7.7-2.5-12.4-3.6
		c-22.9-5.3-13.2-19.3-13.2-19.3C332.7,464,368,476.2,381.7,472.7z"/>
	<path class="st5" d="M463.8,398.1c-15.4,22.4-34.3,42.1-56,58.5c10.6-9.1,22.3-21.7,33.6-37.3c22.3-30.6-1.1-49.2,14.2-35.8
		C458.8,386.4,461.5,391.6,463.8,398.1z"/>
	
		<ellipse transform="matrix(0.242 -0.9703 0.9703 0.242 -157.7952 658.3317)" class="st3" cx="342.4" cy="430.2" rx="10.1" ry="15.6"/>
	<ellipse transform="matrix(0.541 -0.841 0.841 0.541 -120.2259 495.4051)" class="st3" cx="393.8" cy="357.9" rx="15.2" ry="9.5"/>
	<path class="st1" d="M302.1,333.9c-0.3,1.2-5.3,9.2,3.9,16.5c9.2,7.3,18.6,15.7,18.6,15.7s6.5,1.5,5.4-4.6
		c-1.1-6.1-11-12.1-14.1-18c-3.1-6-6.8-15.6-6.8-15.6S304.6,322.9,302.1,333.9z"/>
</g>
</svg>
