<?xml version="1.0" encoding="utf-8"?>
<!-- Generator: Adobe Illustrator 27.3.1, SVG Export Plug-In . SVG Version: 6.00 Build 0)  -->
<svg version="1.1" id="Camada_1" xmlns="http://www.w3.org/2000/svg" xmlns:xlink="http://www.w3.org/1999/xlink" x="0px" y="0px"
	 viewBox="0 0 512 512" style="enable-background:new 0 0 512 512;" xml:space="preserve">
<style type="text/css">
	.st0{fill:#001F44;}
	.st1{fill:#0A3056;}
	.st2{fill:#144975;}
	.st3{fill:#003263;}
	.st4{fill:#006AFF;}
</style>
<path class="st0" d="M508,256c0,40.9-9.7,79.5-27,113.6c-2.4,4.8-5,9.5-7.7,14c-4.5,7.7-9.4,15.1-14.7,22.2
	c-2.3,3.2-4.8,6.3-7.2,9.3c-2.1,2.6-4.2,5.1-6.4,7.6c-8,9.1-16.6,17.5-25.8,25.3c-2.1,1.8-4.2,3.6-6.4,5.3
	c-38,30.2-84.8,49.6-136,53.7c-6.8,0.6-13.6,0.8-20.6,0.8s-13.8-0.3-20.6-0.8c-47.5-3.8-91.3-20.8-127.6-47.3
	c-4.3-3.2-8.6-6.5-12.7-9.9c-2.6-2.2-5.2-4.4-7.8-6.7c-5.4-4.8-10.5-9.9-15.5-15.2c-10.1-10.9-19.3-22.6-27.5-35.2
	c-1.2-1.9-2.4-3.8-3.6-5.7c-4.4-7.1-8.4-14.5-12-22.1c-13.2-27.4-21.6-57.6-24-89.4c-0.4-4.4-0.6-8.8-0.7-13.3
	c0-2.1-0.1-4.2-0.1-6.4c0-4.4,0.1-8.7,0.3-13c0.6-12.4,2.1-24.5,4.5-36.3c0.4-2.1,0.9-4.1,1.3-6.2c0.1-0.3,0.1-0.6,0.2-0.8
	c3.4-14.7,8-29,13.9-42.6c3.9-9.1,8.3-17.9,13.2-26.4c4.2-7.4,8.8-14.5,13.8-21.3c2.3-3.2,4.7-6.4,7.2-9.5l0,0
	c3.1-4,6.4-7.8,9.8-11.6C77.2,78,87.1,68.6,97.6,60c2.5-2,5.1-4,7.7-6c5.7-4.2,11.5-8.2,17.6-12c5.4-3.4,10.9-6.5,16.6-9.5
	c22-11.5,45.8-19.8,71-24.4c4.6-0.8,9.2-1.6,13.9-2.1c10.3-1.3,20.9-2,31.6-2c15.7,0,31,1.4,45.9,4.2c10.1,1.9,20.1,4.3,29.7,7.4
	c4.9,1.5,9.7,3.2,14.4,5c8,3.1,15.8,6.5,23.4,10.4c9.7,4.9,19.1,10.4,28.1,16.5c3.6,2.5,7.2,5,10.7,7.7c4.5,3.4,8.8,6.9,13.1,10.6
	c14.4,12.5,27.3,26.6,38.5,42c4.7,6.4,9.1,13.1,13.2,20c5.5,9.2,10.3,18.8,14.6,28.7c1.8,4.1,3.4,8.3,5,12.5
	c1.2,3.1,2.2,6.2,3.3,9.4c2.8,8.7,5.2,17.6,7,26.7c0.3,1.7,0.7,3.5,1,5.2c1.1,6,2,12,2.6,18.2C507.4,237.5,508,246.7,508,256z"/>
<path class="st1" d="M487.5,156.5C423.4,141.3,322,126,200.8,144.5c-78.4,12-142.9,34.7-190.7,56c0.1-0.3,0.1-0.6,0.2-0.8
	c3.4-14.7,8-29,13.9-42.6c3.9-9.1,8.3-17.9,13.2-26.4c4.2-7.4,8.8-14.5,13.8-21.3c2.3-3.2,4.7-6.4,7.2-9.5l0,0
	c3.1-4,6.4-7.8,9.8-11.6C77.2,78,87.1,68.6,97.6,60c70.8,11.3,160.5,15.6,213.5,15.6c33.4,0,68.2-9.5,97-20.4
	c4.5,3.4,8.8,6.9,13.1,10.6c14.4,12.5,27.3,26.6,38.5,42c4.7,6.4,9.1,13.1,13.2,20C478.4,137,483.3,146.5,487.5,156.5z"/>
<path class="st1" d="M397.5,47.5C326.1,79,160.1,61.1,105.3,54c5.7-4.2,11.5-8.2,17.6-12c5.4-3.4,10.9-6.5,16.6-9.5
	c33.4,3.4,73.7,7.6,110.4,9.8c43.7,2.7,76.5-10.5,96.1-21.8c8,3.1,15.8,6.5,23.4,10.4C379.2,35.9,388.5,41.4,397.5,47.5z"/>
<path class="st2" d="M508,256c0,40.9-9.7,79.5-27,113.6c-13.2,0.6-27.6-1-42.2-6.7c-34.1-13.3-51.4-19.3-62.7-24.8
	c-32.5-15.8-76.7-14-124.7-12.1c-88.7,3.6-169.3,23.1-222.6,39c-13.2-27.4-21.6-57.6-24-89.4c83.7,5,182.9,4.6,293.3-8.6
	c77.1-9.2,146.9-23.1,208.3-38.7C507.4,237.5,508,246.7,508,256z"/>
<path class="st3" d="M503.8,210.2c-63.9-5.4-157.1,12.5-216.2,14.3c-66,2.1-231.7,29.1-283.5,37.8c0-2.1-0.1-4.2-0.1-6.4
	c0-4.4,0.1-8.7,0.3-13c0.6-12.4,2.1-24.5,4.5-36.3c43.6,2.7,103.4,3,155.2-8.9c92.9-21.3,282.9-24.7,307.4-23.5
	c5.8,0.3,13.2-1.8,21.1-5.2c1.2,3.1,2.2,6.2,3.3,9.4c2.8,8.7,5.2,17.6,7,26.7C503.2,206.8,503.5,208.5,503.8,210.2z"/>
<path class="st3" d="M473.3,383.6c-4.5,7.7-9.4,15.1-14.7,22.2c-24.2,2.7-58.5,5.5-83.1,3.1c-41.9-4.1-81.7-40.8-110.3-39.3
	c-22.1,1.2-152.6,12.1-220.8,23.1c-1.2-1.9-2.4-3.8-3.6-5.7c54.9-9.7,169.2-28.4,220.6-26.1c69.1,3.1,98.7,33.7,126.3,31.7
	C401.8,391.6,436.6,388.9,473.3,383.6z"/>
<path class="st3" d="M451.3,415.2c-2.1,2.6-4.2,5.1-6.4,7.6c-27.1,1.1-95.2,3.4-115.9,0.6c-26-3.6-36.8-14.8-54.1-14.3
	c-17.4,0.5-47,14.8-60.8,18.4c-10.8,2.8-76.7,15.9-119,22.5c-2.6-2.2-5.2-4.4-7.8-6.7c37.5-3.8,87.9-9.5,105.3-14.7
	c29.1-8.7,57.2-25,86.3-24c29.1,1,21.5,9.7,56.7,12.2C363.1,418.7,421.5,418.9,451.3,415.2z"/>
<path class="st2" d="M71.6,400.1c0,0,108.8-12.8,144.3-18.9s49.5-9.4,54.6-6.9s32.7,17.6,43.9,21.2s20.4,14.8,7.4,12.8
	c-13-2-18.6-8.7-34.2-9.7c-15.6-1-26.3-2.6-42.6,5.8c-16.3,8.5-28.6,15.6-45.1,15.4c-16.5-0.3-103,21.7-106.1,12
	C81.3,427.1,69.1,414.6,71.6,400.1z"/>
<path class="st0" d="M81.1,404.4c0,0,7.9,18.7,17.9,20.2s81.4-14,95.5-14.7c14-0.7,20.2,0,20.2,0s19.1-10.9,32.9-14.2
	s40.3-5.4,49.5-1.3s-6.4-6.9-17.4-9.1c-11-2.1-10.7-7.5-18.1-7.5c-7.4,0-8.7-3.1-25.3,4.3C219.7,389.6,90.7,402.1,81.1,404.4z"/>
<path class="st2" d="M115,407c0,0,1.3,5.6,7.4,5.6s65.9-11,72-11.6c6.1-0.6,25-4.7,26.8-6.2s-19.7-2.8-28.3,0
	c-8.7,2.8-31.9,8.6-39.1,8.1C146.7,402.4,119.6,405.2,115,407z"/>
<path class="st2" d="M236.8,390.6c-0.6-0.8,7.1-7.1,11.5-7.1s16.1,2.6,18.9,3.6s-11.2,1.8-18.1,3.6S242.1,397.5,236.8,390.6z"/>
<g>
	<path class="st4" d="M420.8,429.2c-8.7-0.4-17.1,0-24.9,4.5c-0.9,0.5-2.2,0.6-3.3,0.5c-9.8-1.1-19.1,1.8-27.7,5.5
		c-7.2,3-14.2,3.8-21.6,3.5c-6.2-0.2-11.8,1.1-17,4.8c-2,1.4-5.2,2.6-7.4,2c-5.4-1.5-10.6-4-15.8-6.2c-5.1-2.2-10.2-3-14.9,0.5
		c-7.1,5.2-14.8,7-23.8,7.4c-8.6,0.4-18.8,0.8-22.9,11.5c-0.2,0.5-1.1,0.6-1.6,1.1c-5.3,5.8-13.3,3.5-19.6,6.5
		c1.6-1.6,3.3-3,5.3-3.6c9-2.6,15.6-8.1,19.4-16.7c1.2-2.7,2.7-7-1.5-7.7c-6.2-1-12.7-1.1-18.9-0.2c-5.8,0.9-11.2,4.9-17,5.4
		c-6.8,0.6-8.5,9.5-15.8,8.4c-0.4-0.1-1.3,1.2-1.4,1.8c-0.4,3.9-2.4,8.2,2.6,11c0.7,0.4,1,1.7,1.7,3.1c-7.4-0.5-14.8,0.9-18.1-7.8
		c-1.2-3-3.4-5.7-4.7-8.7c-0.7-1.5-1.1-3.6-0.7-5.1c0.7-2.4,2.8-4.5,3.3-6.9c0.5-2.7,1-6.6-0.5-8.2c-2.4-2.7-5.6-1.7-7.3,2.1
		c-2.2,4.9-4.7,9.9-11.4,9.3c-5.5-0.5-5.6,2.8-5.5,6.9c0.2,7.7,0.5,7.4-7.3,7.4c-0.5,0-1,0.2-1.4,0.3c-0.7,1.7-1.8,3.3-2.1,5
		c-1.3,6.1-3.3,7.2-8.9,4.3c-6.1-3.1-12.1-6.5-18.2-9.6c-1.2-0.6-2.6-1-4-1.5c36.4,26.5,80.2,43.5,127.7,47.3h41.1
		c54.1-4.4,103.4-25.8,142.4-59c2.2-4.2,4.3-8.6,6.4-12.9C427.6,431.2,425.6,429.4,420.8,429.2z M303.3,471.4
		c-0.6,1-2.1,1.7-2.3,2.7c-2,9.6-3.4,10.7-12.6,10.1c-7.9-0.5-15.9-0.7-23.8-1c-0.9,0-1.9,0-4.3,0c2.5-1.4,3.7-2.1,4.9-2.8
		c4.5-2.8,8.8-5.8,13.4-8.3c2.5-1.4,5.3-2.5,8-2.8c4.6-0.6,9.4,0.6,13.1-3.7c0.7-0.8,3.8,0.5,5.8,0.8
		C304.8,468,304.2,469.8,303.3,471.4z"/>
	<path class="st4" d="M497.1,203.5c-0.5-8.3-0.8-16.7-1.2-25c-5.8-17.8-13.5-34.8-22.8-50.7c0.2,1.2,0.4,2.6,1.2,3.2
		c3.8,3.3,3.2,7.7,2.4,11.6c-1.4,6.9-3.6,13.6-6.1,22.5c-3.8-2.5-6.9-3.7-8.9-5.9c-2.9-3.2-5.6-5.5-10.2-6.2
		c-7.6-1.2-10.7-9.6-6.3-17.5c2.9-5.1,4.8-9.5,2-15.3c-1.2-2.4-0.4-5.2,3.2-6.6c3.4-1.3,6.2-4,9.5-5.9c-11.2-15.4-24.1-29.5-38.5-42
		c-1.7-0.2-3.4-0.3-5.2-0.5c-0.3,0.4-0.6,0.8-0.8,1.2c2.5,1.9,5,3.8,7.5,5.8c-0.1,0.6-0.3,1.3-0.4,1.9c-3.2-0.3-7,0.3-9.5-1.2
		c-3.6-2.1-6.1-5.8-9.2-8.7c-3.3-3.1-5.6-8.1-11.5-6.1c-0.9,0.3-2,0.6-2.5,1.3c-4.1,5.8-9.8,5.2-15.7,4.2c-1.9-0.3-4.2-0.6-5.8,0.2
		c-4.2,2.1-7.9,1.4-11.8-0.7c-4.6-2.4-10.5-0.7-13.9,3.1c-1.3,1.5-3.7,2.8-5.6,2.7c-8.1-0.1-16.2-0.4-24.3-1.1
		c-6.8-0.6-11.4,3.2-15.2,6.3c1.4,2.6,3.1,4.6,3.3,6.6c0.5,5-1.1,6.1-6.2,4.9c-7.6-1.7-9.3-0.1-8.3,8.2c4.3,0.2,8.7,0.5,12.6,0.8
		c3.1-4.4,6-8.5,9-12.6c0.5-0.8,1.6-1.8,2.3-1.7c6.2,1.1,13.3-1.2,18.3,5c2,2.5,5.1,4.2,7.7,6.3c0.4-0.4,0.7-0.8,1.1-1.2
		c-1.6-1.9-3.2-3.9-4.9-5.8c-2.5-3-0.9-4.1,2-4.5c1.1-0.1,2.6-0.2,3.4,0.5c7.6,6.2,17.5,9.8,21.2,20.1c0.4,1,1.4,1.8,2.1,2.7
		c0.2-0.1,0.4-0.2,0.5-0.3c0.2-0.1,0.4-0.2,0.6-0.3c-0.1-0.4-0.2-0.8-0.4-1.3v-0.1c-0.2-0.7-0.4-1.4-0.5-2.1
		c-0.1-1.2-0.1-3.4,0.4-3.6c3.6-1.4,3.3-4.3,3.7-7.3c0.3-2.7,4.7-3.4,6.7-1.2c0.8,0.8,1.2,2,2,3.4c0.8-1.1,1.2-2.4,2-2.7
		c2.2-0.8,4.6-1.8,6.8-1.5c1.2,0.2,2.1,2.8,3,4.3c1.1,1.9,2.1,3.8,2.9,5.7c1,2.3,1.7,4.7,2.6,7c-2.6,0.3-5.4,1.2-7.8,0.6
		c-3-0.7-5.8-2.4-9.4-4.2c-0.2-0.1-0.5-0.2-0.8-0.4c0,0.1,0.1,0.2,0.1,0.2c2.2,5.5,5,7.8,10,7.5c4.6-0.2,12.8,6,14.2,10.2
		c1.7,5.3-0.3,8.4-6.4,11c1.5,3.1,2.9,6.3,4.4,9.4c0.3,0.7,0.7,1.7,1.3,1.9c7.1,3.4,8.9,10.1,10.9,16.8c0.5,1.7,2.2,3.6,3.8,4.3
		c7.4,3.2,10.7,8.5,8.7,16.4c-1.1,4.7-1.6,8.4,4.3,10c1,0.3,2.1,2.6,1.9,3.8c-0.7,5.3,3,8.6,5.4,12.4c0.7,1.1,3.8,2,4.7,1.4
		c1.5-1,2.8-3.3,3-5.1c0.3-2.6-0.5-5.2-0.8-7.9c-0.3-3,0.3-5.4,4-5.4c3.1,0,5.8,0.5,5.9,4.4c0,0.5,0.2,0.9,0.3,1.4
		c0.5-0.2,0.9-0.3,1.4-0.5c-1.1-2.9-2.2-5.8-3.4-8.7c-1.3-3.3-2.8-6.5-4.3-10c-0.2,0.2-1.1,1-2.1,1.5c-4.8,2.4-6.8,0.7-8-4.4
		c-0.9-3.6-3.7-6.7-5.7-10c-2-3.3-5.2-6.3-5.8-9.9c-1.2-6.8,3.7-9.9,9.7-6.2c3.1,2,5.1,5.9,7.6,8.8c1.7,2.1,3.5,4.1,5.2,6.1
		c3.6,4,7.1,8.1,10.8,12.1c2.2,2.3,4.4,4.9,7.1,6.5c3.3,1.9,5.6,3.7,6.6,7.9c0.9,3.9,4.3,7.2,5.9,11.1c2.2,5.5,4.3,11.3,5.6,17.1
		c1.5,7,4.1,13.2,8.9,18.5c5.9,6.4,11.3,13.2,10.7,22.9c0.5-1,1.1-2,1.6-3v-30C499.6,215.9,497.4,209.7,497.1,203.5z M402.1,103.6
		c4.7-3.1,8-3.6,9.8,1.8c1.4,4.3,2.6,8.7,4,13c1.1,3.2,2.4,6.2,3.6,9.3c0.4,1,1,1.9,1.4,2.8C412.1,123.2,406.5,113.8,402.1,103.6z"
		/>
	<path class="st4" d="M279.2,429.3c0.3-0.3,1.1-1.8,2.2-1.9c5.8-0.9,11.7-2,17.5-2c6.5,0,13.2,0.5,19.4,2.2c3.3,0.9,7.3,4.4,8.1,7.5
		c0.9,3.4-0.5,8.8-2.9,11.1c-2.1,1.9-7.4,1.6-10.8,0.6c-4.1-1.2-7.6-4.4-11.5-6.5C294,436.5,286.8,433,279.2,429.3z"/>
	<path class="st4" d="M100,208.8c0.9,3.7,2.8,5.5,7,5.6c2,0.1,4.4,2.7,5.9,4.7c1.9,2.6,4.4,4.1,6.5,1.8c5.3-6,11.9-3.3,18.3-3.8
		c0.8,4.6,3.1,7.1,8.1,7.1c1.3,0,3.2,2.1,3.7,3.7c1.7,4.6,3.2,8.3,9.5,6.4c1.8-0.6,4.8,1.1,6.7,2.5c3.7,2.8,7.6,3.5,12.1,3.4
		c6.3-0.1,13.1-1.7,18.2,4c0.4,0.4,1.2,0.6,1.8,0.7c6.6,1.7,8.5,7.9,4.1,13.3c-4,4.8-7.8,9.6-11.5,14.6c-0.9,1.2-1.2,3-1.3,4.6
		c-0.2,3-0.4,6.1,0,9c1.4,8.9-3.5,15.9-6.3,23.6c-0.3,0.8-0.7,1.8-1.4,2c-5.4,2-9.5,6.1-14.3,8.8c-5.8,3.3-9,6.4-8.1,13.5
		c0.5,3.7-3.7,11.5-6.6,13.7c-1.9,1.4-3.3,3.7-4.3,5.9c-1.3,2.8-2,5.4-5.2,7.1c-2.2,1.2-4.4,4.4-4.6,6.9c-0.5,5-1.9,8.5-7.4,9.3
		c-1,0.2-1.9,1.3-2.6,2.1c-1.6,2-3,4.2-4.7,6.2c-2,2.4-3.6,4.6-1.3,8c1,1.5,0.5,3.9,0.9,5.8c0.6,2.6,1.4,5.1,2.3,8.7
		c-4.4,8.8-4.2,9.7,5.2,17.5c-10.3,1.9-16-2.3-19.1-12.1c-1.6-5-4.5-9.5-3.8-15.1c0.1-0.6-1.2-1.9-1.7-1.9c-4.6,0.2-4.9-3.1-5.1-6.2
		c-0.5-6.4-0.7-12.9-1.2-19.3c-0.1-1.1-0.4-2.4-1.1-3.2c-3.9-4.5-3.4-9.9-3.9-15.4c-0.6-6.6-2.7-13.2-4.2-19.7
		c-0.7-2.9-1.1-6.1-2.7-8.3c-1.6-2.2-4.7-4.9-6.9-4.7c-6.6,0.5-9-4-12.2-7.9c-5.8-7-11.5-14-17.6-20.7c-1.9-2.1-2.7-3.5-1.2-5.9
		c1.7-2.8,0.7-4.9-1.6-7c-1-0.9-1.7-3.1-1.3-4.4c1.2-4.3,2.9-8.4,4.3-12.6c0.4-1.2,0.5-2.6,0.6-3.9c0.3-6.3,4-12.2,1.3-18.9
		c-0.6-1.6,0-5.4,3.9-5.6c0.6,0,1.3-1,1.7-1.7c2.7-4.7,5.4-9.5,8.3-14.5c4.8,4.9,6.7,4.4,13.4-1.7C90,222.4,93,210.1,100,208.8z"/>
	<path class="st4" d="M384.6,43.3c-4.9-4.2-10.1-8.1-15-12.4c-12.1-6.1-24.7-11.3-37.8-15.4c1.3,4.1-0.4,9.6-4,10.2
		c-3.5,0.5-7.2-0.1-10.8-0.6s-7.1-1.9-10.6-1.9c-9.8,0-19.6,0.4-29.4,1c-7.9,0.5-8.9-1.5-7.6-10.2c0.2-1.6,0.9-3.1,1.6-5.6
		c3.9,1,7.7,2,11.5,2.7c2.3,0.4,5.2,1.2,7.1,0.3c4-2,8.2-3,12.4-3.2C287.1,5.5,271.8,4,256.2,4c-10.7,0-21.2,0.7-31.6,2
		c1.4,1,2,3,1.6,5.9c-0.7,5.6-2.2,11.3-4.5,16.5c-1.6,3.5-3.3,6.7-2.9,10.7c0.4,3.9-1.5,5.6-6,6.1c-2.3-1.6-5-2.9-6.8-5
		c-2.5-3-5-4.4-8.9-4.1c-4.3,0.3-8.7,0.2-13,0c-1.8-0.1-4.1-0.3-5.1-1.4c-1.5-1.8-2.8-4.3-2.9-6.6c0-1.2,2.5-3,4.3-3.7
		c4.7-1.9,9.8-2.9,14.2-5.3c3.5-1.9,5.9-6,9.4-7.9c2.1-1.1,4.3-2.2,6.5-3.1C179,13.9,149.4,25.6,123.1,42c5.2-1.6,10.3-3.5,15.6-4
		c9.2-0.9,18.5,0,27.8,0.3c1.2,0,2.2,1.6,3.4,2.4c-0.8,1-1.4,2.1-2.4,2.9c-4.8,4.1-9.8,8-15.3,12.6c7.5,1.7,12.5,4.6,10.7,13.5
		c2.8-4.4,6.2-5.3,9.5-3.4c4.6,2.7,1.6,6.2,0,9.3c4.2,4.3,15.2,2.9,17.2-2.4c2.4-6.3,7-9.4,13.1-9.8c6.1-0.4,10.2-3.2,13.9-7.4
		c1.7-1.9,4-4,6.3-4.6c4.5-1,9.3-0.8,9.5-7.3c0-0.6,1.2-1.1,1.7-1.7c1.4-1.5,2.7-3,5-5.5H226c2.6-6.8,3.2-7.7,6.6-7.7
		c6.6,0.1,13.2,0.7,19.8,0.8c5.9,0.1,11.8-0.1,17.6-0.3c4.1-0.1,8.5-1.5,12.1-0.3c3.5,1.2,6.3,1.7,9.9,1c6.1-1.1,12.9-3.3,18.6-1.9
		c16.9,4.2,33.8,6.1,51.2,5.7c2.8-0.1,5.9,1.2,8.2,2.7c2,1.4,5,5,4.4,6c-1.9,3.8-4.6,0.3-7.1-0.3c-1.3-0.3-2.9,0.5-4.4,0.9
		c0.6,1.3,1,2.7,1.8,3.9c0.9,1.5,2.6,2.9,2.9,4.4c0.5,3.4,2.2,3.6,4.9,2.9c-0.5-6.8-0.4-7,6.7-6.8c3.1,0.1,6.3,0.6,9.4,0.9
		c0.2-0.4,0.4-0.8,0.7-1.2C387.8,46.3,386.2,44.8,384.6,43.3z"/>
	<path class="st4" d="M134.3,74.8c-6.8,4.4-6.8,4.4,0.4,9.6c-3.3,0.4-6.7,0.7-10.8,1.2c2.3-5.5,0.1-6.8-4.5-6.4
		c-2.8,0.2-5.7-0.2-8.5-0.7c-3.8-0.7-6.4,0.1-7.8,4.1c-0.5,1.4-2,2.4-3,3.6c-0.6-0.4-0.9-0.5-1.1-0.7c-4.6-6.1-4.1-7,3.7-8.4
		c2.4-0.4,4.9-1.4,6.8-2.8c5.7-4.4,11.5-0.6,17.1-0.7C128.9,73.5,131,74.2,134.3,74.8z"/>
	<path class="st4" d="M111.7,57.9c12.2-6.8,24.2-11.2,38-13.1c-6.1,7.8-13.7,11.6-22.3,13.2c-3.7,0.7-6.8,4.6-11.1,2.1
		C115.1,59.5,113.7,58.9,111.7,57.9z"/>
	<path class="st4" d="M77.6,93.6c2.5,3.2,7.4,1.6,8.2-2.8c0.3-1.8,0.1-3.8,0.1-5.5c4.7,2.6,9,5,14,7.8c-3.5,1.3-5.6,3.3-9.2,1.5
		c-1.4-0.7-4.8,0.8-6.4,2.3c-4.2,4.1-8,8.6-12.1,13.3c-1.4-3.1-1.8-6.4-3.5-7.3c-1.9-1-5,0.2-8.3,0.5C66.5,99.8,71.9,96.8,77.6,93.6
		z"/>
	<path class="st4" d="M87.6,98.3c2.8,0.7,4.8,1.7,6.7,1.5c1.6-0.1,3-1.6,4.7-2.5c-0.3,4.1-0.6,7.3-0.7,10.6
		c-0.2,5.2-7.6,0.1-7.2,5.8c-4.4-6.1-10.4,1.6-14.4-3C80.1,106.7,84.1,102.2,87.6,98.3z"/>
	<path class="st4" d="M63.1,97.5c-1.6,0.5-3.1,1.3-4.6,2.2c3.1-4,6.4-7.8,9.8-11.6C70.2,94.6,67.8,96.2,63.1,97.5z"/>
	<path class="st4" d="M121.4,107c4-1.5,7.9-3,11.9-4.5c0.4,0.5,0.8,0.9,1.2,1.4c-1.8,2.9-3.7,5.8-4.8,7.7
		C126.3,109.7,124.1,108.5,121.4,107z"/>
	<path class="st4" d="M153.2,39.9c3.8,0.5,6.8,1,11.2,1.6c-2.9,2.1-4.8,3.5-6.3,4.6C156.5,44.1,155.2,42.4,153.2,39.9z"/>
	<path class="st4" d="M445.2,222.1c0,0.1,0.7,1.1,0.5,2.1c-0.4,3.2-1.1,6.4-1.8,9.6c-1.7,8.3-3.3,16.7-5,25
		c-1.2,5.6-3.4,7.3-9.2,7.4c-9.3,0-12.8,3.6-12.8,13c0,4.3,0.5,8.7-0.1,13c-0.8,5.3-2.5,10.4-3.9,15.6c-0.2,0.9-1,2.1-1.8,2.3
		c-7.6,1.6-9,9.2-13,14c-2.3,2.7-1.8,7.7-2.8,12.7c0.2,0-1.2-0.1-2.2,0.5c-2.6,1.4-5.2,2.9-7.5,4.7c-1.1,0.9-1.7,2.4-2.4,3.7
		c-4.9,8.7-12.9,9.5-21.6,8.3c-3.4-0.5-6.8-1.3-10.1-2c-0.9-6.8-1.8-13.6-2.5-20.5c-0.6-5.9-3.7-10.2-8.1-13.7c-3.8-3-3.9-5.9-1-9.7
		c1.3-1.7,1.7-4.2,2-6.4c1.1-6.5,2.1-12.8,7.4-17.8c2-1.8,3.3-5.4,3.4-8.2c0.5-8.1-0.1-16.3,0.3-24.5c0.2-4.6-1.2-8.4-4.3-11.2
		c-4.7-4.3-2.7-9.5-2.8-14.5c0-0.7,2.4-1.9,3.8-2.2c8.9-1.8,17.6-4.1,26.9-3.4c4,0.3,5.4-3.1,5.4-8.9c0-4.3-2.6-5-5.9-4.7
		c-5.9,0.5-11.8,1.7-17.7,1.8c-6.6,0.1-13.2-0.7-19.8-0.9c-4.7-0.1-4.1-3.9-4.5-6.4c-1.4-9.3-4.2-10.6-12.3-5.8
		c-3.8,2.3-8,3.8-12.2,5.5c-0.9,0.4-2.7,0.4-3.3-0.2c-4.4-4.4-9.8-3.1-15.2-2.8c-2.3-5-5-9.9-6.9-15.2c-1.9-5.1-5.1-8.5-10-10.4
		c-3.2-1.3-4.7-3.3-4.3-6.9c0.3-2.9,0-5.4-3.1-7.2c-6.5-3.7-8.5-9.4-5.3-16.4c3.4-7.4,7.5-14.4,11.4-21.5c0.5-0.9,1.7-1.6,2.7-1.8
		c3.4-0.7,4.6-2.7,5.7-5.9c1-3,4.8-4.9,6.3-7.8c2.3-4.5,6-1.8,8.8-2.2c6.2-0.8,12.6-0.4,18.9-0.1c1.4,0.1,3.4,1.1,3.9,2.3
		c1.8,4.2,5.4,4.7,9,4.6c3.9-0.1,6.8,1.2,8.7,4.5c0.2,0.3,0.4,0.5,0.6,0.8c5.4,10,14.3,9.9,23.7,8.1c7.8-1.5,18.4,5.9,18.2,13.7
		c-0.2,6.4,3,9.9,7.7,12.9c2.9,1.8,5,3.5,5.3,7.6c0.2,2.6,2.8,5.5,5,7.4c4.4,3.8,7.7,7.7,6.8,14c-1,6.8,1,12.3,5.9,17.5
		c4.4,4.6,7.7,10.5,11,16.1c1.5,2.6,1.4,6.1,2.9,8.7c2.2,3.6,5.6,6.7,10.2,6C437.7,225.8,441,223.8,445.2,222.1z"/>
	<path class="st4" d="M381.1,129.4c-2-2.1-4.3-4.1-6-6.5c-3.4-4.8-8.1-5.4-13.3-4.3c-14.3,3-16.1,2.3-24.5-10.9
		c5.6-1.3,8-5.6,7.8-13.5c2.3,3.7,4.9,7.2,6.9,11.1c1.7,3.1,4.2,4.9,7.2,3.5c1.5-0.7,1.9-3.9,2.6-6c0.3-0.8-0.1-1.8,0.3-2.5
		c1.2-2.3,2.6-4.4,4-6.7c2.8,2.9,6.3,5.6,9.3-1.2c0.1-0.1,3.1,0.3,3.4,1.1c1.5,3.1,2.4,6.4,3.6,9.7c-2.1-0.9-5-2.4-8.1-3.1
		c-2.4-0.6-5-0.1-7.5-0.1c0.5,2.6,0.5,5.4,1.7,7.6c2.2,4.1,5.8,6,10.7,5.6c3.8-0.3,10.1,4.2,10.7,7.8c0.2,1.6-1,3.9-2.3,5
		C386,127.5,383.6,128.1,381.1,129.4z"/>
	<path class="st4" d="M310.1,225c0.1-7.9,1.3-8.9,8-7c5.3,1.5,10.2,1.4,15.5-0.7c3.2-1.3,7-1.1,10.5-1.6c0.6,0.8,1.1,1.5,1.7,2.3
		c-1.6,0.8-3.2,1.5-4.7,2.4c-8.6,5.8-11.2,13.2-8.8,23.1c0.7,3,0.1,6.5-0.4,9.6c-0.2,1.1-2.1,2.7-3.2,2.7c-1.2,0-3.2-1.2-3.6-2.4
		c-2.9-7.3-5.9-14.7-8-22.3C316,227.3,314.6,225,310.1,225z"/>
	<path class="st4" d="M299.6,55.7c8.3-12.7,20.7-9.4,32.1-9.1c4.3,0.1,8.7,0.8,14.4,1.4c-6.7,3-7.3,5.1-3.6,10.3
		c-1.8,0-3.2-0.1-4.6,0c-3.6,0.4-5-1.1-5.4-4.7c-0.5-5.3-4.8-7.2-9-4.3c-3.7,2.5-3.7,6.6,0.3,8.6c2.6,1.2,4.2,3,2.6,5.2
		c-0.9,1.2-4.1,1.9-5.7,1.3c-4.2-1.5-8.6-2.6-11.6-6.9C307.9,55.6,303.1,56.2,299.6,55.7z"/>
	<path class="st4" d="M337.3,97.8c-5.1,1.3-5.1,4.4-3.5,8c-2-0.1-3.8-0.4-5.5-0.4c-2.8,0.1-5-0.5-6.4-3.4c-1.4-2.9-4-4-7.4-3.8
		c-4.8,0.3-9.6,0.1-15.7-1c2.9-3.7,5.2-9.2,8.9-10.5c3.9-1.3,9.9-1.4,13.8,3c3.5,4,7.3,7.3,13.2,6.5C335.3,96.2,336,97,337.3,97.8z"
		/>
	<path class="st4" d="M383.3,135.1c3.6,0.5,5.1,2.1,4.8,5.7c-0.1,1.2,0.9,3.2,1.9,3.6c7.8,3.1,9.2,10,10.9,16.8
		c-0.4,0.3-0.8,0.6-1.2,0.8c-1.3-1.8-3.6-3.6-3.6-5.5c-0.2-5.5-3.5-8.1-7.6-10.7C384.9,143.4,381.4,140.6,383.3,135.1z"/>
	<path class="st4" d="M338.6,64c-2.8,1.5-5.7,3-8.5,4.5c-0.3-0.5-0.7-0.9-1-1.4c0.7-2.1,1.3-4.1,2-6.2c2.3,0.6,4.6,1.1,6.8,1.7
		C338.1,63,338.3,63.5,338.6,64z"/>
	<path class="st4" d="M347.7,49.4c3.6,1.3,7.1,2.6,10.7,4c-0.2,0.6-0.5,1.3-0.7,1.9c-3.5-1.3-7.1-2.6-10.6-4
		C347.3,50.7,347.5,50,347.7,49.4z"/>
	<path class="st4" d="M448.8,294.6c-0.5,8.2-1.1,16.5-2.1,24.6c-0.2,1.9-2.3,3.5-3.3,5.4c-6.1,11.6-15.3,20.5-25.5,28.4
		c-1.6,1.2-3.5,2-5.3,3c-0.7-2-1.5-4.1-2.2-6.1c0-7.8,5-12.7,9-18.1c1.6-2.1,2.3-4.9,3.3-7.3c0.9-2.3,1.8-4.5,2.7-6.8
		c1.2-3.5,2.7-6.9,3.5-10.5c1.1-5.1,1.2-10.5,2.4-15.6c1.2-5.3,4.8-8,8.6-7.2C446.1,285.6,449.1,288.8,448.8,294.6z"/>
	<path class="st4" d="M462.9,146.4c-2.6,1.8-6.7,1.6-10.1,1.4c-1,0-2.8-2.8-2.8-4.3c0.3-8.9,1.1-17.7,1.7-26.9
		c3.7-0.2,9.9,4.5,11.5,8.4c1.2,3.2,2.5,6.4,3.3,9.8C467.7,139.3,466.5,144,462.9,146.4z"/>
	<path class="st4" d="M110.6,108.1c6.4-3.2,13.2-6.1,20.1-7.9c4.7-1.3,9.9-0.7,14.8-5.5c-3.2,0.4-5,0.7-6.9,0.8
		c-1.8,0.1-4.4,0.7-5.2-0.2c-4.2-4.8-6.7-2.4-10.3,1c-4.8,4.5-9.5,3.3-11.2-1.8c-8.2-2.4-10.2,4.2-13.5,8.9c3,5.8-0.3,11.5-7.3,13.5
		c-1.2,2-2.9,4.8-4.3,4.6c-2-0.2-3.6-2.7-5.8-4.6c-2.1,0-5.7-0.6-8.8,0.2c-3.5,0.9-5.7,0.1-7.1-2.9c-1-2.2-1.6-4.6-2.5-7.2
		c-3.9,0.7-8.5,0.8-12.3,2.5c-0.8,0.4-1.7,0.5-2.4,0.4c-4.9,6.9-9.5,14-13.8,21.4c1.2-0.3,2.6-0.4,4.2,0.1c3.6,1,5.9,1.9,5.9,6.5
		c-1.2,2.4-1.8,5.9-3.8,7c-3.6,2.1-5.2,5-6.5,8.7c-1.1,3-2.8,5.7-7.1,3.4c-1.2-0.7-3.5,0.9-5.3,0.8c-0.2,0-0.4,0-0.6,0
		C15,171.3,10.3,185.6,7,200.3c0.6,1,1.3,2.1,1.3,3.1c-0.1,6.8-0.4,13.5-0.7,20.7c1.6,0.6,3.9,1.4,6,2.2c2.7-2.1,4.7-5.5,8.5-2.1
		c1.4,1.2,3.4,2.5,5.1,2.5c4.9,0,6.9,2.3,7.1,7c0.2,4.3,0.3,4.3,5.1,3.6c-5.7-5.2-3.7-11-1.3-16c-3.1-0.8-7.4-0.8-8.6-2.7
		c-1.2-1.9,0.6-5.8,1.2-9.5c-1.4,2.1-2.3,4.1-3.8,5.5c-1.9,1.8-4.3,3-6.5,4.5c-0.6-2.4-1.4-4.8-1.9-7.2c-0.2-0.7,0.3-1.6,0.5-2.4
		c0.6-3,0.9-6.1,1.9-8.8c1.6-4.2,2.8-9.2,5.9-12.1c6.2-5.6,13.5-10,20.4-14.9c1.2-0.8,2.7-1.6,4.1-1.7c3.3-0.4,6,0.5,6.1,4.6
		c0,1.1,0.2,2.2,0.3,3.2c0.7-8.8,4-16,11-21.5c2-1.5,4-3.1,5.5-5c6.5-8.1,10.4-18.7,21.6-22.2c0.3-0.1,0.4-0.5,0.6-0.8
		c4.6-4.6,9.2-9.2,13.8-13.8c0.2,0.5,0.4,0.9,0.6,1.3c1.9,0.4,3.9,0.8,7,1.5c-2.1-2.2-3.1-3.2-4-4.2c-2.2,0.5-4.4,1-6.8,1.5
		C105.7,112.6,107.9,109.4,110.6,108.1z M67.6,140c-1.1,7.9-3.6,11.6-10.5,11.7c-0.5-0.3-3-1-3.4-2.3c-0.5-1.5,0.3-4.1,1.5-5.2
		c2.8-2.6,5.9-4.8,9.2-6.7C66.6,136.3,68.1,136.6,67.6,140z M73,133.8c-1.2,0.4-2.4,0.9-3.7,1c-1.5,0.2-3.2-0.5-4.9-0.8
		c0.4-1.6,0.6-3.2,1.2-4.7c0.4-0.8,1.4-1.6,2.3-1.8c2.1-0.6,4.6-1.7,6.4-1.1c1,0.4,1.2,2.6,1.7,4.4C75.2,132,74,133,73,133.8z
		 M89,131c-1.6,2.4-3.9,4.5-6.3,6.1c-3,2-5.6,1-6.5-1.9c1.2-1.8,2.2-4,2.9-5.5c1.7-1.5,3.5-2.9,5.4-4.1c1.2-0.7,3.3,0,5,0
		C89.4,127.4,89.9,129.7,89,131z"/>
</g>
</svg>
