<?xml version="1.0" encoding="utf-8"?>
<!-- Generator: Adobe Illustrator 27.3.1, SVG Export Plug-In . SVG Version: 6.00 Build 0)  -->
<svg version="1.1" id="Camada_1" xmlns="http://www.w3.org/2000/svg" xmlns:xlink="http://www.w3.org/1999/xlink" x="0px" y="0px"
	 viewBox="0 0 512 512" style="enable-background:new 0 0 512 512;" xml:space="preserve">
<style type="text/css">
	.st0{fill:#E1EDFF;}
	.st1{fill:#BEC9D3;}
	.st2{fill:#006AFF;}
	.st3{fill:#EEF5FF;}
	.st4{fill:#001533;}
	.st5{fill:#0098FF;}
	.st6{fill:#52EFFF;}
	.st7{fill:#001D50;}
	.st8{fill:#121F32;}
	.st9{fill:#3070CE;}
	.st10{fill:#DDE8ED;}
	.st11{fill:#FFFFFF;}
	.st12{fill:#CCD8E2;}
	.st13{fill:#B6C0CC;}
	.st14{fill:none;stroke:#006AFF;stroke-width:4;stroke-miterlimit:10;}
	.st15{fill:none;stroke:#52EFFF;stroke-width:5;stroke-miterlimit:10;}
	.st16{fill:none;stroke:#55D7FF;stroke-width:5;stroke-miterlimit:10;}
	.st17{fill:none;stroke:#578BFF;stroke-width:5;stroke-miterlimit:10;}
	.st18{fill:none;stroke:#004ED8;stroke-width:5;stroke-miterlimit:10;}
</style>
<path class="st0" d="M296.71,22.32c0,0-0.12,0.52-0.36,1.41c-1.15,4.21-5.18,16.64-13.6,21.28c-10.2,5.6-11.22,20.89-11.22,20.89
	s0.45,6.63,3.67,12.77c1.65,3.17,4.06,6.2,7.55,8.12c1.41,0.78,2.7,1.78,3.86,2.92c5.93,5.77,8.9,15.21,9.79,18.55
	c0.19,0.76,0.3,1.21,0.3,1.21s17.4-1.99,32.53-7.02c0.54,0.52,1.38,0.69,1.95,0.79c0.69,0.13,2.01,0.27,3.7-0.27
	c-0.4-0.67-0.79-1.39-1.2-2.13c0.01-0.01,0.04-0.01,0.06-0.03c0,0-0.25-0.45-0.69-1.29c-1.69-3.38-6.11-13.19-7.37-26.42
	c-0.07-0.76-0.15-1.54-0.19-2.34c-0.1-1.59-0.16-3.2-0.16-4.88c0-16.67,5.63-29.44,7.68-33.53c0.45-0.91,0.73-1.39,0.73-1.39
	c-0.01-0.01-0.04-0.01-0.06-0.03c0.4-0.73,0.79-1.45,1.2-2.13c-1.69-0.54-3.01-0.4-3.7-0.27c-0.57,0.1-1.41,0.27-1.95,0.79
	C314.11,24.31,296.71,22.32,296.71,22.32z"/>
<path class="st1" d="M309.31,38.5c-1.15,0.07-2.55,0.22-4.14,0.52c-1.22,0.25-2.53,0.57-3.93,1.05c-3.44,1.16-5.87,2.65-6.48,3.04
	c-4.37,2.82-6.77,9.12-8.05,14.37c-1.06,4.36-1.37,8-1.4,8.37v0.41c0,0.56,0.02,1.55,0.12,2.84c0.34,4,1.54,10.85,5.89,16.22
	c0.96,1.23,2.11,2.38,3.44,3.39c3.11,2.38,7.39,3.51,7.39,3.51c2.77,0.83,4.96,1.49,7.36,1.03c5.06-0.98,10.92-6.6,10.2-12.46
	c-0.22-1.81-4.3-7.09-4.52-14.69v-0.25c0-0.08,0-0.17,0.02-0.24V65.6c0.05-1.76,0.32-3.38,0.69-4.86c1.22-4.93,3.65-8.32,3.82-9.69
	c0.62-4.98-2.82-8.36-5.91-10.33c-0.78-0.49-1.5-0.89-2.16-1.2C310.29,38.82,309.31,38.5,309.31,38.5z"/>
<path class="st2" d="M333.01,32.37c-0.28,0.57-0.66,1.32-1.06,2.23c-2.47,5.54-6.62,16.98-6.62,31.3c0,13.13,3.5,23.86,5.98,29.8
	c0.7,1.66,1.32,2.97,1.75,3.83c4.21-2.46,29.01-17.27,40.36-33.47c0.03-0.03,0.06-0.07,0.07-0.1c-0.03-0.03-0.04-0.06-0.07-0.09
	C362.02,49.6,337.09,34.75,333.01,32.37z"/>
<path class="st2" d="M373.49,65.99c-0.01,0.03-0.04,0.07-0.07,0.1h0.15C373.54,66.06,373.52,66.02,373.49,65.99z"/>
<polygon class="st2" points="320.97,66.08 320.94,65.99 320.93,66.08 "/>
<path class="st2" d="M373.57,65.9h-0.15c0.03,0.03,0.04,0.06,0.07,0.09C373.52,65.96,373.55,65.93,373.57,65.9z"/>
<polygon class="st2" points="320.94,65.99 320.97,65.9 320.93,65.9 "/>
<path class="st3" d="M296.35,23.73c-0.24,0.04-1.2,0.25-2.74,0.58c-13.73,3-73.69,16.64-78.59,28.14
	c-1.26,4.87-1.93,9.48-1.95,13.45v0.19c0,0.85,0.03,1.72,0.1,2.62c0.07,1.08,0.19,2.19,0.34,3.32v0.01c0.33,2.38,0.82,4.9,1.5,7.47
	c4.63,10.87,58.45,23.66,75.94,27.55c1.47,0.31,2.68,0.58,3.58,0.78c0.01,0,0.03,0,0.04,0.01c0.54,0.12,0.94,0.21,1.24,0.27
	c0.21,0.04,0.36,0.07,0.46,0.09c0.07,0.01,0.12,0.03,0.12,0.03c-0.07-0.25-0.15-0.54-0.24-0.85c-0.04-0.15-0.09-0.31-0.15-0.49
	c-0.25-0.85-0.58-1.89-1-3.02c-0.07-0.24-0.16-0.46-0.25-0.7c-0.18-0.48-0.37-0.99-0.58-1.5c-0.1-0.24-0.21-0.49-0.31-0.73
	c-0.13-0.31-0.27-0.64-0.42-0.97c-0.42-0.91-0.88-1.86-1.39-2.8c-0.16-0.3-0.33-0.61-0.51-0.93c-0.78-1.36-1.65-2.7-2.62-3.95
	c-0.37-0.48-0.76-0.94-1.17-1.41c-0.21-0.24-0.43-0.48-0.66-0.7c-0.16-0.16-0.31-0.33-0.48-0.48c-0.15-0.15-0.3-0.3-0.46-0.45
	c-0.22-0.19-0.43-0.39-0.67-0.57c-0.13-0.13-0.28-0.25-0.45-0.37c-0.24-0.19-0.48-0.37-0.73-0.55c-0.21-0.15-0.4-0.28-0.63-0.42
	c-0.3-0.19-0.6-0.37-0.91-0.55c-3.49-1.92-5.9-4.94-7.55-8.12c-3.22-6.14-3.67-12.77-3.67-12.77s1.02-15.29,11.22-20.89
	C291.17,40.37,295.2,27.94,296.35,23.73z"/>
<path class="st4" d="M225.42,84.24c-0.13,0.66-0.3,1.32-0.45,1.96c6.45-1.2,11.92-0.03,15.18,1.06c-1.02-1.86-1.74-3.02-1.74-3.02
	C232.68,79.27,225.42,84.24,225.42,84.24z"/>
<path class="st5" d="M331.95,34.6h0.01c9.88,2.28,32.3,28.62,33.69,30.26c-1.57-1.48-25.68-24.14-29.76-22.3
	c-4.21,1.92-7.46,44.97-1.02,44.54c6.24-0.4,16.95-8.09,17.63-8.57c-9.73,13.73-21.2,17.16-21.2,17.16c0.7,1.66,1.32,2.97,1.75,3.83
	c4.21-2.46,29.01-17.27,40.36-33.47c0.03-0.03,0.06-0.07,0.07-0.1c-0.03-0.03-0.04-0.06-0.07-0.09
	c-11.4-16.26-36.33-31.12-40.4-33.5C332.73,32.94,332.35,33.69,331.95,34.6z"/>
<ellipse transform="matrix(0.0663 -0.9978 0.9978 0.0663 250.4636 399.8451)" class="st2" cx="338.88" cy="66.09" rx="16.25" ry="8.87"/>
<ellipse transform="matrix(0.0663 -0.9978 0.9978 0.0663 252.4487 415.5696)" class="st2" cx="348.28" cy="72.89" rx="3.91" ry="2.25"/>
<path class="st6" d="M352.83,85.11c-0.17,0.37,16.82-18.08,17.87-19.03c1.05-0.95-19.88-20.93-19.88-20.93l18.83,20.74
	C369.65,65.89,358.47,72.49,352.83,85.11z"/>
<path class="st7" d="M308.5,41.55c-1.02,0.06-2.26,0.19-3.67,0.46c-1.08,0.22-2.25,0.51-3.49,0.93c-3.05,1.03-5.21,2.35-5.75,2.7
	c-3.88,2.5-6.01,8.09-7.14,12.74c-0.94,3.86-1.21,7.1-1.24,7.43v0.36c0,0.49,0.02,1.38,0.1,2.52c0.3,3.55,1.36,9.63,5.23,14.39
	c0.85,1.09,1.87,2.11,3.05,3.01c2.76,2.11,6.56,3.11,6.56,3.11c2.46,0.73,4.4,1.32,6.53,0.91c4.49-0.87,9.69-5.86,9.05-11.05
	c-0.19-1.6-3.82-6.29-4.01-13.03v-0.22c0-0.07,0-0.15,0.01-0.21v-0.01c0.04-1.56,0.28-3,0.61-4.31c1.08-4.37,3.23-7.38,3.38-8.6
	c0.55-4.42-2.5-7.41-5.24-9.16c-0.69-0.43-1.33-0.79-1.92-1.06C309.37,41.83,308.5,41.55,308.5,41.55z"/>
<path class="st8" d="M193.18,41.35v49.09l21.85-11.31c-1.24-4.78-1.92-9.31-1.95-13.24c0.03-3.92,0.7-8.46,1.95-13.24L193.18,41.35z
	"/>
<polygon class="st2" points="222.8,66 213.18,68.72 198.96,65.89 213.14,63.85 "/>
<path class="st9" d="M312.48,43.51l-25.17,25.17c0.19,2.37,0.73,5.84,2.22,9.31c0.16,0.39,0.33,0.76,0.54,1.15
	c0.27,0.57,0.57,1.12,0.9,1.68c0.18,0.3,0.37,0.61,0.6,0.9c0.28,0.46,0.61,0.91,0.97,1.35l21.8-21.8c0.31-1.27,0.72-2.44,1.14-3.46
	c0.43-1.06,0.88-1.98,1.26-2.76c0.52-1.08,0.93-1.89,0.99-2.38c0.06-0.42,0.07-0.84,0.04-1.23c0-0.54-0.06-1.05-0.18-1.53
	C316.91,46.97,314.61,44.87,312.48,43.51z"/>
<path class="st9" d="M308.5,41.55c-0.55,0.03-1.18,0.09-1.87,0.18c-0.57,0.07-1.17,0.16-1.8,0.28l-16.38,16.37
	c-0.16,0.67-0.31,1.33-0.43,1.96c-0.22,1.12-0.39,2.14-0.51,3c-0.21,1.38-0.28,2.31-0.3,2.47l23.36-23.36
	c-0.6-0.31-1.11-0.52-1.48-0.67C308.71,41.62,308.5,41.55,308.5,41.55z"/>
<path class="st7" d="M308.5,41.55c-0.55,0.03-1.18,0.09-1.87,0.18l-18.61,18.61c-0.22,1.12-0.39,2.14-0.51,3l21.58-21.56
	C308.71,41.62,308.5,41.55,308.5,41.55z"/>
<path class="st7" d="M316.74,55.06l-25.77,25.77c0.18,0.3,0.37,0.61,0.6,0.9l23.92-23.92C315.91,56.75,316.36,55.83,316.74,55.06z"
	/>
<path class="st7" d="M317.59,49.92L289.53,78c0.16,0.39,0.33,0.76,0.54,1.15l27.7-27.7C317.77,50.91,317.71,50.4,317.59,49.92z"/>
<path class="st4" d="M313.29,70.93c0,0,2.66,7.37,3.45,8.22c0.79,0.86-2.49,9.05-8.74,9.33s-9.11-2.64-9.11-2.64
	s9.24,3.5,12.04,0.45c2.8-3.06,4.94-4.73,4.87-6.57S313.13,73.38,313.29,70.93z"/>
<path class="st1" d="M296.1,107.18c0.04,0.16,0.09,0.31,0.13,0.46c-0.01-0.07-0.03-0.15-0.06-0.24
	C296.16,107.33,296.13,107.26,296.1,107.18z"/>
<path class="st1" d="M294.08,101.46c0.1,0.25,0.21,0.49,0.3,0.73c-0.06-0.16-0.12-0.34-0.19-0.51
	C294.15,101.61,294.12,101.54,294.08,101.46z"/>
<path class="st9" d="M166.24,99.78c0,0,11.95-0.19,14.72-1.34C180.96,98.44,171.98,101.74,166.24,99.78z"/>
<path class="st1" d="M294.38,29.6c-0.09,0.24-0.19,0.48-0.3,0.73c0.04-0.07,0.07-0.15,0.1-0.22
	C294.26,29.94,294.32,29.76,294.38,29.6z"/>
<path class="st1" d="M296.23,24.15c-0.04,0.15-0.09,0.3-0.13,0.46c0.03-0.07,0.06-0.15,0.07-0.22
	C296.2,24.3,296.22,24.22,296.23,24.15z"/>
<path class="st10" d="M213.18,68.71c0.07,1.08,0.19,2.19,0.34,3.32v0.01c0.33,2.38,0.82,4.9,1.5,7.47
	c4.63,10.87,58.45,23.66,75.94,27.55c1.47,0.31,2.68,0.58,3.58,0.78c0.01,0,0.03,0,0.04,0.01c0.54,0.12,0.94,0.21,1.24,0.27
	c0.21,0.04,0.36,0.07,0.46,0.09c0.07,0.01,0.12,0.03,0.12,0.03c-0.07-0.25-0.15-0.54-0.24-0.85c-0.04-0.15-0.09-0.31-0.15-0.49
	c-0.25-0.85-0.58-1.89-1-3.02c-0.07-0.24-0.16-0.46-0.25-0.7c-0.18-0.48-0.37-0.99-0.58-1.5c-0.1-0.24-0.21-0.49-0.31-0.73
	c-0.13-0.31-0.27-0.64-0.42-0.97c-0.42-0.91-0.88-1.86-1.39-2.8c-0.16-0.3-0.33-0.61-0.51-0.93c-0.78-1.36-1.65-2.7-2.62-3.95
	c-0.37-0.48-0.76-0.94-1.17-1.41c-0.21-0.24-0.43-0.48-0.66-0.7c-0.16-0.16-0.31-0.33-0.48-0.48c-0.15-0.15-0.3-0.3-0.46-0.45
	c-0.22-0.19-0.43-0.39-0.67-0.57c-0.13-0.13-0.28-0.25-0.45-0.37c-0.24-0.19-0.48-0.37-0.73-0.55c-0.21-0.15-0.4-0.28-0.63-0.42
	c-0.3-0.19-0.6-0.37-0.91-0.55c-3.49-1.92-5.9-4.94-7.55-8.12l-5.3-4.55c0,0,2.53,12.19,6.54,16.13c4.01,3.94-28.68-3.1-30.49-5.84
	c-1.81-2.74-18.24-7.37-22.18-4.85C219.85,82.09,213.18,68.71,213.18,68.71z"/>
<path class="st1" d="M296.41,23.53c0,0-0.04,0.01-0.12,0.03c-0.1,0.01-0.25,0.04-0.46,0.09c-0.3,0.06-0.72,0.16-1.24,0.27
	c-0.01,0.01-0.03,0.01-0.04,0.01c-0.9,0.19-2.11,0.46-3.58,0.78c-17.49,3.89-71.31,16.68-75.94,27.55c-0.67,2.58-1.17,5.09-1.5,7.47
	c0.03-0.1,0.07-0.22,0.1-0.34c1.78-6.5,9.25-13.72,10.15-10.68c0.9,3.04,14.3,1.63,15.83,0c1.54-1.63,2.56-6.27,4.6-8.57
	c2.02-2.28,45.12-11.85,45.79-12c-1.32,4.03-4.19,10.62-9.6,14.42c-8.16,5.74-12.23,16.83-11.47,23.14c0,0.06,0.01,0.12,0.01,0.18
	c0,0.06-0.01,0.12-0.01,0.18c-0.76,6.3,3.31,17.4,11.47,23.14c5.41,3.8,8.28,10.39,9.6,14.42c-0.67-0.15-43.77-9.72-45.79-11.99
	c-2.04-2.29-3.05-6.93-4.6-8.57c-1.53-1.63-14.93-3.04-15.83,0c-0.9,3.04-8.37-4.18-10.15-10.68c-0.03-0.12-0.07-0.24-0.1-0.34
	c0.33,2.38,0.82,4.9,1.5,7.47c4.63,10.87,58.45,23.66,75.94,27.55c1.47,0.31,2.68,0.58,3.58,0.78c0.01,0,0.03,0,0.04,0.01
	c0.52,0.1,0.94,0.21,1.24,0.27c0.21,0.04,0.36,0.07,0.46,0.09c0.07,0.01,0.12,0.03,0.12,0.03c-0.02-0.06-0.03-0.12-0.06-0.19
	c-0.03-0.13-0.07-0.27-0.12-0.42c-0.04-0.15-0.09-0.3-0.13-0.46c-0.09-0.34-0.21-0.72-0.34-1.12c-0.1-0.33-0.21-0.69-0.33-1.05
	c-0.3-0.85-0.64-1.81-1.05-2.82c-0.09-0.24-0.19-0.48-0.3-0.73c-0.4-0.99-0.87-2.04-1.39-3.08c-0.21-0.39-0.42-0.79-0.63-1.2
	c-0.16-0.3-0.33-0.61-0.51-0.93c-0.39-0.67-0.79-1.36-1.24-2.02c-0.21-0.33-0.43-0.66-0.67-0.97c-0.22-0.33-0.46-0.64-0.7-0.96
	c-0.02-0.03-0.04-0.07-0.07-0.1c-0.36-0.45-0.72-0.87-1.09-1.3c-0.21-0.24-0.43-0.48-0.66-0.7c-0.16-0.16-0.31-0.33-0.48-0.48
	c-1.17-1.14-2.46-2.14-3.86-2.92c-10.2-5.6-11.22-20.89-11.22-20.89s1.02-15.29,11.22-20.89c0.31-0.18,0.61-0.36,0.91-0.55
	c0.22-0.13,0.42-0.27,0.63-0.42c0.25-0.18,0.49-0.36,0.73-0.55c0.16-0.12,0.31-0.24,0.45-0.37c0.24-0.18,0.45-0.37,0.67-0.57
	c0.16-0.15,0.31-0.3,0.46-0.45c0.16-0.15,0.31-0.31,0.48-0.48c0.22-0.22,0.45-0.46,0.66-0.7c0.37-0.43,0.73-0.85,1.09-1.3
	c0.01-0.03,0.04-0.07,0.07-0.1c0.24-0.31,0.48-0.63,0.7-0.96c0.24-0.31,0.46-0.64,0.67-0.97c0.43-0.67,0.85-1.33,1.24-2.02
	c0.18-0.31,0.34-0.63,0.51-0.93c0.21-0.4,0.42-0.81,0.63-1.2c0.27-0.54,0.52-1.08,0.76-1.6c0.15-0.33,0.28-0.66,0.42-0.97
	c0.07-0.16,0.15-0.34,0.21-0.51c0.1-0.25,0.21-0.49,0.3-0.73c0.15-0.33,0.27-0.67,0.39-0.99c0.09-0.24,0.18-0.46,0.25-0.7
	c0.15-0.39,0.27-0.76,0.4-1.12c0.12-0.36,0.22-0.72,0.33-1.05c0.1-0.3,0.19-0.58,0.27-0.85c0.03-0.09,0.06-0.18,0.07-0.27
	c0.04-0.16,0.09-0.31,0.13-0.46c0.04-0.15,0.09-0.3,0.12-0.42C296.38,23.65,296.4,23.59,296.41,23.53z"/>
<g>
	<path class="st7" d="M225.42,84.24c-0.07,0.37-0.16,0.76-0.25,1.14c-0.06,0.27-0.13,0.55-0.19,0.82c-0.42,1.6-0.88,3.14-1.41,4.63
		c-4.01,11.43-10.96,19.29-14.78,22.96c-1.63,1.57-2.68,2.38-2.68,2.38c18.54,12.04,33.65,5.68,33.65,5.68
		c1.78-0.13,8.28-7.65,7.52-16.05c-0.54-5.92-4.69-14.14-7.11-18.52c-0.09-0.16-0.18-0.33-0.28-0.49c-0.85-1.57-1.45-2.53-1.45-2.53
		C232.68,79.27,225.42,84.24,225.42,84.24z"/>
	<path class="st7" d="M223.56,90.83c-1.41,0.45-2.94,0.87-4.55,1.27c-20.34,5.11-55.72,7.05-55.72,7.05
		c10.87,5.02,31.18,10.78,41.39,13.55c1.66,0.43,3.05,0.81,4.1,1.08C212.6,110.12,219.55,102.26,223.56,90.83z"/>
	<path class="st2" d="M214.5,119.75c-0.91,0.1-1.42,0.21-1.42,0.21c8.76,14.57,23.53,2.8,23.53,2.8c-0.21-0.07-0.42-0.16-0.61-0.24
		C226.39,118.86,217.79,119.36,214.5,119.75z"/>
	<path class="st2" d="M193.18,109.48c3.52,4.21,9.7,2.74,9.7,2.74c-0.15-0.1-0.3-0.21-0.46-0.3c-2.8-1.66-7.38-2.25-8.81-2.4
		C193.34,109.49,193.18,109.48,193.18,109.48z"/>
	<path class="st4" d="M223.56,90.83c-1.41,0.45-2.94,0.87-4.55,1.27c0,0-8.13,18.09-14.32,20.59l-0.01,0.01
		c1.66,0.43,3.05,0.81,4.1,1.08C212.6,110.12,219.55,102.26,223.56,90.83z"/>
	<path class="st9" d="M209.78,116.36c0,0,13.57-14.53,15.63-28.05C225.41,88.31,223.74,109.58,209.78,116.36z"/>
	<path class="st9" d="M236.88,121.21l3.7-1.34c0,0,2.7-1.31,4.72-7.41C245.29,112.46,241.53,118.21,236.88,121.21z"/>
	
		<ellipse transform="matrix(0.3932 -0.9194 0.9194 0.3932 35.0188 268.8458)" class="st9" cx="221.2" cy="107.89" rx="4.24" ry="2.21"/>
	
		<ellipse transform="matrix(0.9844 -0.1759 0.1759 0.9844 -15.0631 32.2363)" class="st9" cx="174.29" cy="101.08" rx="2.83" ry="1.14"/>
	
		<ellipse transform="matrix(0.3932 -0.9194 0.9194 0.3932 35.0188 268.8458)" class="st11" cx="221.2" cy="107.89" rx="3.27" ry="1.4"/>
	
		<ellipse transform="matrix(0.9844 -0.1759 0.1759 0.9844 -15.0757 32.2397)" class="st11" cx="174.3" cy="101.15" rx="1.77" ry="0.45"/>
	<path class="st5" d="M214.5,119.75c-0.91,0.1-1.42,0.21-1.42,0.21c8.76,14.57,23.53,2.8,23.53,2.8c-0.21-0.07-0.42-0.16-0.61-0.24
		c-2.43,3.49-11.73,2.79-11.73,2.79s10.18-0.63,9.36-2.11c-0.81-1.48-16.67-2.97-16.76-2.25c-0.07,0.72,2.38,3.35,2.38,3.35
		C217.61,124.3,214.95,120.62,214.5,119.75z"/>
	
		<ellipse transform="matrix(0.0627 -0.998 0.998 0.0627 88.4692 339.2296)" class="st2" cx="224.84" cy="122.51" rx="1.45" ry="4.35"/>
	<path class="st6" d="M230.28,125.87c0,0-7.69,2.87-13-1.43C217.29,124.44,221.01,127.45,230.28,125.87z"/>
	<path class="st5" d="M193.18,109.48c3.52,4.21,9.7,2.74,9.7,2.74c-0.15-0.1-0.3-0.21-0.46-0.3c0,0-1.74,0.36-3.8,0l2.91-0.28
		c0,0-5.53-1.51-7.01-1.65l1.45,1.03c-0.22-0.07-1.68-0.57-2.35-1.5C193.34,109.49,193.18,109.48,193.18,109.48z"/>
	<path class="st6" d="M199.58,112.22c0,0-3.28-0.71-3.93-1.16C195.65,111.06,197.53,112.18,199.58,112.22z"/>
	<path class="st2" d="M178.8,104.83c3.26,4.41,9.52,3.31,9.52,3.31c-0.14-0.11-0.29-0.23-0.45-0.33c-2.7-1.83-7.24-2.68-8.65-2.92
		C178.96,104.86,178.8,104.83,178.8,104.83z"/>
	<path class="st5" d="M178.8,104.83c3.26,4.41,9.52,3.31,9.52,3.31c-0.14-0.11-0.29-0.23-0.45-0.33c0,0-1.76,0.26-3.8-0.23
		l2.92-0.11c0,0-5.43-1.84-6.9-2.06l1.39,1.12c-0.22-0.09-1.64-0.67-2.26-1.63C178.96,104.86,178.8,104.83,178.8,104.83z"/>
	<path class="st6" d="M185.03,107.95c0,0-3.23-0.91-3.85-1.39C181.17,106.56,182.99,107.79,185.03,107.95z"/>
	<path class="st4" d="M225.42,84.24c-0.07,0.37-0.16,0.76-0.25,1.14c6.18-1.32,11.31-0.04,14.71,1.39
		c-0.85-1.57-1.45-2.53-1.45-2.53C232.68,79.27,225.42,84.24,225.42,84.24z"/>
</g>
<g>
	<path class="st7" d="M225.42,47.55c-0.07-0.37-0.16-0.76-0.25-1.14c-0.06-0.27-0.13-0.55-0.19-0.82c-0.42-1.6-0.88-3.14-1.41-4.63
		C219.55,29.53,212.6,21.67,208.78,18c-1.63-1.57-2.68-2.38-2.68-2.38c18.54-12.04,33.65-5.68,33.65-5.68
		c1.78,0.13,8.28,7.65,7.52,16.05c-0.54,5.92-4.69,14.14-7.11,18.52c-0.09,0.16-0.18,0.33-0.28,0.49c-0.85,1.57-1.45,2.53-1.45,2.53
		C232.68,52.52,225.42,47.55,225.42,47.55z"/>
	<path class="st7" d="M223.56,40.96c-1.41-0.45-2.94-0.87-4.55-1.27c-20.34-5.11-55.72-7.05-55.72-7.05
		c10.87-5.02,31.18-10.78,41.39-13.55c1.66-0.43,3.05-0.81,4.1-1.08C212.6,21.67,219.55,29.53,223.56,40.96z"/>
	<path class="st2" d="M214.5,12.04c-0.91-0.1-1.42-0.21-1.42-0.21c8.76-14.57,23.53-2.8,23.53-2.8c-0.21,0.07-0.42,0.16-0.61,0.24
		C226.39,12.92,217.79,12.43,214.5,12.04z"/>
	<path class="st2" d="M193.18,22.31c3.52-4.21,9.7-2.74,9.7-2.74c-0.15,0.1-0.3,0.21-0.46,0.3c-2.8,1.66-7.38,2.25-8.81,2.4
		C193.34,22.3,193.18,22.31,193.18,22.31z"/>
	<path class="st4" d="M223.56,40.96c-1.41-0.45-2.94-0.87-4.55-1.27c0,0-8.13-18.09-14.32-20.59l-0.01-0.01
		c1.66-0.43,3.05-0.81,4.1-1.08C212.6,21.67,219.55,29.53,223.56,40.96z"/>
	<path class="st9" d="M209.78,15.43c0,0,13.57,14.53,15.63,28.05C225.41,43.48,223.74,22.21,209.78,15.43z"/>
	<path class="st9" d="M236.88,10.58l3.7,1.34c0,0,2.7,1.31,4.72,7.41C245.29,19.33,241.53,13.58,236.88,10.58z"/>
	<ellipse transform="matrix(0.9194 -0.3932 0.3932 0.9194 8.4216 88.9031)" class="st9" cx="221.2" cy="23.9" rx="2.21" ry="4.24"/>
	
		<ellipse transform="matrix(0.1759 -0.9844 0.9844 0.1759 113.3957 196.8783)" class="st9" cx="174.29" cy="30.71" rx="1.14" ry="2.83"/>
	<ellipse transform="matrix(0.9194 -0.3932 0.3932 0.9194 8.4216 88.9031)" class="st11" cx="221.2" cy="23.9" rx="1.4" ry="3.27"/>
	
		<ellipse transform="matrix(0.1759 -0.9844 0.9844 0.1759 113.4777 196.8313)" class="st11" cx="174.3" cy="30.64" rx="0.45" ry="1.77"/>
	<path class="st5" d="M214.5,12.04c-0.91-0.1-1.42-0.21-1.42-0.21c8.76-14.57,23.53-2.8,23.53-2.8c-0.21,0.07-0.42,0.16-0.61,0.24
		c-2.43-3.49-11.73-2.79-11.73-2.79s10.18,0.63,9.36,2.11c-0.81,1.48-16.67,2.97-16.76,2.25c-0.07-0.72,2.38-3.35,2.38-3.35
		C217.61,7.49,214.95,11.17,214.5,12.04z"/>
	<ellipse transform="matrix(0.998 -0.0627 0.0627 0.998 -0.1391 14.1167)" class="st2" cx="224.84" cy="9.27" rx="4.35" ry="1.45"/>
	<path class="st6" d="M230.28,5.92c0,0-7.69-2.87-13,1.43C217.29,7.35,221.01,4.34,230.28,5.92z"/>
	<path class="st5" d="M193.18,22.31c3.52-4.21,9.7-2.74,9.7-2.74c-0.15,0.1-0.3,0.21-0.46,0.3c0,0-1.74-0.36-3.8,0l2.91,0.28
		c0,0-5.53,1.51-7.01,1.65l1.45-1.03c-0.22,0.07-1.68,0.57-2.35,1.5C193.34,22.3,193.18,22.31,193.18,22.31z"/>
	<path class="st6" d="M199.58,19.57c0,0-3.28,0.71-3.93,1.16C195.65,20.73,197.53,19.61,199.58,19.57z"/>
	<path class="st2" d="M178.8,26.96c3.26-4.41,9.52-3.31,9.52-3.31c-0.14,0.11-0.29,0.23-0.45,0.33c-2.7,1.83-7.24,2.68-8.65,2.92
		C178.96,26.93,178.8,26.96,178.8,26.96z"/>
	<path class="st5" d="M178.8,26.96c3.26-4.41,9.52-3.31,9.52-3.31c-0.14,0.11-0.29,0.23-0.45,0.33c0,0-1.76-0.26-3.8,0.23l2.92,0.11
		c0,0-5.43,1.84-6.9,2.06l1.39-1.12c-0.22,0.09-1.64,0.67-2.26,1.63C178.96,26.93,178.8,26.96,178.8,26.96z"/>
	<path class="st6" d="M185.03,23.84c0,0-3.23,0.91-3.85,1.39C181.17,25.23,182.99,24,185.03,23.84z"/>
	<path class="st4" d="M225.42,47.55c-0.07-0.37-0.16-0.76-0.25-1.14c6.18,1.32,11.31,0.04,14.71-1.39
		c-0.85,1.57-1.45,2.53-1.45,2.53C232.68,52.52,225.42,47.55,225.42,47.55z"/>
</g>
<path class="st10" d="M284.35,34.29c0,0-11.6,9.56-13.38,14.02c0,0-26.89,0.89-29.89,3.31C238.09,54.04,272.5,38.11,284.35,34.29z"
	/>
<path class="st11" d="M280.02,92.53c0,0,7.45,7.26,7.48,8.41c0.04,1.15-32.53-7.54-32.53-7.54l30.34,6.52L280.02,92.53z"/>
<path class="st11" d="M278.49,37.98l-18.93,8.09C259.57,46.07,275.88,37.54,278.49,37.98z"/>
<path class="st12" d="M297.67,95.52c-2.1-0.66-17.88-14.36-22.46-16.85c1.65,3.17,4.06,6.2,7.55,8.12c1.41,0.78,2.7,1.78,3.86,2.92
	c5.93,5.77,8.9,15.21,9.79,18.55c0.19,0.76,0.3,1.21,0.3,1.21s17.4-1.99,32.53-7.02c0.54,0.52,1.38,0.69,1.95,0.79
	c0.69,0.13,2.01,0.27,3.7-0.27c-0.4-0.67-0.79-1.39-1.2-2.13c0.01-0.01,0.04-0.01,0.06-0.03c0,0-0.25-0.45-0.69-1.29
	c-1.69-3.38-6.11-13.19-7.37-26.42c-0.07-0.76-0.15-1.54-0.19-2.34l-0.16,0.15c0,0-2.91,17.75-2.91,21.59
	C322.43,96.39,299.77,96.19,297.67,95.52z"/>
<path class="st13" d="M286.62,89.71c5.93,5.77,8.9,15.21,9.79,18.55c0.19,0.76,0.3,1.21,0.3,1.21s17.4-1.99,32.53-7.02
	c0.54,0.52,1.38,0.69,1.95,0.79c0.69,0.13,2.01,0.27,3.7-0.27c-0.4-0.67-0.79-1.39-1.2-2.13c0.01-0.01,0.04-0.01,0.06-0.03
	c0,0-0.25-0.45-0.69-1.29c-1.69-3.38-6.11-13.19-7.37-26.42c-0.24-0.15-0.36-0.22-0.36-0.22s2.07,17.66,3.7,22.93
	c1.62,5.26-30.14,9.84-30.14,9.84S290.38,91.06,286.62,89.71z"/>
<path class="st11" d="M327.07,91.18c0,0,0.72,3.96,1,4.58c0.29,0.62-2.25,2.87-3.49,3.01l2.92-2.82L327.07,91.18z"/>
<path class="st11" d="M327.4,41.14c0,0,3.3-8.65,3.85-8.77c0.55-0.12-22.49-6.24-25.55-6.33l23.42,6.79L327.4,41.14z"/>
<ellipse transform="matrix(0.2967 -0.955 0.955 0.2967 196.4703 331.5031)" class="st11" cx="323.29" cy="32.37" rx="1.35" ry="3.65"/>
<ellipse transform="matrix(0.2967 -0.955 0.955 0.2967 193.336 321.2012)" class="st11" cx="314.73" cy="29.35" rx="1.01" ry="2.89"/>
<ellipse class="st4" cx="254.97" cy="66.28" rx="1.88" ry="15.1"/>
<ellipse class="st4" cx="242.78" cy="66.28" rx="1.88" ry="11.99"/>
<path class="st14" d="M188.32,48.32c0,0-47.07,15.64-66.47,39.99"/>
<path class="st14" d="M129.34,88.49c0,0-27.91,20.77-37.11,41.53"/>
<path class="st14" d="M176.32,68.31c0,0-40.85,17.12-54.47,36.52"/>
<path class="st14" d="M188.32,58.19c0,0-20.51,1.83-35.15,14.7"/>
<path class="st14" d="M149.09,96.79c0,0-33.36,23.02-41.87,44.13"/>
<path class="st14" d="M455.81,177.34c0,0,14.98,32.68,10.55,58.21"/>
<path class="st14" d="M469.43,307.72c0,0-13.79,47.49-25.53,61.79"/>
<path class="st14" d="M183.1,79.71c0,0-42.01,24.52-47.12,36.65"/>
<path class="st14" d="M79.3,151.47c0,0-22.47,45.96-21.96,67.91"/>
<path class="st14" d="M99.72,133.09c0,0-16.34,30.13-16.34,35.74"/>
<path class="st14" d="M42.53,256c0,0,2.04,66.02,12.26,70.11"/>
<path class="st14" d="M61.94,311.3c0,0,19.23,55.15,59.91,89.36"/>
<path class="st14" d="M116.06,417.51c0,0,67.43,53.11,143.5,53.62"/>
<path class="st14" d="M76.74,213.77c0,0-11.91,52.09,15.49,126.64"/>
<path class="st14" d="M405.09,390.45c0,0-63.13,84.77-178.37,67.4"/>
<path class="st15" d="M74.17,183.13c0,0-22.45,67.91-5.85,115.91"/>
<path class="st15" d="M155.09,86.57c0,0-38.34,20.47-63.19,82.26"/>
<path class="st15" d="M145.68,72.89c0,0-37.28,18.15-62.3,68.02"/>
<path class="st15" d="M180.96,55.06c0,0-26.6,6.7-35.28,23.22"/>
<path class="st15" d="M54.79,302.11c-2.04,3.06,14.81,63.32,36.77,80.68"/>
<path class="st15" d="M57.33,173.94c0,0-8.67,37.86-14.8,67.15"/>
<path class="st15" d="M91.55,352.66c2.55,1.02,23.63,50.34,67.99,72.66"/>
<path class="st15" d="M193.18,452.23c0,0,65.47,6.13,100.9-4.09"/>
<path class="st15" d="M412.74,113.79c0,0,17.36,12.66,25.53,37.17"/>
<path class="st15" d="M446.45,194.36c0,0,13.79,56.17-2.55,104.68"/>
<path class="st15" d="M469.43,277.09c0,0-20.43,70.47-36.26,92.43"/>
<path class="st15" d="M395.38,409.34c0,0-33.92,34.28-69.05,44.72"/>
<path class="st16" d="M166.24,451.1c0,0-50.18-16.74-69.58-56.57"/>
<path class="st16" d="M120.4,104.83c0,0-16.79,14.74-23.2,32.99"/>
<path class="st16" d="M86.19,171.89c0,0-9.8,13.85-10.47,33.7"/>
<path class="st16" d="M86.19,119.75c0,0-13.28,16.91-20.94,49.08"/>
<path class="st16" d="M188.32,70.78c0,0-19.92,8.37-31.15,20.4"/>
<path class="st16" d="M131.89,121.33c0,0-31.15,32.7-40.34,74.57"/>
<path class="st16" d="M51.98,241.09c0,0-1.39,20.54,4.09,54.64"/>
<path class="st16" d="M68.18,253.6c0,0-0.36,57.48,20.05,96"/>
<path class="st16" d="M177.6,442.28c0,0-32.92-8.99-50.04-30.64"/>
<path class="st16" d="M433.17,376.91c0,0-20.43,40.09-67.66,65.36"/>
<path class="st16" d="M436.49,338.62c0.26-0.51,30.38-53.36,26.55-84"/>
<path class="st17" d="M200.49,464.49c0,0,30.26,6.64,41.93,6.64"/>
<path class="st17" d="M158.45,81.39c0,0-26.55,15.31-38.04,31.08"/>
<path class="st17" d="M85.17,144.29c0,0-12.26,15.35-13.53,41.14"/>
<path class="st17" d="M51.82,223.64c0,0-25.63,72.09,36.41,163.4"/>
<path class="st17" d="M88.23,179.04c0,0-12.34,26.89-4.85,82.72"/>
<path class="st17" d="M100.06,387.04c0,0,31.84,55.32,87.75,57.28"/>
<path class="st17" d="M405.09,400.66c0-2.04,17.7-7.15,33.7-58.21"/>
<path class="st17" d="M456.66,256c0.51-3.43-1.97-74.19-12.77-95.68"/>
<path class="st17" d="M471.13,242.7c0,0-1.38,46.26-5.79,68.6"/>
<path class="st18" d="M328.15,437.09c0,0-30.98,13.11-77.28,7.23"/>
<path class="st18" d="M416.32,369.51c0,0-17.36,38.81-50.81,48"/>
<path class="st18" d="M143.94,116.36c0,0-21.24,25.91-23.54,35.11"/>
<path class="st18" d="M95.3,110.97c0,0-14.51,27.84-17.09,38.12"/>
<path class="st18" d="M91.89,344.15c0,0,20.43,44.94,37.11,54.13"/>
<path class="st14" d="M107.21,171.89c0,0-14.98,22.47-14.98,48.51"/>
<path class="st14" d="M132.17,66.66c0,0-28.7,23-29.38,31.78"/>
<path class="st14" d="M61.94,150.96c0,0-12.51,24.77-13.28,51.32"/>
<path class="st15" d="M180.96,43.08c0,0-20.13,3.03-24.73,9.5"/>
<path class="st15" d="M93.94,323.3c0,0,8.97,36.17,14.87,39.57"/>
</svg>
