<?xml version="1.0" encoding="utf-8"?>
<!-- Generator: Adobe Illustrator 27.3.1, SVG Export Plug-In . SVG Version: 6.00 Build 0)  -->
<svg version="1.1" id="Camada_1" xmlns="http://www.w3.org/2000/svg" xmlns:xlink="http://www.w3.org/1999/xlink" x="0px" y="0px"
	 viewBox="0 0 1440 680" style="enable-background:new 0 0 1440 680;" xml:space="preserve">
<style type="text/css">
	.st_stars{fill:#eef5ff;}
</style>
<path class="st_stars" d="M543.3,309.9c-0.8,1.5-1.4,3.1-2.4,4.5c-3.6,4.8-7.3,9.5-11,14.2c-4.8,6.2-8.7,12.6-10,20.8
	c-2.1,12.5-10.6,18.2-21.4,16c-7.4-1.5-13.1-8.1-13.6-15.8c-0.5-7.6,3.9-14.7,10.9-17.3c2.2-0.8,4.5-1.7,6.8-1.5
	c8.3,0.5,14.6-3.6,20.7-8.4c5.1-4,10.3-7.9,15.5-11.7c1-0.7,2.2-1.2,3.3-1.7C542.5,309.1,542.9,309.5,543.3,309.9z"/>
<polygon class="st_stars" points="811.9,177.7 813.6,172.3 815.4,177.7 821,177.7 816.4,181.1 818.2,186.5 813.6,183.1 809,186.5 
	810.7,181.1 806.2,177.7 "/>
<polygon class="st_stars" points="806.6,277.4 804.2,272.2 809.2,275 813.4,271.3 812.2,276.8 817.2,279.6 811.5,280.2 810.4,285.8 
	808,280.7 802.4,281.2 "/>
<polygon class="st_stars" points="922.7,354.4 927.1,350.8 925.6,356.4 930.2,359.4 924.6,359.7 923.1,365.2 921.1,359.9 915.4,360.1 
	919.8,356.5 917.9,351.2 "/>
<polygon class="st_stars" points="822.8,401.6 821,396.2 825.7,399.5 830.2,396.3 828.4,401.6 833,405 827.3,405 825.5,410.4 823.8,405 
	818.1,404.9 "/>
<polygon class="st_stars" points="834.1,355.2 833.4,353.1 835.2,354.4 836.9,353.2 836.2,355.2 838,356.5 835.8,356.5 835.1,358.6 
	834.5,356.5 832.3,356.5 "/>
<polygon class="st_stars" points="881.4,344.5 880.7,342.4 882.5,343.7 884.2,342.4 883.5,344.5 885.3,345.8 883.1,345.8 882.4,347.9 
	881.8,345.8 879.6,345.7 "/>
<polygon class="st_stars" points="884.9,378.9 884.2,376.8 886,378.1 887.8,376.9 887.1,378.9 888.9,380.2 886.7,380.2 886,382.3 
	885.3,380.2 883.1,380.1 "/>
<polygon class="st_stars" points="966.3,152 962.9,147.4 968.3,149.1 971.6,144.6 971.6,150.3 977.1,152 971.7,153.8 971.7,159.5 
	968.3,154.9 962.9,156.6 "/>
<polygon class="st_stars" points="1000,234.3 994.4,233.2 999.6,230.8 999,225.3 1002.8,229.4 1008,227 1005.1,232 1009,236.2 
	1003.4,235.1 1000.6,240 "/>
<polygon class="st_stars" points="1088.5,187.3 1088.2,181.6 1091.8,186.1 1097,184.1 1093.9,188.8 1097.5,193.3 1092,191.8 
	1088.9,196.5 1088.6,190.9 1083.2,189.3 "/>
<polygon class="st_stars" points="1052.2,289.9 1046.7,288.1 1052.2,286.3 1052.2,280.8 1055.5,285.3 1060.9,283.5 1057.6,288.2 
	1060.9,292.8 1055.5,291.1 1052.1,295.6 "/>
<polygon class="st_stars" points="1037.3,259.6 1035.2,258.9 1037.3,258.2 1037.3,256.1 1038.6,257.9 1040.7,257.2 1039.4,259 
	1040.7,260.7 1038.6,260.1 1037.3,261.8 "/>
<polygon class="st_stars" points="1056.3,215 1054.2,214.3 1056.3,213.6 1056.3,211.5 1057.6,213.2 1059.7,212.5 1058.4,214.3 
	1059.7,216.1 1057.6,215.4 1056.3,217.2 "/>
<polygon class="st_stars" points="1086.3,232.2 1084.2,231.6 1086.3,230.9 1086.3,228.8 1087.6,230.5 1089.6,229.8 1088.3,231.6 
	1089.6,233.4 1087.6,232.7 1086.3,234.4 "/>
<polygon class="st_stars" points="501.4,161.9 501.2,156.2 504.7,160.8 509.9,158.9 506.7,163.6 510.2,168.1 504.7,166.4 501.5,171.1 
	501.3,165.4 495.9,163.8 "/>
<polygon class="st_stars" points="461.2,183.9 457.2,179.8 462.9,180.8 465.5,175.9 466.3,181.5 471.9,182.5 466.7,185 467.5,190.6 
	463.5,186.5 458.4,188.9 "/>
<polygon class="st_stars" points="560.6,196.2 563.7,191.4 564.1,197.1 569.4,198.5 564.2,200.6 564.6,206.3 561,201.9 555.7,204 
	558.7,199.2 555.1,194.8 "/>
<polygon class="st_stars" points="453.5,311.7 450.1,307.1 455.6,308.8 458.8,304.2 458.9,309.9 464.3,311.5 459,313.4 459,319 
	455.6,314.5 450.2,316.3 "/>
<polygon class="st_stars" points="477.2,226.1 475.9,224.3 478,224.9 479.2,223.2 479.3,225.4 481.4,226 479.3,226.7 479.3,228.9 
	478,227.2 476,227.9 "/>
<polygon class="st_stars" points="518.4,200.4 517.1,198.6 519.2,199.3 520.4,197.5 520.4,199.7 522.5,200.3 520.5,201 520.5,203.2 
	519.2,201.5 517.1,202.2 "/>
<polygon class="st_stars" points="533,231.7 531.7,230 533.8,230.6 535,228.9 535.1,231 537.2,231.7 535.1,232.4 535.1,234.6 
	533.8,232.8 531.8,233.5 "/>
<polygon class="st_stars" points="888.1,277.9 886,277.3 888.1,276.6 888.1,274.5 889.4,276.2 891.5,275.5 890.2,277.3 891.4,279.1 
	889.3,278.4 888,280.1 "/>
<polygon class="st_stars" points="917.9,295.4 915.8,294.8 917.9,294.1 918,291.9 919.2,293.7 921.3,293 920,294.8 921.3,296.6 
	919.2,295.9 917.9,297.6 "/>
<polygon class="st_stars" points="982.7,262.5 984,260.8 983.9,263 985.9,263.7 983.9,264.3 983.8,266.5 982.6,264.7 980.5,265.2 
	981.8,263.5 980.6,261.7 "/>
<polygon class="st_stars" points="956,284.5 957.3,282.7 957.2,284.9 959.2,285.7 957.1,286.3 957,288.5 955.8,286.6 953.7,287.2 
	955.1,285.5 953.9,283.7 "/>
<polygon class="st_stars" points="921.5,234.5 920.2,232.8 922.3,233.4 923.5,231.7 923.5,233.9 925.6,234.5 923.6,235.2 923.6,237.4 
	922.3,235.6 920.2,236.3 "/>
<polygon class="st_stars" points="936.1,265.9 934.8,264.1 936.9,264.8 938.2,263 938.2,265.2 940.3,265.8 938.2,266.5 938.2,268.7 
	936.9,267 934.9,267.7 "/>
<polygon class="st_stars" points="1016.4,294.9 1018.2,293.6 1017.5,295.7 1019.2,297 1017,297 1016.3,299 1015.7,297 1013.5,296.9 
	1015.3,295.6 1014.7,293.6 "/>
<polygon class="st_stars" points="984.7,308.6 986.4,307.3 985.7,309.4 987.4,310.7 985.3,310.7 984.6,312.7 983.9,310.6 981.8,310.6 
	983.5,309.3 982.9,307.3 "/>
<polygon class="st_stars" points="971,345.7 971.6,347.8 969.8,346.5 968,347.6 968.8,345.6 967.1,344.2 969.3,344.4 970.1,342.3 
	970.7,344.4 972.8,344.5 "/>
<polygon class="st_stars" points="997.7,340.8 999.9,340.7 998.1,342 998.8,344.1 997,342.8 995.3,344.1 995.9,342 994.1,340.8 
	996.3,340.7 997,338.7 "/>
<polygon class="st_stars" points="112.5,409.7 107,411.1 110.7,406.7 107.8,402 113,404.1 116.7,399.8 116.2,405.5 121.5,407.6 116,409 
	115.5,414.6 "/>
<polygon class="st_stars" points="353.9,438.4 350.7,443.1 350.5,437.4 345.2,435.8 350.5,433.9 350.3,428.2 353.8,432.7 359.1,430.8 
	356,435.5 359.4,440 "/>
<polygon class="st_stars" points="386.7,285.8 381.3,283.8 386.8,282.2 387,276.7 390.2,281.3 395.6,279.8 392.1,284.2 395.3,289 
	389.9,287.1 386.4,291.5 "/>
<polygon class="st_stars" points="425.3,411.8 421.6,416.1 422.1,410.4 417,408.2 422.4,407 422.9,401.3 425.8,406.1 431.4,404.9 
	427.7,409.2 430.6,414.1 "/>
<polygon class="st_stars" points="391.7,413.7 390.3,415.4 390.4,413.2 388.5,412.4 390.6,411.9 390.8,409.7 391.9,411.6 394,411.1 
	392.6,412.7 393.7,414.6 "/>
<polygon class="st_stars" points="357.9,378.9 356.5,380.6 356.6,378.4 354.7,377.6 356.8,377.1 357,374.9 358.1,376.8 360.2,376.3 
	358.8,377.9 359.9,379.8 "/>
<polygon class="st_stars" points="385.4,358 384,359.7 384.2,357.5 382.2,356.6 384.3,356.1 384.5,354 385.6,355.8 387.8,355.4 
	386.3,357 387.4,358.9 "/>
<polygon class="st_stars" points="421.9,69.1 419.8,74.4 418.4,68.9 412.9,68.4 417.6,65.5 416.3,59.9 420.6,63.6 425.5,60.7 423.4,65.9 
	427.6,69.6 "/>
<polygon class="st_stars" points="241.6,429.8 243.5,435.1 238.8,431.9 234.4,435.3 235.9,429.9 231.2,426.7 236.9,426.5 238.5,421.1 
	240.5,426.4 246.1,426.3 "/>
<polygon class="st_stars" points="115.9,283.9 111.2,287.1 113.1,281.7 108.7,278.3 114.3,278.5 116.3,273.1 117.8,278.6 123.5,278.8 
	118.9,282 120.4,287.4 "/>
<polygon class="st_stars" points="347.7,216 349,221.6 344.6,217.9 339.9,220.8 342.1,215.6 337.7,211.9 343.4,212.3 345.6,207.1 
	347,212.6 352.6,213.1 "/>
<polygon class="st_stars" points="204.2,290 204.8,292.1 203.1,290.7 201.3,291.8 202.1,289.8 200.4,288.4 202.6,288.6 203.5,286.5 
	204,288.7 206.1,288.9 "/>
<polygon class="st_stars" points="156.2,297 156.8,299.1 155.1,297.7 153.3,298.8 154.1,296.8 152.4,295.4 154.6,295.6 155.5,293.6 
	156,295.7 158.1,295.9 "/>
<polygon class="st_stars" points="155.4,262.4 155.9,264.5 154.2,263.1 152.4,264.2 153.2,262.2 151.6,260.8 153.8,261 154.6,259 
	155.1,261.1 157.3,261.3 "/>
<polygon class="st_stars" points="297.6,407.9 298.1,410 296.4,408.6 294.6,409.6 295.5,407.7 293.8,406.2 296,406.4 296.8,404.4 
	297.3,406.5 299.5,406.8 "/>
<polygon class="st_stars" points="297,373.3 297.5,375.4 295.8,374 294,375.1 294.8,373.1 293.2,371.6 295.4,371.8 296.2,369.8 
	296.7,371.9 298.9,372.2 "/>
<polygon class="st_stars" points="235.2,335.1 233,334.9 234.9,333.8 234.5,331.7 236.1,333.2 238,332.1 237.1,334.1 238.7,335.6 
	236.5,335.4 235.6,337.3 "/>
<polygon class="st_stars" points="267.8,346.5 265.7,346.3 267.6,345.2 267.2,343.1 268.8,344.6 270.7,343.5 269.7,345.5 271.3,347 
	269.2,346.7 268.2,348.7 "/>
<polygon class="st_stars" points="243.1,401.9 242.3,404 241.8,401.8 239.7,401.7 241.5,400.5 240.9,398.4 242.6,399.8 244.5,398.6 
	243.7,400.7 245.3,402.1 "/>
<polygon class="st_stars" points="262.3,373.1 261.5,375.1 260.9,373 258.8,372.9 260.6,371.7 260.1,369.6 261.8,371 263.6,369.8 
	262.8,371.9 264.5,373.3 "/>
<polygon class="st_stars" points="245.3,289.5 243.2,288.6 245.4,288.1 245.6,286 246.7,287.9 248.8,287.4 247.4,289 248.5,290.9 
	246.5,290 245,291.6 "/>
<polygon class="st_stars" points="273.5,309.5 271.5,308.6 273.6,308.1 273.8,306 274.9,307.8 277.1,307.4 275.6,309 276.7,310.9 
	274.7,310 273.3,311.6 "/>
<polygon class="st_stars" points="312.3,301.8 313.8,300.2 313.5,302.4 315.5,303.3 313.3,303.7 313.1,305.9 312,303.9 309.9,304.3 
	311.4,302.7 310.4,300.8 "/>
<polygon class="st_stars" points="294.2,281.6 293,279.7 295.1,280.5 296.4,278.9 296.3,281.1 298.3,281.9 296.2,282.4 296,284.6 
	294.9,282.8 292.8,283.2 "/>
<polygon class="st_stars" points="1353.1,214.5 1352.7,220.2 1349.7,215.3 1344.3,216.7 1347.9,212.4 1344.8,207.5 1350.1,209.7 
	1353.8,205.3 1353.5,211 1358.7,213.2 "/>
<polygon class="st_stars" points="1405.1,275.8 1408.6,280.3 1403.1,278.7 1400,283.4 1399.8,277.7 1394.3,276.2 1399.6,274.2 
	1399.4,268.5 1403,273 1408.3,271.1 "/>
<polygon class="st_stars" points="1297.2,174.9 1293.8,179.4 1293.9,173.7 1288.7,171.8 1294.1,170.2 1294.2,164.5 1297.4,169.2 
	1302.9,167.6 1299.5,172.1 1302.6,176.8 "/>
<polygon class="st_stars" points="1404.9,118.7 1408,123.5 1402.7,121.4 1399.1,125.6 1399.5,120 1394.2,117.8 1399.7,116.5 
	1400.2,110.8 1403.2,115.6 1408.7,114.4 "/>
<polygon class="st_stars" points="1396.7,151.4 1397.8,153.2 1395.8,152.4 1394.4,154 1394.6,151.9 1392.6,151 1394.7,150.5 
	1394.9,148.3 1396,150.2 1398.1,149.7 "/>
<polygon class="st_stars" points="1339.7,174.6 1340.8,176.5 1338.8,175.6 1337.4,177.3 1337.6,175.1 1335.5,174.3 1337.7,173.8 
	1337.8,171.6 1339,173.4 1341.1,172.9 "/>
<polygon class="st_stars" points="1341.7,140.6 1342.8,142.4 1340.8,141.6 1339.4,143.2 1339.6,141.1 1337.5,140.2 1339.7,139.7 
	1339.8,137.6 1341,139.4 1343.1,138.9 "/>
<polygon class="st_stars" points="1082.6,391.3 1087,395 1081.2,394.6 1079.2,399.8 1077.8,394.3 1072.1,393.9 1076.9,390.9 
	1075.6,385.4 1079.9,389 1084.8,386 "/>
<polygon class="st_stars" points="1270.9,328.8 1276.6,328.5 1272.1,332.1 1274.1,337.3 1269.4,334.2 1264.9,337.7 1266.5,332.3 
	1261.7,329.1 1267.4,328.8 1269,323.4 "/>
<polygon class="st_stars" points="1176.3,376.8 1177.9,382.3 1173.3,378.8 1168.8,382 1170.6,376.7 1166.1,373.2 1171.8,373.4 
	1173.7,368 1175.4,373.4 1181,373.6 "/>
<polygon class="st_stars" points="1187,268.6 1192.7,269 1187.8,272 1189.1,277.4 1184.8,273.8 1180,276.8 1182.2,271.5 1177.8,267.8 
	1183.5,268.2 1185.7,263 "/>
<polygon class="st_stars" points="1208.6,294.4 1210.8,294.5 1209,295.7 1209.5,297.8 1207.8,296.4 1206,297.6 1206.8,295.5 
	1205.1,294.1 1207.3,294.2 1208.1,292.3 "/>
<polygon class="st_stars" points="1200.9,342.3 1203.1,342.4 1201.2,343.6 1201.7,345.7 1200.1,344.3 1198.2,345.4 1199.1,343.4 
	1197.4,342 1199.6,342.1 1200.4,340.1 "/>
<polygon class="st_stars" points="1167.7,332.7 1169.9,332.9 1168,334 1168.5,336.1 1166.8,334.7 1165,335.9 1165.8,333.8 1164.2,332.4 
	1166.3,332.6 1167.2,330.6 "/>
<polygon class="st_stars" points="1349.1,240.8 1351.3,241 1349.4,242.1 1349.9,244.2 1348.3,242.8 1346.4,243.9 1347.3,241.9 
	1345.6,240.5 1347.8,240.6 1348.6,238.7 "/>
<polygon class="st_stars" points="1315.9,231 1318.1,231.1 1316.3,232.3 1316.8,234.4 1315.1,233 1313.2,234.1 1314.1,232.1 
	1312.4,230.7 1314.6,230.8 1315.5,228.8 "/>
<polygon class="st_stars" points="1261,278.5 1260.1,280.5 1259.7,278.3 1257.5,278.1 1259.4,277 1259,274.9 1260.6,276.4 1262.5,275.3 
	1261.6,277.3 1263.2,278.8 "/>
<polygon class="st_stars" points="1281.7,250.8 1280.8,252.8 1280.3,250.6 1278.2,250.3 1280.1,249.3 1279.7,247.1 1281.3,248.6 
	1283.2,247.6 1282.3,249.6 1283.8,251 "/>
<polygon class="st_stars" points="1327.1,291 1328.8,292.3 1326.6,292.2 1325.8,294.2 1325.3,292.1 1323.1,292 1324.9,290.8 
	1324.4,288.7 1326.1,290.1 1327.9,288.9 "/>
<polygon class="st_stars" points="1305.4,264 1307.1,265.4 1304.9,265.3 1304.1,267.3 1303.5,265.2 1301.3,265.1 1303.2,263.9 
	1302.6,261.8 1304.3,263.1 1306.2,262 "/>
<polygon class="st_stars" points="1220.5,255.1 1219.1,256.8 1219.2,254.6 1217.3,253.8 1219.4,253.3 1219.5,251.1 1220.7,253 
	1222.8,252.5 1221.4,254.1 1222.5,256 "/>
<polygon class="st_stars" points="1248,234.2 1246.6,235.9 1246.8,233.7 1244.8,232.8 1246.9,232.4 1247.1,230.2 1248.2,232 
	1250.4,231.6 1248.9,233.2 1250,235.1 "/>
<polygon class="st_stars" points="1252.4,194.9 1251.3,193 1253.3,193.9 1254.8,192.3 1254.5,194.5 1256.5,195.4 1254.3,195.8 
	1254.1,198 1253,196.1 1250.9,196.5 "/>
<polygon class="st_stars" points="1227.7,206.1 1225.6,206.7 1226.9,204.9 1225.8,203.1 1227.8,203.9 1229.2,202.2 1229.1,204.4 
	1231.1,205.2 1229,205.8 1228.8,208 "/>
<polygon class="st_stars" points="937.8,123.2 936.4,124.9 936.6,122.7 934.6,121.8 936.7,121.3 936.9,119.2 938,121 940.2,120.5 
	938.8,122.2 939.8,124.1 "/>
<polygon class="st_stars" points="1171.5,222.6 1170.1,224.3 1170.3,222.1 1168.3,221.2 1170.4,220.7 1170.6,218.6 1171.7,220.4 
	1173.9,219.9 1172.5,221.6 1173.6,223.5 "/>
<polygon class="st_stars" points="1175.9,183.3 1174.8,181.4 1176.8,182.3 1178.3,180.7 1178,182.9 1180,183.8 1177.8,184.2 
	1177.6,186.4 1176.5,184.5 1174.4,184.9 "/>
<polygon class="st_stars" points="1151.2,194.5 1149.1,195.1 1150.4,193.3 1149.3,191.5 1151.3,192.3 1152.7,190.6 1152.6,192.8 
	1154.6,193.6 1152.5,194.2 1152.3,196.4 "/>
<polygon class="st_stars" points="873,194.4 871.5,196.1 871.7,193.9 869.7,193.1 871.8,192.6 872,190.4 873.2,192.3 875.3,191.8 
	873.9,193.5 875,195.3 "/>
<polygon class="st_stars" points="900.5,173.5 899.1,175.2 899.2,173 897.3,172.2 899.4,171.7 899.6,169.5 900.7,171.4 902.8,170.9 
	901.4,172.5 902.5,174.4 "/>
<polygon class="st_stars" points="904.9,134.2 903.8,132.3 905.8,133.2 907.2,131.7 907,133.8 909,134.7 906.8,135.1 906.5,137.3 
	905.5,135.4 903.3,135.8 "/>
<polygon class="st_stars" points="880.1,145.4 878,146 879.4,144.3 878.3,142.5 880.3,143.3 881.7,141.6 881.5,143.8 883.6,144.6 
	881.5,145.1 881.3,147.3 "/>
<polygon class="st_stars" points="1131.7,153.4 1132.6,155.4 1130.7,154.4 1129.1,155.8 1129.5,153.7 1127.7,152.6 1129.8,152.3 
	1130.3,150.2 1131.2,152.2 1133.3,152 "/>
<polygon class="st_stars" points="1124.5,119.6 1125.4,121.6 1123.5,120.5 1121.9,121.9 1122.3,119.8 1120.4,118.7 1122.6,118.5 
	1123.1,116.4 1124,118.4 1126.1,118.2 "/>
<polygon class="st_stars" points="1090.7,98.9 1088.6,99.1 1090.2,97.7 1089.4,95.7 1091.3,96.8 1092.9,95.4 1092.4,97.6 1094.3,98.7 
	1092.1,98.9 1091.5,101 "/>
<polygon class="st_stars" points="1090.4,126.1 1090,128.2 1089,126.3 1086.9,126.5 1088.5,125.1 1087.5,123.1 1089.5,124.1 
	1091.1,122.6 1090.7,124.8 1092.6,125.8 "/>
<polygon class="st_stars" points="1144.1,68.6 1139.6,65.1 1145.3,65.3 1147.2,60 1148.8,65.5 1154.4,65.7 1149.7,68.8 1151.3,74.3 
	1146.8,70.8 1142.1,73.9 "/>
<polygon class="st_stars" points="1166.5,150.3 1160.8,150.7 1165.2,147 1163.1,141.8 1167.9,144.8 1172.2,141.1 1170.9,146.6 
	1175.7,149.7 1170.1,150.1 1168.6,155.6 "/>
<polygon class="st_stars" points="1281.5,58.4 1279.7,53 1284.3,56.3 1288.8,53 1287.1,58.4 1291.8,61.7 1286.1,61.8 1284.3,67.2 
	1282.5,61.8 1276.8,61.8 "/>
<polygon class="st_stars" points="1316.1,120.8 1310.4,120.6 1315.2,117.4 1313.7,112 1318.1,115.5 1322.9,112.3 1320.9,117.7 
	1325.3,121.2 1319.7,121 1317.6,126.3 "/>
<polygon class="st_stars" points="1230.4,141.8 1228.2,141.7 1230,140.5 1229.4,138.5 1231.2,139.8 1233,138.6 1232.2,140.6 1233.9,142 
	1231.7,141.9 1230.9,143.9 "/>
<polygon class="st_stars" points="1236.6,93.7 1234.4,93.6 1236.3,92.4 1235.7,90.4 1237.4,91.7 1239.2,90.5 1238.4,92.5 1240.2,93.9 
	1238,93.8 1237.2,95.8 "/>
<polygon class="st_stars" points="1270.2,102.3 1268,102.2 1269.8,101 1269.2,98.9 1270.9,100.2 1272.7,99 1272,101.1 1273.7,102.4 
	1271.5,102.4 1270.7,104.4 "/>
<polygon class="st_stars" points="1145.4,247.8 1144,249.5 1144.2,247.3 1142.2,246.4 1144.3,245.9 1144.5,243.8 1145.6,245.6 
	1147.7,245.1 1146.3,246.8 1147.4,248.7 "/>
<polygon class="st_stars" points="1094.2,317.6 1092.8,319.2 1092.9,317.1 1091,316.2 1093.1,315.7 1093.3,313.5 1094.4,315.4 
	1096.5,314.9 1095.1,316.6 1096.2,318.5 "/>
<polygon class="st_stars" points="1121.8,296.7 1120.3,298.3 1120.5,296.1 1118.5,295.3 1120.6,294.8 1120.8,292.6 1121.9,294.5 
	1124.1,294 1122.7,295.7 1123.8,297.5 "/>
<polygon class="st_stars" points="1126.1,257.3 1125,255.4 1127,256.4 1128.5,254.8 1128.2,256.9 1130.2,257.9 1128.1,258.3 
	1127.8,260.4 1126.7,258.5 1124.6,258.9 "/>
<polygon class="st_stars" points="1101.4,268.6 1099.3,269.1 1100.7,267.4 1099.5,265.6 1101.5,266.4 1102.9,264.7 1102.8,266.9 
	1104.8,267.7 1102.7,268.3 1102.6,270.4 "/>
<polygon class="st_stars" points="1019.6,124.8 1021.6,125.8 1019.4,126.1 1019.1,128.2 1018.1,126.3 1015.9,126.7 1017.5,125.1 
	1016.5,123.2 1018.4,124.1 1020,122.6 "/>
<polygon class="st_stars" points="1104.6,170.2 1106.6,171.1 1104.4,171.5 1104.1,173.6 1103.1,171.7 1100.9,172.1 1102.5,170.5 
	1101.5,168.6 1103.4,169.5 1105,168 "/>
<polygon class="st_stars" points="1077.6,148.6 1079.5,149.6 1077.4,149.9 1077,152.1 1076.1,150.1 1073.9,150.5 1075.4,148.9 
	1074.4,147 1076.4,148 1077.9,146.4 "/>
<polygon class="st_stars" points="1038.4,154 1036.8,155.6 1037.2,153.4 1035.3,152.4 1037.5,152.1 1037.9,149.9 1038.8,151.9 
	1041,151.6 1039.4,153.1 1040.3,155.1 "/>
<polygon class="st_stars" points="1055.3,175.2 1056.4,177.2 1054.4,176.2 1052.9,177.8 1053.2,175.6 1051.2,174.7 1053.4,174.3 
	1053.7,172.1 1054.7,174 1056.8,173.7 "/>
<polygon class="st_stars" points="1350.9,592.8 1345.4,591.4 1350.8,589.3 1350.5,583.8 1354,588.1 1359.3,586 1356.2,590.8 
	1359.8,595.3 1354.3,593.8 1351.2,598.5 "/>
<polygon class="st_stars" points="1400.4,545.4 1396.6,541.2 1402.2,542.4 1405,537.6 1405.6,543.2 1411.2,544.4 1405.9,546.7 
	1406.5,552.3 1402.7,548.1 1397.5,550.3 "/>
<polygon class="st_stars" points="1392.7,587.2 1390.6,587.9 1391.8,586.1 1390.5,584.4 1392.6,585 1393.7,583.2 1393.8,585.3 
	1396,585.9 1393.9,586.7 1394,588.9 "/>
<polygon class="st_stars" points="1241.8,476.5 1241,482.1 1238.3,477 1232.9,478 1236.8,473.9 1234.1,468.9 1239.2,471.4 1243.2,467.4 
	1242.5,473 1247.5,475.6 "/>
<polygon class="st_stars" points="1014.6,55 1008.9,55.6 1013.2,51.8 1011,46.7 1015.8,49.5 1020.1,45.7 1018.9,51.3 1023.8,54.2 
	1018.1,54.8 1016.9,60.3 "/>
<polygon class="st_stars" points="1329.1,419.5 1327.7,425 1325.6,419.7 1320.1,420 1324.4,416.4 1322.4,411.1 1327.2,414.2 
	1331.6,410.6 1330.2,416.1 1334.9,419.2 "/>
<polygon class="st_stars" points="1299.7,435.9 1299.2,438 1298.3,436 1296.2,436.1 1297.9,434.7 1297.1,432.7 1298.9,433.9 
	1300.7,432.5 1300.1,434.6 1301.9,435.8 "/>
<polygon class="st_stars" points="1254.1,419.3 1253.6,421.4 1252.8,419.3 1250.7,419.5 1252.3,418.1 1251.5,416 1253.4,417.2 
	1255.1,415.9 1254.5,418 1256.3,419.2 "/>
<polygon class="st_stars" points="1269.8,388.4 1269.3,390.5 1268.5,388.5 1266.3,388.6 1268,387.2 1267.2,385.2 1269.1,386.4 
	1270.8,385 1270.2,387.1 1272,388.3 "/>
<polygon class="st_stars" points="1325.8,584 1325.3,586.1 1324.5,584 1322.4,584.1 1324.1,582.8 1323.3,580.7 1325.1,581.9 
	1326.8,580.6 1326.3,582.7 1328.1,583.9 "/>
<polygon class="st_stars" points="1341.8,553.2 1341.2,555.3 1340.4,553.3 1338.3,553.4 1340,552 1339.2,550 1341,551.2 1342.7,549.8 
	1342.2,551.9 1343.9,553.2 "/>
<polygon class="st_stars" points="1305.5,490.3 1303.7,489 1305.9,489 1306.5,487 1307.2,489 1309.4,489 1307.6,490.3 1308.3,492.4 
	1306.5,491.1 1304.8,492.4 "/>
<polygon class="st_stars" points="1328.8,515.8 1327,514.6 1329.2,514.5 1329.9,512.5 1330.5,514.6 1332.7,514.5 1331,515.8 
	1331.7,517.9 1329.9,516.7 1328.1,517.9 "/>
<polygon class="st_stars" points="1280.8,552.9 1279.1,554.3 1279.6,552.1 1277.8,551 1280,550.9 1280.5,548.7 1281.3,550.8 
	1283.5,550.6 1281.8,552 1282.6,554 "/>
<polygon class="st_stars" points="1311.3,536.6 1309.6,538 1310.1,535.9 1308.3,534.7 1310.5,534.6 1311,532.5 1311.8,534.5 1314,534.3 
	1312.4,535.8 1313.1,537.8 "/>
<polygon class="st_stars" points="1336.1,454.9 1334.7,453.2 1336.8,453.8 1338,452 1338.1,454.2 1340.2,454.8 1338.1,455.5 
	1338.2,457.7 1336.8,456 1334.8,456.7 "/>
<polygon class="st_stars" points="1351.4,485.9 1350,484.2 1352.2,484.8 1353.3,483 1353.4,485.2 1355.5,485.8 1353.5,486.5 
	1353.6,488.7 1352.2,487 1350.2,487.7 "/>
<polygon class="st_stars" points="1389.2,497.6 1391.3,496.9 1390,498.7 1391.2,500.4 1389.2,499.8 1387.9,501.5 1387.9,499.4 
	1385.8,498.7 1387.9,498 1387.9,495.8 "/>
<polygon class="st_stars" points="1382.8,471.2 1382.7,469 1384.1,470.7 1386.1,469.9 1384.9,471.8 1386.3,473.5 1384.2,472.9 
	1383,474.8 1382.9,472.6 1380.8,472 "/>
<polygon class="st_stars" points="1377.2,413 1375.8,411.3 1378,411.9 1379.2,410.1 1379.2,412.2 1381.4,412.8 1379.3,413.6 
	1379.4,415.8 1378,414.1 1376,414.8 "/>
<polygon class="st_stars" points="1415,424.7 1417.1,424 1415.8,425.8 1417.1,427.5 1415,426.9 1413.7,428.6 1413.7,426.4 1411.7,425.8 
	1413.7,425.1 1413.8,422.9 "/>
<polygon class="st_stars" points="1408.7,398.3 1408.5,396.1 1409.9,397.8 1411.9,397 1410.8,398.8 1412.2,400.5 1410,400 1408.9,401.8 
	1408.7,399.6 1406.6,399.1 "/>
<polygon class="st_stars" points="1357.4,382.6 1356,380.9 1358.2,381.4 1359.3,379.7 1359.4,381.8 1361.5,382.4 1359.5,383.2 
	1359.6,385.4 1358.2,383.7 1356.2,384.4 "/>
<polygon class="st_stars" points="271.8,182.9 267.5,186.7 268.7,181.1 264,178.2 269.5,177.7 270.8,172.1 273,177.4 278.7,176.8 
	274.5,180.6 276.7,185.8 "/>
<polygon class="st_stars" points="259.8,115.4 254.1,116.2 258.2,112.2 255.8,107.2 260.8,109.9 264.9,105.9 263.9,111.5 268.9,114.2 
	263.3,115 262.2,120.6 "/>
<polygon class="st_stars" points="290.2,145 289.7,147.2 288.8,145.1 286.7,145.3 288.3,143.9 287.5,141.9 289.4,143 291,141.6 
	290.5,143.7 292.4,144.9 "/>
<polygon class="st_stars" points="132,179.2 136.2,183 130.5,182.4 128.2,187.5 127.1,182 121.4,181.4 126.3,178.6 125.2,173 
	129.4,176.8 134.4,174 "/>
<polygon class="st_stars" points="31.9,174.4 29.2,179.4 28.4,173.7 22.9,172.8 28,170.3 27.1,164.6 31.1,168.8 36.2,166.3 33.6,171.3 
	37.5,175.4 "/>
<polygon class="st_stars" points="115.5,104.8 119.3,109.1 113.7,107.8 110.8,112.6 110.3,107 104.7,105.7 110,103.5 109.5,97.8 
	113.2,102.1 118.5,99.9 "/>
<polygon class="st_stars" points="112.8,138.4 114.2,140 112.1,139.5 111,141.4 110.8,139.2 108.7,138.7 110.7,137.9 110.5,135.7 
	111.9,137.3 113.9,136.5 "/>
<polygon class="st_stars" points="73.7,167.1 75.1,168.7 73,168.2 71.9,170.1 71.7,167.9 69.5,167.4 71.6,166.6 71.4,164.4 72.8,166 
	74.8,165.2 "/>
<polygon class="st_stars" points="56.7,136.9 58.2,138.5 56,138.1 54.9,139.9 54.7,137.7 52.6,137.3 54.6,136.4 54.4,134.2 55.9,135.9 
	57.9,135 "/>
<polygon class="st_stars" points="250.5,198.8 251.9,200.5 249.8,200 248.6,201.8 248.5,199.6 246.3,199.1 248.4,198.3 248.2,196.1 
	249.6,197.8 251.6,196.9 "/>
<polygon class="st_stars" points="233.7,168.5 235.2,170.2 233,169.7 231.9,171.5 231.7,169.4 229.6,168.9 231.6,168 231.4,165.8 
	232.9,167.5 234.9,166.7 "/>
<polygon class="st_stars" points="161.2,163.8 159.2,164.6 160.4,162.7 159.1,161.1 161.1,161.6 162.4,159.8 162.4,162 164.6,162.6 
	162.5,163.4 162.6,165.5 "/>
<polygon class="st_stars" points="195.4,158.6 193.4,159.3 194.6,157.5 193.3,155.8 195.4,156.4 196.6,154.6 196.6,156.8 198.8,157.3 
	196.7,158.1 196.8,160.3 "/>
<polygon class="st_stars" points="199.6,219.1 199.8,221.2 198.3,219.6 196.4,220.5 197.4,218.6 196,217 198.1,217.4 199.2,215.6 
	199.5,217.7 201.6,218.2 "/>
<polygon class="st_stars" points="203,184.6 203.2,186.8 201.7,185.2 199.8,186.1 200.9,184.2 199.4,182.6 201.5,183 202.6,181.1 
	202.9,183.3 205,183.8 "/>
<polygon class="st_stars" points="148.8,118.7 146.6,118.9 148.3,117.4 147.4,115.5 149.3,116.6 150.9,115.2 150.4,117.3 152.3,118.4 
	150.1,118.6 149.6,120.7 "/>
<polygon class="st_stars" points="183.1,123.2 180.9,123.3 182.6,121.9 181.8,119.9 183.6,121.1 185.3,119.6 184.8,121.8 186.6,122.9 
	184.4,123.1 183.9,125.2 "/>
<polygon class="st_stars" points="213.8,98.2 214.4,96.1 215.1,98.1 217.3,98.1 215.6,99.4 216.4,101.4 214.5,100.2 212.8,101.6 
	213.4,99.5 211.6,98.3 "/>
<polygon class="st_stars" points="188.3,88.8 186.4,87.8 188.6,87.5 189.1,85.4 189.9,87.4 192.1,87.2 190.5,88.6 191.4,90.6 189.5,89.6 
	187.8,91 "/>
<polygon class="st_stars" points="136.8,61.2 134.6,61.4 136.2,59.9 135.4,58 137.3,59.1 138.9,57.7 138.4,59.8 140.3,60.9 138.1,61.1 
	137.6,63.2 "/>
<polygon class="st_stars" points="167.5,36.2 168.1,34.1 168.8,36.2 171,36.1 169.3,37.4 170,39.5 168.2,38.3 166.5,39.6 167.1,37.5 
	165.3,36.3 "/>
<polygon class="st_stars" points="142,26.9 140.1,25.8 142.3,25.5 142.7,23.5 143.6,25.4 145.8,25.2 144.1,26.7 145,28.7 143.1,27.6 
	141.5,29 "/>
<polygon class="st_stars" points="100.4,60.8 98.3,61 99.9,59.5 99.1,57.6 101,58.7 102.6,57.3 102.1,59.4 104,60.5 101.8,60.7 
	101.3,62.8 "/>
<polygon class="st_stars" points="731.3,151.3 735,155.7 729.4,154.3 726.5,159 726.1,153.4 720.6,152 725.8,149.9 725.5,144.2 
	729.2,148.5 734.4,146.5 "/>
<polygon class="st_stars" points="573.6,30.8 574.3,36.4 570.4,32.2 565.3,34.5 568.1,29.6 564.3,25.4 569.8,26.5 572.7,21.6 573.4,27.2 
	578.9,28.5 "/>
<polygon class="st_stars" points="694,131.8 696.1,132.4 694.1,133.2 694.2,135.3 692.8,133.6 690.8,134.4 692,132.6 690.6,130.9 
	692.7,131.4 693.9,129.6 "/>
<polygon class="st_stars" points="834.3,59.6 838.2,55.4 837.4,61.1 842.4,63.5 836.9,64.5 836.2,70.2 833.5,65.2 827.9,66.2 831.7,62 
	829.1,57 "/>
<polygon class="st_stars" points="610.4,379 615.4,381.7 609.7,382.4 608.6,387.9 606.3,382.7 600.6,383.4 604.8,379.5 602.5,374.4 
	607.4,377.1 611.6,373.4 "/>
<polygon class="st_stars" points="648.9,305.4 653.3,301.7 651.9,307.2 656.6,310.2 651,310.6 649.6,316.1 647.5,310.8 641.8,311.2 
	646.2,307.5 644.1,302.2 "/>
<polygon class="st_stars" points="682.4,309 684.1,307.6 683.6,309.7 685.4,310.9 683.2,311 682.7,313.1 681.9,311.1 679.7,311.2 
	681.4,309.8 680.6,307.8 "/>
<polygon class="st_stars" points="710,348.9 711.7,347.5 711.2,349.6 713,350.8 710.8,350.9 710.3,353 709.5,351 707.3,351.1 709,349.7 
	708.2,347.7 "/>
<polygon class="st_stars" points="679.4,365 681.1,363.6 680.5,365.7 682.3,366.9 680.2,367 679.7,369.1 678.9,367.1 676.7,367.2 
	678.3,365.8 677.6,363.8 "/>
<polygon class="st_stars" points="746.7,173 748.4,171.6 747.8,173.8 749.6,174.9 747.5,175.1 746.9,177.2 746.1,175.1 743.9,175.2 
	745.6,173.9 744.8,171.8 "/>
<polygon class="st_stars" points="716,188.9 717.6,187.5 717.1,189.7 718.9,190.8 716.7,190.9 716.2,193.1 715.4,191 713.2,191.1 
	714.9,189.7 714.1,187.7 "/>
<polygon class="st_stars" points="709.2,261.2 709.9,263.3 708.1,262.1 706.4,263.3 707,261.3 705.2,260 707.4,260 708.1,257.9 
	708.8,260 711,260 "/>
<polygon class="st_stars" points="704.9,226.9 705.6,229 703.8,227.7 702.1,229 702.8,226.9 701,225.7 703.1,225.7 703.8,223.6 
	704.5,225.6 706.7,225.6 "/>
<polygon class="st_stars" points="765.5,224.5 767.7,224.3 766,225.7 766.8,227.7 765,226.6 763.3,228 763.8,225.9 762,224.7 
	764.2,224.5 764.7,222.4 "/>
<polygon class="st_stars" points="731.2,220.1 733.4,219.9 731.7,221.4 732.5,223.3 730.7,222.2 729,223.6 729.5,221.5 727.7,220.4 
	729.8,220.2 730.4,218.1 "/>
<polygon class="st_stars" points="663.8,272.5 663.9,274.6 662.5,272.9 660.5,273.7 661.7,271.9 660.3,270.2 662.4,270.8 663.6,268.9 
	663.8,271.1 665.8,271.7 "/>
<polygon class="st_stars" points="669.2,238.3 669.3,240.5 667.9,238.8 665.9,239.5 667.1,237.7 665.7,236 667.8,236.6 669,234.8 
	669.2,236.9 671.2,237.5 "/>
<polygon class="st_stars" points="645.1,206.9 643,206.2 645.1,205.5 645,203.4 646.3,205.1 648.4,204.4 647.2,206.2 648.5,208 
	646.4,207.3 645.1,209.1 "/>
<polygon class="st_stars" points="635,232.1 633.9,234 633.7,231.8 631.6,231.3 633.6,230.4 633.5,228.3 634.9,229.9 636.9,229.1 
	635.8,231 637.2,232.6 "/>
<polygon class="st_stars" points="606,282.9 606.1,285.1 604.7,283.4 602.7,284.1 603.9,282.3 602.5,280.6 604.6,281.2 605.8,279.3 
	605.9,281.5 608,282.1 "/>
<polygon class="st_stars" points="581.9,251.5 579.8,250.8 581.8,250.1 581.8,248 583.1,249.7 585.2,249 583.9,250.8 585.2,252.6 
	583.1,251.9 581.9,253.7 "/>
<polygon class="st_stars" points="571.8,276.7 570.7,278.6 570.5,276.4 568.4,275.9 570.4,275 570.2,272.9 571.7,274.5 573.7,273.7 
	572.5,275.6 573.9,277.2 "/>
<polygon class="st_stars" points="604.5,319.2 604.7,321.3 603.3,319.6 601.3,320.4 602.5,318.6 601.1,316.9 603.2,317.5 604.4,315.6 
	604.5,317.8 606.6,318.4 "/>
<polygon class="st_stars" points="548.7,120.4 549.2,122.5 547.5,121.1 545.7,122.2 546.5,120.2 544.9,118.8 547,119 547.9,117 
	548.4,119.1 550.6,119.3 "/>
<polygon class="st_stars" points="579.6,165.6 577.4,165.3 579.3,164.2 579,162.1 580.5,163.6 582.5,162.6 581.5,164.5 583.1,166 
	580.9,165.8 580,167.7 "/>
<polygon class="st_stars" points="589.7,119.9 587.7,119 589.8,118.5 590,116.4 591.1,118.3 593.3,117.8 591.8,119.4 592.9,121.3 
	590.9,120.5 589.5,122.1 "/>
<polygon class="st_stars" points="617.9,139.9 615.9,139 618.1,138.5 618.3,136.4 619.4,138.3 621.5,137.8 620.1,139.4 621.2,141.3 
	619.2,140.5 617.7,142.1 "/>
<polygon class="st_stars" points="638.6,112 637.5,110.2 639.5,111 640.9,109.3 640.7,111.5 642.8,112.3 640.6,112.8 640.5,115 
	639.3,113.2 637.2,113.7 "/>
<polygon class="st_stars" points="217.6,262 219.1,263.6 216.9,263.2 215.9,265.1 215.6,262.9 213.5,262.6 215.4,261.6 215.1,259.4 
	216.7,261 218.6,260.1 "/>
<polygon class="st_stars" points="267.1,285.2 265.1,286.1 266.2,284.2 264.8,282.6 266.9,283.1 268,281.2 268.2,283.4 270.4,283.9 
	268.4,284.8 268.5,286.9 "/>
<polygon class="st_stars" points="252.7,240.8 250.5,241.1 252.1,239.5 251.2,237.6 253.1,238.6 254.7,237.1 254.3,239.3 256.2,240.4 
	254,240.6 253.6,242.8 "/>
<polygon class="st_stars" points="287.1,243.7 285,244 286.6,242.4 285.7,240.5 287.5,241.6 289.1,240.1 288.7,242.2 290.6,243.3 
	288.5,243.6 288,245.7 "/>
<polygon class="st_stars" points="290.8,209.2 288.9,208.2 291.1,207.8 291.4,205.7 292.4,207.7 294.5,207.3 293,208.9 294,210.8 
	292,209.8 290.5,211.3 "/>
<polygon class="st_stars" points="540.3,361.8 540.4,364 539,362.3 537,363 538.2,361.2 536.8,359.5 538.9,360.1 540.1,358.3 
	540.2,360.4 542.3,361 "/>
<polygon class="st_stars" points="538.9,398.1 539,400.3 537.6,398.5 535.6,399.3 536.8,397.5 535.4,395.8 537.5,396.4 538.7,394.5 
	538.8,396.7 540.9,397.3 "/>
<polygon class="st_stars" points="119,373.3 116.9,374.1 118.2,372.2 116.8,370.5 118.9,371.1 120.1,369.3 120.2,371.5 122.3,372.1 
	120.3,372.8 120.3,375 "/>
<polygon class="st_stars" points="78.2,409.7 78.1,407.5 79.4,409.3 81.5,408.6 80.2,410.4 81.5,412.1 79.4,411.5 78.1,413.2 78.1,411 
	76.1,410.4 "/>
<polygon class="st_stars" points="71,443.5 71,441.4 72.3,443.1 74.3,442.5 73.1,444.2 74.4,446 72.3,445.3 71,447.1 71,444.9 
	68.9,444.2 "/>
<polygon class="st_stars" points="124.7,413.9 125.3,411.8 126.1,413.9 128.2,413.8 126.5,415.1 127.3,417.2 125.5,415.9 123.7,417.3 
	124.3,415.2 122.5,413.9 "/>
<polygon class="st_stars" points="108.5,444.4 109.1,442.3 109.9,444.4 112,444.3 110.3,445.7 111,447.7 109.2,446.5 107.5,447.8 
	108.1,445.7 106.3,444.5 "/>
<polygon class="st_stars" points="138.8,461.4 140.5,460 139.9,462.1 141.7,463.3 139.6,463.4 139,465.5 138.2,463.5 136,463.6 
	137.7,462.2 136.9,460.2 "/>
<polygon class="st_stars" points="131.7,435 130.6,433.1 132.6,434 134,432.4 133.8,434.6 135.8,435.4 133.7,435.9 133.5,438.1 
	132.4,436.2 130.2,436.6 "/>
<polygon class="st_stars" points="1073.8,369.5 1075.2,367.8 1075.1,370 1077.1,370.7 1075,371.3 1074.9,373.5 1073.7,371.6 
	1071.6,372.2 1072.9,370.5 1071.8,368.7 "/>
<polygon class="st_stars" points="1047.1,391.4 1048.4,389.7 1048.3,391.9 1050.3,392.7 1048.3,393.2 1048.2,395.4 1047,393.6 
	1044.8,394.2 1046.2,392.5 1045,390.6 "/>
<polygon class="st_stars" points="1107.5,401.9 1109.3,400.6 1108.6,402.7 1110.3,404 1108.2,403.9 1107.5,406 1106.8,403.9 
	1104.7,403.9 1106.4,402.6 1105.8,400.5 "/>
<polygon class="st_stars" points="1075.8,415.6 1077.6,414.3 1076.9,416.4 1078.6,417.7 1076.4,417.6 1075.7,419.7 1075.1,417.6 
	1072.9,417.6 1074.7,416.3 1074,414.2 "/>
<polygon class="st_stars" points="782.9,577.9 786.2,582.6 780.8,580.8 777.5,585.2 777.5,579.6 772.1,577.8 777.5,576.1 777.6,570.4 
	781,575 786.3,573.4 "/>
<polygon class="st_stars" points="760.4,497 765.9,498.2 760.7,500.5 761.2,506.1 757.5,501.9 752.3,504.2 755.2,499.3 751.4,495 
	756.9,496.2 759.8,491.3 "/>
<polygon class="st_stars" points="628.2,554.8 628.4,560.5 624.9,556 619.7,557.9 622.8,553.3 619.3,548.8 624.8,550.3 628,545.6 
	628.2,551.3 633.6,552.9 "/>
<polygon class="st_stars" points="664.6,441.4 670,443.2 664.5,444.9 664.4,450.5 661.2,445.9 655.7,447.6 659.1,443 655.9,438.4 
	661.3,440.2 664.7,435.7 "/>
<polygon class="st_stars" points="680.3,483.2 682.4,483.9 680.3,484.6 680.3,486.7 679.1,484.9 677,485.6 678.3,483.9 677,482.1 
	679.1,482.7 680.4,481 "/>
<polygon class="st_stars" points="660.8,527.6 662.9,528.3 660.8,529 660.7,531.1 659.5,529.3 657.4,530 658.7,528.2 657.4,526.4 
	659.5,527.1 660.8,525.4 "/>
<polygon class="st_stars" points="631,509.9 633.1,510.6 631,511.3 631,513.4 629.7,511.7 627.7,512.3 629,510.6 627.7,508.8 
	629.8,509.5 631.1,507.8 "/>
<polygon class="st_stars" points="710.2,572.6 712,571.4 711.3,573.5 713,574.7 710.8,574.7 710.1,576.8 709.5,574.7 707.3,574.6 
	709.1,573.4 708.5,571.3 "/>
<polygon class="st_stars" points="678.4,586.2 680.2,584.9 679.5,587 681.2,588.3 679,588.3 678.3,590.3 677.7,588.2 675.5,588.2 
	677.3,586.9 676.7,584.8 "/>
<polygon class="st_stars" points="725.2,625.3 727.3,625.3 725.6,626.6 726.3,628.7 724.5,627.4 722.7,628.7 723.4,626.6 721.6,625.3 
	723.8,625.3 724.5,623.3 "/>
<polygon class="st_stars" points="691.3,618.4 693.5,618.4 691.7,619.7 692.4,621.7 690.6,620.5 688.8,621.8 689.5,619.7 687.7,618.4 
	689.9,618.4 690.6,616.3 "/>
<polygon class="st_stars" points="786.3,610.2 785.8,608.1 787.5,609.6 789.3,608.5 788.4,610.5 790.1,611.9 787.9,611.7 787,613.7 
	786.5,611.6 784.4,611.3 "/>
<polygon class="st_stars" points="1104.3,507.8 1105.3,513.4 1101.2,509.4 1096.3,512 1098.8,506.9 1094.7,503 1100.3,503.8 
	1102.9,498.7 1103.9,504.3 1109.4,505.2 "/>
<polygon class="st_stars" points="759.4,387.4 759.5,389.6 758.1,387.9 756.1,388.6 757.3,386.8 755.9,385.1 758,385.7 759.2,383.8 
	759.3,386 761.4,386.6 "/>
<polygon class="st_stars" points="884.3,487.5 884.4,489.6 883,487.9 881,488.7 882.2,486.9 880.8,485.2 882.9,485.8 884.2,483.9 
	884.3,486.1 886.4,486.7 "/>
<polygon class="st_stars" points="830.2,438.9 828.1,438.3 830.2,437.6 830.2,435.4 831.5,437.2 833.6,436.5 832.3,438.3 833.6,440 
	831.5,439.4 830.2,441.1 "/>
<polygon class="st_stars" points="860.4,456 858.3,455.3 860.3,454.6 860.3,452.5 861.6,454.2 863.7,453.5 862.4,455.3 863.7,457 
	861.6,456.4 860.3,458.1 "/>
<polygon class="st_stars" points="826.2,506.1 825.1,507.9 824.9,505.7 822.8,505.2 824.8,504.4 824.7,502.2 826.1,503.9 828.1,503.1 
	827,504.9 828.3,506.6 "/>
<polygon class="st_stars" points="850.2,481.1 849,483 848.8,480.8 846.8,480.3 848.8,479.5 848.6,477.3 850,479 852.1,478.1 850.9,480 
	852.3,481.7 "/>
<polygon class="st_stars" points="185.9,564 189,559.2 189.4,564.9 194.7,566.3 189.5,568.4 189.8,574.1 186.2,569.7 180.9,571.7 
	183.9,566.9 180.4,562.5 "/>
<polygon class="st_stars" points="146.1,650.3 145.1,644.7 149.2,648.7 154.1,646.2 151.6,651.2 155.7,655.2 150.1,654.3 147.5,659.4 
	146.5,653.8 141,652.9 "/>
<polygon class="st_stars" points="315.8,532 313.7,526.7 318.6,529.7 322.9,526.2 321.5,531.7 326.3,534.7 320.6,535.1 319.1,540.6 
	317,535.3 311.4,535.5 "/>
<polygon class="st_stars" points="287.3,615.4 282.2,612.9 287.8,611.9 288.7,606.4 291.3,611.4 296.9,610.4 292.9,614.5 295.5,619.5 
	290.4,617 286.4,621 "/>
<polygon class="st_stars" points="439.1,638 440.3,632.4 442.6,637.6 448.1,637.1 444,640.8 446.3,646 441.4,643.2 437.1,647 
	438.2,641.4 433.4,638.5 "/>
<polygon class="st_stars" points="356.8,654.2 354.9,653.1 357.1,652.9 357.7,650.9 358.4,652.9 360.6,652.8 358.9,654.1 359.7,656.2 
	357.9,655 356.2,656.3 "/>
<polygon class="st_stars" points="386.6,616 384.8,614.8 387,614.7 387.5,612.6 388.3,614.6 390.5,614.5 388.8,615.9 389.6,617.9 
	387.7,616.8 386,618.1 "/>
<polygon class="st_stars" points="411.1,640.4 409.3,639.2 411.5,639.1 412,637 412.8,639.1 415,638.9 413.3,640.3 414.1,642.3 
	412.2,641.2 410.5,642.5 "/>
<polygon class="st_stars" points="207.8,633.5 206,632.3 208.2,632.2 208.8,630.1 209.5,632.2 211.7,632 210,633.4 210.8,635.5 
	208.9,634.3 207.2,635.6 "/>
<polygon class="st_stars" points="232.2,658.1 230.3,656.9 232.5,656.8 233.1,654.7 233.9,656.7 236,656.6 234.3,658 235.1,660 
	233.3,658.9 231.6,660.2 "/>
<polygon class="st_stars" points="303.2,643 305,641.6 304.3,643.7 306,645 303.9,645 303.2,647.1 302.5,645 300.4,645 302.1,643.7 
	301.4,641.6 "/>
<polygon class="st_stars" points="271.7,657.3 273.5,656 272.8,658.1 274.6,659.3 272.4,659.3 271.7,661.4 271.1,659.3 268.9,659.3 
	270.6,658 270,656 "/>
<polygon class="st_stars" points="251.3,600.2 250.5,598.2 252.3,599.3 254,597.9 253.5,600 255.3,601.2 253.1,601.3 252.6,603.5 
	251.8,601.4 249.6,601.6 "/>
<polygon class="st_stars" points="257.4,634.2 256.5,632.2 258.4,633.4 260.1,632 259.5,634.1 261.4,635.2 259.2,635.4 258.7,637.5 
	257.8,635.5 255.7,635.6 "/>
<polygon class="st_stars" points="554.5,651.6 552.3,651.6 554.1,650.3 553.4,648.2 555.1,649.5 556.9,648.2 556.2,650.3 558,651.6 
	555.8,651.6 555.1,653.7 "/>
<polygon class="st_stars" points="295.8,496.8 294,498 294.7,496 293,494.6 295.2,494.7 295.9,492.7 296.5,494.8 298.7,494.8 
	296.9,496.1 297.5,498.2 "/>
<polygon class="st_stars" points="496,653.1 494.2,654.3 494.9,652.2 493.2,650.9 495.4,651 496.1,648.9 496.7,651 498.9,651.1 
	497.1,652.3 497.7,654.4 "/>
<polygon class="st_stars" points="510.3,616.2 509.8,614 511.5,615.5 513.3,614.3 512.5,616.3 514.2,617.7 512,617.6 511.1,619.6 
	510.6,617.5 508.4,617.3 "/>
<polygon class="st_stars" points="483.5,620.6 481.4,620.6 483.1,619.3 482.5,617.3 484.2,618.6 486,617.3 485.3,619.4 487.1,620.7 
	484.9,620.7 484.2,622.7 "/>
<polygon class="st_stars" points="214.7,548.9 212.9,550.2 213.7,548.1 212,546.8 214.1,546.9 214.9,544.8 215.5,546.9 217.7,547 
	215.9,548.2 216.4,550.3 "/>
<polygon class="st_stars" points="246.7,535.8 244.9,537.1 245.7,535 244,533.7 246.1,533.7 246.9,531.7 247.5,533.8 249.7,533.9 
	247.9,535.1 248.4,537.2 "/>
<polygon class="st_stars" points="261.1,498.9 260.5,496.8 262.2,498.2 264,497.1 263.2,499.1 264.9,500.5 262.7,500.3 261.9,502.4 
	261.4,500.3 259.2,500.1 "/>
<polygon class="st_stars" points="234.3,503.4 232.1,503.4 233.9,502.1 233.3,500.1 235,501.4 236.8,500.1 236.1,502.2 237.8,503.5 
	235.7,503.5 234.9,505.5 "/>
<polygon class="st_stars" points="475.3,576 475.6,578.1 474.1,576.6 472.2,577.5 473.2,575.6 471.6,574.1 473.8,574.4 474.8,572.5 
	475.1,574.6 477.3,575 "/>
<polygon class="st_stars" points="477,541.4 477.4,543.6 475.8,542 473.9,543 474.9,541.1 473.4,539.5 475.5,539.9 476.5,537.9 
	476.9,540.1 479,540.4 "/>
<polygon class="st_stars" points="449.8,512.8 447.6,512.3 449.6,511.4 449.4,509.3 450.8,510.9 452.8,509.9 451.7,511.9 453.2,513.5 
	451.1,513.1 450,514.9 "/>
<polygon class="st_stars" points="442.4,538.9 441.5,540.9 441.1,538.7 439,538.4 440.9,537.4 440.5,535.2 442,536.8 444,535.7 
	443,537.7 444.6,539.2 "/>
<polygon class="st_stars" points="513.4,455.7 509.9,451.2 515.4,452.8 518.6,448.3 518.7,453.9 524.2,455.6 518.8,457.4 518.9,463.1 
	515.4,458.6 510.1,460.4 "/>
<polygon class="st_stars" points="509.8,581.9 504.2,580.8 509.3,578.4 508.7,572.8 512.5,576.9 517.7,574.5 514.9,579.5 518.8,583.7 
	513.2,582.6 510.4,587.5 "/>
<polygon class="st_stars" points="573.7,590.2 571.6,589.5 573.6,588.8 573.6,586.7 574.9,588.4 577,587.7 575.7,589.5 577,591.2 
	574.9,590.6 573.6,592.4 "/>
<polygon class="st_stars" points="592.1,545.3 590,544.7 592.1,543.9 592,541.8 593.3,543.5 595.4,542.8 594.1,544.6 595.4,546.4 
	593.4,545.7 592.1,547.5 "/>
<polygon class="st_stars" points="464.2,670.7 462.4,671.9 463.2,669.8 461.5,668.5 463.6,668.6 464.4,666.5 465,668.6 467.2,668.7 
	465.4,670 465.9,672 "/>
<polygon class="st_stars" points="443.1,674.9 442.6,672.8 444.3,674.2 446.1,673.1 445.3,675.1 447,676.5 444.8,676.3 444,678.3 
	443.4,676.2 441.3,676.1 "/>
<polygon class="st_stars" points="374.4,519.4 376,520.8 373.8,520.6 373,522.6 372.5,520.5 370.3,520.3 372.2,519.2 371.8,517 
	373.4,518.5 375.3,517.4 "/>
<polygon class="st_stars" points="444.8,585.2 446.5,586.6 444.3,586.4 443.4,588.4 443,586.2 440.8,586.1 442.7,584.9 442.2,582.8 
	443.8,584.2 445.7,583.2 "/>
<polygon class="st_stars" points="424.3,557.4 425.9,558.8 423.7,558.6 422.8,560.5 422.4,558.4 420.2,558.2 422.1,557.1 421.6,555 
	423.3,556.4 425.1,555.4 "/>
<polygon class="st_stars" points="385,552.5 383.1,553.6 384,551.6 382.5,550.1 384.6,550.4 385.6,548.4 385.9,550.6 388.1,550.9 
	386.2,551.9 386.5,554 "/>
<polygon class="st_stars" points="395.9,577.4 396.4,579.5 394.7,578.1 392.9,579.2 393.7,577.2 392.1,575.8 394.2,576 395.1,573.9 
	395.6,576 397.8,576.2 "/>
<polygon class="st_stars" points="786.4,28 788.1,26.7 787.6,28.8 789.4,29.9 787.2,30.1 786.7,32.2 785.9,30.1 783.7,30.3 785.3,28.9 
	784.6,26.8 "/>
<polygon class="st_stars" points="779.7,100.4 780.4,102.4 778.6,101.2 776.9,102.5 777.5,100.4 775.7,99.2 777.9,99.1 778.5,97 
	779.3,99.1 781.4,99.1 "/>
<polygon class="st_stars" points="775.4,66 776.1,68.1 774.3,66.9 772.6,68.1 773.2,66.1 771.4,64.8 773.6,64.8 774.3,62.7 775,64.8 
	777.2,64.7 "/>
<polygon class="st_stars" points="801.7,59.2 803.8,59 802.2,60.5 803,62.5 801.2,61.3 799.5,62.8 800,60.6 798.1,59.5 800.3,59.3 
	800.8,57.2 "/>
<polygon class="st_stars" points="734.3,111.6 734.4,113.8 733,112.1 731,112.8 732.2,111 730.8,109.3 732.9,109.9 734.1,108 
	734.2,110.2 736.3,110.8 "/>
<polygon class="st_stars" points="739.7,77.4 739.8,79.6 738.4,77.9 736.4,78.6 737.6,76.8 736.2,75.1 738.3,75.7 739.5,73.9 739.6,76 
	741.7,76.6 "/>
<polygon class="st_stars" points="715.6,46 713.5,45.4 715.5,44.7 715.5,42.5 716.8,44.3 718.9,43.5 717.6,45.3 718.9,47.1 716.8,46.5 
	715.6,48.2 "/>
<polygon class="st_stars" points="400.9,98.2 402.6,96.8 402.1,99 403.9,100.1 401.7,100.2 401.2,102.4 400.4,100.3 398.2,100.4 
	399.9,99 399.1,97 "/>
<polygon class="st_stars" points="394.2,170.6 394.9,172.6 393.1,171.4 391.4,172.6 392,170.6 390.2,169.3 392.4,169.3 393.1,167.2 
	393.8,169.3 396,169.3 "/>
<polygon class="st_stars" points="389.9,136.2 390.6,138.3 388.8,137 387.1,138.3 387.7,136.3 386,135 388.1,135 388.8,132.9 
	389.5,134.9 391.7,134.9 "/>
<polygon class="st_stars" points="416.2,129.4 418.4,129.2 416.7,130.7 417.5,132.6 415.7,131.5 414,132.9 414.5,130.8 412.7,129.7 
	414.8,129.5 415.4,127.4 "/>
<polygon class="st_stars" points="348.8,181.8 348.9,184 347.5,182.2 345.5,183 346.7,181.2 345.3,179.5 347.4,180.1 348.6,178.2 
	348.8,180.4 350.8,181 "/>
<polygon class="st_stars" points="354.2,147.6 354.3,149.8 352.9,148.1 350.9,148.8 352.1,147 350.7,145.3 352.8,145.9 354,144.1 
	354.1,146.2 356.2,146.8 "/>
<polygon class="st_stars" points="330.1,116.2 328,115.6 330.1,114.8 330,112.7 331.3,114.4 333.4,113.7 332.1,115.5 333.4,117.3 
	331.4,116.6 330.1,118.4 "/>
<polygon class="st_stars" points="1015.2,480.4 1016.9,479 1016.4,481.2 1018.1,482.3 1016,482.5 1015.4,484.6 1014.6,482.5 
	1012.5,482.6 1014.1,481.3 1013.4,479.2 "/>
<polygon class="st_stars" points="1008.5,552.8 1009.2,554.8 1007.4,553.6 1005.7,554.9 1006.3,552.8 1004.5,551.5 1006.7,551.5 
	1007.3,549.4 1008.1,551.5 1010.2,551.5 "/>
<polygon class="st_stars" points="1004.2,518.4 1004.9,520.5 1003.1,519.3 1001.4,520.5 1002,518.5 1000.2,517.2 1002.4,517.2 
	1003,515.1 1003.8,517.1 1005.9,517.1 "/>
<polygon class="st_stars" points="1030.4,511.6 1032.6,511.4 1031,512.9 1031.8,514.8 1029.9,513.7 1028.3,515.2 1028.8,513 
	1026.9,511.9 1029.1,511.7 1029.6,509.6 "/>
<polygon class="st_stars" points="963,564 963.2,566.2 961.8,564.5 959.8,565.2 961,563.4 959.6,561.7 961.7,562.3 962.9,560.4 
	963,562.6 965.1,563.2 "/>
<polygon class="st_stars" points="968.4,529.8 968.6,532 967.2,530.3 965.2,531 966.4,529.2 965,527.5 967.1,528.1 968.3,526.3 
	968.4,528.4 970.5,529 "/>
<polygon class="st_stars" points="944.4,498.4 942.2,497.8 944.3,497 944.3,494.9 945.6,496.6 947.7,495.9 946.4,497.7 947.7,499.5 
	945.6,498.8 944.4,500.6 "/>
<polygon class="st_stars" points="995.7,445.1 997.5,446.3 995.3,446.4 994.6,448.4 993.9,446.3 991.8,446.3 993.5,445.1 992.8,443 
	994.6,444.2 996.4,443 "/>
<polygon class="st_stars" points="924,457.1 922.2,458.3 923,456.2 921.3,454.9 923.5,455 924.2,452.9 924.8,455 927,455.1 925.2,456.4 
	925.8,458.4 "/>
<polygon class="st_stars" points="956.1,444.1 954.3,445.4 955.1,443.3 953.4,442 955.5,442.1 956.3,440 956.9,442.1 959.1,442.2 
	957.3,443.4 957.8,445.5 "/>
<polygon class="st_stars" points="969.4,467.8 970.2,469.8 968.4,468.6 966.7,469.9 967.3,467.8 965.5,466.6 967.7,466.6 968.3,464.5 
	969,466.5 971.2,466.5 "/>
<polygon class="st_stars" points="901.6,416 899.5,416.7 900.8,415 899.5,413.2 901.6,413.9 902.9,412.1 902.9,414.3 904.9,415 
	902.9,415.7 902.8,417.8 "/>
<polygon class="st_stars" points="936,412.5 933.9,413.2 935.2,411.4 934,409.7 936,410.3 937.3,408.6 937.3,410.8 939.4,411.4 
	937.3,412.1 937.3,414.3 "/>
<polygon class="st_stars" points="960.2,381.2 960.2,379 961.5,380.8 963.5,380.2 962.2,381.9 963.4,383.8 961.4,383 960,384.7 
	960.1,382.5 958,381.7 "/>
<polygon class="st_stars" points="1193,610.4 1194.2,612.2 1192.2,611.4 1190.8,613.1 1190.9,610.9 1188.9,610.1 1191,609.6 
	1191.2,607.4 1192.3,609.2 1194.5,608.7 "/>
<polygon class="st_stars" points="1122,595.1 1119.9,595.6 1121.3,593.9 1120.3,592.1 1122.2,593 1123.7,591.3 1123.5,593.5 
	1125.5,594.4 1123.3,594.9 1123.1,597 "/>
<polygon class="st_stars" points="1156.6,594.9 1154.5,595.4 1155.9,593.8 1154.9,591.9 1156.8,592.8 1158.3,591.1 1158.1,593.3 
	1160.1,594.2 1157.9,594.7 1157.7,596.8 "/>
<polygon class="st_stars" points="1160.3,621.8 1160.2,624 1159,622.2 1156.9,622.8 1158.2,621.1 1157,619.3 1159.1,620 1160.4,618.3 
	1160.4,620.5 1162.4,621.3 "/>
<polygon class="st_stars" points="1116.3,548.7 1114.1,548.6 1115.9,547.4 1115.4,545.3 1117.1,546.7 1118.9,545.5 1118.1,547.6 
	1119.8,549 1117.6,548.8 1116.8,550.8 "/>
<polygon class="st_stars" points="1149.6,558.1 1147.4,558 1149.2,556.8 1148.7,554.7 1150.4,556.1 1152.2,554.9 1151.4,557 
	1153.1,558.4 1150.9,558.2 1150.1,560.2 "/>
<polygon class="st_stars" points="1183.6,537.9 1184.5,535.9 1184.9,538 1187,538.3 1185.2,539.3 1185.6,541.5 1184,540 1182.1,541.1 
	1183,539.1 1181.4,537.6 "/>
<polygon class="st_stars" points="1068.7,615.3 1070.4,613.9 1069.9,616 1071.7,617.2 1069.5,617.3 1069,619.4 1068.2,617.4 1066,617.5 
	1067.7,616.1 1066.9,614.1 "/>
<polygon class="st_stars" points="1057.7,653.3 1058.4,655.4 1056.6,654.1 1054.9,655.4 1055.5,653.3 1053.8,652.1 1055.9,652 
	1056.6,650 1057.3,652 1059.5,652 "/>
<polygon class="st_stars" points="1084,646.5 1086.2,646.3 1084.5,647.7 1085.3,649.7 1083.5,648.6 1081.8,650 1082.3,647.9 
	1080.5,646.7 1082.6,646.5 1083.2,644.4 "/>
<polygon class="st_stars" points="1022,664.7 1022.1,666.8 1020.7,665.1 1018.7,665.9 1019.9,664.1 1018.5,662.4 1020.6,663 
	1021.8,661.1 1021.9,663.3 1024,663.9 "/>
<polygon class="st_stars" points="997.9,633.3 995.8,632.6 997.9,631.9 997.8,629.8 999.1,631.5 1001.2,630.8 999.9,632.6 1001.2,634.3 
	999.2,633.7 997.9,635.5 "/>
<polygon class="st_stars" points="29.7,538 31.4,536.6 30.9,538.8 32.7,539.9 30.5,540.1 30,542.2 29.2,540.1 27,540.2 28.7,538.9 
	27.9,536.8 "/>
<polygon class="st_stars" points="23,610.4 23.7,612.4 21.9,611.2 20.2,612.5 20.8,610.4 19,609.1 21.2,609.1 21.9,607 22.6,609.1 
	24.8,609.1 "/>
<polygon class="st_stars" points="18.7,576 19.4,578.1 17.6,576.9 15.9,578.1 16.5,576.1 14.8,574.8 16.9,574.8 17.6,572.7 18.3,574.7 
	20.5,574.7 "/>
<polygon class="st_stars" points="45,569.2 47.2,569 45.5,570.5 46.3,572.4 44.5,571.3 42.8,572.8 43.3,570.6 41.5,569.5 43.6,569.3 
	44.2,567.2 "/>
<polygon class="st_stars" points="905.8,524 907.5,522.6 906.9,524.7 908.7,525.9 906.6,526 906,528.1 905.2,526.1 903,526.2 
	904.7,524.8 904,522.8 "/>
<polygon class="st_stars" points="906.2,606.7 907,609.2 904.9,607.7 903,609.3 903.7,606.7 901.7,605.2 904.2,605.1 904.9,602.5 
	905.7,605.1 908.2,605.1 "/>
<polygon class="st_stars" points="901.3,564.1 902.1,566.7 900,565.1 898.1,566.7 898.8,564.1 896.7,562.6 899.2,562.5 900,560 
	900.8,562.5 903.3,562.5 "/>
<polygon class="st_stars" points="931.4,555.7 933.9,555.4 932,557.2 932.9,559.7 930.8,558.3 928.9,560 929.5,557.4 927.4,556 
	929.9,555.7 930.5,553.1 "/>
<polygon class="st_stars" points="854.1,620.5 854.3,623.3 852.7,621.2 850.4,622.1 851.7,619.8 850.2,617.7 852.6,618.4 854,616.2 
	854.1,618.9 856.5,619.6 "/>
<polygon class="st_stars" points="860.3,578.2 860.5,580.9 858.9,578.8 856.6,579.7 857.9,577.5 856.3,575.4 858.8,576.1 860.1,573.8 
	860.3,576.5 862.7,577.2 "/>
<polygon class="st_stars" points="834.9,542 832.8,541.3 834.9,540.6 834.9,538.5 836.2,540.2 838.2,539.5 837,541.3 838.3,543 
	836.2,542.4 834.9,544.2 "/>
</svg>
